  0
SECTION
  2
HEADER
  9
$ACADVER
  1
AC1009
  9
$FILLMODE
 70
 0
  9
$SPLFRAME
 70
 1
  9
$EXTMIN
 10
0
 20
0
 30
0.0
  9
$EXTMAX
 10
41.6667
 20
41.6667
 30
0.0
  0
ENDSEC
  0
SECTION
  2
TABLES
  0
TABLE
  2
LAYER
 70
1
  0
LAYER
  2
0
 70
     0
 62
     7
  6
CONTINUOUS
  0
ENDTAB
  0
ENDSEC
  0
SECTION
  2
ENTITIES
  0
POLYLINE
  8
0
 62
     0
 66
     1
 10
0
 20
0
 30
0.0
 40
0.37
 41
0.37
  0
VERTEX
  8
0
 10
6.39464
 20
7.29243
 30
0.0
 40
0.00513889
 41
0.00513889
  0
VERTEX
  8
0
 10
6.4025
 20
7.30035
 30
0.0
 40
0.00513889
 41
0.00513889
  0
SEQEND
 8
0
  0
POLYLINE
  8
0
 62
     0
 66
     1
 10
0
 20
0
 30
0.0
 40
0.37
 41
0.37
  0
VERTEX
  8
0
 10
6.33892
 20
7.29243
 30
0.0
 40
0.00513889
 41
0.00513889
  0
VERTEX
  8
0
 10
6.40072
 20
7.35411
 30
0.0
 40
0.00513889
 41
0.00513889
  0
SEQEND
 8
0
  0
POLYLINE
  8
0
 62
     0
 66
     1
 10
0
 20
0
 30
0.0
 40
0.37
 41
0.37
  0
VERTEX
  8
0
 10
6.28336
 20
7.29243
 30
0.0
 40
0.00513889
 41
0.00513889
  0
VERTEX
  8
0
 10
6.39893
 20
7.40799
 30
0.0
 40
0.00513889
 41
0.00513889
  0
SEQEND
 8
0
  0
POLYLINE
  8
0
 62
     0
 66
     1
 10
0
 20
0
 30
0.0
 40
0.37
 41
0.37
  0
VERTEX
  8
0
 10
6.22765
 20
7.29243
 30
0.0
 40
0.00513889
 41
0.00513889
  0
VERTEX
  8
0
 10
6.39697
 20
7.46186
 30
0.0
 40
0.00513889
 41
0.00513889
  0
SEQEND
 8
0
  0
POLYLINE
  8
0
 62
     0
 66
     1
 10
0
 20
0
 30
0.0
 40
0.37
 41
0.37
  0
VERTEX
  8
0
 10
6.17199
 20
7.29243
 30
0.0
 40
0.00513889
 41
0.00513889
  0
VERTEX
  8
0
 10
6.34907
 20
7.46967
 30
0.0
 40
0.00513889
 41
0.00513889
  0
SEQEND
 8
0
  0
POLYLINE
  8
0
 62
     0
 66
     1
 10
0
 20
0
 30
0.0
 40
0.37
 41
0.37
  0
VERTEX
  8
0
 10
6.11626
 20
7.29243
 30
0.0
 40
0.00513889
 41
0.00513889
  0
VERTEX
  8
0
 10
6.29335
 20
7.46967
 30
0.0
 40
0.00513889
 41
0.00513889
  0
SEQEND
 8
0
  0
POLYLINE
  8
0
 62
     0
 66
     1
 10
0
 20
0
 30
0.0
 40
0.37
 41
0.37
  0
VERTEX
  8
0
 10
6.08242
 20
7.31424
 30
0.0
 40
0.00513889
 41
0.00513889
  0
VERTEX
  8
0
 10
6.23779
 20
7.46967
 30
0.0
 40
0.00513889
 41
0.00513889
  0
SEQEND
 8
0
  0
POLYLINE
  8
0
 62
     0
 66
     1
 10
0
 20
0
 30
0.0
 40
0.37
 41
0.37
  0
VERTEX
  8
0
 10
6.08242
 20
7.36996
 30
0.0
 40
0.00513889
 41
0.00513889
  0
VERTEX
  8
0
 10
6.18213
 20
7.46967
 30
0.0
 40
0.00513889
 41
0.00513889
  0
SEQEND
 8
0
  0
POLYLINE
  8
0
 62
     0
 66
     1
 10
0
 20
0
 30
0.0
 40
0.37
 41
0.37
  0
VERTEX
  8
0
 10
6.08242
 20
7.42563
 30
0.0
 40
0.00513889
 41
0.00513889
  0
VERTEX
  8
0
 10
6.12642
 20
7.46967
 30
0.0
 40
0.00513889
 41
0.00513889
  0
SEQEND
 8
0
  0
POLYLINE
  8
0
 62
     0
 66
     1
 10
0
 20
0
 30
0.0
 40
0.37
 41
0.37
  0
VERTEX
  8
0
 10
4.39031
 20
7.29243
 30
0.0
 40
0.00513889
 41
0.00513889
  0
VERTEX
  8
0
 10
4.42893
 20
7.33106
 30
0.0
 40
0.00513889
 41
0.00513889
  0
SEQEND
 8
0
  0
POLYLINE
  8
0
 62
     0
 66
     1
 10
0
 20
0
 30
0.0
 40
0.37
 41
0.37
  0
VERTEX
  8
0
 10
4.33464
 20
7.29243
 30
0.0
 40
0.00513889
 41
0.00513889
  0
VERTEX
  8
0
 10
4.42893
 20
7.38672
 30
0.0
 40
0.00513889
 41
0.00513889
  0
SEQEND
 8
0
  0
POLYLINE
  8
0
 62
     0
 66
     1
 10
0
 20
0
 30
0.0
 40
0.37
 41
0.37
  0
VERTEX
  8
0
 10
4.27892
 20
7.29243
 30
0.0
 40
0.00513889
 41
0.00513889
  0
VERTEX
  8
0
 10
4.42893
 20
7.44243
 30
0.0
 40
0.00513889
 41
0.00513889
  0
SEQEND
 8
0
  0
POLYLINE
  8
0
 62
     0
 66
     1
 10
0
 20
0
 30
0.0
 40
0.37
 41
0.37
  0
VERTEX
  8
0
 10
4.22319
 20
7.29243
 30
0.0
 40
0.00513889
 41
0.00513889
  0
VERTEX
  8
0
 10
4.40044
 20
7.46967
 30
0.0
 40
0.00513889
 41
0.00513889
  0
SEQEND
 8
0
  0
POLYLINE
  8
0
 62
     0
 66
     1
 10
0
 20
0
 30
0.0
 40
0.37
 41
0.37
  0
VERTEX
  8
0
 10
4.16754
 20
7.29243
 30
0.0
 40
0.00513889
 41
0.00513889
  0
VERTEX
  8
0
 10
4.34472
 20
7.46967
 30
0.0
 40
0.00513889
 41
0.00513889
  0
SEQEND
 8
0
  0
POLYLINE
  8
0
 62
     0
 66
     1
 10
0
 20
0
 30
0.0
 40
0.37
 41
0.37
  0
VERTEX
  8
0
 10
4.11182
 20
7.29243
 30
0.0
 40
0.00513889
 41
0.00513889
  0
VERTEX
  8
0
 10
4.28907
 20
7.46967
 30
0.0
 40
0.00513889
 41
0.00513889
  0
SEQEND
 8
0
  0
POLYLINE
  8
0
 62
     0
 66
     1
 10
0
 20
0
 30
0.0
 40
0.37
 41
0.37
  0
VERTEX
  8
0
 10
4.05615
 20
7.29243
 30
0.0
 40
0.00513889
 41
0.00513889
  0
VERTEX
  8
0
 10
4.23335
 20
7.46967
 30
0.0
 40
0.00513889
 41
0.00513889
  0
SEQEND
 8
0
  0
POLYLINE
  8
0
 62
     0
 66
     1
 10
0
 20
0
 30
0.0
 40
0.37
 41
0.37
  0
VERTEX
  8
0
 10
4.00043
 20
7.29243
 30
0.0
 40
0.00513889
 41
0.00513889
  0
VERTEX
  8
0
 10
4.17768
 20
7.46967
 30
0.0
 40
0.00513889
 41
0.00513889
  0
SEQEND
 8
0
  0
POLYLINE
  8
0
 62
     0
 66
     1
 10
0
 20
0
 30
0.0
 40
0.37
 41
0.37
  0
VERTEX
  8
0
 10
3.98557
 20
7.33328
 30
0.0
 40
0.00513889
 41
0.00513889
  0
VERTEX
  8
0
 10
4.12196
 20
7.46967
 30
0.0
 40
0.00513889
 41
0.00513889
  0
SEQEND
 8
0
  0
POLYLINE
  8
0
 62
     0
 66
     1
 10
0
 20
0
 30
0.0
 40
0.37
 41
0.37
  0
VERTEX
  8
0
 10
3.98893
 20
7.39214
 30
0.0
 40
0.00513889
 41
0.00513889
  0
VERTEX
  8
0
 10
4.06629
 20
7.46967
 30
0.0
 40
0.00513889
 41
0.00513889
  0
SEQEND
 8
0
  0
POLYLINE
  8
0
 62
     0
 66
     1
 10
0
 20
0
 30
0.0
 40
0.37
 41
0.37
  0
VERTEX
  8
0
 10
5.25558
 20
6.56022
 30
0.0
 40
0.00513889
 41
0.00513889
  0
VERTEX
  8
0
 10
5.21436
 20
6.56022
 30
0.0
 40
0.00513889
 41
0.00513889
  0
SEQEND
 8
0
  0
POLYLINE
  8
0
 62
     0
 66
     1
 10
0
 20
0
 30
0.0
 40
0.37
 41
0.37
  0
VERTEX
  8
0
 10
5.29699
 20
6.56022
 30
0.0
 40
0.00513889
 41
0.00513889
  0
VERTEX
  8
0
 10
5.25558
 20
6.56022
 30
0.0
 40
0.00513889
 41
0.00513889
  0
SEQEND
 8
0
  0
POLYLINE
  8
0
 62
     0
 66
     1
 10
0
 20
0
 30
0.0
 40
0.37
 41
0.37
  0
VERTEX
  8
0
 10
5.25558
 20
6.56022
 30
0.0
 40
0.00513889
 41
0.00513889
  0
VERTEX
  8
0
 10
5.1071
 20
6.56022
 30
0.0
 40
0.00513889
 41
0.00513889
  0
SEQEND
 8
0
  0
POLYLINE
  8
0
 62
     0
 66
     1
 10
0
 20
0
 30
0.0
 40
0.37
 41
0.37
  0
VERTEX
  8
0
 10
5.40408
 20
6.56022
 30
0.0
 40
0.00513889
 41
0.00513889
  0
VERTEX
  8
0
 10
5.25558
 20
6.56022
 30
0.0
 40
0.00513889
 41
0.00513889
  0
SEQEND
 8
0
  0
POLYLINE
  8
0
 62
     0
 66
     1
 10
0
 20
0
 30
0.0
 40
0.37
 41
0.37
  0
VERTEX
  8
0
 10
5.25558
 20
6.572
 30
0.0
 40
0.00513889
 41
0.00513889
  0
VERTEX
  8
0
 10
5.08669
 20
6.572
 30
0.0
 40
0.00513889
 41
0.00513889
  0
SEQEND
 8
0
  0
POLYLINE
  8
0
 62
     0
 66
     1
 10
0
 20
0
 30
0.0
 40
0.37
 41
0.37
  0
VERTEX
  8
0
 10
5.42458
 20
6.572
 30
0.0
 40
0.00513889
 41
0.00513889
  0
VERTEX
  8
0
 10
5.25558
 20
6.572
 30
0.0
 40
0.00513889
 41
0.00513889
  0
SEQEND
 8
0
  0
POLYLINE
  8
0
 62
     0
 66
     1
 10
0
 20
0
 30
0.0
 40
0.37
 41
0.37
  0
VERTEX
  8
0
 10
5.25558
 20
6.67828
 30
0.0
 40
0.00513889
 41
0.00513889
  0
VERTEX
  8
0
 10
5.02528
 20
6.67828
 30
0.0
 40
0.00513889
 41
0.00513889
  0
SEQEND
 8
0
  0
POLYLINE
  8
0
 62
     0
 66
     1
 10
0
 20
0
 30
0.0
 40
0.37
 41
0.37
  0
VERTEX
  8
0
 10
5.486
 20
6.67828
 30
0.0
 40
0.00513889
 41
0.00513889
  0
VERTEX
  8
0
 10
5.25558
 20
6.67828
 30
0.0
 40
0.00513889
 41
0.00513889
  0
SEQEND
 8
0
  0
POLYLINE
  8
0
 62
     0
 66
     1
 10
0
 20
0
 30
0.0
 40
0.37
 41
0.37
  0
VERTEX
  8
0
 10
5.02528
 20
6.87907
 30
0.0
 40
0.00513889
 41
0.00513889
  0
VERTEX
  8
0
 10
5.25558
 20
6.87907
 30
0.0
 40
0.00513889
 41
0.00513889
  0
SEQEND
 8
0
  0
POLYLINE
  8
0
 62
     0
 66
     1
 10
0
 20
0
 30
0.0
 40
0.37
 41
0.37
  0
VERTEX
  8
0
 10
5.25558
 20
6.87907
 30
0.0
 40
0.00513889
 41
0.00513889
  0
VERTEX
  8
0
 10
5.486
 20
6.87907
 30
0.0
 40
0.00513889
 41
0.00513889
  0
SEQEND
 8
0
  0
POLYLINE
  8
0
 62
     0
 66
     1
 10
0
 20
0
 30
0.0
 40
0.37
 41
0.37
  0
VERTEX
  8
0
 10
4.43186
 20
7.29243
 30
0.0
 40
0.00513889
 41
0.00513889
  0
VERTEX
  8
0
 10
4.53157
 20
6.9381
 30
0.0
 40
0.00513889
 41
0.00513889
  0
SEQEND
 8
0
  0
POLYLINE
  8
0
 62
     0
 66
     1
 10
0
 20
0
 30
0.0
 40
0.37
 41
0.37
  0
VERTEX
  8
0
 10
4.50792
 20
6.9381
 30
0.0
 40
0.00513889
 41
0.00513889
  0
VERTEX
  8
0
 10
4.53157
 20
6.9381
 30
0.0
 40
0.00513889
 41
0.00513889
  0
SEQEND
 8
0
  0
POLYLINE
  8
0
 62
     0
 66
     1
 10
0
 20
0
 30
0.0
 40
0.37
 41
0.37
  0
VERTEX
  8
0
 10
4.96029
 20
6.9381
 30
0.0
 40
0.00513889
 41
0.00513889
  0
VERTEX
  8
0
 10
4.96029
 20
6.90272
 30
0.0
 40
0.00513889
 41
0.00513889
  0
SEQEND
 8
0
  0
POLYLINE
  8
0
 62
     0
 66
     1
 10
0
 20
0
 30
0.0
 40
0.37
 41
0.37
  0
VERTEX
  8
0
 10
4.96029
 20
6.90272
 30
0.0
 40
0.00513889
 41
0.00513889
  0
VERTEX
  8
0
 10
4.77115
 20
6.90272
 30
0.0
 40
0.00513889
 41
0.00513889
  0
SEQEND
 8
0
  0
POLYLINE
  8
0
 62
     0
 66
     1
 10
0
 20
0
 30
0.0
 40
0.37
 41
0.37
  0
VERTEX
  8
0
 10
5.02046
 20
6.90272
 30
0.0
 40
0.00513889
 41
0.00513889
  0
VERTEX
  8
0
 10
4.96029
 20
6.90272
 30
0.0
 40
0.00513889
 41
0.00513889
  0
SEQEND
 8
0
  0
POLYLINE
  8
0
 62
     0
 66
     1
 10
0
 20
0
 30
0.0
 40
0.37
 41
0.37
  0
VERTEX
  8
0
 10
5.55089
 20
6.9381
 30
0.0
 40
0.00513889
 41
0.00513889
  0
VERTEX
  8
0
 10
5.55089
 20
6.90272
 30
0.0
 40
0.00513889
 41
0.00513889
  0
SEQEND
 8
0
  0
POLYLINE
  8
0
 62
     0
 66
     1
 10
0
 20
0
 30
0.0
 40
0.37
 41
0.37
  0
VERTEX
  8
0
 10
5.55089
 20
6.90272
 30
0.0
 40
0.00513889
 41
0.00513889
  0
VERTEX
  8
0
 10
5.49089
 20
6.90272
 30
0.0
 40
0.00513889
 41
0.00513889
  0
SEQEND
 8
0
  0
POLYLINE
  8
0
 62
     0
 66
     1
 10
0
 20
0
 30
0.0
 40
0.37
 41
0.37
  0
VERTEX
  8
0
 10
5.74018
 20
6.90272
 30
0.0
 40
0.00513889
 41
0.00513889
  0
VERTEX
  8
0
 10
5.55089
 20
6.90272
 30
0.0
 40
0.00513889
 41
0.00513889
  0
SEQEND
 8
0
  0
POLYLINE
  8
0
 62
     0
 66
     1
 10
0
 20
0
 30
0.0
 40
0.37
 41
0.37
  0
VERTEX
  8
0
 10
6.00319
 20
6.9381
 30
0.0
 40
0.00513889
 41
0.00513889
  0
VERTEX
  8
0
 10
5.9796
 20
6.9381
 30
0.0
 40
0.00513889
 41
0.00513889
  0
SEQEND
 8
0
  0
POLYLINE
  8
0
 62
     0
 66
     1
 10
0
 20
0
 30
0.0
 40
0.37
 41
0.37
  0
VERTEX
  8
0
 10
6.07949
 20
7.29243
 30
0.0
 40
0.00513889
 41
0.00513889
  0
VERTEX
  8
0
 10
5.9796
 20
6.9381
 30
0.0
 40
0.00513889
 41
0.00513889
  0
SEQEND
 8
0
  0
POLYLINE
  8
0
 62
     0
 66
     1
 10
0
 20
0
 30
0.0
 40
0.37
 41
0.37
  0
VERTEX
  8
0
 10
5.86376
 20
6.9381
 30
0.0
 40
0.00513889
 41
0.00513889
  0
VERTEX
  8
0
 10
5.9796
 20
6.9381
 30
0.0
 40
0.00513889
 41
0.00513889
  0
SEQEND
 8
0
  0
POLYLINE
  8
0
 62
     0
 66
     1
 10
0
 20
0
 30
0.0
 40
0.37
 41
0.37
  0
VERTEX
  8
0
 10
6.07949
 20
7.29243
 30
0.0
 40
0.00513889
 41
0.00513889
  0
VERTEX
  8
0
 10
6.07949
 20
7.46967
 30
0.0
 40
0.00513889
 41
0.00513889
  0
SEQEND
 8
0
  0
POLYLINE
  8
0
 62
     0
 66
     1
 10
0
 20
0
 30
0.0
 40
0.37
 41
0.37
  0
VERTEX
  8
0
 10
5.87657
 20
7.14106
 30
0.0
 40
0.00513889
 41
0.00513889
  0
VERTEX
  8
0
 10
5.87961
 20
7.46967
 30
0.0
 40
0.00513889
 41
0.00513889
  0
SEQEND
 8
0
  0
POLYLINE
  8
0
 62
     0
 66
     1
 10
0
 20
0
 30
0.0
 40
0.37
 41
0.37
  0
VERTEX
  8
0
 10
5.86393
 20
6.9381
 30
0.0
 40
0.00513889
 41
0.00513889
  0
VERTEX
  8
0
 10
5.86475
 20
6.94786
 30
0.0
 40
0.00513889
 41
0.00513889
  0
VERTEX
  8
0
 10
5.86561
 20
6.95768
 30
0.0
 40
0.00513889
 41
0.00513889
  0
VERTEX
  8
0
 10
5.86643
 20
6.96756
 30
0.0
 40
0.00513889
 41
0.00513889
  0
VERTEX
  8
0
 10
5.86724
 20
6.97726
 30
0.0
 40
0.00513889
 41
0.00513889
  0
VERTEX
  8
0
 10
5.86811
 20
6.98714
 30
0.0
 40
0.00513889
 41
0.00513889
  0
VERTEX
  8
0
 10
5.86876
 20
6.99701
 30
0.0
 40
0.00513889
 41
0.00513889
  0
VERTEX
  8
0
 10
5.86963
 20
7.00672
 30
0.0
 40
0.00513889
 41
0.00513889
  0
VERTEX
  8
0
 10
5.87033
 20
7.0166
 30
0.0
 40
0.00513889
 41
0.00513889
  0
VERTEX
  8
0
 10
5.87088
 20
7.02647
 30
0.0
 40
0.00513889
 41
0.00513889
  0
VERTEX
  8
0
 10
5.87158
 20
7.03618
 30
0.0
 40
0.00513889
 41
0.00513889
  0
VERTEX
  8
0
 10
5.87213
 20
7.04606
 30
0.0
 40
0.00513889
 41
0.00513889
  0
VERTEX
  8
0
 10
5.87267
 20
7.05588
 30
0.0
 40
0.00513889
 41
0.00513889
  0
VERTEX
  8
0
 10
5.87321
 20
7.06575
 30
0.0
 40
0.00513889
 41
0.00513889
  0
VERTEX
  8
0
 10
5.87381
 20
7.07547
 30
0.0
 40
0.00513889
 41
0.00513889
  0
VERTEX
  8
0
 10
5.87435
 20
7.08535
 30
0.0
 40
0.00513889
 41
0.00513889
  0
VERTEX
  8
0
 10
5.87478
 20
7.09521
 30
0.0
 40
0.00513889
 41
0.00513889
  0
VERTEX
  8
0
 10
5.87517
 20
7.10508
 30
0.0
 40
0.00513889
 41
0.00513889
  0
VERTEX
  8
0
 10
5.8756
 20
7.1149
 30
0.0
 40
0.00513889
 41
0.00513889
  0
VERTEX
  8
0
 10
5.87587
 20
7.12468
 30
0.0
 40
0.00513889
 41
0.00513889
  0
VERTEX
  8
0
 10
5.87631
 20
7.1345
 30
0.0
 40
0.00513889
 41
0.00513889
  0
VERTEX
  8
0
 10
5.87646
 20
7.14106
 30
0.0
 40
0.00513889
 41
0.00513889
  0
SEQEND
 8
0
  0
POLYLINE
  8
0
 62
     0
 66
     1
 10
0
 20
0
 30
0.0
 40
0.37
 41
0.37
  0
VERTEX
  8
0
 10
5.87657
 20
7.14106
 30
0.0
 40
0.00513889
 41
0.00513889
  0
VERTEX
  8
0
 10
5.86751
 20
7.13992
 30
0.0
 40
0.00513889
 41
0.00513889
  0
VERTEX
  8
0
 10
5.81863
 20
7.13894
 30
0.0
 40
0.00513889
 41
0.00513889
  0
SEQEND
 8
0
  0
POLYLINE
  8
0
 62
     0
 66
     1
 10
0
 20
0
 30
0.0
 40
0.37
 41
0.37
  0
VERTEX
  8
0
 10
5.81668
 20
6.9381
 30
0.0
 40
0.00513889
 41
0.00513889
  0
VERTEX
  8
0
 10
5.81863
 20
7.13894
 30
0.0
 40
0.00513889
 41
0.00513889
  0
SEQEND
 8
0
  0
POLYLINE
  8
0
 62
     0
 66
     1
 10
0
 20
0
 30
0.0
 40
0.37
 41
0.37
  0
VERTEX
  8
0
 10
5.81668
 20
6.9381
 30
0.0
 40
0.00513889
 41
0.00513889
  0
VERTEX
  8
0
 10
5.86376
 20
6.9381
 30
0.0
 40
0.00513889
 41
0.00513889
  0
SEQEND
 8
0
  0
POLYLINE
  8
0
 62
     0
 66
     1
 10
0
 20
0
 30
0.0
 40
0.37
 41
0.37
  0
VERTEX
  8
0
 10
4.69461
 20
6.9381
 30
0.0
 40
0.00513889
 41
0.00513889
  0
VERTEX
  8
0
 10
4.6474
 20
6.9381
 30
0.0
 40
0.00513889
 41
0.00513889
  0
SEQEND
 8
0
  0
POLYLINE
  8
0
 62
     0
 66
     1
 10
0
 20
0
 30
0.0
 40
0.37
 41
0.37
  0
VERTEX
  8
0
 10
4.69461
 20
6.9381
 30
0.0
 40
0.00513889
 41
0.00513889
  0
VERTEX
  8
0
 10
4.69282
 20
7.13894
 30
0.0
 40
0.00513889
 41
0.00513889
  0
SEQEND
 8
0
  0
POLYLINE
  8
0
 62
     0
 66
     1
 10
0
 20
0
 30
0.0
 40
0.37
 41
0.37
  0
VERTEX
  8
0
 10
4.63504
 20
7.14117
 30
0.0
 40
0.00513889
 41
0.00513889
  0
VERTEX
  8
0
 10
4.64393
 20
7.13992
 30
0.0
 40
0.00513889
 41
0.00513889
  0
VERTEX
  8
0
 10
4.69282
 20
7.13894
 30
0.0
 40
0.00513889
 41
0.00513889
  0
SEQEND
 8
0
  0
POLYLINE
  8
0
 62
     0
 66
     1
 10
0
 20
0
 30
0.0
 40
0.37
 41
0.37
  0
VERTEX
  8
0
 10
4.63504
 20
7.14117
 30
0.0
 40
0.00513889
 41
0.00513889
  0
VERTEX
  8
0
 10
4.63531
 20
7.13129
 30
0.0
 40
0.00513889
 41
0.00513889
  0
VERTEX
  8
0
 10
4.63574
 20
7.12147
 30
0.0
 40
0.00513889
 41
0.00513889
  0
VERTEX
  8
0
 10
4.63601
 20
7.1116
 30
0.0
 40
0.00513889
 41
0.00513889
  0
VERTEX
  8
0
 10
4.63639
 20
7.10189
 30
0.0
 40
0.00513889
 41
0.00513889
  0
VERTEX
  8
0
 10
4.63726
 20
7.08214
 30
0.0
 40
0.00513889
 41
0.00513889
  0
VERTEX
  8
0
 10
4.63781
 20
7.07226
 30
0.0
 40
0.00513889
 41
0.00513889
  0
VERTEX
  8
0
 10
4.63835
 20
7.06244
 30
0.0
 40
0.00513889
 41
0.00513889
  0
VERTEX
  8
0
 10
4.63889
 20
7.05268
 30
0.0
 40
0.00513889
 41
0.00513889
  0
VERTEX
  8
0
 10
4.63949
 20
7.04286
 30
0.0
 40
0.00513889
 41
0.00513889
  0
VERTEX
  8
0
 10
4.64003
 20
7.03299
 30
0.0
 40
0.00513889
 41
0.00513889
  0
VERTEX
  8
0
 10
4.64074
 20
7.02311
 30
0.0
 40
0.00513889
 41
0.00513889
  0
VERTEX
  8
0
 10
4.64128
 20
7.0134
 30
0.0
 40
0.00513889
 41
0.00513889
  0
VERTEX
  8
0
 10
4.64199
 20
7.00353
 30
0.0
 40
0.00513889
 41
0.00513889
  0
VERTEX
  8
0
 10
4.64279
 20
6.99365
 30
0.0
 40
0.00513889
 41
0.00513889
  0
VERTEX
  8
0
 10
4.6435
 20
6.98394
 30
0.0
 40
0.00513889
 41
0.00513889
  0
VERTEX
  8
0
 10
4.64432
 20
6.97412
 30
0.0
 40
0.00513889
 41
0.00513889
  0
VERTEX
  8
0
 10
4.64518
 20
6.96425
 30
0.0
 40
0.00513889
 41
0.00513889
  0
VERTEX
  8
0
 10
4.646
 20
6.95454
 30
0.0
 40
0.00513889
 41
0.00513889
  0
VERTEX
  8
0
 10
4.64686
 20
6.94467
 30
0.0
 40
0.00513889
 41
0.00513889
  0
VERTEX
  8
0
 10
4.6474
 20
6.9381
 30
0.0
 40
0.00513889
 41
0.00513889
  0
SEQEND
 8
0
  0
POLYLINE
  8
0
 62
     0
 66
     1
 10
0
 20
0
 30
0.0
 40
0.37
 41
0.37
  0
VERTEX
  8
0
 10
4.43186
 20
7.46967
 30
0.0
 40
0.00513889
 41
0.00513889
  0
VERTEX
  8
0
 10
4.43186
 20
7.29243
 30
0.0
 40
0.00513889
 41
0.00513889
  0
SEQEND
 8
0
  0
POLYLINE
  8
0
 62
     0
 66
     1
 10
0
 20
0
 30
0.0
 40
0.37
 41
0.37
  0
VERTEX
  8
0
 10
4.53157
 20
6.9381
 30
0.0
 40
0.00513889
 41
0.00513889
  0
VERTEX
  8
0
 10
4.6474
 20
6.9381
 30
0.0
 40
0.00513889
 41
0.00513889
  0
SEQEND
 8
0
  0
POLYLINE
  8
0
 62
     0
 66
     1
 10
0
 20
0
 30
0.0
 40
0.37
 41
0.37
  0
VERTEX
  8
0
 10
4.63504
 20
7.14117
 30
0.0
 40
0.00513889
 41
0.00513889
  0
VERTEX
  8
0
 10
4.63211
 20
7.46967
 30
0.0
 40
0.00513889
 41
0.00513889
  0
SEQEND
 8
0
  0
POLYLINE
  8
0
 62
     0
 66
     1
 10
0
 20
0
 30
0.0
 40
0.37
 41
0.37
  0
VERTEX
  8
0
 10
4.62185
 20
6.92036
 30
0.0
 40
0.00513889
 41
0.00513889
  0
VERTEX
  8
0
 10
4.6525
 20
6.92036
 30
0.0
 40
0.00513889
 41
0.00513889
  0
SEQEND
 8
0
  0
POLYLINE
  8
0
 62
     0
 66
     1
 10
0
 20
0
 30
0.0
 40
0.37
 41
0.37
  0
VERTEX
  8
0
 10
4.62196
 20
6.92036
 30
0.0
 40
0.00513889
 41
0.00513889
  0
VERTEX
  8
0
 10
4.61903
 20
6.92953
 30
0.0
 40
0.00513889
 41
0.00513889
  0
VERTEX
  8
0
 10
4.61208
 20
6.93593
 30
0.0
 40
0.00513889
 41
0.00513889
  0
VERTEX
  8
0
 10
4.60335
 20
6.9381
 30
0.0
 40
0.00513889
 41
0.00513889
  0
SEQEND
 8
0
  0
POLYLINE
  8
0
 62
     0
 66
     1
 10
0
 20
0
 30
0.0
 40
0.37
 41
0.37
  0
VERTEX
  8
0
 10
4.76361
 20
6.89561
 30
0.0
 40
0.00513889
 41
0.00513889
  0
VERTEX
  8
0
 10
4.76361
 20
6.69851
 30
0.0
 40
0.00513889
 41
0.00513889
  0
SEQEND
 8
0
  0
POLYLINE
  8
0
 62
     0
 66
     1
 10
0
 20
0
 30
0.0
 40
0.37
 41
0.37
  0
VERTEX
  8
0
 10
4.74349
 20
6.6791
 30
0.0
 40
0.00513889
 41
0.00513889
  0
VERTEX
  8
0
 10
4.7506
 20
6.68576
 30
0.0
 40
0.00513889
 41
0.00513889
  0
VERTEX
  8
0
 10
4.75765
 20
6.69254
 30
0.0
 40
0.00513889
 41
0.00513889
  0
VERTEX
  8
0
 10
4.76361
 20
6.69851
 30
0.0
 40
0.00513889
 41
0.00513889
  0
SEQEND
 8
0
  0
POLYLINE
  8
0
 62
     0
 66
     1
 10
0
 20
0
 30
0.0
 40
0.37
 41
0.37
  0
VERTEX
  8
0
 10
4.74349
 20
6.6791
 30
0.0
 40
0.00513889
 41
0.00513889
  0
VERTEX
  8
0
 10
4.74349
 20
6.88385
 30
0.0
 40
0.00513889
 41
0.00513889
  0
SEQEND
 8
0
  0
POLYLINE
  8
0
 62
     0
 66
     1
 10
0
 20
0
 30
0.0
 40
0.37
 41
0.37
  0
VERTEX
  8
0
 10
4.57796
 20
6.92036
 30
0.0
 40
0.00513889
 41
0.00513889
  0
VERTEX
  8
0
 10
4.60157
 20
6.92036
 30
0.0
 40
0.00513889
 41
0.00513889
  0
SEQEND
 8
0
  0
POLYLINE
  8
0
 62
     0
 66
     1
 10
0
 20
0
 30
0.0
 40
0.37
 41
0.37
  0
VERTEX
  8
0
 10
4.56711
 20
6.92036
 30
0.0
 40
0.00513889
 41
0.00513889
  0
VERTEX
  8
0
 10
4.57796
 20
6.92036
 30
0.0
 40
0.00513889
 41
0.00513889
  0
SEQEND
 8
0
  0
POLYLINE
  8
0
 62
     0
 66
     1
 10
0
 20
0
 30
0.0
 40
0.37
 41
0.37
  0
VERTEX
  8
0
 10
4.60157
 20
6.9381
 30
0.0
 40
0.00513889
 41
0.00513889
  0
VERTEX
  8
0
 10
4.60157
 20
6.69851
 30
0.0
 40
0.00513889
 41
0.00513889
  0
SEQEND
 8
0
  0
POLYLINE
  8
0
 62
     0
 66
     1
 10
0
 20
0
 30
0.0
 40
0.37
 41
0.37
  0
VERTEX
  8
0
 10
4.60157
 20
6.6791
 30
0.0
 40
0.00513889
 41
0.00513889
  0
VERTEX
  8
0
 10
4.60157
 20
6.69851
 30
0.0
 40
0.00513889
 41
0.00513889
  0
SEQEND
 8
0
  0
POLYLINE
  8
0
 62
     0
 66
     1
 10
0
 20
0
 30
0.0
 40
0.37
 41
0.37
  0
VERTEX
  8
0
 10
4.62185
 20
6.92036
 30
0.0
 40
0.00513889
 41
0.00513889
  0
VERTEX
  8
0
 10
4.62185
 20
6.6791
 30
0.0
 40
0.00513889
 41
0.00513889
  0
SEQEND
 8
0
  0
POLYLINE
  8
0
 62
     0
 66
     1
 10
0
 20
0
 30
0.0
 40
0.37
 41
0.37
  0
VERTEX
  8
0
 10
4.60157
 20
6.69851
 30
0.0
 40
0.00513889
 41
0.00513889
  0
VERTEX
  8
0
 10
4.60861
 20
6.69157
 30
0.0
 40
0.00513889
 41
0.00513889
  0
VERTEX
  8
0
 10
4.61572
 20
6.68479
 30
0.0
 40
0.00513889
 41
0.00513889
  0
VERTEX
  8
0
 10
4.62185
 20
6.6791
 30
0.0
 40
0.00513889
 41
0.00513889
  0
SEQEND
 8
0
  0
POLYLINE
  8
0
 62
     0
 66
     1
 10
0
 20
0
 30
0.0
 40
0.37
 41
0.37
  0
VERTEX
  8
0
 10
5.90961
 20
6.9381
 30
0.0
 40
0.00513889
 41
0.00513889
  0
VERTEX
  8
0
 10
5.90961
 20
6.69851
 30
0.0
 40
0.00513889
 41
0.00513889
  0
SEQEND
 8
0
  0
POLYLINE
  8
0
 62
     0
 66
     1
 10
0
 20
0
 30
0.0
 40
0.37
 41
0.37
  0
VERTEX
  8
0
 10
5.88949
 20
6.6791
 30
0.0
 40
0.00513889
 41
0.00513889
  0
VERTEX
  8
0
 10
5.89654
 20
6.68576
 30
0.0
 40
0.00513889
 41
0.00513889
  0
VERTEX
  8
0
 10
5.90365
 20
6.69254
 30
0.0
 40
0.00513889
 41
0.00513889
  0
VERTEX
  8
0
 10
5.90961
 20
6.69851
 30
0.0
 40
0.00513889
 41
0.00513889
  0
SEQEND
 8
0
  0
POLYLINE
  8
0
 62
     0
 66
     1
 10
0
 20
0
 30
0.0
 40
0.37
 41
0.37
  0
VERTEX
  8
0
 10
5.88949
 20
6.92036
 30
0.0
 40
0.00513889
 41
0.00513889
  0
VERTEX
  8
0
 10
5.88949
 20
6.6791
 30
0.0
 40
0.00513889
 41
0.00513889
  0
SEQEND
 8
0
  0
POLYLINE
  8
0
 62
     0
 66
     1
 10
0
 20
0
 30
0.0
 40
0.37
 41
0.37
  0
VERTEX
  8
0
 10
5.90793
 20
6.9381
 30
0.0
 40
0.00513889
 41
0.00513889
  0
VERTEX
  8
0
 10
5.89865
 20
6.9356
 30
0.0
 40
0.00513889
 41
0.00513889
  0
VERTEX
  8
0
 10
5.89182
 20
6.9291
 30
0.0
 40
0.00513889
 41
0.00513889
  0
VERTEX
  8
0
 10
5.88932
 20
6.92036
 30
0.0
 40
0.00513889
 41
0.00513889
  0
SEQEND
 8
0
  0
POLYLINE
  8
0
 62
     0
 66
     1
 10
0
 20
0
 30
0.0
 40
0.37
 41
0.37
  0
VERTEX
  8
0
 10
5.90961
 20
6.6791
 30
0.0
 40
0.00513889
 41
0.00513889
  0
VERTEX
  8
0
 10
5.90961
 20
6.69851
 30
0.0
 40
0.00513889
 41
0.00513889
  0
SEQEND
 8
0
  0
POLYLINE
  8
0
 62
     0
 66
     1
 10
0
 20
0
 30
0.0
 40
0.37
 41
0.37
  0
VERTEX
  8
0
 10
5.93338
 20
6.92036
 30
0.0
 40
0.00513889
 41
0.00513889
  0
VERTEX
  8
0
 10
5.94417
 20
6.92036
 30
0.0
 40
0.00513889
 41
0.00513889
  0
SEQEND
 8
0
  0
POLYLINE
  8
0
 62
     0
 66
     1
 10
0
 20
0
 30
0.0
 40
0.37
 41
0.37
  0
VERTEX
  8
0
 10
5.90961
 20
6.92036
 30
0.0
 40
0.00513889
 41
0.00513889
  0
VERTEX
  8
0
 10
5.93338
 20
6.92036
 30
0.0
 40
0.00513889
 41
0.00513889
  0
SEQEND
 8
0
  0
POLYLINE
  8
0
 62
     0
 66
     1
 10
0
 20
0
 30
0.0
 40
0.37
 41
0.37
  0
VERTEX
  8
0
 10
5.7475
 20
6.89561
 30
0.0
 40
0.00513889
 41
0.00513889
  0
VERTEX
  8
0
 10
5.7475
 20
6.69851
 30
0.0
 40
0.00513889
 41
0.00513889
  0
SEQEND
 8
0
  0
POLYLINE
  8
0
 62
     0
 66
     1
 10
0
 20
0
 30
0.0
 40
0.37
 41
0.37
  0
VERTEX
  8
0
 10
5.76779
 20
6.6791
 30
0.0
 40
0.00513889
 41
0.00513889
  0
VERTEX
  8
0
 10
5.76779
 20
6.88385
 30
0.0
 40
0.00513889
 41
0.00513889
  0
SEQEND
 8
0
  0
POLYLINE
  8
0
 62
     0
 66
     1
 10
0
 20
0
 30
0.0
 40
0.37
 41
0.37
  0
VERTEX
  8
0
 10
5.7475
 20
6.69851
 30
0.0
 40
0.00513889
 41
0.00513889
  0
VERTEX
  8
0
 10
5.75461
 20
6.69157
 30
0.0
 40
0.00513889
 41
0.00513889
  0
VERTEX
  8
0
 10
5.76172
 20
6.68479
 30
0.0
 40
0.00513889
 41
0.00513889
  0
VERTEX
  8
0
 10
5.76779
 20
6.6791
 30
0.0
 40
0.00513889
 41
0.00513889
  0
SEQEND
 8
0
  0
POLYLINE
  8
0
 62
     0
 66
     1
 10
0
 20
0
 30
0.0
 40
0.37
 41
0.37
  0
VERTEX
  8
0
 10
5.85878
 20
6.92036
 30
0.0
 40
0.00513889
 41
0.00513889
  0
VERTEX
  8
0
 10
5.88949
 20
6.92036
 30
0.0
 40
0.00513889
 41
0.00513889
  0
SEQEND
 8
0
  0
POLYLINE
  8
0
 62
     0
 66
     1
 10
0
 20
0
 30
0.0
 40
0.37
 41
0.37
  0
VERTEX
  8
0
 10
4.45074
 20
7.56993
 30
0.0
 40
0.00513889
 41
0.00513889
  0
VERTEX
  8
0
 10
4.33268
 20
7.56993
 30
0.0
 40
0.00513889
 41
0.00513889
  0
SEQEND
 8
0
  0
POLYLINE
  8
0
 62
     0
 66
     1
 10
0
 20
0
 30
0.0
 40
0.37
 41
0.37
  0
VERTEX
  8
0
 10
4.45074
 20
7.56993
 30
0.0
 40
0.00513889
 41
0.00513889
  0
VERTEX
  8
0
 10
4.55875
 20
7.56993
 30
0.0
 40
0.00513889
 41
0.00513889
  0
SEQEND
 8
0
  0
POLYLINE
  8
0
 62
     0
 66
     1
 10
0
 20
0
 30
0.0
 40
0.37
 41
0.37
  0
VERTEX
  8
0
 10
4.33268
 20
7.56993
 30
0.0
 40
0.00513889
 41
0.00513889
  0
VERTEX
  8
0
 10
4.33268
 20
7.46967
 30
0.0
 40
0.00513889
 41
0.00513889
  0
SEQEND
 8
0
  0
POLYLINE
  8
0
 62
     0
 66
     1
 10
0
 20
0
 30
0.0
 40
0.37
 41
0.37
  0
VERTEX
  8
0
 10
4.45074
 20
7.46967
 30
0.0
 40
0.00513889
 41
0.00513889
  0
VERTEX
  8
0
 10
4.33268
 20
7.46967
 30
0.0
 40
0.00513889
 41
0.00513889
  0
SEQEND
 8
0
  0
POLYLINE
  8
0
 62
     0
 66
     1
 10
0
 20
0
 30
0.0
 40
0.37
 41
0.37
  0
VERTEX
  8
0
 10
4.45074
 20
7.46967
 30
0.0
 40
0.00513889
 41
0.00513889
  0
VERTEX
  8
0
 10
4.93739
 20
7.46967
 30
0.0
 40
0.00513889
 41
0.00513889
  0
SEQEND
 8
0
  0
POLYLINE
  8
0
 62
     0
 66
     1
 10
0
 20
0
 30
0.0
 40
0.37
 41
0.37
  0
VERTEX
  8
0
 10
4.55875
 20
7.58772
 30
0.0
 40
0.00513889
 41
0.00513889
  0
VERTEX
  8
0
 10
4.55875
 20
7.56993
 30
0.0
 40
0.00513889
 41
0.00513889
  0
SEQEND
 8
0
  0
POLYLINE
  8
0
 62
     0
 66
     1
 10
0
 20
0
 30
0.0
 40
0.37
 41
0.37
  0
VERTEX
  8
0
 10
4.54949
 20
6.9381
 30
0.0
 40
0.00513889
 41
0.00513889
  0
VERTEX
  8
0
 10
4.53157
 20
6.9381
 30
0.0
 40
0.00513889
 41
0.00513889
  0
SEQEND
 8
0
  0
POLYLINE
  8
0
 62
     0
 66
     1
 10
0
 20
0
 30
0.0
 40
0.37
 41
0.37
  0
VERTEX
  8
0
 10
5.96186
 20
6.9381
 30
0.0
 40
0.00513889
 41
0.00513889
  0
VERTEX
  8
0
 10
5.9796
 20
6.9381
 30
0.0
 40
0.00513889
 41
0.00513889
  0
SEQEND
 8
0
  0
POLYLINE
  8
0
 62
     0
 66
     1
 10
0
 20
0
 30
0.0
 40
0.37
 41
0.37
  0
VERTEX
  8
0
 10
5.95253
 20
7.58772
 30
0.0
 40
0.00513889
 41
0.00513889
  0
VERTEX
  8
0
 10
5.95253
 20
7.56993
 30
0.0
 40
0.00513889
 41
0.00513889
  0
SEQEND
 8
0
  0
POLYLINE
  8
0
 62
     0
 66
     1
 10
0
 20
0
 30
0.0
 40
0.37
 41
0.37
  0
VERTEX
  8
0
 10
5.57379
 20
7.46967
 30
0.0
 40
0.00513889
 41
0.00513889
  0
VERTEX
  8
0
 10
6.0606
 20
7.46967
 30
0.0
 40
0.00513889
 41
0.00513889
  0
SEQEND
 8
0
  0
POLYLINE
  8
0
 62
     0
 66
     1
 10
0
 20
0
 30
0.0
 40
0.37
 41
0.37
  0
VERTEX
  8
0
 10
6.17865
 20
7.46967
 30
0.0
 40
0.00513889
 41
0.00513889
  0
VERTEX
  8
0
 10
6.0606
 20
7.46967
 30
0.0
 40
0.00513889
 41
0.00513889
  0
SEQEND
 8
0
  0
POLYLINE
  8
0
 62
     0
 66
     1
 10
0
 20
0
 30
0.0
 40
0.37
 41
0.37
  0
VERTEX
  8
0
 10
6.17865
 20
7.56993
 30
0.0
 40
0.00513889
 41
0.00513889
  0
VERTEX
  8
0
 10
6.17865
 20
7.46967
 30
0.0
 40
0.00513889
 41
0.00513889
  0
SEQEND
 8
0
  0
POLYLINE
  8
0
 62
     0
 66
     1
 10
0
 20
0
 30
0.0
 40
0.37
 41
0.37
  0
VERTEX
  8
0
 10
6.0606
 20
7.56993
 30
0.0
 40
0.00513889
 41
0.00513889
  0
VERTEX
  8
0
 10
5.95253
 20
7.56993
 30
0.0
 40
0.00513889
 41
0.00513889
  0
SEQEND
 8
0
  0
POLYLINE
  8
0
 62
     0
 66
     1
 10
0
 20
0
 30
0.0
 40
0.37
 41
0.37
  0
VERTEX
  8
0
 10
6.17865
 20
7.56993
 30
0.0
 40
0.00513889
 41
0.00513889
  0
VERTEX
  8
0
 10
6.0606
 20
7.56993
 30
0.0
 40
0.00513889
 41
0.00513889
  0
SEQEND
 8
0
  0
POLYLINE
  8
0
 62
     0
 66
     1
 10
0
 20
0
 30
0.0
 40
0.37
 41
0.37
  0
VERTEX
  8
0
 10
5.81863
 20
7.13894
 30
0.0
 40
0.00513889
 41
0.00513889
  0
VERTEX
  8
0
 10
5.82183
 20
7.46967
 30
0.0
 40
0.00513889
 41
0.00513889
  0
SEQEND
 8
0
  0
POLYLINE
  8
0
 62
     0
 66
     1
 10
0
 20
0
 30
0.0
 40
0.37
 41
0.37
  0
VERTEX
  8
0
 10
5.81863
 20
7.13894
 30
0.0
 40
0.00513889
 41
0.00513889
  0
VERTEX
  8
0
 10
5.55643
 20
7.13894
 30
0.0
 40
0.00513889
 41
0.00513889
  0
SEQEND
 8
0
  0
POLYLINE
  8
0
 62
     0
 66
     1
 10
0
 20
0
 30
0.0
 40
0.37
 41
0.37
  0
VERTEX
  8
0
 10
5.57379
 20
7.46967
 30
0.0
 40
0.00513889
 41
0.00513889
  0
VERTEX
  8
0
 10
5.55643
 20
7.13894
 30
0.0
 40
0.00513889
 41
0.00513889
  0
SEQEND
 8
0
  0
POLYLINE
  8
0
 62
     0
 66
     1
 10
0
 20
0
 30
0.0
 40
0.37
 41
0.37
  0
VERTEX
  8
0
 10
5.62765
 20
7.2334
 30
0.0
 40
0.00513889
 41
0.00513889
  0
VERTEX
  8
0
 10
5.69851
 20
7.2334
 30
0.0
 40
0.00513889
 41
0.00513889
  0
SEQEND
 8
0
  0
POLYLINE
  8
0
 62
     0
 66
     1
 10
0
 20
0
 30
0.0
 40
0.37
 41
0.37
  0
VERTEX
  8
0
 10
5.49056
 20
7.0549
 30
0.0
 40
0.00513889
 41
0.00513889
  0
VERTEX
  8
0
 10
5.49311
 20
7.04563
 30
0.0
 40
0.00513889
 41
0.00513889
  0
VERTEX
  8
0
 10
5.49908
 20
7.03814
 30
0.0
 40
0.00513889
 41
0.00513889
  0
VERTEX
  8
0
 10
5.50765
 20
7.03353
 30
0.0
 40
0.00513889
 41
0.00513889
  0
VERTEX
  8
0
 10
5.51421
 20
7.03256
 30
0.0
 40
0.00513889
 41
0.00513889
  0
SEQEND
 8
0
  0
POLYLINE
  8
0
 62
     0
 66
     1
 10
0
 20
0
 30
0.0
 40
0.37
 41
0.37
  0
VERTEX
  8
0
 10
5.49056
 20
7.0549
 30
0.0
 40
0.00513889
 41
0.00513889
  0
VERTEX
  8
0
 10
5.486
 20
7.13894
 30
0.0
 40
0.00513889
 41
0.00513889
  0
SEQEND
 8
0
  0
POLYLINE
  8
0
 62
     0
 66
     1
 10
0
 20
0
 30
0.0
 40
0.37
 41
0.37
  0
VERTEX
  8
0
 10
5.48074
 20
7.23579
 30
0.0
 40
0.00513889
 41
0.00513889
  0
VERTEX
  8
0
 10
5.486
 20
7.13894
 30
0.0
 40
0.00513889
 41
0.00513889
  0
SEQEND
 8
0
  0
POLYLINE
  8
0
 62
     0
 66
     1
 10
0
 20
0
 30
0.0
 40
0.37
 41
0.37
  0
VERTEX
  8
0
 10
5.48074
 20
7.23579
 30
0.0
 40
0.00513889
 41
0.00513889
  0
VERTEX
  8
0
 10
5.47949
 20
7.257
 30
0.0
 40
0.00513889
 41
0.00513889
  0
SEQEND
 8
0
  0
POLYLINE
  8
0
 62
     0
 66
     1
 10
0
 20
0
 30
0.0
 40
0.37
 41
0.37
  0
VERTEX
  8
0
 10
5.47949
 20
7.257
 30
0.0
 40
0.00513889
 41
0.00513889
  0
VERTEX
  8
0
 10
5.47319
 20
7.37272
 30
0.0
 40
0.00513889
 41
0.00513889
  0
SEQEND
 8
0
  0
POLYLINE
  8
0
 62
     0
 66
     1
 10
0
 20
0
 30
0.0
 40
0.37
 41
0.37
  0
VERTEX
  8
0
 10
5.39154
 20
7.13894
 30
0.0
 40
0.00513889
 41
0.00513889
  0
VERTEX
  8
0
 10
5.486
 20
7.13894
 30
0.0
 40
0.00513889
 41
0.00513889
  0
SEQEND
 8
0
  0
POLYLINE
  8
0
 62
     0
 66
     1
 10
0
 20
0
 30
0.0
 40
0.37
 41
0.37
  0
VERTEX
  8
0
 10
5.38612
 20
7.23579
 30
0.0
 40
0.00513889
 41
0.00513889
  0
VERTEX
  8
0
 10
5.48074
 20
7.23579
 30
0.0
 40
0.00513889
 41
0.00513889
  0
SEQEND
 8
0
  0
POLYLINE
  8
0
 62
     0
 66
     1
 10
0
 20
0
 30
0.0
 40
0.37
 41
0.37
  0
VERTEX
  8
0
 10
5.38612
 20
7.23579
 30
0.0
 40
0.00513889
 41
0.00513889
  0
VERTEX
  8
0
 10
5.39154
 20
7.13894
 30
0.0
 40
0.00513889
 41
0.00513889
  0
SEQEND
 8
0
  0
POLYLINE
  8
0
 62
     0
 66
     1
 10
0
 20
0
 30
0.0
 40
0.37
 41
0.37
  0
VERTEX
  8
0
 10
5.11974
 20
7.13894
 30
0.0
 40
0.00513889
 41
0.00513889
  0
VERTEX
  8
0
 10
5.39154
 20
7.13894
 30
0.0
 40
0.00513889
 41
0.00513889
  0
SEQEND
 8
0
  0
POLYLINE
  8
0
 62
     0
 66
     1
 10
0
 20
0
 30
0.0
 40
0.37
 41
0.37
  0
VERTEX
  8
0
 10
5.12879
 20
7.30425
 30
0.0
 40
0.00513889
 41
0.00513889
  0
VERTEX
  8
0
 10
5.38238
 20
7.30425
 30
0.0
 40
0.00513889
 41
0.00513889
  0
SEQEND
 8
0
  0
POLYLINE
  8
0
 62
     0
 66
     1
 10
0
 20
0
 30
0.0
 40
0.37
 41
0.37
  0
VERTEX
  8
0
 10
5.0306
 20
7.23579
 30
0.0
 40
0.00513889
 41
0.00513889
  0
VERTEX
  8
0
 10
5.12506
 20
7.23579
 30
0.0
 40
0.00513889
 41
0.00513889
  0
SEQEND
 8
0
  0
POLYLINE
  8
0
 62
     0
 66
     1
 10
0
 20
0
 30
0.0
 40
0.37
 41
0.37
  0
VERTEX
  8
0
 10
5.0306
 20
7.23579
 30
0.0
 40
0.00513889
 41
0.00513889
  0
VERTEX
  8
0
 10
5.02528
 20
7.13894
 30
0.0
 40
0.00513889
 41
0.00513889
  0
SEQEND
 8
0
  0
POLYLINE
  8
0
 62
     0
 66
     1
 10
0
 20
0
 30
0.0
 40
0.37
 41
0.37
  0
VERTEX
  8
0
 10
5.02528
 20
7.13894
 30
0.0
 40
0.00513889
 41
0.00513889
  0
VERTEX
  8
0
 10
5.11974
 20
7.13894
 30
0.0
 40
0.00513889
 41
0.00513889
  0
SEQEND
 8
0
  0
POLYLINE
  8
0
 62
     0
 66
     1
 10
0
 20
0
 30
0.0
 40
0.37
 41
0.37
  0
VERTEX
  8
0
 10
5.12506
 20
7.23579
 30
0.0
 40
0.00513889
 41
0.00513889
  0
VERTEX
  8
0
 10
5.11974
 20
7.13894
 30
0.0
 40
0.00513889
 41
0.00513889
  0
SEQEND
 8
0
  0
POLYLINE
  8
0
 62
     0
 66
     1
 10
0
 20
0
 30
0.0
 40
0.37
 41
0.37
  0
VERTEX
  8
0
 10
5.03168
 20
7.257
 30
0.0
 40
0.00513889
 41
0.00513889
  0
VERTEX
  8
0
 10
5.03808
 20
7.37272
 30
0.0
 40
0.00513889
 41
0.00513889
  0
SEQEND
 8
0
  0
POLYLINE
  8
0
 62
     0
 66
     1
 10
0
 20
0
 30
0.0
 40
0.37
 41
0.37
  0
VERTEX
  8
0
 10
5.0306
 20
7.23579
 30
0.0
 40
0.00513889
 41
0.00513889
  0
VERTEX
  8
0
 10
5.03168
 20
7.257
 30
0.0
 40
0.00513889
 41
0.00513889
  0
SEQEND
 8
0
  0
POLYLINE
  8
0
 62
     0
 66
     1
 10
0
 20
0
 30
0.0
 40
0.37
 41
0.37
  0
VERTEX
  8
0
 10
5.02056
 20
7.0549
 30
0.0
 40
0.00513889
 41
0.00513889
  0
VERTEX
  8
0
 10
5.02528
 20
7.13894
 30
0.0
 40
0.00513889
 41
0.00513889
  0
SEQEND
 8
0
  0
POLYLINE
  8
0
 62
     0
 66
     1
 10
0
 20
0
 30
0.0
 40
0.37
 41
0.37
  0
VERTEX
  8
0
 10
4.99713
 20
7.03256
 30
0.0
 40
0.00513889
 41
0.00513889
  0
VERTEX
  8
0
 10
5.00657
 20
7.0345
 30
0.0
 40
0.00513889
 41
0.00513889
  0
VERTEX
  8
0
 10
5.01432
 20
7.0401
 30
0.0
 40
0.00513889
 41
0.00513889
  0
VERTEX
  8
0
 10
5.01932
 20
7.04839
 30
0.0
 40
0.00513889
 41
0.00513889
  0
VERTEX
  8
0
 10
5.02056
 20
7.0549
 30
0.0
 40
0.00513889
 41
0.00513889
  0
SEQEND
 8
0
  0
POLYLINE
  8
0
 62
     0
 66
     1
 10
0
 20
0
 30
0.0
 40
0.37
 41
0.37
  0
VERTEX
  8
0
 10
4.93739
 20
7.46967
 30
0.0
 40
0.00513889
 41
0.00513889
  0
VERTEX
  8
0
 10
4.95475
 20
7.13894
 30
0.0
 40
0.00513889
 41
0.00513889
  0
SEQEND
 8
0
  0
POLYLINE
  8
0
 62
     0
 66
     1
 10
0
 20
0
 30
0.0
 40
0.37
 41
0.37
  0
VERTEX
  8
0
 10
4.95475
 20
7.13894
 30
0.0
 40
0.00513889
 41
0.00513889
  0
VERTEX
  8
0
 10
4.69282
 20
7.13894
 30
0.0
 40
0.00513889
 41
0.00513889
  0
SEQEND
 8
0
  0
POLYLINE
  8
0
 62
     0
 66
     1
 10
0
 20
0
 30
0.0
 40
0.37
 41
0.37
  0
VERTEX
  8
0
 10
4.69282
 20
7.13894
 30
0.0
 40
0.00513889
 41
0.00513889
  0
VERTEX
  8
0
 10
4.69006
 20
7.46967
 30
0.0
 40
0.00513889
 41
0.00513889
  0
SEQEND
 8
0
  0
POLYLINE
  8
0
 62
     0
 66
     1
 10
0
 20
0
 30
0.0
 40
0.37
 41
0.37
  0
VERTEX
  8
0
 10
4.81267
 20
7.2334
 30
0.0
 40
0.00513889
 41
0.00513889
  0
VERTEX
  8
0
 10
4.88363
 20
7.2334
 30
0.0
 40
0.00513889
 41
0.00513889
  0
SEQEND
 8
0
  0
POLYLINE
  8
0
 62
     0
 66
     1
 10
0
 20
0
 30
0.0
 40
0.37
 41
0.37
  0
VERTEX
  8
0
 10
4.62185
 20
6.6791
 30
0.0
 40
0.00513889
 41
0.00513889
  0
VERTEX
  8
0
 10
4.74349
 20
6.6791
 30
0.0
 40
0.00513889
 41
0.00513889
  0
SEQEND
 8
0
  0
POLYLINE
  8
0
 62
     0
 66
     1
 10
0
 20
0
 30
0.0
 40
0.37
 41
0.37
  0
VERTEX
  8
0
 10
4.57796
 20
6.6791
 30
0.0
 40
0.00513889
 41
0.00513889
  0
VERTEX
  8
0
 10
4.60157
 20
6.6791
 30
0.0
 40
0.00513889
 41
0.00513889
  0
SEQEND
 8
0
  0
POLYLINE
  8
0
 62
     0
 66
     1
 10
0
 20
0
 30
0.0
 40
0.37
 41
0.37
  0
VERTEX
  8
0
 10
4.56711
 20
6.6791
 30
0.0
 40
0.00513889
 41
0.00513889
  0
VERTEX
  8
0
 10
4.57796
 20
6.6791
 30
0.0
 40
0.00513889
 41
0.00513889
  0
SEQEND
 8
0
  0
POLYLINE
  8
0
 62
     0
 66
     1
 10
0
 20
0
 30
0.0
 40
0.37
 41
0.37
  0
VERTEX
  8
0
 10
5.88949
 20
6.6791
 30
0.0
 40
0.00513889
 41
0.00513889
  0
VERTEX
  8
0
 10
5.76779
 20
6.6791
 30
0.0
 40
0.00513889
 41
0.00513889
  0
SEQEND
 8
0
  0
POLYLINE
  8
0
 62
     0
 66
     1
 10
0
 20
0
 30
0.0
 40
0.37
 41
0.37
  0
VERTEX
  8
0
 10
5.93338
 20
6.6791
 30
0.0
 40
0.00513889
 41
0.00513889
  0
VERTEX
  8
0
 10
5.90961
 20
6.6791
 30
0.0
 40
0.00513889
 41
0.00513889
  0
SEQEND
 8
0
  0
POLYLINE
  8
0
 62
     0
 66
     1
 10
0
 20
0
 30
0.0
 40
0.37
 41
0.37
  0
VERTEX
  8
0
 10
5.94417
 20
6.6791
 30
0.0
 40
0.00513889
 41
0.00513889
  0
VERTEX
  8
0
 10
5.93338
 20
6.6791
 30
0.0
 40
0.00513889
 41
0.00513889
  0
SEQEND
 8
0
  0
POLYLINE
  8
0
 62
     0
 66
     1
 10
0
 20
0
 30
0.0
 40
0.37
 41
0.37
  0
VERTEX
  8
0
 10
4.45074
 20
7.56993
 30
0.0
 40
0.00513889
 41
0.00513889
  0
VERTEX
  8
0
 10
4.45074
 20
7.46967
 30
0.0
 40
0.00513889
 41
0.00513889
  0
SEQEND
 8
0
  0
POLYLINE
  8
0
 62
     0
 66
     1
 10
0
 20
0
 30
0.0
 40
0.37
 41
0.37
  0
VERTEX
  8
0
 10
4.55875
 20
7.58772
 30
0.0
 40
0.00513889
 41
0.00513889
  0
VERTEX
  8
0
 10
4.93126
 20
7.58772
 30
0.0
 40
0.00513889
 41
0.00513889
  0
SEQEND
 8
0
  0
POLYLINE
  8
0
 62
     0
 66
     1
 10
0
 20
0
 30
0.0
 40
0.37
 41
0.37
  0
VERTEX
  8
0
 10
4.93739
 20
7.46967
 30
0.0
 40
0.00513889
 41
0.00513889
  0
VERTEX
  8
0
 10
4.93126
 20
7.58772
 30
0.0
 40
0.00513889
 41
0.00513889
  0
SEQEND
 8
0
  0
POLYLINE
  8
0
 62
     0
 66
     1
 10
0
 20
0
 30
0.0
 40
0.37
 41
0.37
  0
VERTEX
  8
0
 10
4.88363
 20
7.29243
 30
0.0
 40
0.00513889
 41
0.00513889
  0
VERTEX
  8
0
 10
4.88363
 20
7.46967
 30
0.0
 40
0.00513889
 41
0.00513889
  0
SEQEND
 8
0
  0
POLYLINE
  8
0
 62
     0
 66
     1
 10
0
 20
0
 30
0.0
 40
0.37
 41
0.37
  0
VERTEX
  8
0
 10
4.88363
 20
7.2334
 30
0.0
 40
0.00513889
 41
0.00513889
  0
VERTEX
  8
0
 10
4.88363
 20
7.29243
 30
0.0
 40
0.00513889
 41
0.00513889
  0
SEQEND
 8
0
  0
POLYLINE
  8
0
 62
     0
 66
     1
 10
0
 20
0
 30
0.0
 40
0.37
 41
0.37
  0
VERTEX
  8
0
 10
4.81267
 20
7.46967
 30
0.0
 40
0.00513889
 41
0.00513889
  0
VERTEX
  8
0
 10
4.81267
 20
7.29243
 30
0.0
 40
0.00513889
 41
0.00513889
  0
SEQEND
 8
0
  0
POLYLINE
  8
0
 62
     0
 66
     1
 10
0
 20
0
 30
0.0
 40
0.37
 41
0.37
  0
VERTEX
  8
0
 10
4.88363
 20
7.29243
 30
0.0
 40
0.00513889
 41
0.00513889
  0
VERTEX
  8
0
 10
4.81267
 20
7.29243
 30
0.0
 40
0.00513889
 41
0.00513889
  0
SEQEND
 8
0
  0
POLYLINE
  8
0
 62
     0
 66
     1
 10
0
 20
0
 30
0.0
 40
0.37
 41
0.37
  0
VERTEX
  8
0
 10
4.81267
 20
7.2334
 30
0.0
 40
0.00513889
 41
0.00513889
  0
VERTEX
  8
0
 10
4.81267
 20
7.29243
 30
0.0
 40
0.00513889
 41
0.00513889
  0
SEQEND
 8
0
  0
POLYLINE
  8
0
 62
     0
 66
     1
 10
0
 20
0
 30
0.0
 40
0.37
 41
0.37
  0
VERTEX
  8
0
 10
5.58003
 20
7.58772
 30
0.0
 40
0.00513889
 41
0.00513889
  0
VERTEX
  8
0
 10
5.95253
 20
7.58772
 30
0.0
 40
0.00513889
 41
0.00513889
  0
SEQEND
 8
0
  0
POLYLINE
  8
0
 62
     0
 66
     1
 10
0
 20
0
 30
0.0
 40
0.37
 41
0.37
  0
VERTEX
  8
0
 10
6.0606
 20
7.56993
 30
0.0
 40
0.00513889
 41
0.00513889
  0
VERTEX
  8
0
 10
6.0606
 20
7.46967
 30
0.0
 40
0.00513889
 41
0.00513889
  0
SEQEND
 8
0
  0
POLYLINE
  8
0
 62
     0
 66
     1
 10
0
 20
0
 30
0.0
 40
0.37
 41
0.37
  0
VERTEX
  8
0
 10
5.57379
 20
7.46967
 30
0.0
 40
0.00513889
 41
0.00513889
  0
VERTEX
  8
0
 10
5.58003
 20
7.58772
 30
0.0
 40
0.00513889
 41
0.00513889
  0
SEQEND
 8
0
  0
POLYLINE
  8
0
 62
     0
 66
     1
 10
0
 20
0
 30
0.0
 40
0.37
 41
0.37
  0
VERTEX
  8
0
 10
5.69851
 20
7.29243
 30
0.0
 40
0.00513889
 41
0.00513889
  0
VERTEX
  8
0
 10
5.69851
 20
7.46967
 30
0.0
 40
0.00513889
 41
0.00513889
  0
SEQEND
 8
0
  0
POLYLINE
  8
0
 62
     0
 66
     1
 10
0
 20
0
 30
0.0
 40
0.37
 41
0.37
  0
VERTEX
  8
0
 10
5.69851
 20
7.2334
 30
0.0
 40
0.00513889
 41
0.00513889
  0
VERTEX
  8
0
 10
5.69851
 20
7.29243
 30
0.0
 40
0.00513889
 41
0.00513889
  0
SEQEND
 8
0
  0
POLYLINE
  8
0
 62
     0
 66
     1
 10
0
 20
0
 30
0.0
 40
0.37
 41
0.37
  0
VERTEX
  8
0
 10
5.62765
 20
7.46967
 30
0.0
 40
0.00513889
 41
0.00513889
  0
VERTEX
  8
0
 10
5.62765
 20
7.29243
 30
0.0
 40
0.00513889
 41
0.00513889
  0
SEQEND
 8
0
  0
POLYLINE
  8
0
 62
     0
 66
     1
 10
0
 20
0
 30
0.0
 40
0.37
 41
0.37
  0
VERTEX
  8
0
 10
5.69851
 20
7.29243
 30
0.0
 40
0.00513889
 41
0.00513889
  0
VERTEX
  8
0
 10
5.62765
 20
7.29243
 30
0.0
 40
0.00513889
 41
0.00513889
  0
SEQEND
 8
0
  0
POLYLINE
  8
0
 62
     0
 66
     1
 10
0
 20
0
 30
0.0
 40
0.37
 41
0.37
  0
VERTEX
  8
0
 10
5.62765
 20
7.2334
 30
0.0
 40
0.00513889
 41
0.00513889
  0
VERTEX
  8
0
 10
5.62765
 20
7.29243
 30
0.0
 40
0.00513889
 41
0.00513889
  0
SEQEND
 8
0
  0
POLYLINE
  8
0
 62
     0
 66
     1
 10
0
 20
0
 30
0.0
 40
0.37
 41
0.37
  0
VERTEX
  8
0
 10
5.38612
 20
7.23579
 30
0.0
 40
0.00513889
 41
0.00513889
  0
VERTEX
  8
0
 10
5.38504
 20
7.257
 30
0.0
 40
0.00513889
 41
0.00513889
  0
SEQEND
 8
0
  0
POLYLINE
  8
0
 62
     0
 66
     1
 10
0
 20
0
 30
0.0
 40
0.37
 41
0.37
  0
VERTEX
  8
0
 10
5.38504
 20
7.257
 30
0.0
 40
0.00513889
 41
0.00513889
  0
VERTEX
  8
0
 10
5.47949
 20
7.257
 30
0.0
 40
0.00513889
 41
0.00513889
  0
SEQEND
 8
0
  0
POLYLINE
  8
0
 62
     0
 66
     1
 10
0
 20
0
 30
0.0
 40
0.37
 41
0.37
  0
VERTEX
  8
0
 10
5.38238
 20
7.30425
 30
0.0
 40
0.00513889
 41
0.00513889
  0
VERTEX
  8
0
 10
5.38504
 20
7.257
 30
0.0
 40
0.00513889
 41
0.00513889
  0
SEQEND
 8
0
  0
POLYLINE
  8
0
 62
     0
 66
     1
 10
0
 20
0
 30
0.0
 40
0.37
 41
0.37
  0
VERTEX
  8
0
 10
5.37864
 20
7.37272
 30
0.0
 40
0.00513889
 41
0.00513889
  0
VERTEX
  8
0
 10
5.47319
 20
7.37272
 30
0.0
 40
0.00513889
 41
0.00513889
  0
SEQEND
 8
0
  0
POLYLINE
  8
0
 62
     0
 66
     1
 10
0
 20
0
 30
0.0
 40
0.37
 41
0.37
  0
VERTEX
  8
0
 10
5.03808
 20
7.37272
 30
0.0
 40
0.00513889
 41
0.00513889
  0
VERTEX
  8
0
 10
5.13254
 20
7.37272
 30
0.0
 40
0.00513889
 41
0.00513889
  0
SEQEND
 8
0
  0
POLYLINE
  8
0
 62
     0
 66
     1
 10
0
 20
0
 30
0.0
 40
0.37
 41
0.37
  0
VERTEX
  8
0
 10
5.13949
 20
7.49908
 30
0.0
 40
0.00513889
 41
0.00513889
  0
VERTEX
  8
0
 10
5.12879
 20
7.30425
 30
0.0
 40
0.00513889
 41
0.00513889
  0
SEQEND
 8
0
  0
POLYLINE
  8
0
 62
     0
 66
     1
 10
0
 20
0
 30
0.0
 40
0.37
 41
0.37
  0
VERTEX
  8
0
 10
5.37169
 20
7.49908
 30
0.0
 40
0.00513889
 41
0.00513889
  0
VERTEX
  8
0
 10
5.38238
 20
7.30425
 30
0.0
 40
0.00513889
 41
0.00513889
  0
SEQEND
 8
0
  0
POLYLINE
  8
0
 62
     0
 66
     1
 10
0
 20
0
 30
0.0
 40
0.37
 41
0.37
  0
VERTEX
  8
0
 10
5.12879
 20
7.30425
 30
0.0
 40
0.00513889
 41
0.00513889
  0
VERTEX
  8
0
 10
5.12631
 20
7.257
 30
0.0
 40
0.00513889
 41
0.00513889
  0
SEQEND
 8
0
  0
POLYLINE
  8
0
 62
     0
 66
     1
 10
0
 20
0
 30
0.0
 40
0.37
 41
0.37
  0
VERTEX
  8
0
 10
5.12506
 20
7.23579
 30
0.0
 40
0.00513889
 41
0.00513889
  0
VERTEX
  8
0
 10
5.12631
 20
7.257
 30
0.0
 40
0.00513889
 41
0.00513889
  0
SEQEND
 8
0
  0
POLYLINE
  8
0
 62
     0
 66
     1
 10
0
 20
0
 30
0.0
 40
0.37
 41
0.37
  0
VERTEX
  8
0
 10
5.03168
 20
7.257
 30
0.0
 40
0.00513889
 41
0.00513889
  0
VERTEX
  8
0
 10
5.12631
 20
7.257
 30
0.0
 40
0.00513889
 41
0.00513889
  0
SEQEND
 8
0
  0
POLYLINE
  8
0
 62
     0
 66
     1
 10
0
 20
0
 30
0.0
 40
0.37
 41
0.37
  0
VERTEX
  8
0
 10
4.74419
 20
6.67828
 30
0.0
 40
0.00513889
 41
0.00513889
  0
VERTEX
  8
0
 10
4.74349
 20
6.67828
 30
0.0
 40
0.00513889
 41
0.00513889
  0
SEQEND
 8
0
  0
POLYLINE
  8
0
 62
     0
 66
     1
 10
0
 20
0
 30
0.0
 40
0.37
 41
0.37
  0
VERTEX
  8
0
 10
4.74349
 20
6.67828
 30
0.0
 40
0.00513889
 41
0.00513889
  0
VERTEX
  8
0
 10
4.62185
 20
6.67828
 30
0.0
 40
0.00513889
 41
0.00513889
  0
SEQEND
 8
0
  0
POLYLINE
  8
0
 62
     0
 66
     1
 10
0
 20
0
 30
0.0
 40
0.37
 41
0.37
  0
VERTEX
  8
0
 10
4.62185
 20
6.67828
 30
0.0
 40
0.00513889
 41
0.00513889
  0
VERTEX
  8
0
 10
4.60157
 20
6.67828
 30
0.0
 40
0.00513889
 41
0.00513889
  0
SEQEND
 8
0
  0
POLYLINE
  8
0
 62
     0
 66
     1
 10
0
 20
0
 30
0.0
 40
0.37
 41
0.37
  0
VERTEX
  8
0
 10
4.60157
 20
6.67828
 30
0.0
 40
0.00513889
 41
0.00513889
  0
VERTEX
  8
0
 10
4.57796
 20
6.67828
 30
0.0
 40
0.00513889
 41
0.00513889
  0
SEQEND
 8
0
  0
POLYLINE
  8
0
 62
     0
 66
     1
 10
0
 20
0
 30
0.0
 40
0.37
 41
0.37
  0
VERTEX
  8
0
 10
4.57796
 20
6.67828
 30
0.0
 40
0.00513889
 41
0.00513889
  0
VERTEX
  8
0
 10
4.56711
 20
6.67828
 30
0.0
 40
0.00513889
 41
0.00513889
  0
SEQEND
 8
0
  0
POLYLINE
  8
0
 62
     0
 66
     1
 10
0
 20
0
 30
0.0
 40
0.37
 41
0.37
  0
VERTEX
  8
0
 10
5.93338
 20
6.67828
 30
0.0
 40
0.00513889
 41
0.00513889
  0
VERTEX
  8
0
 10
5.94417
 20
6.67828
 30
0.0
 40
0.00513889
 41
0.00513889
  0
SEQEND
 8
0
  0
POLYLINE
  8
0
 62
     0
 66
     1
 10
0
 20
0
 30
0.0
 40
0.37
 41
0.37
  0
VERTEX
  8
0
 10
5.90961
 20
6.67828
 30
0.0
 40
0.00513889
 41
0.00513889
  0
VERTEX
  8
0
 10
5.93338
 20
6.67828
 30
0.0
 40
0.00513889
 41
0.00513889
  0
SEQEND
 8
0
  0
POLYLINE
  8
0
 62
     0
 66
     1
 10
0
 20
0
 30
0.0
 40
0.37
 41
0.37
  0
VERTEX
  8
0
 10
5.88949
 20
6.67828
 30
0.0
 40
0.00513889
 41
0.00513889
  0
VERTEX
  8
0
 10
5.90961
 20
6.67828
 30
0.0
 40
0.00513889
 41
0.00513889
  0
SEQEND
 8
0
  0
POLYLINE
  8
0
 62
     0
 66
     1
 10
0
 20
0
 30
0.0
 40
0.37
 41
0.37
  0
VERTEX
  8
0
 10
5.76779
 20
6.67828
 30
0.0
 40
0.00513889
 41
0.00513889
  0
VERTEX
  8
0
 10
5.88949
 20
6.67828
 30
0.0
 40
0.00513889
 41
0.00513889
  0
SEQEND
 8
0
  0
POLYLINE
  8
0
 62
     0
 66
     1
 10
0
 20
0
 30
0.0
 40
0.37
 41
0.37
  0
VERTEX
  8
0
 10
5.76708
 20
6.67828
 30
0.0
 40
0.00513889
 41
0.00513889
  0
VERTEX
  8
0
 10
5.76779
 20
6.67828
 30
0.0
 40
0.00513889
 41
0.00513889
  0
SEQEND
 8
0
  0
POLYLINE
  8
0
 62
     0
 66
     1
 10
0
 20
0
 30
0.0
 40
0.37
 41
0.37
  0
VERTEX
  8
0
 10
5.36778
 20
7.56993
 30
0.0
 40
0.00513889
 41
0.00513889
  0
VERTEX
  8
0
 10
5.37169
 20
7.49908
 30
0.0
 40
0.00513889
 41
0.00513889
  0
SEQEND
 8
0
  0
POLYLINE
  8
0
 62
     0
 66
     1
 10
0
 20
0
 30
0.0
 40
0.37
 41
0.37
  0
VERTEX
  8
0
 10
5.1435
 20
7.56993
 30
0.0
 40
0.00513889
 41
0.00513889
  0
VERTEX
  8
0
 10
5.13949
 20
7.49908
 30
0.0
 40
0.00513889
 41
0.00513889
  0
SEQEND
 8
0
  0
POLYLINE
  8
0
 62
     0
 66
     1
 10
0
 20
0
 30
0.0
 40
0.37
 41
0.37
  0
VERTEX
  8
0
 10
5.1435
 20
7.56993
 30
0.0
 40
0.00513889
 41
0.00513889
  0
VERTEX
  8
0
 10
5.36778
 20
7.56993
 30
0.0
 40
0.00513889
 41
0.00513889
  0
SEQEND
 8
0
  0
POLYLINE
  8
0
 62
     0
 66
     1
 10
0
 20
0
 30
0.0
 40
0.37
 41
0.37
  0
VERTEX
  8
0
 10
5.13949
 20
7.49908
 30
0.0
 40
0.00513889
 41
0.00513889
  0
VERTEX
  8
0
 10
5.37169
 20
7.49908
 30
0.0
 40
0.00513889
 41
0.00513889
  0
SEQEND
 8
0
  0
POLYLINE
  8
0
 62
     0
 66
     1
 10
0
 20
0
 30
0.0
 40
0.37
 41
0.37
  0
VERTEX
  8
0
 10
4.62978
 20
6.53662
 30
0.0
 40
0.00513889
 41
0.00513889
  0
VERTEX
  8
0
 10
4.62614
 20
6.53662
 30
0.0
 40
0.00513889
 41
0.00513889
  0
SEQEND
 8
0
  0
POLYLINE
  8
0
 62
     0
 66
     1
 10
0
 20
0
 30
0.0
 40
0.37
 41
0.37
  0
VERTEX
  8
0
 10
4.68517
 20
6.53662
 30
0.0
 40
0.00513889
 41
0.00513889
  0
VERTEX
  8
0
 10
4.62978
 20
6.53662
 30
0.0
 40
0.00513889
 41
0.00513889
  0
SEQEND
 8
0
  0
POLYLINE
  8
0
 62
     0
 66
     1
 10
0
 20
0
 30
0.0
 40
0.37
 41
0.37
  0
VERTEX
  8
0
 10
5.88157
 20
6.53662
 30
0.0
 40
0.00513889
 41
0.00513889
  0
VERTEX
  8
0
 10
5.88514
 20
6.53662
 30
0.0
 40
0.00513889
 41
0.00513889
  0
SEQEND
 8
0
  0
POLYLINE
  8
0
 62
     0
 66
     1
 10
0
 20
0
 30
0.0
 40
0.37
 41
0.37
  0
VERTEX
  8
0
 10
5.82611
 20
6.53662
 30
0.0
 40
0.00513889
 41
0.00513889
  0
VERTEX
  8
0
 10
5.88157
 20
6.53662
 30
0.0
 40
0.00513889
 41
0.00513889
  0
SEQEND
 8
0
  0
POLYLINE
  8
0
 62
     0
 66
     1
 10
0
 20
0
 30
0.0
 40
0.37
 41
0.37
  0
VERTEX
  8
0
 10
4.96029
 20
7.05615
 30
0.0
 40
0.00513889
 41
0.00513889
  0
VERTEX
  8
0
 10
4.96029
 20
7.54769
 30
0.0
 40
0.00513889
 41
0.00513889
  0
SEQEND
 8
0
  0
POLYLINE
  8
0
 62
     0
 66
     1
 10
0
 20
0
 30
0.0
 40
0.37
 41
0.37
  0
VERTEX
  8
0
 10
4.98394
 20
7.0549
 30
0.0
 40
0.00513889
 41
0.00513889
  0
VERTEX
  8
0
 10
4.98394
 20
7.49328
 30
0.0
 40
0.00513889
 41
0.00513889
  0
SEQEND
 8
0
  0
POLYLINE
  8
0
 62
     0
 66
     1
 10
0
 20
0
 30
0.0
 40
0.37
 41
0.37
  0
VERTEX
  8
0
 10
4.96029
 20
7.05615
 30
0.0
 40
0.00513889
 41
0.00513889
  0
VERTEX
  8
0
 10
4.9624
 20
7.05578
 30
0.0
 40
0.00513889
 41
0.00513889
  0
VERTEX
  8
0
 10
4.96793
 20
7.05533
 30
0.0
 40
0.00513889
 41
0.00513889
  0
VERTEX
  8
0
 10
4.97613
 20
7.05507
 30
0.0
 40
0.00513889
 41
0.00513889
  0
VERTEX
  8
0
 10
4.98394
 20
7.0549
 30
0.0
 40
0.00513889
 41
0.00513889
  0
SEQEND
 8
0
  0
POLYLINE
  8
0
 62
     0
 66
     1
 10
0
 20
0
 30
0.0
 40
0.37
 41
0.37
  0
VERTEX
  8
0
 10
5.55089
 20
7.05615
 30
0.0
 40
0.00513889
 41
0.00513889
  0
VERTEX
  8
0
 10
5.55089
 20
7.54769
 30
0.0
 40
0.00513889
 41
0.00513889
  0
SEQEND
 8
0
  0
POLYLINE
  8
0
 62
     0
 66
     1
 10
0
 20
0
 30
0.0
 40
0.37
 41
0.37
  0
VERTEX
  8
0
 10
5.52724
 20
7.0549
 30
0.0
 40
0.00513889
 41
0.00513889
  0
VERTEX
  8
0
 10
5.52724
 20
7.49328
 30
0.0
 40
0.00513889
 41
0.00513889
  0
SEQEND
 8
0
  0
POLYLINE
  8
0
 62
     0
 66
     1
 10
0
 20
0
 30
0.0
 40
0.37
 41
0.37
  0
VERTEX
  8
0
 10
5.02056
 20
7.0549
 30
0.0
 40
0.00513889
 41
0.00513889
  0
VERTEX
  8
0
 10
4.98394
 20
7.0549
 30
0.0
 40
0.00513889
 41
0.00513889
  0
SEQEND
 8
0
  0
POLYLINE
  8
0
 62
     0
 66
     1
 10
0
 20
0
 30
0.0
 40
0.37
 41
0.37
  0
VERTEX
  8
0
 10
5.52724
 20
7.0549
 30
0.0
 40
0.00513889
 41
0.00513889
  0
VERTEX
  8
0
 10
5.49056
 20
7.0549
 30
0.0
 40
0.00513889
 41
0.00513889
  0
SEQEND
 8
0
  0
POLYLINE
  8
0
 62
     0
 66
     1
 10
0
 20
0
 30
0.0
 40
0.37
 41
0.37
  0
VERTEX
  8
0
 10
5.52724
 20
7.0549
 30
0.0
 40
0.00513889
 41
0.00513889
  0
VERTEX
  8
0
 10
5.53668
 20
7.05507
 30
0.0
 40
0.00513889
 41
0.00513889
  0
VERTEX
  8
0
 10
5.5446
 20
7.05533
 30
0.0
 40
0.00513889
 41
0.00513889
  0
VERTEX
  8
0
 10
5.54958
 20
7.05572
 30
0.0
 40
0.00513889
 41
0.00513889
  0
VERTEX
  8
0
 10
5.55083
 20
7.05615
 30
0.0
 40
0.00513889
 41
0.00513889
  0
SEQEND
 8
0
  0
POLYLINE
  8
0
 62
     0
 66
     1
 10
0
 20
0
 30
0.0
 40
0.37
 41
0.37
  0
VERTEX
  8
0
 10
4.98394
 20
7.0549
 30
0.0
 40
0.00513889
 41
0.00513889
  0
VERTEX
  8
0
 10
4.98394
 20
7.03256
 30
0.0
 40
0.00513889
 41
0.00513889
  0
SEQEND
 8
0
  0
POLYLINE
  8
0
 62
     0
 66
     1
 10
0
 20
0
 30
0.0
 40
0.37
 41
0.37
  0
VERTEX
  8
0
 10
5.52724
 20
7.0549
 30
0.0
 40
0.00513889
 41
0.00513889
  0
VERTEX
  8
0
 10
5.52724
 20
7.03256
 30
0.0
 40
0.00513889
 41
0.00513889
  0
SEQEND
 8
0
  0
POLYLINE
  8
0
 62
     0
 66
     1
 10
0
 20
0
 30
0.0
 40
0.37
 41
0.37
  0
VERTEX
  8
0
 10
5.52849
 20
7.03256
 30
0.0
 40
0.00513889
 41
0.00513889
  0
VERTEX
  8
0
 10
5.53782
 20
7.03504
 30
0.0
 40
0.00513889
 41
0.00513889
  0
VERTEX
  8
0
 10
5.54546
 20
7.04101
 30
0.0
 40
0.00513889
 41
0.00513889
  0
VERTEX
  8
0
 10
5.54992
 20
7.04953
 30
0.0
 40
0.00513889
 41
0.00513889
  0
VERTEX
  8
0
 10
5.55089
 20
7.05615
 30
0.0
 40
0.00513889
 41
0.00513889
  0
SEQEND
 8
0
  0
POLYLINE
  8
0
 62
     0
 66
     1
 10
0
 20
0
 30
0.0
 40
0.37
 41
0.37
  0
VERTEX
  8
0
 10
4.96029
 20
7.05615
 30
0.0
 40
0.00513889
 41
0.00513889
  0
VERTEX
  8
0
 10
4.9624
 20
7.04671
 30
0.0
 40
0.00513889
 41
0.00513889
  0
VERTEX
  8
0
 10
4.96793
 20
7.03896
 30
0.0
 40
0.00513889
 41
0.00513889
  0
VERTEX
  8
0
 10
4.97613
 20
7.03396
 30
0.0
 40
0.00513889
 41
0.00513889
  0
VERTEX
  8
0
 10
4.98281
 20
7.03256
 30
0.0
 40
0.00513889
 41
0.00513889
  0
SEQEND
 8
0
  0
POLYLINE
  8
0
 62
     0
 66
     1
 10
0
 20
0
 30
0.0
 40
0.37
 41
0.37
  0
VERTEX
  8
0
 10
4.98281
 20
7.03256
 30
0.0
 40
0.00513889
 41
0.00513889
  0
VERTEX
  8
0
 10
4.99713
 20
7.03256
 30
0.0
 40
0.00513889
 41
0.00513889
  0
SEQEND
 8
0
  0
POLYLINE
  8
0
 62
     0
 66
     1
 10
0
 20
0
 30
0.0
 40
0.37
 41
0.37
  0
VERTEX
  8
0
 10
4.95921
 20
7.0549
 30
0.0
 40
0.00513889
 41
0.00513889
  0
VERTEX
  8
0
 10
4.95475
 20
7.13894
 30
0.0
 40
0.00513889
 41
0.00513889
  0
SEQEND
 8
0
  0
POLYLINE
  8
0
 62
     0
 66
     1
 10
0
 20
0
 30
0.0
 40
0.37
 41
0.37
  0
VERTEX
  8
0
 10
4.96029
 20
7.54769
 30
0.0
 40
0.00513889
 41
0.00513889
  0
VERTEX
  8
0
 10
4.93338
 20
7.54769
 30
0.0
 40
0.00513889
 41
0.00513889
  0
SEQEND
 8
0
  0
POLYLINE
  8
0
 62
     0
 66
     1
 10
0
 20
0
 30
0.0
 40
0.37
 41
0.37
  0
VERTEX
  8
0
 10
4.95921
 20
7.0549
 30
0.0
 40
0.00513889
 41
0.00513889
  0
VERTEX
  8
0
 10
4.96169
 20
7.04563
 30
0.0
 40
0.00513889
 41
0.00513889
  0
VERTEX
  8
0
 10
4.96767
 20
7.03814
 30
0.0
 40
0.00513889
 41
0.00513889
  0
VERTEX
  8
0
 10
4.97613
 20
7.03353
 30
0.0
 40
0.00513889
 41
0.00513889
  0
VERTEX
  8
0
 10
4.98281
 20
7.03256
 30
0.0
 40
0.00513889
 41
0.00513889
  0
SEQEND
 8
0
  0
POLYLINE
  8
0
 62
     0
 66
     1
 10
0
 20
0
 30
0.0
 40
0.37
 41
0.37
  0
VERTEX
  8
0
 10
5.52849
 20
7.03256
 30
0.0
 40
0.00513889
 41
0.00513889
  0
VERTEX
  8
0
 10
5.53792
 20
7.0345
 30
0.0
 40
0.00513889
 41
0.00513889
  0
VERTEX
  8
0
 10
5.54585
 20
7.0401
 30
0.0
 40
0.00513889
 41
0.00513889
  0
VERTEX
  8
0
 10
5.55072
 20
7.04839
 30
0.0
 40
0.00513889
 41
0.00513889
  0
VERTEX
  8
0
 10
5.55214
 20
7.0549
 30
0.0
 40
0.00513889
 41
0.00513889
  0
SEQEND
 8
0
  0
POLYLINE
  8
0
 62
     0
 66
     1
 10
0
 20
0
 30
0.0
 40
0.37
 41
0.37
  0
VERTEX
  8
0
 10
5.51421
 20
7.03256
 30
0.0
 40
0.00513889
 41
0.00513889
  0
VERTEX
  8
0
 10
5.52849
 20
7.03256
 30
0.0
 40
0.00513889
 41
0.00513889
  0
SEQEND
 8
0
  0
POLYLINE
  8
0
 62
     0
 66
     1
 10
0
 20
0
 30
0.0
 40
0.37
 41
0.37
  0
VERTEX
  8
0
 10
5.81668
 20
6.9381
 30
0.0
 40
0.00513889
 41
0.00513889
  0
VERTEX
  8
0
 10
4.69461
 20
6.9381
 30
0.0
 40
0.00513889
 41
0.00513889
  0
SEQEND
 8
0
  0
POLYLINE
  8
0
 62
     0
 66
     1
 10
0
 20
0
 30
0.0
 40
0.37
 41
0.37
  0
VERTEX
  8
0
 10
5.55214
 20
7.0549
 30
0.0
 40
0.00513889
 41
0.00513889
  0
VERTEX
  8
0
 10
5.55643
 20
7.13894
 30
0.0
 40
0.00513889
 41
0.00513889
  0
SEQEND
 8
0
  0
POLYLINE
  8
0
 62
     0
 66
     1
 10
0
 20
0
 30
0.0
 40
0.37
 41
0.37
  0
VERTEX
  8
0
 10
5.57796
 20
7.54769
 30
0.0
 40
0.00513889
 41
0.00513889
  0
VERTEX
  8
0
 10
5.55089
 20
7.54769
 30
0.0
 40
0.00513889
 41
0.00513889
  0
SEQEND
 8
0
  0
POLYLINE
  8
0
 62
     0
 66
     1
 10
0
 20
0
 30
0.0
 40
0.37
 41
0.37
  0
VERTEX
  8
0
 10
5.08669
 20
6.572
 30
0.0
 40
0.00513889
 41
0.00513889
  0
VERTEX
  8
0
 10
5.0931
 20
6.56478
 30
0.0
 40
0.00513889
 41
0.00513889
  0
VERTEX
  8
0
 10
5.10183
 20
6.56076
 30
0.0
 40
0.00513889
 41
0.00513889
  0
VERTEX
  8
0
 10
5.1071
 20
6.56022
 30
0.0
 40
0.00513889
 41
0.00513889
  0
SEQEND
 8
0
  0
POLYLINE
  8
0
 62
     0
 66
     1
 10
0
 20
0
 30
0.0
 40
0.37
 41
0.37
  0
VERTEX
  8
0
 10
5.40408
 20
6.56022
 30
0.0
 40
0.00513889
 41
0.00513889
  0
VERTEX
  8
0
 10
5.41351
 20
6.56218
 30
0.0
 40
0.00513889
 41
0.00513889
  0
VERTEX
  8
0
 10
5.42144
 20
6.56771
 30
0.0
 40
0.00513889
 41
0.00513889
  0
VERTEX
  8
0
 10
5.42458
 20
6.572
 30
0.0
 40
0.00513889
 41
0.00513889
  0
SEQEND
 8
0
  0
POLYLINE
  8
0
 62
     0
 66
     1
 10
0
 20
0
 30
0.0
 40
0.37
 41
0.37
  0
VERTEX
  8
0
 10
5.40419
 20
6.56022
 30
0.0
 40
0.00513889
 41
0.00513889
  0
VERTEX
  8
0
 10
5.40375
 20
6.56022
 30
0.0
 40
0.00513889
 41
0.00513889
  0
SEQEND
 8
0
  0
POLYLINE
  8
0
 62
     0
 66
     1
 10
0
 20
0
 30
0.0
 40
0.37
 41
0.37
  0
VERTEX
  8
0
 10
5.08669
 20
6.572
 30
0.0
 40
0.00513889
 41
0.00513889
  0
VERTEX
  8
0
 10
5.02528
 20
6.67828
 30
0.0
 40
0.00513889
 41
0.00513889
  0
SEQEND
 8
0
  0
POLYLINE
  8
0
 62
     0
 66
     1
 10
0
 20
0
 30
0.0
 40
0.37
 41
0.37
  0
VERTEX
  8
0
 10
5.42458
 20
6.572
 30
0.0
 40
0.00513889
 41
0.00513889
  0
VERTEX
  8
0
 10
5.486
 20
6.67828
 30
0.0
 40
0.00513889
 41
0.00513889
  0
SEQEND
 8
0
  0
POLYLINE
  8
0
 62
     0
 66
     1
 10
0
 20
0
 30
0.0
 40
0.37
 41
0.37
  0
VERTEX
  8
0
 10
5.02528
 20
6.67828
 30
0.0
 40
0.00513889
 41
0.00513889
  0
VERTEX
  8
0
 10
5.02528
 20
6.87907
 30
0.0
 40
0.00513889
 41
0.00513889
  0
SEQEND
 8
0
  0
POLYLINE
  8
0
 62
     0
 66
     1
 10
0
 20
0
 30
0.0
 40
0.37
 41
0.37
  0
VERTEX
  8
0
 10
5.486
 20
6.67828
 30
0.0
 40
0.00513889
 41
0.00513889
  0
VERTEX
  8
0
 10
5.486
 20
6.87907
 30
0.0
 40
0.00513889
 41
0.00513889
  0
SEQEND
 8
0
  0
POLYLINE
  8
0
 62
     0
 66
     1
 10
0
 20
0
 30
0.0
 40
0.37
 41
0.37
  0
VERTEX
  8
0
 10
5.02528
 20
6.87907
 30
0.0
 40
0.00513889
 41
0.00513889
  0
VERTEX
  8
0
 10
5.02447
 20
6.88883
 30
0.0
 40
0.00513889
 41
0.00513889
  0
VERTEX
  8
0
 10
5.02214
 20
6.89828
 30
0.0
 40
0.00513889
 41
0.00513889
  0
VERTEX
  8
0
 10
5.01807
 20
6.90728
 30
0.0
 40
0.00513889
 41
0.00513889
  0
VERTEX
  8
0
 10
5.01264
 20
6.91547
 30
0.0
 40
0.00513889
 41
0.00513889
  0
VERTEX
  8
0
 10
5.00603
 20
6.92269
 30
0.0
 40
0.00513889
 41
0.00513889
  0
VERTEX
  8
0
 10
4.99821
 20
6.92865
 30
0.0
 40
0.00513889
 41
0.00513889
  0
VERTEX
  8
0
 10
4.98964
 20
6.93326
 30
0.0
 40
0.00513889
 41
0.00513889
  0
VERTEX
  8
0
 10
4.98031
 20
6.93647
 30
0.0
 40
0.00513889
 41
0.00513889
  0
VERTEX
  8
0
 10
4.9706
 20
6.93799
 30
0.0
 40
0.00513889
 41
0.00513889
  0
VERTEX
  8
0
 10
4.96625
 20
6.9381
 30
0.0
 40
0.00513889
 41
0.00513889
  0
SEQEND
 8
0
  0
POLYLINE
  8
0
 62
     0
 66
     1
 10
0
 20
0
 30
0.0
 40
0.37
 41
0.37
  0
VERTEX
  8
0
 10
5.54503
 20
6.9381
 30
0.0
 40
0.00513889
 41
0.00513889
  0
VERTEX
  8
0
 10
5.53515
 20
6.93728
 30
0.0
 40
0.00513889
 41
0.00513889
  0
VERTEX
  8
0
 10
5.52572
 20
6.93494
 30
0.0
 40
0.00513889
 41
0.00513889
  0
VERTEX
  8
0
 10
5.51671
 20
6.93088
 30
0.0
 40
0.00513889
 41
0.00513889
  0
VERTEX
  8
0
 10
5.50851
 20
6.92546
 30
0.0
 40
0.00513889
 41
0.00513889
  0
VERTEX
  8
0
 10
5.50142
 20
6.91883
 30
0.0
 40
0.00513889
 41
0.00513889
  0
VERTEX
  8
0
 10
5.49544
 20
6.91103
 30
0.0
 40
0.00513889
 41
0.00513889
  0
VERTEX
  8
0
 10
5.49072
 20
6.90246
 30
0.0
 40
0.00513889
 41
0.00513889
  0
VERTEX
  8
0
 10
5.48768
 20
6.89312
 30
0.0
 40
0.00513889
 41
0.00513889
  0
VERTEX
  8
0
 10
5.48617
 20
6.8834
 30
0.0
 40
0.00513889
 41
0.00513889
  0
VERTEX
  8
0
 10
5.486
 20
6.87907
 30
0.0
 40
0.00513889
 41
0.00513889
  0
SEQEND
 8
0
  0
POLYLINE
  8
0
 62
     0
 66
     1
 10
0
 20
0
 30
0.0
 40
0.37
 41
0.37
  0
VERTEX
  8
0
 10
4.50792
 20
7.02203
 30
0.0
 40
0.00513889
 41
0.00513889
  0
VERTEX
  8
0
 10
4.50792
 20
6.9381
 30
0.0
 40
0.00513889
 41
0.00513889
  0
SEQEND
 8
0
  0
POLYLINE
  8
0
 62
     0
 66
     1
 10
0
 20
0
 30
0.0
 40
0.37
 41
0.37
  0
VERTEX
  8
0
 10
6.00319
 20
6.9381
 30
0.0
 40
0.00513889
 41
0.00513889
  0
VERTEX
  8
0
 10
6.00319
 20
7.02203
 30
0.0
 40
0.00513889
 41
0.00513889
  0
SEQEND
 8
0
  0
POLYLINE
  8
0
 62
     0
 66
     1
 10
0
 20
0
 30
0.0
 40
0.37
 41
0.37
  0
VERTEX
  8
0
 10
5.79351
 20
6.87907
 30
0.0
 40
0.00513889
 41
0.00513889
  0
VERTEX
  8
0
 10
5.80339
 20
6.87967
 30
0.0
 40
0.00513889
 41
0.00513889
  0
VERTEX
  8
0
 10
5.81293
 20
6.88172
 30
0.0
 40
0.00513889
 41
0.00513889
  0
VERTEX
  8
0
 10
5.8221
 20
6.88493
 30
0.0
 40
0.00513889
 41
0.00513889
  0
VERTEX
  8
0
 10
5.83083
 20
6.88949
 30
0.0
 40
0.00513889
 41
0.00513889
  0
VERTEX
  8
0
 10
5.83892
 20
6.89518
 30
0.0
 40
0.00513889
 41
0.00513889
  0
VERTEX
  8
0
 10
5.84614
 20
6.90186
 30
0.0
 40
0.00513889
 41
0.00513889
  0
VERTEX
  8
0
 10
5.85226
 20
6.9095
 30
0.0
 40
0.00513889
 41
0.00513889
  0
VERTEX
  8
0
 10
5.85736
 20
6.91786
 30
0.0
 40
0.00513889
 41
0.00513889
  0
VERTEX
  8
0
 10
5.86143
 20
6.92686
 30
0.0
 40
0.00513889
 41
0.00513889
  0
VERTEX
  8
0
 10
5.86404
 20
6.93631
 30
0.0
 40
0.00513889
 41
0.00513889
  0
VERTEX
  8
0
 10
5.86431
 20
6.9381
 30
0.0
 40
0.00513889
 41
0.00513889
  0
SEQEND
 8
0
  0
POLYLINE
  8
0
 62
     0
 66
     1
 10
0
 20
0
 30
0.0
 40
0.37
 41
0.37
  0
VERTEX
  8
0
 10
5.72265
 20
6.9381
 30
0.0
 40
0.00513889
 41
0.00513889
  0
VERTEX
  8
0
 10
5.72504
 20
6.92854
 30
0.0
 40
0.00513889
 41
0.00513889
  0
VERTEX
  8
0
 10
5.72879
 20
6.91949
 30
0.0
 40
0.00513889
 41
0.00513889
  0
VERTEX
  8
0
 10
5.73361
 20
6.91103
 30
0.0
 40
0.00513889
 41
0.00513889
  0
VERTEX
  8
0
 10
5.73964
 20
6.90326
 30
0.0
 40
0.00513889
 41
0.00513889
  0
VERTEX
  8
0
 10
5.74669
 20
6.89632
 30
0.0
 40
0.00513889
 41
0.00513889
  0
VERTEX
  8
0
 10
5.75461
 20
6.89046
 30
0.0
 40
0.00513889
 41
0.00513889
  0
VERTEX
  8
0
 10
5.76324
 20
6.88574
 30
0.0
 40
0.00513889
 41
0.00513889
  0
VERTEX
  8
0
 10
5.7724
 20
6.88226
 30
0.0
 40
0.00513889
 41
0.00513889
  0
VERTEX
  8
0
 10
5.78185
 20
6.87993
 30
0.0
 40
0.00513889
 41
0.00513889
  0
VERTEX
  8
0
 10
5.79172
 20
6.87907
 30
0.0
 40
0.00513889
 41
0.00513889
  0
VERTEX
  8
0
 10
5.79351
 20
6.87907
 30
0.0
 40
0.00513889
 41
0.00513889
  0
SEQEND
 8
0
  0
POLYLINE
  8
0
 62
     0
 66
     1
 10
0
 20
0
 30
0.0
 40
0.37
 41
0.37
  0
VERTEX
  8
0
 10
4.56711
 20
6.92036
 30
0.0
 40
0.00513889
 41
0.00513889
  0
VERTEX
  8
0
 10
4.56446
 20
6.92953
 30
0.0
 40
0.00513889
 41
0.00513889
  0
VERTEX
  8
0
 10
4.55767
 20
6.93604
 30
0.0
 40
0.00513889
 41
0.00513889
  0
VERTEX
  8
0
 10
4.54932
 20
6.9381
 30
0.0
 40
0.00513889
 41
0.00513889
  0
SEQEND
 8
0
  0
POLYLINE
  8
0
 62
     0
 66
     1
 10
0
 20
0
 30
0.0
 40
0.37
 41
0.37
  0
VERTEX
  8
0
 10
4.71783
 20
6.87907
 30
0.0
 40
0.00513889
 41
0.00513889
  0
VERTEX
  8
0
 10
4.72754
 20
6.87967
 30
0.0
 40
0.00513889
 41
0.00513889
  0
VERTEX
  8
0
 10
4.73708
 20
6.88172
 30
0.0
 40
0.00513889
 41
0.00513889
  0
VERTEX
  8
0
 10
4.74642
 20
6.88493
 30
0.0
 40
0.00513889
 41
0.00513889
  0
VERTEX
  8
0
 10
4.75515
 20
6.88949
 30
0.0
 40
0.00513889
 41
0.00513889
  0
VERTEX
  8
0
 10
4.76324
 20
6.89518
 30
0.0
 40
0.00513889
 41
0.00513889
  0
VERTEX
  8
0
 10
4.77029
 20
6.90186
 30
0.0
 40
0.00513889
 41
0.00513889
  0
VERTEX
  8
0
 10
4.77658
 20
6.9095
 30
0.0
 40
0.00513889
 41
0.00513889
  0
VERTEX
  8
0
 10
4.78168
 20
6.91786
 30
0.0
 40
0.00513889
 41
0.00513889
  0
VERTEX
  8
0
 10
4.7856
 20
6.92686
 30
0.0
 40
0.00513889
 41
0.00513889
  0
VERTEX
  8
0
 10
4.78825
 20
6.93631
 30
0.0
 40
0.00513889
 41
0.00513889
  0
VERTEX
  8
0
 10
4.78863
 20
6.9381
 30
0.0
 40
0.00513889
 41
0.00513889
  0
SEQEND
 8
0
  0
POLYLINE
  8
0
 62
     0
 66
     1
 10
0
 20
0
 30
0.0
 40
0.37
 41
0.37
  0
VERTEX
  8
0
 10
4.64681
 20
6.9381
 30
0.0
 40
0.00513889
 41
0.00513889
  0
VERTEX
  8
0
 10
4.64936
 20
6.92854
 30
0.0
 40
0.00513889
 41
0.00513889
  0
VERTEX
  8
0
 10
4.6531
 20
6.91949
 30
0.0
 40
0.00513889
 41
0.00513889
  0
VERTEX
  8
0
 10
4.65793
 20
6.91103
 30
0.0
 40
0.00513889
 41
0.00513889
  0
VERTEX
  8
0
 10
4.6639
 20
6.90326
 30
0.0
 40
0.00513889
 41
0.00513889
  0
VERTEX
  8
0
 10
4.67101
 20
6.89632
 30
0.0
 40
0.00513889
 41
0.00513889
  0
VERTEX
  8
0
 10
4.67876
 20
6.89046
 30
0.0
 40
0.00513889
 41
0.00513889
  0
VERTEX
  8
0
 10
4.68739
 20
6.88574
 30
0.0
 40
0.00513889
 41
0.00513889
  0
VERTEX
  8
0
 10
4.69656
 20
6.88226
 30
0.0
 40
0.00513889
 41
0.00513889
  0
VERTEX
  8
0
 10
4.70617
 20
6.87993
 30
0.0
 40
0.00513889
 41
0.00513889
  0
VERTEX
  8
0
 10
4.71588
 20
6.87907
 30
0.0
 40
0.00513889
 41
0.00513889
  0
VERTEX
  8
0
 10
4.71783
 20
6.87907
 30
0.0
 40
0.00513889
 41
0.00513889
  0
SEQEND
 8
0
  0
POLYLINE
  8
0
 62
     0
 66
     1
 10
0
 20
0
 30
0.0
 40
0.37
 41
0.37
  0
VERTEX
  8
0
 10
5.96197
 20
6.9381
 30
0.0
 40
0.00513889
 41
0.00513889
  0
VERTEX
  8
0
 10
5.95281
 20
6.9356
 30
0.0
 40
0.00513889
 41
0.00513889
  0
VERTEX
  8
0
 10
5.94629
 20
6.92865
 30
0.0
 40
0.00513889
 41
0.00513889
  0
VERTEX
  8
0
 10
5.94417
 20
6.92036
 30
0.0
 40
0.00513889
 41
0.00513889
  0
SEQEND
 8
0
  0
POLYLINE
  8
0
 62
     0
 66
     1
 10
0
 20
0
 30
0.0
 40
0.37
 41
0.37
  0
VERTEX
  8
0
 10
4.74349
 20
6.67828
 30
0.0
 40
0.00513889
 41
0.00513889
  0
VERTEX
  8
0
 10
4.76361
 20
6.69851
 30
0.0
 40
0.00513889
 41
0.00513889
  0
SEQEND
 8
0
  0
POLYLINE
  8
0
 62
     0
 66
     1
 10
0
 20
0
 30
0.0
 40
0.37
 41
0.37
  0
VERTEX
  8
0
 10
4.56782
 20
6.67828
 30
0.0
 40
0.00513889
 41
0.00513889
  0
VERTEX
  8
0
 10
4.56711
 20
6.6791
 30
0.0
 40
0.00513889
 41
0.00513889
  0
SEQEND
 8
0
  0
POLYLINE
  8
0
 62
     0
 66
     1
 10
0
 20
0
 30
0.0
 40
0.37
 41
0.37
  0
VERTEX
  8
0
 10
4.56711
 20
6.6791
 30
0.0
 40
0.00513889
 41
0.00513889
  0
VERTEX
  8
0
 10
4.56711
 20
6.92036
 30
0.0
 40
0.00513889
 41
0.00513889
  0
SEQEND
 8
0
  0
POLYLINE
  8
0
 62
     0
 66
     1
 10
0
 20
0
 30
0.0
 40
0.37
 41
0.37
  0
VERTEX
  8
0
 10
5.76779
 20
6.67828
 30
0.0
 40
0.00513889
 41
0.00513889
  0
VERTEX
  8
0
 10
5.7475
 20
6.69851
 30
0.0
 40
0.00513889
 41
0.00513889
  0
SEQEND
 8
0
  0
POLYLINE
  8
0
 62
     0
 66
     1
 10
0
 20
0
 30
0.0
 40
0.37
 41
0.37
  0
VERTEX
  8
0
 10
5.94417
 20
6.92036
 30
0.0
 40
0.00513889
 41
0.00513889
  0
VERTEX
  8
0
 10
5.94417
 20
6.6791
 30
0.0
 40
0.00513889
 41
0.00513889
  0
SEQEND
 8
0
  0
POLYLINE
  8
0
 62
     0
 66
     1
 10
0
 20
0
 30
0.0
 40
0.37
 41
0.37
  0
VERTEX
  8
0
 10
5.94353
 20
6.67828
 30
0.0
 40
0.00513889
 41
0.00513889
  0
VERTEX
  8
0
 10
5.94417
 20
6.6791
 30
0.0
 40
0.00513889
 41
0.00513889
  0
SEQEND
 8
0
  0
POLYLINE
  8
0
 62
     0
 66
     1
 10
0
 20
0
 30
0.0
 40
0.37
 41
0.37
  0
VERTEX
  8
0
 10
4.76361
 20
6.8884
 30
0.0
 40
0.00513889
 41
0.00513889
  0
VERTEX
  8
0
 10
4.77268
 20
6.89258
 30
0.0
 40
0.00513889
 41
0.00513889
  0
VERTEX
  8
0
 10
4.78114
 20
6.89757
 30
0.0
 40
0.00513889
 41
0.00513889
  0
VERTEX
  8
0
 10
4.78863
 20
6.90272
 30
0.0
 40
0.00513889
 41
0.00513889
  0
SEQEND
 8
0
  0
POLYLINE
  8
0
 62
     0
 66
     1
 10
0
 20
0
 30
0.0
 40
0.37
 41
0.37
  0
VERTEX
  8
0
 10
5.72265
 20
6.90272
 30
0.0
 40
0.00513889
 41
0.00513889
  0
VERTEX
  8
0
 10
5.73085
 20
6.89714
 30
0.0
 40
0.00513889
 41
0.00513889
  0
VERTEX
  8
0
 10
5.73931
 20
6.89231
 30
0.0
 40
0.00513889
 41
0.00513889
  0
VERTEX
  8
0
 10
5.7475
 20
6.8884
 30
0.0
 40
0.00513889
 41
0.00513889
  0
SEQEND
 8
0
  0
POLYLINE
  8
0
 62
     0
 66
     1
 10
0
 20
0
 30
0.0
 40
0.37
 41
0.37
  0
VERTEX
  8
0
 10
4.62614
 20
6.53662
 30
0.0
 40
0.00513889
 41
0.00513889
  0
VERTEX
  8
0
 10
4.56711
 20
6.67828
 30
0.0
 40
0.00513889
 41
0.00513889
  0
SEQEND
 8
0
  0
POLYLINE
  8
0
 62
     0
 66
     1
 10
0
 20
0
 30
0.0
 40
0.37
 41
0.37
  0
VERTEX
  8
0
 10
4.68517
 20
6.53662
 30
0.0
 40
0.00513889
 41
0.00513889
  0
VERTEX
  8
0
 10
4.74419
 20
6.67828
 30
0.0
 40
0.00513889
 41
0.00513889
  0
SEQEND
 8
0
  0
POLYLINE
  8
0
 62
     0
 66
     1
 10
0
 20
0
 30
0.0
 40
0.37
 41
0.37
  0
VERTEX
  8
0
 10
5.88514
 20
6.53662
 30
0.0
 40
0.00513889
 41
0.00513889
  0
VERTEX
  8
0
 10
5.94417
 20
6.67828
 30
0.0
 40
0.00513889
 41
0.00513889
  0
SEQEND
 8
0
  0
POLYLINE
  8
0
 62
     0
 66
     1
 10
0
 20
0
 30
0.0
 40
0.37
 41
0.37
  0
VERTEX
  8
0
 10
5.82611
 20
6.53662
 30
0.0
 40
0.00513889
 41
0.00513889
  0
VERTEX
  8
0
 10
5.76708
 20
6.67828
 30
0.0
 40
0.00513889
 41
0.00513889
  0
SEQEND
 8
0
  0
POLYLINE
  8
0
 62
     0
 66
     1
 10
0
 20
0
 30
0.0
 70
     1
 40
0.37
 41
0.37
  0
VERTEX
  8
0
 10
5.29699
 20
8.51492
 30
0.0
 40
0.00513889
 41
0.00513889
  0
VERTEX
  8
0
 10
5.29585
 20
8.52463
 30
0.0
 40
0.00513889
 41
0.00513889
  0
VERTEX
  8
0
 10
5.29237
 20
8.53369
 30
0.0
 40
0.00513889
 41
0.00513889
  0
VERTEX
  8
0
 10
5.287
 20
8.54189
 30
0.0
 40
0.00513889
 41
0.00513889
  0
VERTEX
  8
0
 10
5.27974
 20
8.54839
 30
0.0
 40
0.00513889
 41
0.00513889
  0
VERTEX
  8
0
 10
5.27115
 20
8.55311
 30
0.0
 40
0.00513889
 41
0.00513889
  0
VERTEX
  8
0
 10
5.26183
 20
8.55578
 30
0.0
 40
0.00513889
 41
0.00513889
  0
VERTEX
  8
0
 10
5.25196
 20
8.55604
 30
0.0
 40
0.00513889
 41
0.00513889
  0
VERTEX
  8
0
 10
5.2424
 20
8.5541
 30
0.0
 40
0.00513889
 41
0.00513889
  0
VERTEX
  8
0
 10
5.23361
 20
8.54981
 30
0.0
 40
0.00513889
 41
0.00513889
  0
VERTEX
  8
0
 10
5.22601
 20
8.54368
 30
0.0
 40
0.00513889
 41
0.00513889
  0
VERTEX
  8
0
 10
5.22006
 20
8.53592
 30
0.0
 40
0.00513889
 41
0.00513889
  0
VERTEX
  8
0
 10
5.21615
 20
8.52701
 30
0.0
 40
0.00513889
 41
0.00513889
  0
VERTEX
  8
0
 10
5.21436
 20
8.51742
 30
0.0
 40
0.00513889
 41
0.00513889
  0
VERTEX
  8
0
 10
5.2149
 20
8.5076
 30
0.0
 40
0.00513889
 41
0.00513889
  0
VERTEX
  8
0
 10
5.21783
 20
8.49826
 30
0.0
 40
0.00513889
 41
0.00513889
  0
VERTEX
  8
0
 10
5.22265
 20
8.48981
 30
0.0
 40
0.00513889
 41
0.00513889
  0
VERTEX
  8
0
 10
5.22949
 20
8.48286
 30
0.0
 40
0.00513889
 41
0.00513889
  0
VERTEX
  8
0
 10
5.23779
 20
8.4776
 30
0.0
 40
0.00513889
 41
0.00513889
  0
VERTEX
  8
0
 10
5.24696
 20
8.4745
 30
0.0
 40
0.00513889
 41
0.00513889
  0
VERTEX
  8
0
 10
5.25667
 20
8.47353
 30
0.0
 40
0.00513889
 41
0.00513889
  0
VERTEX
  8
0
 10
5.26644
 20
8.47493
 30
0.0
 40
0.00513889
 41
0.00513889
  0
VERTEX
  8
0
 10
5.27544
 20
8.47868
 30
0.0
 40
0.00513889
 41
0.00513889
  0
VERTEX
  8
0
 10
5.28347
 20
8.48421
 30
0.0
 40
0.00513889
 41
0.00513889
  0
VERTEX
  8
0
 10
5.28988
 20
8.49175
 30
0.0
 40
0.00513889
 41
0.00513889
  0
VERTEX
  8
0
 10
5.29432
 20
8.50032
 30
0.0
 40
0.00513889
 41
0.00513889
  0
VERTEX
  8
0
 10
5.29671
 20
8.50976
 30
0.0
 40
0.00513889
 41
0.00513889
  0
VERTEX
  8
0
 10
5.29699
 20
8.51492
 30
0.0
 40
0.00513889
 41
0.00513889
  0
SEQEND
 8
0
  0
POLYLINE
  8
0
 62
     0
 66
     1
 10
0
 20
0
 30
0.0
 40
0.37
 41
0.37
  0
VERTEX
  8
0
 10
5.32183
 20
8.57981
 30
0.0
 40
0.00513889
 41
0.00513889
  0
VERTEX
  8
0
 10
5.32183
 20
8.4381
 30
0.0
 40
0.00513889
 41
0.00513889
  0
SEQEND
 8
0
  0
POLYLINE
  8
0
 62
     0
 66
     1
 10
0
 20
0
 30
0.0
 40
0.37
 41
0.37
  0
VERTEX
  8
0
 10
5.18946
 20
8.57981
 30
0.0
 40
0.00513889
 41
0.00513889
  0
VERTEX
  8
0
 10
5.18946
 20
8.4381
 30
0.0
 40
0.00513889
 41
0.00513889
  0
SEQEND
 8
0
  0
POLYLINE
  8
0
 62
     0
 66
     1
 10
0
 20
0
 30
0.0
 40
0.37
 41
0.37
  0
VERTEX
  8
0
 10
5.68197
 20
8.19006
 30
0.0
 40
0.00513889
 41
0.00513889
  0
VERTEX
  8
0
 10
5.68197
 20
8.17828
 30
0.0
 40
0.00513889
 41
0.00513889
  0
SEQEND
 8
0
  0
POLYLINE
  8
0
 62
     0
 66
     1
 10
0
 20
0
 30
0.0
 40
0.37
 41
0.37
  0
VERTEX
  8
0
 10
4.82921
 20
8.19006
 30
0.0
 40
0.00513889
 41
0.00513889
  0
VERTEX
  8
0
 10
4.82921
 20
8.17828
 30
0.0
 40
0.00513889
 41
0.00513889
  0
SEQEND
 8
0
  0
POLYLINE
  8
0
 62
     0
 66
     1
 10
0
 20
0
 30
0.0
 40
0.37
 41
0.37
  0
VERTEX
  8
0
 10
5.45643
 20
8.63894
 30
0.0
 40
0.00513889
 41
0.00513889
  0
VERTEX
  8
0
 10
5.45643
 20
8.65647
 30
0.0
 40
0.00513889
 41
0.00513889
  0
SEQEND
 8
0
  0
POLYLINE
  8
0
 62
     0
 66
     1
 10
0
 20
0
 30
0.0
 40
0.37
 41
0.37
  0
VERTEX
  8
0
 10
5.45643
 20
8.63894
 30
0.0
 40
0.00513889
 41
0.00513889
  0
VERTEX
  8
0
 10
5.4739
 20
8.63894
 30
0.0
 40
0.00513889
 41
0.00513889
  0
SEQEND
 8
0
  0
POLYLINE
  8
0
 62
     0
 66
     1
 10
0
 20
0
 30
0.0
 40
0.37
 41
0.37
  0
VERTEX
  8
0
 10
5.4739
 20
8.63894
 30
0.0
 40
0.00513889
 41
0.00513889
  0
VERTEX
  8
0
 10
5.4714
 20
8.648
 30
0.0
 40
0.00513889
 41
0.00513889
  0
VERTEX
  8
0
 10
5.46446
 20
8.65451
 30
0.0
 40
0.00513889
 41
0.00513889
  0
VERTEX
  8
0
 10
5.45643
 20
8.65647
 30
0.0
 40
0.00513889
 41
0.00513889
  0
SEQEND
 8
0
  0
POLYLINE
  8
0
 62
     0
 66
     1
 10
0
 20
0
 30
0.0
 40
0.37
 41
0.37
  0
VERTEX
  8
0
 10
5.45643
 20
8.65647
 30
0.0
 40
0.00513889
 41
0.00513889
  0
VERTEX
  8
0
 10
5.31603
 20
8.65647
 30
0.0
 40
0.00513889
 41
0.00513889
  0
SEQEND
 8
0
  0
POLYLINE
  8
0
 62
     0
 66
     1
 10
0
 20
0
 30
0.0
 40
0.37
 41
0.37
  0
VERTEX
  8
0
 10
5.4739
 20
8.63894
 30
0.0
 40
0.00513889
 41
0.00513889
  0
VERTEX
  8
0
 10
5.4739
 20
8.24908
 30
0.0
 40
0.00513889
 41
0.00513889
  0
SEQEND
 8
0
  0
POLYLINE
  8
0
 62
     0
 66
     1
 10
0
 20
0
 30
0.0
 40
0.37
 41
0.37
  0
VERTEX
  8
0
 10
5.49186
 20
8.24908
 30
0.0
 40
0.00513889
 41
0.00513889
  0
VERTEX
  8
0
 10
5.49186
 20
8.65076
 30
0.0
 40
0.00513889
 41
0.00513889
  0
SEQEND
 8
0
  0
POLYLINE
  8
0
 62
     0
 66
     1
 10
0
 20
0
 30
0.0
 40
0.37
 41
0.37
  0
VERTEX
  8
0
 10
5.46821
 20
8.67437
 30
0.0
 40
0.00513889
 41
0.00513889
  0
VERTEX
  8
0
 10
5.49186
 20
8.65076
 30
0.0
 40
0.00513889
 41
0.00513889
  0
SEQEND
 8
0
  0
POLYLINE
  8
0
 62
     0
 66
     1
 10
0
 20
0
 30
0.0
 40
0.37
 41
0.37
  0
VERTEX
  8
0
 10
5.29824
 20
8.67437
 30
0.0
 40
0.00513889
 41
0.00513889
  0
VERTEX
  8
0
 10
5.46821
 20
8.67437
 30
0.0
 40
0.00513889
 41
0.00513889
  0
SEQEND
 8
0
  0
POLYLINE
  8
0
 62
     0
 66
     1
 10
0
 20
0
 30
0.0
 40
0.37
 41
0.37
  0
VERTEX
  8
0
 10
5.45643
 20
8.63894
 30
0.0
 40
0.00513889
 41
0.00513889
  0
VERTEX
  8
0
 10
5.43892
 20
8.62131
 30
0.0
 40
0.00513889
 41
0.00513889
  0
SEQEND
 8
0
  0
POLYLINE
  8
0
 62
     0
 66
     1
 10
0
 20
0
 30
0.0
 40
0.37
 41
0.37
  0
VERTEX
  8
0
 10
5.43892
 20
8.62131
 30
0.0
 40
0.00513889
 41
0.00513889
  0
VERTEX
  8
0
 10
5.32183
 20
8.62131
 30
0.0
 40
0.00513889
 41
0.00513889
  0
SEQEND
 8
0
  0
POLYLINE
  8
0
 62
     0
 66
     1
 10
0
 20
0
 30
0.0
 40
0.37
 41
0.37
  0
VERTEX
  8
0
 10
5.29824
 20
8.67437
 30
0.0
 40
0.00513889
 41
0.00513889
  0
VERTEX
  8
0
 10
5.32183
 20
8.65076
 30
0.0
 40
0.00513889
 41
0.00513889
  0
SEQEND
 8
0
  0
POLYLINE
  8
0
 62
     0
 66
     1
 10
0
 20
0
 30
0.0
 40
0.37
 41
0.37
  0
VERTEX
  8
0
 10
5.32183
 20
8.24908
 30
0.0
 40
0.00513889
 41
0.00513889
  0
VERTEX
  8
0
 10
5.32183
 20
8.4381
 30
0.0
 40
0.00513889
 41
0.00513889
  0
SEQEND
 8
0
  0
POLYLINE
  8
0
 62
     0
 66
     1
 10
0
 20
0
 30
0.0
 40
0.37
 41
0.37
  0
VERTEX
  8
0
 10
5.32183
 20
8.57981
 30
0.0
 40
0.00513889
 41
0.00513889
  0
VERTEX
  8
0
 10
5.32183
 20
8.65076
 30
0.0
 40
0.00513889
 41
0.00513889
  0
SEQEND
 8
0
  0
POLYLINE
  8
0
 62
     0
 66
     1
 10
0
 20
0
 30
0.0
 40
0.37
 41
0.37
  0
VERTEX
  8
0
 10
5.43892
 20
8.62131
 30
0.0
 40
0.00513889
 41
0.00513889
  0
VERTEX
  8
0
 10
5.43892
 20
8.24908
 30
0.0
 40
0.00513889
 41
0.00513889
  0
SEQEND
 8
0
  0
POLYLINE
  8
0
 62
     0
 66
     1
 10
0
 20
0
 30
0.0
 40
0.37
 41
0.37
  0
VERTEX
  8
0
 10
4.88835
 20
8.24908
 30
0.0
 40
0.00513889
 41
0.00513889
  0
VERTEX
  8
0
 10
4.86475
 20
8.24908
 30
0.0
 40
0.00513889
 41
0.00513889
  0
SEQEND
 8
0
  0
POLYLINE
  8
0
 62
     0
 66
     1
 10
0
 20
0
 30
0.0
 40
0.37
 41
0.37
  0
VERTEX
  8
0
 10
4.88835
 20
8.24908
 30
0.0
 40
0.00513889
 41
0.00513889
  0
VERTEX
  8
0
 10
5.62294
 20
8.24908
 30
0.0
 40
0.00513889
 41
0.00513889
  0
SEQEND
 8
0
  0
POLYLINE
  8
0
 62
     0
 66
     1
 10
0
 20
0
 30
0.0
 40
0.37
 41
0.37
  0
VERTEX
  8
0
 10
5.64654
 20
8.24908
 30
0.0
 40
0.00513889
 41
0.00513889
  0
VERTEX
  8
0
 10
5.62294
 20
8.24908
 30
0.0
 40
0.00513889
 41
0.00513889
  0
SEQEND
 8
0
  0
POLYLINE
  8
0
 62
     0
 66
     1
 10
0
 20
0
 30
0.0
 40
0.37
 41
0.37
  0
VERTEX
  8
0
 10
5.04308
 20
8.67437
 30
0.0
 40
0.00513889
 41
0.00513889
  0
VERTEX
  8
0
 10
5.21311
 20
8.67437
 30
0.0
 40
0.00513889
 41
0.00513889
  0
SEQEND
 8
0
  0
POLYLINE
  8
0
 62
     0
 66
     1
 10
0
 20
0
 30
0.0
 40
0.37
 41
0.37
  0
VERTEX
  8
0
 10
5.29824
 20
8.67437
 30
0.0
 40
0.00513889
 41
0.00513889
  0
VERTEX
  8
0
 10
5.21311
 20
8.67437
 30
0.0
 40
0.00513889
 41
0.00513889
  0
SEQEND
 8
0
  0
POLYLINE
  8
0
 62
     0
 66
     1
 10
0
 20
0
 30
0.0
 40
0.37
 41
0.37
  0
VERTEX
  8
0
 10
5.21311
 20
8.67437
 30
0.0
 40
0.00513889
 41
0.00513889
  0
VERTEX
  8
0
 10
5.18946
 20
8.65076
 30
0.0
 40
0.00513889
 41
0.00513889
  0
SEQEND
 8
0
  0
POLYLINE
  8
0
 62
     0
 66
     1
 10
0
 20
0
 30
0.0
 40
0.37
 41
0.37
  0
VERTEX
  8
0
 10
5.32183
 20
8.65076
 30
0.0
 40
0.00513889
 41
0.00513889
  0
VERTEX
  8
0
 10
5.18946
 20
8.65076
 30
0.0
 40
0.00513889
 41
0.00513889
  0
SEQEND
 8
0
  0
POLYLINE
  8
0
 62
     0
 66
     1
 10
0
 20
0
 30
0.0
 40
0.37
 41
0.37
  0
VERTEX
  8
0
 10
5.18946
 20
8.24908
 30
0.0
 40
0.00513889
 41
0.00513889
  0
VERTEX
  8
0
 10
5.18946
 20
8.4381
 30
0.0
 40
0.00513889
 41
0.00513889
  0
SEQEND
 8
0
  0
POLYLINE
  8
0
 62
     0
 66
     1
 10
0
 20
0
 30
0.0
 40
0.37
 41
0.37
  0
VERTEX
  8
0
 10
5.18946
 20
8.4381
 30
0.0
 40
0.00513889
 41
0.00513889
  0
VERTEX
  8
0
 10
5.32183
 20
8.4381
 30
0.0
 40
0.00513889
 41
0.00513889
  0
SEQEND
 8
0
  0
POLYLINE
  8
0
 62
     0
 66
     1
 10
0
 20
0
 30
0.0
 40
0.37
 41
0.37
  0
VERTEX
  8
0
 10
5.18946
 20
8.57981
 30
0.0
 40
0.00513889
 41
0.00513889
  0
VERTEX
  8
0
 10
5.18946
 20
8.65076
 30
0.0
 40
0.00513889
 41
0.00513889
  0
SEQEND
 8
0
  0
POLYLINE
  8
0
 62
     0
 66
     1
 10
0
 20
0
 30
0.0
 40
0.37
 41
0.37
  0
VERTEX
  8
0
 10
5.32183
 20
8.57981
 30
0.0
 40
0.00513889
 41
0.00513889
  0
VERTEX
  8
0
 10
5.18946
 20
8.57981
 30
0.0
 40
0.00513889
 41
0.00513889
  0
SEQEND
 8
0
  0
POLYLINE
  8
0
 62
     0
 66
     1
 10
0
 20
0
 30
0.0
 40
0.37
 41
0.37
  0
VERTEX
  8
0
 10
4.86475
 20
8.24908
 30
0.0
 40
0.00513889
 41
0.00513889
  0
VERTEX
  8
0
 10
4.86475
 20
8.22547
 30
0.0
 40
0.00513889
 41
0.00513889
  0
SEQEND
 8
0
  0
POLYLINE
  8
0
 62
     0
 66
     1
 10
0
 20
0
 30
0.0
 40
0.37
 41
0.37
  0
VERTEX
  8
0
 10
4.88226
 20
8.22629
 30
0.0
 40
0.00513889
 41
0.00513889
  0
VERTEX
  8
0
 10
4.87115
 20
8.22797
 30
0.0
 40
0.00513889
 41
0.00513889
  0
VERTEX
  8
0
 10
4.86714
 20
8.22726
 30
0.0
 40
0.00513889
 41
0.00513889
  0
VERTEX
  8
0
 10
4.86546
 20
8.22629
 30
0.0
 40
0.00513889
 41
0.00513889
  0
SEQEND
 8
0
  0
POLYLINE
  8
0
 62
     0
 66
     1
 10
0
 20
0
 30
0.0
 40
0.37
 41
0.37
  0
VERTEX
  8
0
 10
4.88226
 20
8.22629
 30
0.0
 40
0.00513889
 41
0.00513889
  0
VERTEX
  8
0
 10
4.88835
 20
8.22547
 30
0.0
 40
0.00513889
 41
0.00513889
  0
SEQEND
 8
0
  0
POLYLINE
  8
0
 62
     0
 66
     1
 10
0
 20
0
 30
0.0
 40
0.37
 41
0.37
  0
VERTEX
  8
0
 10
4.88835
 20
8.24908
 30
0.0
 40
0.00513889
 41
0.00513889
  0
VERTEX
  8
0
 10
4.88835
 20
8.22547
 30
0.0
 40
0.00513889
 41
0.00513889
  0
SEQEND
 8
0
  0
POLYLINE
  8
0
 62
     0
 66
     1
 10
0
 20
0
 30
0.0
 40
0.37
 41
0.37
  0
VERTEX
  8
0
 10
4.88835
 20
8.22547
 30
0.0
 40
0.00513889
 41
0.00513889
  0
VERTEX
  8
0
 10
5.62294
 20
8.22547
 30
0.0
 40
0.00513889
 41
0.00513889
  0
SEQEND
 8
0
  0
POLYLINE
  8
0
 62
     0
 66
     1
 10
0
 20
0
 30
0.0
 40
0.37
 41
0.37
  0
VERTEX
  8
0
 10
5.62294
 20
8.22547
 30
0.0
 40
0.00513889
 41
0.00513889
  0
VERTEX
  8
0
 10
5.62294
 20
8.24908
 30
0.0
 40
0.00513889
 41
0.00513889
  0
SEQEND
 8
0
  0
POLYLINE
  8
0
 62
     0
 66
     1
 10
0
 20
0
 30
0.0
 40
0.37
 41
0.37
  0
VERTEX
  8
0
 10
5.62294
 20
8.22547
 30
0.0
 40
0.00513889
 41
0.00513889
  0
VERTEX
  8
0
 10
5.62907
 20
8.22629
 30
0.0
 40
0.00513889
 41
0.00513889
  0
SEQEND
 8
0
  0
POLYLINE
  8
0
 62
     0
 66
     1
 10
0
 20
0
 30
0.0
 40
0.37
 41
0.37
  0
VERTEX
  8
0
 10
5.64572
 20
8.22629
 30
0.0
 40
0.00513889
 41
0.00513889
  0
VERTEX
  8
0
 10
5.64432
 20
8.22715
 30
0.0
 40
0.00513889
 41
0.00513889
  0
VERTEX
  8
0
 10
5.63976
 20
8.22797
 30
0.0
 40
0.00513889
 41
0.00513889
  0
VERTEX
  8
0
 10
5.62907
 20
8.22629
 30
0.0
 40
0.00513889
 41
0.00513889
  0
SEQEND
 8
0
  0
POLYLINE
  8
0
 62
     0
 66
     1
 10
0
 20
0
 30
0.0
 40
0.37
 41
0.37
  0
VERTEX
  8
0
 10
5.64654
 20
8.22547
 30
0.0
 40
0.00513889
 41
0.00513889
  0
VERTEX
  8
0
 10
5.64654
 20
8.24908
 30
0.0
 40
0.00513889
 41
0.00513889
  0
SEQEND
 8
0
  0
POLYLINE
  8
0
 62
     0
 66
     1
 10
0
 20
0
 30
0.0
 40
0.37
 41
0.37
  0
VERTEX
  8
0
 10
5.07238
 20
8.62131
 30
0.0
 40
0.00513889
 41
0.00513889
  0
VERTEX
  8
0
 10
5.18946
 20
8.62131
 30
0.0
 40
0.00513889
 41
0.00513889
  0
SEQEND
 8
0
  0
POLYLINE
  8
0
 62
     0
 66
     1
 10
0
 20
0
 30
0.0
 40
0.37
 41
0.37
  0
VERTEX
  8
0
 10
5.07238
 20
8.62131
 30
0.0
 40
0.00513889
 41
0.00513889
  0
VERTEX
  8
0
 10
5.07238
 20
8.24908
 30
0.0
 40
0.00513889
 41
0.00513889
  0
SEQEND
 8
0
  0
POLYLINE
  8
0
 62
     0
 66
     1
 10
0
 20
0
 30
0.0
 40
0.37
 41
0.37
  0
VERTEX
  8
0
 10
5.0549
 20
8.63894
 30
0.0
 40
0.00513889
 41
0.00513889
  0
VERTEX
  8
0
 10
5.07238
 20
8.62131
 30
0.0
 40
0.00513889
 41
0.00513889
  0
SEQEND
 8
0
  0
POLYLINE
  8
0
 62
     0
 66
     1
 10
0
 20
0
 30
0.0
 40
0.37
 41
0.37
  0
VERTEX
  8
0
 10
5.0549
 20
8.63894
 30
0.0
 40
0.00513889
 41
0.00513889
  0
VERTEX
  8
0
 10
5.03728
 20
8.63894
 30
0.0
 40
0.00513889
 41
0.00513889
  0
SEQEND
 8
0
  0
POLYLINE
  8
0
 62
     0
 66
     1
 10
0
 20
0
 30
0.0
 40
0.37
 41
0.37
  0
VERTEX
  8
0
 10
5.03728
 20
8.63894
 30
0.0
 40
0.00513889
 41
0.00513889
  0
VERTEX
  8
0
 10
5.03728
 20
8.24908
 30
0.0
 40
0.00513889
 41
0.00513889
  0
SEQEND
 8
0
  0
POLYLINE
  8
0
 62
     0
 66
     1
 10
0
 20
0
 30
0.0
 40
0.37
 41
0.37
  0
VERTEX
  8
0
 10
5.01947
 20
8.65076
 30
0.0
 40
0.00513889
 41
0.00513889
  0
VERTEX
  8
0
 10
5.04308
 20
8.67437
 30
0.0
 40
0.00513889
 41
0.00513889
  0
SEQEND
 8
0
  0
POLYLINE
  8
0
 62
     0
 66
     1
 10
0
 20
0
 30
0.0
 40
0.37
 41
0.37
  0
VERTEX
  8
0
 10
5.01947
 20
8.24908
 30
0.0
 40
0.00513889
 41
0.00513889
  0
VERTEX
  8
0
 10
5.01947
 20
8.65076
 30
0.0
 40
0.00513889
 41
0.00513889
  0
SEQEND
 8
0
  0
POLYLINE
  8
0
 62
     0
 66
     1
 10
0
 20
0
 30
0.0
 40
0.37
 41
0.37
  0
VERTEX
  8
0
 10
5.0549
 20
8.65647
 30
0.0
 40
0.00513889
 41
0.00513889
  0
VERTEX
  8
0
 10
5.04574
 20
8.65397
 30
0.0
 40
0.00513889
 41
0.00513889
  0
VERTEX
  8
0
 10
5.03917
 20
8.64703
 30
0.0
 40
0.00513889
 41
0.00513889
  0
VERTEX
  8
0
 10
5.03728
 20
8.63894
 30
0.0
 40
0.00513889
 41
0.00513889
  0
SEQEND
 8
0
  0
POLYLINE
  8
0
 62
     0
 66
     1
 10
0
 20
0
 30
0.0
 40
0.37
 41
0.37
  0
VERTEX
  8
0
 10
5.0549
 20
8.65647
 30
0.0
 40
0.00513889
 41
0.00513889
  0
VERTEX
  8
0
 10
5.19532
 20
8.65647
 30
0.0
 40
0.00513889
 41
0.00513889
  0
SEQEND
 8
0
  0
POLYLINE
  8
0
 62
     0
 66
     1
 10
0
 20
0
 30
0.0
 40
0.37
 41
0.37
  0
VERTEX
  8
0
 10
4.82921
 20
8.19006
 30
0.0
 40
0.00513889
 41
0.00513889
  0
VERTEX
  8
0
 10
4.83003
 20
8.19092
 30
0.0
 40
0.00513889
 41
0.00513889
  0
SEQEND
 8
0
  0
POLYLINE
  8
0
 62
     0
 66
     1
 10
0
 20
0
 30
0.0
 40
0.37
 41
0.37
  0
VERTEX
  8
0
 10
4.83003
 20
8.19092
 30
0.0
 40
0.00513889
 41
0.00513889
  0
VERTEX
  8
0
 10
4.86546
 20
8.22629
 30
0.0
 40
0.00513889
 41
0.00513889
  0
SEQEND
 8
0
  0
POLYLINE
  8
0
 62
     0
 66
     1
 10
0
 20
0
 30
0.0
 40
0.37
 41
0.37
  0
VERTEX
  8
0
 10
4.84685
 20
8.19092
 30
0.0
 40
0.00513889
 41
0.00513889
  0
VERTEX
  8
0
 10
4.83572
 20
8.19254
 30
0.0
 40
0.00513889
 41
0.00513889
  0
VERTEX
  8
0
 10
4.83171
 20
8.19189
 30
0.0
 40
0.00513889
 41
0.00513889
  0
VERTEX
  8
0
 10
4.83003
 20
8.19092
 30
0.0
 40
0.00513889
 41
0.00513889
  0
SEQEND
 8
0
  0
POLYLINE
  8
0
 62
     0
 66
     1
 10
0
 20
0
 30
0.0
 40
0.37
 41
0.37
  0
VERTEX
  8
0
 10
4.84685
 20
8.19092
 30
0.0
 40
0.00513889
 41
0.00513889
  0
VERTEX
  8
0
 10
4.88226
 20
8.22629
 30
0.0
 40
0.00513889
 41
0.00513889
  0
SEQEND
 8
0
  0
POLYLINE
  8
0
 62
     0
 66
     1
 10
0
 20
0
 30
0.0
 40
0.37
 41
0.37
  0
VERTEX
  8
0
 10
5.6645
 20
8.19092
 30
0.0
 40
0.00513889
 41
0.00513889
  0
VERTEX
  8
0
 10
5.62907
 20
8.22629
 30
0.0
 40
0.00513889
 41
0.00513889
  0
SEQEND
 8
0
  0
POLYLINE
  8
0
 62
     0
 66
     1
 10
0
 20
0
 30
0.0
 40
0.37
 41
0.37
  0
VERTEX
  8
0
 10
4.84685
 20
8.19092
 30
0.0
 40
0.00513889
 41
0.00513889
  0
VERTEX
  8
0
 10
4.85297
 20
8.19006
 30
0.0
 40
0.00513889
 41
0.00513889
  0
SEQEND
 8
0
  0
POLYLINE
  8
0
 62
     0
 66
     1
 10
0
 20
0
 30
0.0
 40
0.37
 41
0.37
  0
VERTEX
  8
0
 10
4.85297
 20
8.19006
 30
0.0
 40
0.00513889
 41
0.00513889
  0
VERTEX
  8
0
 10
5.65836
 20
8.19006
 30
0.0
 40
0.00513889
 41
0.00513889
  0
SEQEND
 8
0
  0
POLYLINE
  8
0
 62
     0
 66
     1
 10
0
 20
0
 30
0.0
 40
0.37
 41
0.37
  0
VERTEX
  8
0
 10
5.65836
 20
8.19006
 30
0.0
 40
0.00513889
 41
0.00513889
  0
VERTEX
  8
0
 10
5.6645
 20
8.19092
 30
0.0
 40
0.00513889
 41
0.00513889
  0
SEQEND
 8
0
  0
POLYLINE
  8
0
 62
     0
 66
     1
 10
0
 20
0
 30
0.0
 40
0.37
 41
0.37
  0
VERTEX
  8
0
 10
5.6645
 20
8.19092
 30
0.0
 40
0.00513889
 41
0.00513889
  0
VERTEX
  8
0
 10
5.67557
 20
8.19254
 30
0.0
 40
0.00513889
 41
0.00513889
  0
VERTEX
  8
0
 10
5.67964
 20
8.19189
 30
0.0
 40
0.00513889
 41
0.00513889
  0
VERTEX
  8
0
 10
5.68126
 20
8.19092
 30
0.0
 40
0.00513889
 41
0.00513889
  0
SEQEND
 8
0
  0
POLYLINE
  8
0
 62
     0
 66
     1
 10
0
 20
0
 30
0.0
 40
0.37
 41
0.37
  0
VERTEX
  8
0
 10
5.68126
 20
8.19092
 30
0.0
 40
0.00513889
 41
0.00513889
  0
VERTEX
  8
0
 10
5.64572
 20
8.22629
 30
0.0
 40
0.00513889
 41
0.00513889
  0
SEQEND
 8
0
  0
POLYLINE
  8
0
 62
     0
 66
     1
 10
0
 20
0
 30
0.0
 40
0.37
 41
0.37
  0
VERTEX
  8
0
 10
5.68126
 20
8.19092
 30
0.0
 40
0.00513889
 41
0.00513889
  0
VERTEX
  8
0
 10
5.68197
 20
8.19006
 30
0.0
 40
0.00513889
 41
0.00513889
  0
SEQEND
 8
0
  0
POLYLINE
  8
0
 62
     0
 66
     1
 10
0
 20
0
 30
0.0
 40
0.37
 41
0.37
  0
VERTEX
  8
0
 10
5.0549
 20
8.63894
 30
0.0
 40
0.00513889
 41
0.00513889
  0
VERTEX
  8
0
 10
5.0549
 20
8.65647
 30
0.0
 40
0.00513889
 41
0.00513889
  0
SEQEND
 8
0
  0
POLYLINE
  8
0
 62
     0
 66
     1
 10
0
 20
0
 30
0.0
 40
0.37
 41
0.37
  0
VERTEX
  8
0
 10
4.85297
 20
8.19006
 30
0.0
 40
0.00513889
 41
0.00513889
  0
VERTEX
  8
0
 10
4.85297
 20
8.17828
 30
0.0
 40
0.00513889
 41
0.00513889
  0
SEQEND
 8
0
  0
POLYLINE
  8
0
 62
     0
 66
     1
 10
0
 20
0
 30
0.0
 40
0.37
 41
0.37
  0
VERTEX
  8
0
 10
5.65836
 20
8.19006
 30
0.0
 40
0.00513889
 41
0.00513889
  0
VERTEX
  8
0
 10
5.65836
 20
8.17828
 30
0.0
 40
0.00513889
 41
0.00513889
  0
SEQEND
 8
0
  0
POLYLINE
  8
0
 62
     0
 66
     1
 10
0
 20
0
 30
0.0
 40
0.37
 41
0.37
  0
VERTEX
  8
0
 10
4.72364
 20
8.18967
 30
0.0
 40
0.00513889
 41
0.00513889
  0
VERTEX
  8
0
 10
4.72433
 20
8.18967
 30
0.0
 40
0.00513889
 41
0.00513889
  0
SEQEND
 8
0
  0
POLYLINE
  8
0
 62
     0
 66
     1
 10
0
 20
0
 30
0.0
 40
0.37
 41
0.37
  0
VERTEX
  8
0
 10
4.72433
 20
8.18967
 30
0.0
 40
0.00513889
 41
0.00513889
  0
VERTEX
  8
0
 10
4.72575
 20
8.18967
 30
0.0
 40
0.00513889
 41
0.00513889
  0
SEQEND
 8
0
  0
POLYLINE
  8
0
 62
     0
 66
     1
 10
0
 20
0
 30
0.0
 40
0.37
 41
0.37
  0
VERTEX
  8
0
 10
4.72575
 20
8.18967
 30
0.0
 40
0.00513889
 41
0.00513889
  0
VERTEX
  8
0
 10
4.72851
 20
8.18967
 30
0.0
 40
0.00513889
 41
0.00513889
  0
SEQEND
 8
0
  0
POLYLINE
  8
0
 62
     0
 66
     1
 10
0
 20
0
 30
0.0
 40
0.37
 41
0.37
  0
VERTEX
  8
0
 10
4.72851
 20
8.18967
 30
0.0
 40
0.00513889
 41
0.00513889
  0
VERTEX
  8
0
 10
4.73351
 20
8.18967
 30
0.0
 40
0.00513889
 41
0.00513889
  0
SEQEND
 8
0
  0
POLYLINE
  8
0
 62
     0
 66
     1
 10
0
 20
0
 30
0.0
 40
0.37
 41
0.37
  0
VERTEX
  8
0
 10
4.73351
 20
8.18967
 30
0.0
 40
0.00513889
 41
0.00513889
  0
VERTEX
  8
0
 10
4.73964
 20
8.18967
 30
0.0
 40
0.00513889
 41
0.00513889
  0
SEQEND
 8
0
  0
POLYLINE
  8
0
 62
     0
 66
     1
 10
0
 20
0
 30
0.0
 40
0.37
 41
0.37
  0
VERTEX
  8
0
 10
4.73964
 20
8.18967
 30
0.0
 40
0.00513889
 41
0.00513889
  0
VERTEX
  8
0
 10
4.74447
 20
8.18967
 30
0.0
 40
0.00513889
 41
0.00513889
  0
SEQEND
 8
0
  0
POLYLINE
  8
0
 62
     0
 66
     1
 10
0
 20
0
 30
0.0
 40
0.37
 41
0.37
  0
VERTEX
  8
0
 10
4.74447
 20
8.18967
 30
0.0
 40
0.00513889
 41
0.00513889
  0
VERTEX
  8
0
 10
4.74972
 20
8.18967
 30
0.0
 40
0.00513889
 41
0.00513889
  0
SEQEND
 8
0
  0
POLYLINE
  8
0
 62
     0
 66
     1
 10
0
 20
0
 30
0.0
 40
0.37
 41
0.37
  0
VERTEX
  8
0
 10
4.74972
 20
8.18967
 30
0.0
 40
0.00513889
 41
0.00513889
  0
VERTEX
  8
0
 10
4.7564
 20
8.18967
 30
0.0
 40
0.00513889
 41
0.00513889
  0
SEQEND
 8
0
  0
POLYLINE
  8
0
 62
     0
 66
     1
 10
0
 20
0
 30
0.0
 40
0.37
 41
0.37
  0
VERTEX
  8
0
 10
4.7564
 20
8.18967
 30
0.0
 40
0.00513889
 41
0.00513889
  0
VERTEX
  8
0
 10
4.76628
 20
8.18967
 30
0.0
 40
0.00513889
 41
0.00513889
  0
SEQEND
 8
0
  0
POLYLINE
  8
0
 62
     0
 66
     1
 10
0
 20
0
 30
0.0
 40
0.37
 41
0.37
  0
VERTEX
  8
0
 10
4.76628
 20
8.18967
 30
0.0
 40
0.00513889
 41
0.00513889
  0
VERTEX
  8
0
 10
4.77561
 20
8.18967
 30
0.0
 40
0.00513889
 41
0.00513889
  0
SEQEND
 8
0
  0
POLYLINE
  8
0
 62
     0
 66
     1
 10
0
 20
0
 30
0.0
 40
0.37
 41
0.37
  0
VERTEX
  8
0
 10
4.77561
 20
8.18967
 30
0.0
 40
0.00513889
 41
0.00513889
  0
VERTEX
  8
0
 10
4.7856
 20
8.18967
 30
0.0
 40
0.00513889
 41
0.00513889
  0
SEQEND
 8
0
  0
POLYLINE
  8
0
 62
     0
 66
     1
 10
0
 20
0
 30
0.0
 40
0.37
 41
0.37
  0
VERTEX
  8
0
 10
4.7856
 20
8.18967
 30
0.0
 40
0.00513889
 41
0.00513889
  0
VERTEX
  8
0
 10
4.79113
 20
8.18967
 30
0.0
 40
0.00513889
 41
0.00513889
  0
SEQEND
 8
0
  0
POLYLINE
  8
0
 62
     0
 66
     1
 10
0
 20
0
 30
0.0
 40
0.37
 41
0.37
  0
VERTEX
  8
0
 10
4.79113
 20
8.18967
 30
0.0
 40
0.00513889
 41
0.00513889
  0
VERTEX
  8
0
 10
4.79601
 20
8.18967
 30
0.0
 40
0.00513889
 41
0.00513889
  0
SEQEND
 8
0
  0
POLYLINE
  8
0
 62
     0
 66
     1
 10
0
 20
0
 30
0.0
 40
0.37
 41
0.37
  0
VERTEX
  8
0
 10
4.79601
 20
8.18967
 30
0.0
 40
0.00513889
 41
0.00513889
  0
VERTEX
  8
0
 10
4.80003
 20
8.18967
 30
0.0
 40
0.00513889
 41
0.00513889
  0
SEQEND
 8
0
  0
POLYLINE
  8
0
 62
     0
 66
     1
 10
0
 20
0
 30
0.0
 40
0.37
 41
0.37
  0
VERTEX
  8
0
 10
4.80003
 20
8.18967
 30
0.0
 40
0.00513889
 41
0.00513889
  0
VERTEX
  8
0
 10
4.80072
 20
8.18967
 30
0.0
 40
0.00513889
 41
0.00513889
  0
SEQEND
 8
0
  0
POLYLINE
  8
0
 62
     0
 66
     1
 10
0
 20
0
 30
0.0
 40
0.37
 41
0.37
  0
VERTEX
  8
0
 10
4.72364
 20
8.17828
 30
0.0
 40
0.00513889
 41
0.00513889
  0
VERTEX
  8
0
 10
4.72364
 20
8.18967
 30
0.0
 40
0.00513889
 41
0.00513889
  0
SEQEND
 8
0
  0
POLYLINE
  8
0
 62
     0
 66
     1
 10
0
 20
0
 30
0.0
 40
0.37
 41
0.37
  0
VERTEX
  8
0
 10
4.72433
 20
8.17828
 30
0.0
 40
0.00513889
 41
0.00513889
  0
VERTEX
  8
0
 10
4.72433
 20
8.18967
 30
0.0
 40
0.00513889
 41
0.00513889
  0
SEQEND
 8
0
  0
POLYLINE
  8
0
 62
     0
 66
     1
 10
0
 20
0
 30
0.0
 40
0.37
 41
0.37
  0
VERTEX
  8
0
 10
4.72575
 20
8.17828
 30
0.0
 40
0.00513889
 41
0.00513889
  0
VERTEX
  8
0
 10
4.72575
 20
8.18967
 30
0.0
 40
0.00513889
 41
0.00513889
  0
SEQEND
 8
0
  0
POLYLINE
  8
0
 62
     0
 66
     1
 10
0
 20
0
 30
0.0
 40
0.37
 41
0.37
  0
VERTEX
  8
0
 10
4.72851
 20
8.17828
 30
0.0
 40
0.00513889
 41
0.00513889
  0
VERTEX
  8
0
 10
4.72851
 20
8.18967
 30
0.0
 40
0.00513889
 41
0.00513889
  0
SEQEND
 8
0
  0
POLYLINE
  8
0
 62
     0
 66
     1
 10
0
 20
0
 30
0.0
 40
0.37
 41
0.37
  0
VERTEX
  8
0
 10
4.73351
 20
8.17828
 30
0.0
 40
0.00513889
 41
0.00513889
  0
VERTEX
  8
0
 10
4.73351
 20
8.18967
 30
0.0
 40
0.00513889
 41
0.00513889
  0
SEQEND
 8
0
  0
POLYLINE
  8
0
 62
     0
 66
     1
 10
0
 20
0
 30
0.0
 40
0.37
 41
0.37
  0
VERTEX
  8
0
 10
4.73964
 20
8.17828
 30
0.0
 40
0.00513889
 41
0.00513889
  0
VERTEX
  8
0
 10
4.73964
 20
8.18967
 30
0.0
 40
0.00513889
 41
0.00513889
  0
SEQEND
 8
0
  0
POLYLINE
  8
0
 62
     0
 66
     1
 10
0
 20
0
 30
0.0
 40
0.37
 41
0.37
  0
VERTEX
  8
0
 10
4.74447
 20
8.17828
 30
0.0
 40
0.00513889
 41
0.00513889
  0
VERTEX
  8
0
 10
4.74447
 20
8.18967
 30
0.0
 40
0.00513889
 41
0.00513889
  0
SEQEND
 8
0
  0
POLYLINE
  8
0
 62
     0
 66
     1
 10
0
 20
0
 30
0.0
 40
0.37
 41
0.37
  0
VERTEX
  8
0
 10
4.74972
 20
8.17828
 30
0.0
 40
0.00513889
 41
0.00513889
  0
VERTEX
  8
0
 10
4.74972
 20
8.18967
 30
0.0
 40
0.00513889
 41
0.00513889
  0
SEQEND
 8
0
  0
POLYLINE
  8
0
 62
     0
 66
     1
 10
0
 20
0
 30
0.0
 40
0.37
 41
0.37
  0
VERTEX
  8
0
 10
4.7564
 20
8.17828
 30
0.0
 40
0.00513889
 41
0.00513889
  0
VERTEX
  8
0
 10
4.7564
 20
8.18967
 30
0.0
 40
0.00513889
 41
0.00513889
  0
SEQEND
 8
0
  0
POLYLINE
  8
0
 62
     0
 66
     1
 10
0
 20
0
 30
0.0
 40
0.37
 41
0.37
  0
VERTEX
  8
0
 10
4.76628
 20
8.17828
 30
0.0
 40
0.00513889
 41
0.00513889
  0
VERTEX
  8
0
 10
4.76628
 20
8.18967
 30
0.0
 40
0.00513889
 41
0.00513889
  0
SEQEND
 8
0
  0
POLYLINE
  8
0
 62
     0
 66
     1
 10
0
 20
0
 30
0.0
 40
0.37
 41
0.37
  0
VERTEX
  8
0
 10
4.77561
 20
8.17828
 30
0.0
 40
0.00513889
 41
0.00513889
  0
VERTEX
  8
0
 10
4.77561
 20
8.18967
 30
0.0
 40
0.00513889
 41
0.00513889
  0
SEQEND
 8
0
  0
POLYLINE
  8
0
 62
     0
 66
     1
 10
0
 20
0
 30
0.0
 40
0.37
 41
0.37
  0
VERTEX
  8
0
 10
4.7856
 20
8.17828
 30
0.0
 40
0.00513889
 41
0.00513889
  0
VERTEX
  8
0
 10
4.7856
 20
8.18967
 30
0.0
 40
0.00513889
 41
0.00513889
  0
SEQEND
 8
0
  0
POLYLINE
  8
0
 62
     0
 66
     1
 10
0
 20
0
 30
0.0
 40
0.37
 41
0.37
  0
VERTEX
  8
0
 10
4.79113
 20
8.17828
 30
0.0
 40
0.00513889
 41
0.00513889
  0
VERTEX
  8
0
 10
4.79113
 20
8.18967
 30
0.0
 40
0.00513889
 41
0.00513889
  0
SEQEND
 8
0
  0
POLYLINE
  8
0
 62
     0
 66
     1
 10
0
 20
0
 30
0.0
 40
0.37
 41
0.37
  0
VERTEX
  8
0
 10
4.79601
 20
8.17828
 30
0.0
 40
0.00513889
 41
0.00513889
  0
VERTEX
  8
0
 10
4.79601
 20
8.18967
 30
0.0
 40
0.00513889
 41
0.00513889
  0
SEQEND
 8
0
  0
POLYLINE
  8
0
 62
     0
 66
     1
 10
0
 20
0
 30
0.0
 40
0.37
 41
0.37
  0
VERTEX
  8
0
 10
4.80003
 20
8.17828
 30
0.0
 40
0.00513889
 41
0.00513889
  0
VERTEX
  8
0
 10
4.80003
 20
8.18967
 30
0.0
 40
0.00513889
 41
0.00513889
  0
SEQEND
 8
0
  0
POLYLINE
  8
0
 62
     0
 66
     1
 10
0
 20
0
 30
0.0
 40
0.37
 41
0.37
  0
VERTEX
  8
0
 10
4.80072
 20
8.17828
 30
0.0
 40
0.00513889
 41
0.00513889
  0
VERTEX
  8
0
 10
4.80072
 20
8.18967
 30
0.0
 40
0.00513889
 41
0.00513889
  0
SEQEND
 8
0
  0
POLYLINE
  8
0
 62
     0
 66
     1
 10
0
 20
0
 30
0.0
 40
0.37
 41
0.37
  0
VERTEX
  8
0
 10
4.81131
 20
8.18967
 30
0.0
 40
0.00513889
 41
0.00513889
  0
VERTEX
  8
0
 10
4.81142
 20
8.18967
 30
0.0
 40
0.00513889
 41
0.00513889
  0
SEQEND
 8
0
  0
POLYLINE
  8
0
 62
     0
 66
     1
 10
0
 20
0
 30
0.0
 40
0.37
 41
0.37
  0
VERTEX
  8
0
 10
4.82921
 20
8.18967
 30
0.0
 40
0.00513889
 41
0.00513889
  0
VERTEX
  8
0
 10
4.81142
 20
8.18967
 30
0.0
 40
0.00513889
 41
0.00513889
  0
SEQEND
 8
0
  0
POLYLINE
  8
0
 62
     0
 66
     1
 10
0
 20
0
 30
0.0
 40
0.37
 41
0.37
  0
VERTEX
  8
0
 10
4.81131
 20
8.17828
 30
0.0
 40
0.00513889
 41
0.00513889
  0
VERTEX
  8
0
 10
4.81131
 20
8.18967
 30
0.0
 40
0.00513889
 41
0.00513889
  0
SEQEND
 8
0
  0
POLYLINE
  8
0
 62
     0
 66
     1
 10
0
 20
0
 30
0.0
 40
0.37
 41
0.37
  0
VERTEX
  8
0
 10
4.81142
 20
8.17828
 30
0.0
 40
0.00513889
 41
0.00513889
  0
VERTEX
  8
0
 10
4.81142
 20
8.18967
 30
0.0
 40
0.00513889
 41
0.00513889
  0
SEQEND
 8
0
  0
POLYLINE
  8
0
 62
     0
 66
     1
 10
0
 20
0
 30
0.0
 40
0.37
 41
0.37
  0
VERTEX
  8
0
 10
5.13976
 20
7.70546
 30
0.0
 40
0.00513889
 41
0.00513889
  0
VERTEX
  8
0
 10
5.15419
 20
7.70171
 30
0.0
 40
0.00513889
 41
0.00513889
  0
SEQEND
 8
0
  0
POLYLINE
  8
0
 62
     0
 66
     1
 10
0
 20
0
 30
0.0
 40
0.37
 41
0.37
  0
VERTEX
  8
0
 10
5.37142
 20
7.70546
 30
0.0
 40
0.00513889
 41
0.00513889
  0
VERTEX
  8
0
 10
5.3571
 20
7.70171
 30
0.0
 40
0.00513889
 41
0.00513889
  0
SEQEND
 8
0
  0
POLYLINE
  8
0
 62
     0
 66
     1
 10
0
 20
0
 30
0.0
 40
0.37
 41
0.37
  0
VERTEX
  8
0
 10
5.37044
 20
7.70454
 30
0.0
 40
0.00513889
 41
0.00513889
  0
VERTEX
  8
0
 10
5.36322
 20
7.70269
 30
0.0
 40
0.00513889
 41
0.00513889
  0
SEQEND
 8
0
  0
POLYLINE
  8
0
 62
     0
 66
     1
 10
0
 20
0
 30
0.0
 40
0.37
 41
0.37
  0
VERTEX
  8
0
 10
5.37142
 20
7.70546
 30
0.0
 40
0.00513889
 41
0.00513889
  0
VERTEX
  8
0
 10
5.37044
 20
7.70454
 30
0.0
 40
0.00513889
 41
0.00513889
  0
SEQEND
 8
0
  0
POLYLINE
  8
0
 62
     0
 66
     1
 10
0
 20
0
 30
0.0
 40
0.37
 41
0.37
  0
VERTEX
  8
0
 10
5.34819
 20
7.70036
 30
0.0
 40
0.00513889
 41
0.00513889
  0
VERTEX
  8
0
 10
5.287
 20
7.69174
 30
0.0
 40
0.00513889
 41
0.00513889
  0
VERTEX
  8
0
 10
5.25558
 20
7.69006
 30
0.0
 40
0.00513889
 41
0.00513889
  0
SEQEND
 8
0
  0
POLYLINE
  8
0
 62
     0
 66
     1
 10
0
 20
0
 30
0.0
 40
0.37
 41
0.37
  0
VERTEX
  8
0
 10
5.13976
 20
7.70546
 30
0.0
 40
0.00513889
 41
0.00513889
  0
VERTEX
  8
0
 10
5.14085
 20
7.70454
 30
0.0
 40
0.00513889
 41
0.00513889
  0
SEQEND
 8
0
  0
POLYLINE
  8
0
 62
     0
 66
     1
 10
0
 20
0
 30
0.0
 40
0.37
 41
0.37
  0
VERTEX
  8
0
 10
5.14085
 20
7.70454
 30
0.0
 40
0.00513889
 41
0.00513889
  0
VERTEX
  8
0
 10
5.14794
 20
7.70269
 30
0.0
 40
0.00513889
 41
0.00513889
  0
SEQEND
 8
0
  0
POLYLINE
  8
0
 62
     0
 66
     1
 10
0
 20
0
 30
0.0
 40
0.37
 41
0.37
  0
VERTEX
  8
0
 10
5.16308
 20
7.70036
 30
0.0
 40
0.00513889
 41
0.00513889
  0
VERTEX
  8
0
 10
5.22433
 20
7.69174
 30
0.0
 40
0.00513889
 41
0.00513889
  0
VERTEX
  8
0
 10
5.25558
 20
7.69006
 30
0.0
 40
0.00513889
 41
0.00513889
  0
SEQEND
 8
0
  0
POLYLINE
  8
0
 62
     0
 66
     1
 10
0
 20
0
 30
0.0
 40
0.37
 41
0.37
  0
VERTEX
  8
0
 10
5.13906
 20
7.69157
 30
0.0
 40
0.00513889
 41
0.00513889
  0
VERTEX
  8
0
 10
5.13932
 20
7.69635
 30
0.0
 40
0.00513889
 41
0.00513889
  0
SEQEND
 8
0
  0
POLYLINE
  8
0
 62
     0
 66
     1
 10
0
 20
0
 30
0.0
 40
0.37
 41
0.37
  0
VERTEX
  8
0
 10
5.13932
 20
7.69635
 30
0.0
 40
0.00513889
 41
0.00513889
  0
VERTEX
  8
0
 10
5.1396
 20
7.7009
 30
0.0
 40
0.00513889
 41
0.00513889
  0
SEQEND
 8
0
  0
POLYLINE
  8
0
 62
     0
 66
     1
 10
0
 20
0
 30
0.0
 40
0.37
 41
0.37
  0
VERTEX
  8
0
 10
5.1396
 20
7.7009
 30
0.0
 40
0.00513889
 41
0.00513889
  0
VERTEX
  8
0
 10
5.13976
 20
7.70546
 30
0.0
 40
0.00513889
 41
0.00513889
  0
SEQEND
 8
0
  0
POLYLINE
  8
0
 62
     0
 66
     1
 10
0
 20
0
 30
0.0
 40
0.37
 41
0.37
  0
VERTEX
  8
0
 10
5.37169
 20
7.7009
 30
0.0
 40
0.00513889
 41
0.00513889
  0
VERTEX
  8
0
 10
5.37142
 20
7.70546
 30
0.0
 40
0.00513889
 41
0.00513889
  0
SEQEND
 8
0
  0
POLYLINE
  8
0
 62
     0
 66
     1
 10
0
 20
0
 30
0.0
 40
0.37
 41
0.37
  0
VERTEX
  8
0
 10
5.37196
 20
7.69635
 30
0.0
 40
0.00513889
 41
0.00513889
  0
VERTEX
  8
0
 10
5.37169
 20
7.7009
 30
0.0
 40
0.00513889
 41
0.00513889
  0
SEQEND
 8
0
  0
POLYLINE
  8
0
 62
     0
 66
     1
 10
0
 20
0
 30
0.0
 40
0.37
 41
0.37
  0
VERTEX
  8
0
 10
5.37224
 20
7.69157
 30
0.0
 40
0.00513889
 41
0.00513889
  0
VERTEX
  8
0
 10
5.37196
 20
7.69635
 30
0.0
 40
0.00513889
 41
0.00513889
  0
SEQEND
 8
0
  0
POLYLINE
  8
0
 62
     0
 66
     1
 10
0
 20
0
 30
0.0
 40
0.37
 41
0.37
  0
VERTEX
  8
0
 10
5.37044
 20
7.70454
 30
0.0
 40
0.00513889
 41
0.00513889
  0
VERTEX
  8
0
 10
5.36811
 20
7.70367
 30
0.0
 40
0.00513889
 41
0.00513889
  0
SEQEND
 8
0
  0
POLYLINE
  8
0
 62
     0
 66
     1
 10
0
 20
0
 30
0.0
 40
0.37
 41
0.37
  0
VERTEX
  8
0
 10
5.34819
 20
7.70036
 30
0.0
 40
0.00513889
 41
0.00513889
  0
VERTEX
  8
0
 10
5.35796
 20
7.70187
 30
0.0
 40
0.00513889
 41
0.00513889
  0
VERTEX
  8
0
 10
5.36768
 20
7.70367
 30
0.0
 40
0.00513889
 41
0.00513889
  0
VERTEX
  8
0
 10
5.36811
 20
7.70367
 30
0.0
 40
0.00513889
 41
0.00513889
  0
SEQEND
 8
0
  0
POLYLINE
  8
0
 62
     0
 66
     1
 10
0
 20
0
 30
0.0
 40
0.37
 41
0.37
  0
VERTEX
  8
0
 10
5.37158
 20
7.69157
 30
0.0
 40
0.00513889
 41
0.00513889
  0
VERTEX
  8
0
 10
5.37044
 20
7.70454
 30
0.0
 40
0.00513889
 41
0.00513889
  0
SEQEND
 8
0
  0
POLYLINE
  8
0
 62
     0
 66
     1
 10
0
 20
0
 30
0.0
 40
0.37
 41
0.37
  0
VERTEX
  8
0
 10
5.34918
 20
7.69032
 30
0.0
 40
0.00513889
 41
0.00513889
  0
VERTEX
  8
0
 10
5.34819
 20
7.70036
 30
0.0
 40
0.00513889
 41
0.00513889
  0
SEQEND
 8
0
  0
POLYLINE
  8
0
 62
     0
 66
     1
 10
0
 20
0
 30
0.0
 40
0.37
 41
0.37
  0
VERTEX
  8
0
 10
5.1396
 20
7.69157
 30
0.0
 40
0.00513889
 41
0.00513889
  0
VERTEX
  8
0
 10
5.14085
 20
7.70454
 30
0.0
 40
0.00513889
 41
0.00513889
  0
SEQEND
 8
0
  0
POLYLINE
  8
0
 62
     0
 66
     1
 10
0
 20
0
 30
0.0
 40
0.37
 41
0.37
  0
VERTEX
  8
0
 10
5.14085
 20
7.70454
 30
0.0
 40
0.00513889
 41
0.00513889
  0
VERTEX
  8
0
 10
5.14324
 20
7.70367
 30
0.0
 40
0.00513889
 41
0.00513889
  0
SEQEND
 8
0
  0
POLYLINE
  8
0
 62
     0
 66
     1
 10
0
 20
0
 30
0.0
 40
0.37
 41
0.37
  0
VERTEX
  8
0
 10
5.14324
 20
7.70367
 30
0.0
 40
0.00513889
 41
0.00513889
  0
VERTEX
  8
0
 10
5.15283
 20
7.70187
 30
0.0
 40
0.00513889
 41
0.00513889
  0
VERTEX
  8
0
 10
5.16254
 20
7.70036
 30
0.0
 40
0.00513889
 41
0.00513889
  0
VERTEX
  8
0
 10
5.16308
 20
7.70036
 30
0.0
 40
0.00513889
 41
0.00513889
  0
SEQEND
 8
0
  0
POLYLINE
  8
0
 62
     0
 66
     1
 10
0
 20
0
 30
0.0
 40
0.37
 41
0.37
  0
VERTEX
  8
0
 10
5.16211
 20
7.69032
 30
0.0
 40
0.00513889
 41
0.00513889
  0
VERTEX
  8
0
 10
5.16308
 20
7.70036
 30
0.0
 40
0.00513889
 41
0.00513889
  0
SEQEND
 8
0
  0
POLYLINE
  8
0
 62
     0
 66
     1
 10
0
 20
0
 30
0.0
 40
0.37
 41
0.37
  0
VERTEX
  8
0
 10
5.05057
 20
7.69797
 30
0.0
 40
0.00513889
 41
0.00513889
  0
VERTEX
  8
0
 10
5.0606
 20
7.69618
 30
0.0
 40
0.00513889
 41
0.00513889
  0
SEQEND
 8
0
  0
POLYLINE
  8
0
 62
     0
 66
     1
 10
0
 20
0
 30
0.0
 40
0.37
 41
0.37
  0
VERTEX
  8
0
 10
5.09169
 20
7.69439
 30
0.0
 40
0.00513889
 41
0.00513889
  0
VERTEX
  8
0
 10
5.13906
 20
7.69174
 30
0.0
 40
0.00513889
 41
0.00513889
  0
SEQEND
 8
0
  0
POLYLINE
  8
0
 62
     0
 66
     1
 10
0
 20
0
 30
0.0
 40
0.37
 41
0.37
  0
VERTEX
  8
0
 10
5.4196
 20
7.69439
 30
0.0
 40
0.00513889
 41
0.00513889
  0
VERTEX
  8
0
 10
5.37224
 20
7.69174
 30
0.0
 40
0.00513889
 41
0.00513889
  0
SEQEND
 8
0
  0
POLYLINE
  8
0
 62
     0
 66
     1
 10
0
 20
0
 30
0.0
 40
0.37
 41
0.37
  0
VERTEX
  8
0
 10
5.46072
 20
7.69797
 30
0.0
 40
0.00513889
 41
0.00513889
  0
VERTEX
  8
0
 10
5.45057
 20
7.69618
 30
0.0
 40
0.00513889
 41
0.00513889
  0
SEQEND
 8
0
  0
POLYLINE
  8
0
 62
     0
 66
     1
 10
0
 20
0
 30
0.0
 40
0.37
 41
0.37
  0
VERTEX
  8
0
 10
5.46018
 20
7.69726
 30
0.0
 40
0.00513889
 41
0.00513889
  0
VERTEX
  8
0
 10
5.45714
 20
7.69672
 30
0.0
 40
0.00513889
 41
0.00513889
  0
SEQEND
 8
0
  0
POLYLINE
  8
0
 62
     0
 66
     1
 10
0
 20
0
 30
0.0
 40
0.37
 41
0.37
  0
VERTEX
  8
0
 10
5.46072
 20
7.69797
 30
0.0
 40
0.00513889
 41
0.00513889
  0
VERTEX
  8
0
 10
5.46018
 20
7.69726
 30
0.0
 40
0.00513889
 41
0.00513889
  0
SEQEND
 8
0
  0
POLYLINE
  8
0
 62
     0
 66
     1
 10
0
 20
0
 30
0.0
 40
0.37
 41
0.37
  0
VERTEX
  8
0
 10
5.4196
 20
7.69439
 30
0.0
 40
0.00513889
 41
0.00513889
  0
VERTEX
  8
0
 10
5.31044
 20
7.68869
 30
0.0
 40
0.00513889
 41
0.00513889
  0
VERTEX
  8
0
 10
5.25558
 20
7.68756
 30
0.0
 40
0.00513889
 41
0.00513889
  0
SEQEND
 8
0
  0
POLYLINE
  8
0
 62
     0
 66
     1
 10
0
 20
0
 30
0.0
 40
0.37
 41
0.37
  0
VERTEX
  8
0
 10
5.05057
 20
7.69797
 30
0.0
 40
0.00513889
 41
0.00513889
  0
VERTEX
  8
0
 10
5.05117
 20
7.69726
 30
0.0
 40
0.00513889
 41
0.00513889
  0
SEQEND
 8
0
  0
POLYLINE
  8
0
 62
     0
 66
     1
 10
0
 20
0
 30
0.0
 40
0.37
 41
0.37
  0
VERTEX
  8
0
 10
5.05117
 20
7.69726
 30
0.0
 40
0.00513889
 41
0.00513889
  0
VERTEX
  8
0
 10
5.05419
 20
7.69672
 30
0.0
 40
0.00513889
 41
0.00513889
  0
SEQEND
 8
0
  0
POLYLINE
  8
0
 62
     0
 66
     1
 10
0
 20
0
 30
0.0
 40
0.37
 41
0.37
  0
VERTEX
  8
0
 10
5.09169
 20
7.69439
 30
0.0
 40
0.00513889
 41
0.00513889
  0
VERTEX
  8
0
 10
5.20074
 20
7.68869
 30
0.0
 40
0.00513889
 41
0.00513889
  0
VERTEX
  8
0
 10
5.25558
 20
7.68756
 30
0.0
 40
0.00513889
 41
0.00513889
  0
SEQEND
 8
0
  0
POLYLINE
  8
0
 62
     0
 66
     1
 10
0
 20
0
 30
0.0
 40
0.37
 41
0.37
  0
VERTEX
  8
0
 10
6.01199
 20
7.05268
 30
0.0
 40
0.00513889
 41
0.00513889
  0
VERTEX
  8
0
 10
6.07656
 20
7.22976
 30
0.0
 40
0.00513889
 41
0.00513889
  0
SEQEND
 8
0
  0
POLYLINE
  8
0
 62
     0
 66
     1
 10
0
 20
0
 30
0.0
 40
0.37
 41
0.37
  0
VERTEX
  8
0
 10
4.49918
 20
7.05268
 30
0.0
 40
0.00513889
 41
0.00513889
  0
VERTEX
  8
0
 10
4.43474
 20
7.22976
 30
0.0
 40
0.00513889
 41
0.00513889
  0
SEQEND
 8
0
  0
POLYLINE
  8
0
 62
     0
 66
     1
 10
0
 20
0
 30
0.0
 40
0.37
 41
0.37
  0
VERTEX
  8
0
 10
5.05018
 20
7.68869
 30
0.0
 40
0.00513889
 41
0.00513889
  0
VERTEX
  8
0
 10
5.05035
 20
7.69174
 30
0.0
 40
0.00513889
 41
0.00513889
  0
SEQEND
 8
0
  0
POLYLINE
  8
0
 62
     0
 66
     1
 10
0
 20
0
 30
0.0
 40
0.37
 41
0.37
  0
VERTEX
  8
0
 10
5.05029
 20
7.69174
 30
0.0
 40
0.00513889
 41
0.00513889
  0
VERTEX
  8
0
 10
5.05046
 20
7.69476
 30
0.0
 40
0.00513889
 41
0.00513889
  0
SEQEND
 8
0
  0
POLYLINE
  8
0
 62
     0
 66
     1
 10
0
 20
0
 30
0.0
 40
0.37
 41
0.37
  0
VERTEX
  8
0
 10
5.05046
 20
7.69476
 30
0.0
 40
0.00513889
 41
0.00513889
  0
VERTEX
  8
0
 10
5.05062
 20
7.69797
 30
0.0
 40
0.00513889
 41
0.00513889
  0
SEQEND
 8
0
  0
POLYLINE
  8
0
 62
     0
 66
     1
 10
0
 20
0
 30
0.0
 40
0.37
 41
0.37
  0
VERTEX
  8
0
 10
5.45144
 20
7.69635
 30
0.0
 40
0.00513889
 41
0.00513889
  0
VERTEX
  8
0
 10
5.4196
 20
7.69439
 30
0.0
 40
0.00513889
 41
0.00513889
  0
SEQEND
 8
0
  0
POLYLINE
  8
0
 62
     0
 66
     1
 10
0
 20
0
 30
0.0
 40
0.37
 41
0.37
  0
VERTEX
  8
0
 10
5.46089
 20
7.69476
 30
0.0
 40
0.00513889
 41
0.00513889
  0
VERTEX
  8
0
 10
5.46072
 20
7.69797
 30
0.0
 40
0.00513889
 41
0.00513889
  0
SEQEND
 8
0
  0
POLYLINE
  8
0
 62
     0
 66
     1
 10
0
 20
0
 30
0.0
 40
0.37
 41
0.37
  0
VERTEX
  8
0
 10
5.46099
 20
7.69174
 30
0.0
 40
0.00513889
 41
0.00513889
  0
VERTEX
  8
0
 10
5.46083
 20
7.69476
 30
0.0
 40
0.00513889
 41
0.00513889
  0
SEQEND
 8
0
  0
POLYLINE
  8
0
 62
     0
 66
     1
 10
0
 20
0
 30
0.0
 40
0.37
 41
0.37
  0
VERTEX
  8
0
 10
5.46115
 20
7.68869
 30
0.0
 40
0.00513889
 41
0.00513889
  0
VERTEX
  8
0
 10
5.46104
 20
7.69174
 30
0.0
 40
0.00513889
 41
0.00513889
  0
SEQEND
 8
0
  0
POLYLINE
  8
0
 62
     0
 66
     1
 10
0
 20
0
 30
0.0
 40
0.37
 41
0.37
  0
VERTEX
  8
0
 10
5.46018
 20
7.69726
 30
0.0
 40
0.00513889
 41
0.00513889
  0
VERTEX
  8
0
 10
5.45931
 20
7.697
 30
0.0
 40
0.00513889
 41
0.00513889
  0
SEQEND
 8
0
  0
POLYLINE
  8
0
 62
     0
 66
     1
 10
0
 20
0
 30
0.0
 40
0.37
 41
0.37
  0
VERTEX
  8
0
 10
5.4196
 20
7.6945
 30
0.0
 40
0.00513889
 41
0.00513889
  0
VERTEX
  8
0
 10
5.42947
 20
7.69493
 30
0.0
 40
0.00513889
 41
0.00513889
  0
VERTEX
  8
0
 10
5.43935
 20
7.69547
 30
0.0
 40
0.00513889
 41
0.00513889
  0
VERTEX
  8
0
 10
5.44906
 20
7.69618
 30
0.0
 40
0.00513889
 41
0.00513889
  0
VERTEX
  8
0
 10
5.45893
 20
7.697
 30
0.0
 40
0.00513889
 41
0.00513889
  0
VERTEX
  8
0
 10
5.45931
 20
7.697
 30
0.0
 40
0.00513889
 41
0.00513889
  0
SEQEND
 8
0
  0
POLYLINE
  8
0
 62
     0
 66
     1
 10
0
 20
0
 30
0.0
 40
0.37
 41
0.37
  0
VERTEX
  8
0
 10
5.46099
 20
7.68799
 30
0.0
 40
0.00513889
 41
0.00513889
  0
VERTEX
  8
0
 10
5.46018
 20
7.69726
 30
0.0
 40
0.00513889
 41
0.00513889
  0
SEQEND
 8
0
  0
POLYLINE
  8
0
 62
     0
 66
     1
 10
0
 20
0
 30
0.0
 40
0.37
 41
0.37
  0
VERTEX
  8
0
 10
5.42031
 20
7.68718
 30
0.0
 40
0.00513889
 41
0.00513889
  0
VERTEX
  8
0
 10
5.4196
 20
7.69439
 30
0.0
 40
0.00513889
 41
0.00513889
  0
SEQEND
 8
0
  0
POLYLINE
  8
0
 62
     0
 66
     1
 10
0
 20
0
 30
0.0
 40
0.37
 41
0.37
  0
VERTEX
  8
0
 10
5.05029
 20
7.68799
 30
0.0
 40
0.00513889
 41
0.00513889
  0
VERTEX
  8
0
 10
5.05117
 20
7.69726
 30
0.0
 40
0.00513889
 41
0.00513889
  0
SEQEND
 8
0
  0
POLYLINE
  8
0
 62
     0
 66
     1
 10
0
 20
0
 30
0.0
 40
0.37
 41
0.37
  0
VERTEX
  8
0
 10
5.05117
 20
7.69726
 30
0.0
 40
0.00513889
 41
0.00513889
  0
VERTEX
  8
0
 10
5.05197
 20
7.697
 30
0.0
 40
0.00513889
 41
0.00513889
  0
SEQEND
 8
0
  0
POLYLINE
  8
0
 62
     0
 66
     1
 10
0
 20
0
 30
0.0
 40
0.37
 41
0.37
  0
VERTEX
  8
0
 10
5.05197
 20
7.697
 30
0.0
 40
0.00513889
 41
0.00513889
  0
VERTEX
  8
0
 10
5.06185
 20
7.69618
 30
0.0
 40
0.00513889
 41
0.00513889
  0
VERTEX
  8
0
 10
5.07156
 20
7.69547
 30
0.0
 40
0.00513889
 41
0.00513889
  0
VERTEX
  8
0
 10
5.08143
 20
7.69493
 30
0.0
 40
0.00513889
 41
0.00513889
  0
VERTEX
  8
0
 10
5.09125
 20
7.6945
 30
0.0
 40
0.00513889
 41
0.00513889
  0
VERTEX
  8
0
 10
5.09169
 20
7.6945
 30
0.0
 40
0.00513889
 41
0.00513889
  0
SEQEND
 8
0
  0
POLYLINE
  8
0
 62
     0
 66
     1
 10
0
 20
0
 30
0.0
 40
0.37
 41
0.37
  0
VERTEX
  8
0
 10
5.09088
 20
7.68718
 30
0.0
 40
0.00513889
 41
0.00513889
  0
VERTEX
  8
0
 10
5.09169
 20
7.69439
 30
0.0
 40
0.00513889
 41
0.00513889
  0
SEQEND
 8
0
  0
POLYLINE
  8
0
 62
     0
 66
     1
 10
0
 20
0
 30
0.0
 40
0.37
 41
0.37
  0
VERTEX
  8
0
 10
5.55089
 20
7.49328
 30
0.0
 40
0.00513889
 41
0.00513889
  0
VERTEX
  8
0
 10
5.37213
 20
7.49328
 30
0.0
 40
0.00513889
 41
0.00513889
  0
SEQEND
 8
0
  0
POLYLINE
  8
0
 62
     0
 66
     1
 10
0
 20
0
 30
0.0
 40
0.37
 41
0.37
  0
VERTEX
  8
0
 10
5.13921
 20
7.49328
 30
0.0
 40
0.00513889
 41
0.00513889
  0
VERTEX
  8
0
 10
4.96029
 20
7.49328
 30
0.0
 40
0.00513889
 41
0.00513889
  0
SEQEND
 8
0
  0
POLYLINE
  8
0
 62
     0
 66
     1
 10
0
 20
0
 30
0.0
 40
0.37
 41
0.37
  0
VERTEX
  8
0
 10
6.07656
 20
7.28201
 30
0.0
 40
0.00513889
 41
0.00513889
  0
VERTEX
  8
0
 10
6.07656
 20
7.22976
 30
0.0
 40
0.00513889
 41
0.00513889
  0
SEQEND
 8
0
  0
POLYLINE
  8
0
 62
     0
 66
     1
 10
0
 20
0
 30
0.0
 40
0.37
 41
0.37
  0
VERTEX
  8
0
 10
4.55296
 20
7.58772
 30
0.0
 40
0.00513889
 41
0.00513889
  0
VERTEX
  8
0
 10
4.55875
 20
7.58772
 30
0.0
 40
0.00513889
 41
0.00513889
  0
SEQEND
 8
0
  0
POLYLINE
  8
0
 62
     0
 66
     1
 10
0
 20
0
 30
0.0
 40
0.37
 41
0.37
  0
VERTEX
  8
0
 10
4.50265
 20
7.75315
 30
0.0
 40
0.00513889
 41
0.00513889
  0
VERTEX
  8
0
 10
4.49294
 20
7.75228
 30
0.0
 40
0.00513889
 41
0.00513889
  0
VERTEX
  8
0
 10
4.48335
 20
7.74978
 30
0.0
 40
0.00513889
 41
0.00513889
  0
VERTEX
  8
0
 10
4.4745
 20
7.74588
 30
0.0
 40
0.00513889
 41
0.00513889
  0
VERTEX
  8
0
 10
4.46625
 20
7.7405
 30
0.0
 40
0.00513889
 41
0.00513889
  0
VERTEX
  8
0
 10
4.45904
 20
7.73383
 30
0.0
 40
0.00513889
 41
0.00513889
  0
VERTEX
  8
0
 10
4.45307
 20
7.72601
 30
0.0
 40
0.00513889
 41
0.00513889
  0
VERTEX
  8
0
 10
4.44851
 20
7.71744
 30
0.0
 40
0.00513889
 41
0.00513889
  0
VERTEX
  8
0
 10
4.44835
 20
7.71718
 30
0.0
 40
0.00513889
 41
0.00513889
  0
SEQEND
 8
0
  0
POLYLINE
  8
0
 62
     0
 66
     1
 10
0
 20
0
 30
0.0
 40
0.37
 41
0.37
  0
VERTEX
  8
0
 10
4.41726
 20
7.56993
 30
0.0
 40
0.00513889
 41
0.00513889
  0
VERTEX
  8
0
 10
4.41015
 20
7.57687
 30
0.0
 40
0.00513889
 41
0.00513889
  0
VERTEX
  8
0
 10
4.4024
 20
7.58285
 30
0.0
 40
0.00513889
 41
0.00513889
  0
VERTEX
  8
0
 10
4.39378
 20
7.58757
 30
0.0
 40
0.00513889
 41
0.00513889
  0
VERTEX
  8
0
 10
4.3935
 20
7.58772
 30
0.0
 40
0.00513889
 41
0.00513889
  0
SEQEND
 8
0
  0
POLYLINE
  8
0
 62
     0
 66
     1
 10
0
 20
0
 30
0.0
 40
0.37
 41
0.37
  0
VERTEX
  8
0
 10
4.43474
 20
7.28201
 30
0.0
 40
0.00513889
 41
0.00513889
  0
VERTEX
  8
0
 10
4.43474
 20
7.22976
 30
0.0
 40
0.00513889
 41
0.00513889
  0
SEQEND
 8
0
  0
POLYLINE
  8
0
 62
     0
 66
     1
 10
0
 20
0
 30
0.0
 40
0.37
 41
0.37
  0
VERTEX
  8
0
 10
6.11778
 20
7.58772
 30
0.0
 40
0.00513889
 41
0.00513889
  0
VERTEX
  8
0
 10
6.10921
 20
7.58301
 30
0.0
 40
0.00513889
 41
0.00513889
  0
VERTEX
  8
0
 10
6.10129
 20
7.57715
 30
0.0
 40
0.00513889
 41
0.00513889
  0
VERTEX
  8
0
 10
6.09435
 20
7.57036
 30
0.0
 40
0.00513889
 41
0.00513889
  0
VERTEX
  8
0
 10
6.09407
 20
7.56993
 30
0.0
 40
0.00513889
 41
0.00513889
  0
SEQEND
 8
0
  0
POLYLINE
  8
0
 62
     0
 66
     1
 10
0
 20
0
 30
0.0
 40
0.37
 41
0.37
  0
VERTEX
  8
0
 10
5.95253
 20
7.58772
 30
0.0
 40
0.00513889
 41
0.00513889
  0
VERTEX
  8
0
 10
5.95839
 20
7.58772
 30
0.0
 40
0.00513889
 41
0.00513889
  0
SEQEND
 8
0
  0
POLYLINE
  8
0
 62
     0
 66
     1
 10
0
 20
0
 30
0.0
 40
0.37
 41
0.37
  0
VERTEX
  8
0
 10
6.06293
 20
7.71718
 30
0.0
 40
0.00513889
 41
0.00513889
  0
VERTEX
  8
0
 10
6.05838
 20
7.72575
 30
0.0
 40
0.00513889
 41
0.00513889
  0
VERTEX
  8
0
 10
6.0524
 20
7.73356
 30
0.0
 40
0.00513889
 41
0.00513889
  0
VERTEX
  8
0
 10
6.04531
 20
7.74035
 30
0.0
 40
0.00513889
 41
0.00513889
  0
VERTEX
  8
0
 10
6.03711
 20
7.74576
 30
0.0
 40
0.00513889
 41
0.00513889
  0
VERTEX
  8
0
 10
6.0281
 20
7.74978
 30
0.0
 40
0.00513889
 41
0.00513889
  0
VERTEX
  8
0
 10
6.01867
 20
7.75217
 30
0.0
 40
0.00513889
 41
0.00513889
  0
VERTEX
  8
0
 10
6.0089
 20
7.75315
 30
0.0
 40
0.00513889
 41
0.00513889
  0
VERTEX
  8
0
 10
6.00851
 20
7.75315
 30
0.0
 40
0.00513889
 41
0.00513889
  0
SEQEND
 8
0
  0
POLYLINE
  8
0
 62
     0
 66
     1
 10
0
 20
0
 30
0.0
 40
0.37
 41
0.37
  0
VERTEX
  8
0
 10
5.88238
 20
8.14231
 30
0.0
 40
0.00513889
 41
0.00513889
  0
VERTEX
  8
0
 10
5.87782
 20
8.15087
 30
0.0
 40
0.00513889
 41
0.00513889
  0
VERTEX
  8
0
 10
5.87196
 20
8.15881
 30
0.0
 40
0.00513889
 41
0.00513889
  0
VERTEX
  8
0
 10
5.86475
 20
8.16547
 30
0.0
 40
0.00513889
 41
0.00513889
  0
VERTEX
  8
0
 10
5.85656
 20
8.1709
 30
0.0
 40
0.00513889
 41
0.00513889
  0
VERTEX
  8
0
 10
5.84765
 20
8.17492
 30
0.0
 40
0.00513889
 41
0.00513889
  0
VERTEX
  8
0
 10
5.83822
 20
8.1774
 30
0.0
 40
0.00513889
 41
0.00513889
  0
VERTEX
  8
0
 10
5.82835
 20
8.17828
 30
0.0
 40
0.00513889
 41
0.00513889
  0
VERTEX
  8
0
 10
5.82807
 20
8.17828
 30
0.0
 40
0.00513889
 41
0.00513889
  0
SEQEND
 8
0
  0
POLYLINE
  8
0
 62
     0
 66
     1
 10
0
 20
0
 30
0.0
 40
0.37
 41
0.37
  0
VERTEX
  8
0
 10
4.68321
 20
8.17828
 30
0.0
 40
0.00513889
 41
0.00513889
  0
VERTEX
  8
0
 10
4.67333
 20
8.1774
 30
0.0
 40
0.00513889
 41
0.00513889
  0
VERTEX
  8
0
 10
4.6639
 20
8.17507
 30
0.0
 40
0.00513889
 41
0.00513889
  0
VERTEX
  8
0
 10
4.65489
 20
8.17106
 30
0.0
 40
0.00513889
 41
0.00513889
  0
VERTEX
  8
0
 10
4.64671
 20
8.16564
 30
0.0
 40
0.00513889
 41
0.00513889
  0
VERTEX
  8
0
 10
4.6396
 20
8.15896
 30
0.0
 40
0.00513889
 41
0.00513889
  0
VERTEX
  8
0
 10
4.63363
 20
8.15121
 30
0.0
 40
0.00513889
 41
0.00513889
  0
VERTEX
  8
0
 10
4.6289
 20
8.14258
 30
0.0
 40
0.00513889
 41
0.00513889
  0
VERTEX
  8
0
 10
4.62875
 20
8.14231
 30
0.0
 40
0.00513889
 41
0.00513889
  0
SEQEND
 8
0
  0
POLYLINE
  8
0
 62
     0
 66
     1
 10
0
 20
0
 30
0.0
 40
0.37
 41
0.37
  0
VERTEX
  8
0
 10
4.96072
 20
7.69021
 30
0.0
 40
0.00513889
 41
0.00513889
  0
VERTEX
  8
0
 10
4.96892
 20
7.68951
 30
0.0
 40
0.00513889
 41
0.00513889
  0
SEQEND
 8
0
  0
POLYLINE
  8
0
 62
     0
 66
     1
 10
0
 20
0
 30
0.0
 40
0.37
 41
0.37
  0
VERTEX
  8
0
 10
5.02001
 20
7.68853
 30
0.0
 40
0.00513889
 41
0.00513889
  0
VERTEX
  8
0
 10
5.05003
 20
7.68799
 30
0.0
 40
0.00513889
 41
0.00513889
  0
SEQEND
 8
0
  0
POLYLINE
  8
0
 62
     0
 66
     1
 10
0
 20
0
 30
0.0
 40
0.37
 41
0.37
  0
VERTEX
  8
0
 10
5.49126
 20
7.68853
 30
0.0
 40
0.00513889
 41
0.00513889
  0
VERTEX
  8
0
 10
5.46126
 20
7.68799
 30
0.0
 40
0.00513889
 41
0.00513889
  0
SEQEND
 8
0
  0
POLYLINE
  8
0
 62
     0
 66
     1
 10
0
 20
0
 30
0.0
 40
0.37
 41
0.37
  0
VERTEX
  8
0
 10
5.55046
 20
7.69021
 30
0.0
 40
0.00513889
 41
0.00513889
  0
VERTEX
  8
0
 10
5.54237
 20
7.68951
 30
0.0
 40
0.00513889
 41
0.00513889
  0
SEQEND
 8
0
  0
POLYLINE
  8
0
 62
     0
 66
     1
 10
0
 20
0
 30
0.0
 40
0.37
 41
0.37
  0
VERTEX
  8
0
 10
5.55018
 20
7.68994
 30
0.0
 40
0.00513889
 41
0.00513889
  0
VERTEX
  8
0
 10
5.54833
 20
7.68978
 30
0.0
 40
0.00513889
 41
0.00513889
  0
SEQEND
 8
0
  0
POLYLINE
  8
0
 62
     0
 66
     1
 10
0
 20
0
 30
0.0
 40
0.37
 41
0.37
  0
VERTEX
  8
0
 10
5.55046
 20
7.69021
 30
0.0
 40
0.00513889
 41
0.00513889
  0
VERTEX
  8
0
 10
5.55018
 20
7.68994
 30
0.0
 40
0.00513889
 41
0.00513889
  0
SEQEND
 8
0
  0
POLYLINE
  8
0
 62
     0
 66
     1
 10
0
 20
0
 30
0.0
 40
0.37
 41
0.37
  0
VERTEX
  8
0
 10
5.25558
 20
7.68506
 30
0.0
 40
0.00513889
 41
0.00513889
  0
VERTEX
  8
0
 10
5.27528
 20
7.68506
 30
0.0
 40
0.00513889
 41
0.00513889
  0
VERTEX
  8
0
 10
5.29503
 20
7.68539
 30
0.0
 40
0.00513889
 41
0.00513889
  0
VERTEX
  8
0
 10
5.3049
 20
7.68539
 30
0.0
 40
0.00513889
 41
0.00513889
  0
VERTEX
  8
0
 10
5.31478
 20
7.68554
 30
0.0
 40
0.00513889
 41
0.00513889
  0
VERTEX
  8
0
 10
5.32449
 20
7.68571
 30
0.0
 40
0.00513889
 41
0.00513889
  0
VERTEX
  8
0
 10
5.33431
 20
7.68571
 30
0.0
 40
0.00513889
 41
0.00513889
  0
VERTEX
  8
0
 10
5.34418
 20
7.68582
 30
0.0
 40
0.00513889
 41
0.00513889
  0
VERTEX
  8
0
 10
5.37381
 20
7.68631
 30
0.0
 40
0.00513889
 41
0.00513889
  0
VERTEX
  8
0
 10
5.38363
 20
7.68647
 30
0.0
 40
0.00513889
 41
0.00513889
  0
VERTEX
  8
0
 10
5.39333
 20
7.68674
 30
0.0
 40
0.00513889
 41
0.00513889
  0
VERTEX
  8
0
 10
5.40321
 20
7.6869
 30
0.0
 40
0.00513889
 41
0.00513889
  0
VERTEX
  8
0
 10
5.41308
 20
7.68701
 30
0.0
 40
0.00513889
 41
0.00513889
  0
VERTEX
  8
0
 10
5.42296
 20
7.68733
 30
0.0
 40
0.00513889
 41
0.00513889
  0
VERTEX
  8
0
 10
5.43283
 20
7.68744
 30
0.0
 40
0.00513889
 41
0.00513889
  0
VERTEX
  8
0
 10
5.44265
 20
7.68778
 30
0.0
 40
0.00513889
 41
0.00513889
  0
VERTEX
  8
0
 10
5.45253
 20
7.68787
 30
0.0
 40
0.00513889
 41
0.00513889
  0
VERTEX
  8
0
 10
5.46224
 20
7.68815
 30
0.0
 40
0.00513889
 41
0.00513889
  0
VERTEX
  8
0
 10
5.47211
 20
7.68832
 30
0.0
 40
0.00513889
 41
0.00513889
  0
VERTEX
  8
0
 10
5.48199
 20
7.68858
 30
0.0
 40
0.00513889
 41
0.00513889
  0
VERTEX
  8
0
 10
5.49126
 20
7.68892
 30
0.0
 40
0.00513889
 41
0.00513889
  0
SEQEND
 8
0
  0
POLYLINE
  8
0
 62
     0
 66
     1
 10
0
 20
0
 30
0.0
 40
0.37
 41
0.37
  0
VERTEX
  8
0
 10
4.96072
 20
7.69021
 30
0.0
 40
0.00513889
 41
0.00513889
  0
VERTEX
  8
0
 10
4.96099
 20
7.68994
 30
0.0
 40
0.00513889
 41
0.00513889
  0
SEQEND
 8
0
  0
POLYLINE
  8
0
 62
     0
 66
     1
 10
0
 20
0
 30
0.0
 40
0.37
 41
0.37
  0
VERTEX
  8
0
 10
4.96099
 20
7.68994
 30
0.0
 40
0.00513889
 41
0.00513889
  0
VERTEX
  8
0
 10
4.96278
 20
7.68978
 30
0.0
 40
0.00513889
 41
0.00513889
  0
SEQEND
 8
0
  0
POLYLINE
  8
0
 62
     0
 66
     1
 10
0
 20
0
 30
0.0
 40
0.37
 41
0.37
  0
VERTEX
  8
0
 10
5.02001
 20
7.68869
 30
0.0
 40
0.00513889
 41
0.00513889
  0
VERTEX
  8
0
 10
5.03976
 20
7.68815
 30
0.0
 40
0.00513889
 41
0.00513889
  0
VERTEX
  8
0
 10
5.04958
 20
7.68799
 30
0.0
 40
0.00513889
 41
0.00513889
  0
VERTEX
  8
0
 10
5.05935
 20
7.68772
 30
0.0
 40
0.00513889
 41
0.00513889
  0
VERTEX
  8
0
 10
5.06917
 20
7.68744
 30
0.0
 40
0.00513889
 41
0.00513889
  0
VERTEX
  8
0
 10
5.08892
 20
7.68713
 30
0.0
 40
0.00513889
 41
0.00513889
  0
VERTEX
  8
0
 10
5.09879
 20
7.68685
 30
0.0
 40
0.00513889
 41
0.00513889
  0
VERTEX
  8
0
 10
5.10861
 20
7.68668
 30
0.0
 40
0.00513889
 41
0.00513889
  0
VERTEX
  8
0
 10
5.11838
 20
7.68653
 30
0.0
 40
0.00513889
 41
0.00513889
  0
VERTEX
  8
0
 10
5.12819
 20
7.68625
 30
0.0
 40
0.00513889
 41
0.00513889
  0
VERTEX
  8
0
 10
5.15782
 20
7.68576
 30
0.0
 40
0.00513889
 41
0.00513889
  0
VERTEX
  8
0
 10
5.16764
 20
7.68565
 30
0.0
 40
0.00513889
 41
0.00513889
  0
VERTEX
  8
0
 10
5.17751
 20
7.68549
 30
0.0
 40
0.00513889
 41
0.00513889
  0
VERTEX
  8
0
 10
5.18722
 20
7.68549
 30
0.0
 40
0.00513889
 41
0.00513889
  0
VERTEX
  8
0
 10
5.20697
 20
7.68517
 30
0.0
 40
0.00513889
 41
0.00513889
  0
VERTEX
  8
0
 10
5.21685
 20
7.68517
 30
0.0
 40
0.00513889
 41
0.00513889
  0
VERTEX
  8
0
 10
5.22667
 20
7.685
 30
0.0
 40
0.00513889
 41
0.00513889
  0
VERTEX
  8
0
 10
5.23654
 20
7.68485
 30
0.0
 40
0.00513889
 41
0.00513889
  0
VERTEX
  8
0
 10
5.25558
 20
7.68485
 30
0.0
 40
0.00513889
 41
0.00513889
  0
SEQEND
 8
0
  0
POLYLINE
  8
0
 62
     0
 66
     1
 10
0
 20
0
 30
0.0
 40
0.37
 41
0.37
  0
VERTEX
  8
0
 10
5.69265
 20
8.06853
 30
0.0
 40
0.00513889
 41
0.00513889
  0
VERTEX
  8
0
 10
5.69265
 20
8.17828
 30
0.0
 40
0.00513889
 41
0.00513889
  0
SEQEND
 8
0
  0
POLYLINE
  8
0
 62
     0
 66
     1
 10
0
 20
0
 30
0.0
 40
0.37
 41
0.37
  0
VERTEX
  8
0
 10
5.69265
 20
8.17828
 30
0.0
 40
0.00513889
 41
0.00513889
  0
VERTEX
  8
0
 10
4.81863
 20
8.17828
 30
0.0
 40
0.00513889
 41
0.00513889
  0
SEQEND
 8
0
  0
POLYLINE
  8
0
 62
     0
 66
     1
 10
0
 20
0
 30
0.0
 40
0.37
 41
0.37
  0
VERTEX
  8
0
 10
4.81863
 20
8.06853
 30
0.0
 40
0.00513889
 41
0.00513889
  0
VERTEX
  8
0
 10
4.81863
 20
8.17828
 30
0.0
 40
0.00513889
 41
0.00513889
  0
SEQEND
 8
0
  0
POLYLINE
  8
0
 62
     0
 66
     1
 10
0
 20
0
 30
0.0
 40
0.37
 41
0.37
  0
VERTEX
  8
0
 10
5.69265
 20
8.06853
 30
0.0
 40
0.00513889
 41
0.00513889
  0
VERTEX
  8
0
 10
4.81863
 20
8.06853
 30
0.0
 40
0.00513889
 41
0.00513889
  0
SEQEND
 8
0
  0
POLYLINE
  8
0
 62
     0
 66
     1
 10
0
 20
0
 30
0.0
 40
0.37
 41
0.37
  0
VERTEX
  8
0
 10
4.44835
 20
7.71718
 30
0.0
 40
0.00513889
 41
0.00513889
  0
VERTEX
  8
0
 10
4.62879
 20
8.14231
 30
0.0
 40
0.00513889
 41
0.00513889
  0
SEQEND
 8
0
  0
POLYLINE
  8
0
 62
     0
 66
     1
 10
0
 20
0
 30
0.0
 40
0.37
 41
0.37
  0
VERTEX
  8
0
 10
4.68587
 20
8.17828
 30
0.0
 40
0.00513889
 41
0.00513889
  0
VERTEX
  8
0
 10
4.68321
 20
8.17828
 30
0.0
 40
0.00513889
 41
0.00513889
  0
SEQEND
 8
0
  0
POLYLINE
  8
0
 62
     0
 66
     1
 10
0
 20
0
 30
0.0
 40
0.37
 41
0.37
  0
VERTEX
  8
0
 10
4.55251
 20
7.75315
 30
0.0
 40
0.00513889
 41
0.00513889
  0
VERTEX
  8
0
 10
4.67101
 20
7.75315
 30
0.0
 40
0.00513889
 41
0.00513889
  0
SEQEND
 8
0
  0
POLYLINE
  8
0
 62
     0
 66
     1
 10
0
 20
0
 30
0.0
 40
0.37
 41
0.37
  0
VERTEX
  8
0
 10
4.55251
 20
7.75315
 30
0.0
 40
0.00513889
 41
0.00513889
  0
VERTEX
  8
0
 10
4.50265
 20
7.75315
 30
0.0
 40
0.00513889
 41
0.00513889
  0
SEQEND
 8
0
  0
POLYLINE
  8
0
 62
     0
 66
     1
 10
0
 20
0
 30
0.0
 40
0.37
 41
0.37
  0
VERTEX
  8
0
 10
4.55251
 20
7.72786
 30
0.0
 40
0.00513889
 41
0.00513889
  0
VERTEX
  8
0
 10
4.55251
 20
7.75315
 30
0.0
 40
0.00513889
 41
0.00513889
  0
SEQEND
 8
0
  0
POLYLINE
  8
0
 62
     0
 66
     1
 10
0
 20
0
 30
0.0
 40
0.37
 41
0.37
  0
VERTEX
  8
0
 10
4.55251
 20
7.72786
 30
0.0
 40
0.00513889
 41
0.00513889
  0
VERTEX
  8
0
 10
4.54297
 20
7.72911
 30
0.0
 40
0.00513889
 41
0.00513889
  0
VERTEX
  8
0
 10
4.53353
 20
7.73008
 30
0.0
 40
0.00513889
 41
0.00513889
  0
VERTEX
  8
0
 10
4.52436
 20
7.73074
 30
0.0
 40
0.00513889
 41
0.00513889
  0
VERTEX
  8
0
 10
4.51546
 20
7.73118
 30
0.0
 40
0.00513889
 41
0.00513889
  0
VERTEX
  8
0
 10
4.50683
 20
7.73144
 30
0.0
 40
0.00513889
 41
0.00513889
  0
VERTEX
  8
0
 10
4.49864
 20
7.73133
 30
0.0
 40
0.00513889
 41
0.00513889
  0
VERTEX
  8
0
 10
4.491
 20
7.73107
 30
0.0
 40
0.00513889
 41
0.00513889
  0
VERTEX
  8
0
 10
4.48378
 20
7.73062
 30
0.0
 40
0.00513889
 41
0.00513889
  0
VERTEX
  8
0
 10
4.47711
 20
7.72982
 30
0.0
 40
0.00513889
 41
0.00513889
  0
VERTEX
  8
0
 10
4.47103
 20
7.72885
 30
0.0
 40
0.00513889
 41
0.00513889
  0
VERTEX
  8
0
 10
4.4656
 20
7.7276
 30
0.0
 40
0.00513889
 41
0.00513889
  0
VERTEX
  8
0
 10
4.46089
 20
7.72618
 30
0.0
 40
0.00513889
 41
0.00513889
  0
VERTEX
  8
0
 10
4.45671
 20
7.72456
 30
0.0
 40
0.00513889
 41
0.00513889
  0
VERTEX
  8
0
 10
4.45335
 20
7.7226
 30
0.0
 40
0.00513889
 41
0.00513889
  0
VERTEX
  8
0
 10
4.45085
 20
7.72065
 30
0.0
 40
0.00513889
 41
0.00513889
  0
VERTEX
  8
0
 10
4.44906
 20
7.71843
 30
0.0
 40
0.00513889
 41
0.00513889
  0
VERTEX
  8
0
 10
4.44835
 20
7.71718
 30
0.0
 40
0.00513889
 41
0.00513889
  0
SEQEND
 8
0
  0
POLYLINE
  8
0
 62
     0
 66
     1
 10
0
 20
0
 30
0.0
 40
0.37
 41
0.37
  0
VERTEX
  8
0
 10
5.95839
 20
7.56993
 30
0.0
 40
0.00513889
 41
0.00513889
  0
VERTEX
  8
0
 10
5.95839
 20
7.58772
 30
0.0
 40
0.00513889
 41
0.00513889
  0
SEQEND
 8
0
  0
POLYLINE
  8
0
 62
     0
 66
     1
 10
0
 20
0
 30
0.0
 40
0.37
 41
0.37
  0
VERTEX
  8
0
 10
4.44835
 20
7.71718
 30
0.0
 40
0.00513889
 41
0.00513889
  0
VERTEX
  8
0
 10
4.3935
 20
7.58772
 30
0.0
 40
0.00513889
 41
0.00513889
  0
SEQEND
 8
0
  0
POLYLINE
  8
0
 62
     0
 66
     1
 10
0
 20
0
 30
0.0
 40
0.37
 41
0.37
  0
VERTEX
  8
0
 10
4.55296
 20
7.56993
 30
0.0
 40
0.00513889
 41
0.00513889
  0
VERTEX
  8
0
 10
4.55296
 20
7.58772
 30
0.0
 40
0.00513889
 41
0.00513889
  0
SEQEND
 8
0
  0
POLYLINE
  8
0
 62
     0
 66
     1
 10
0
 20
0
 30
0.0
 40
0.37
 41
0.37
  0
VERTEX
  8
0
 10
6.06293
 20
7.71718
 30
0.0
 40
0.00513889
 41
0.00513889
  0
VERTEX
  8
0
 10
6.11778
 20
7.58772
 30
0.0
 40
0.00513889
 41
0.00513889
  0
SEQEND
 8
0
  0
POLYLINE
  8
0
 62
     0
 66
     1
 10
0
 20
0
 30
0.0
 40
0.37
 41
0.37
  0
VERTEX
  8
0
 10
6.06293
 20
7.71718
 30
0.0
 40
0.00513889
 41
0.00513889
  0
VERTEX
  8
0
 10
5.88238
 20
8.14231
 30
0.0
 40
0.00513889
 41
0.00513889
  0
SEQEND
 8
0
  0
POLYLINE
  8
0
 62
     0
 66
     1
 10
0
 20
0
 30
0.0
 40
0.37
 41
0.37
  0
VERTEX
  8
0
 10
6.00851
 20
7.75315
 30
0.0
 40
0.00513889
 41
0.00513889
  0
VERTEX
  8
0
 10
5.95876
 20
7.75315
 30
0.0
 40
0.00513889
 41
0.00513889
  0
SEQEND
 8
0
  0
POLYLINE
  8
0
 62
     0
 66
     1
 10
0
 20
0
 30
0.0
 40
0.37
 41
0.37
  0
VERTEX
  8
0
 10
5.95876
 20
7.72786
 30
0.0
 40
0.00513889
 41
0.00513889
  0
VERTEX
  8
0
 10
5.95876
 20
7.75315
 30
0.0
 40
0.00513889
 41
0.00513889
  0
SEQEND
 8
0
  0
POLYLINE
  8
0
 62
     0
 66
     1
 10
0
 20
0
 30
0.0
 40
0.37
 41
0.37
  0
VERTEX
  8
0
 10
6.06293
 20
7.71718
 30
0.0
 40
0.00513889
 41
0.00513889
  0
VERTEX
  8
0
 10
6.06158
 20
7.71935
 30
0.0
 40
0.00513889
 41
0.00513889
  0
VERTEX
  8
0
 10
6.05935
 20
7.72157
 30
0.0
 40
0.00513889
 41
0.00513889
  0
VERTEX
  8
0
 10
6.05643
 20
7.72353
 30
0.0
 40
0.00513889
 41
0.00513889
  0
VERTEX
  8
0
 10
6.05268
 20
7.72537
 30
0.0
 40
0.00513889
 41
0.00513889
  0
VERTEX
  8
0
 10
6.04833
 20
7.72689
 30
0.0
 40
0.00513889
 41
0.00513889
  0
VERTEX
  8
0
 10
6.04324
 20
7.72825
 30
0.0
 40
0.00513889
 41
0.00513889
  0
VERTEX
  8
0
 10
6.03754
 20
7.72939
 30
0.0
 40
0.00513889
 41
0.00513889
  0
VERTEX
  8
0
 10
6.03114
 20
7.73019
 30
0.0
 40
0.00513889
 41
0.00513889
  0
VERTEX
  8
0
 10
6.02419
 20
7.7309
 30
0.0
 40
0.00513889
 41
0.00513889
  0
VERTEX
  8
0
 10
6.01671
 20
7.73133
 30
0.0
 40
0.00513889
 41
0.00513889
  0
VERTEX
  8
0
 10
6.00879
 20
7.7315
 30
0.0
 40
0.00513889
 41
0.00513889
  0
VERTEX
  8
0
 10
6.00043
 20
7.73133
 30
0.0
 40
0.00513889
 41
0.00513889
  0
VERTEX
  8
0
 10
5.99169
 20
7.73107
 30
0.0
 40
0.00513889
 41
0.00513889
  0
VERTEX
  8
0
 10
5.98269
 20
7.73036
 30
0.0
 40
0.00513889
 41
0.00513889
  0
VERTEX
  8
0
 10
5.97336
 20
7.72965
 30
0.0
 40
0.00513889
 41
0.00513889
  0
VERTEX
  8
0
 10
5.96392
 20
7.72857
 30
0.0
 40
0.00513889
 41
0.00513889
  0
VERTEX
  8
0
 10
5.95876
 20
7.72786
 30
0.0
 40
0.00513889
 41
0.00513889
  0
SEQEND
 8
0
  0
POLYLINE
  8
0
 62
     0
 66
     1
 10
0
 20
0
 30
0.0
 40
0.37
 41
0.37
  0
VERTEX
  8
0
 10
5.82807
 20
8.17828
 30
0.0
 40
0.00513889
 41
0.00513889
  0
VERTEX
  8
0
 10
5.82547
 20
8.17828
 30
0.0
 40
0.00513889
 41
0.00513889
  0
SEQEND
 8
0
  0
POLYLINE
  8
0
 62
     0
 66
     1
 10
0
 20
0
 30
0.0
 40
0.37
 41
0.37
  0
VERTEX
  8
0
 10
5.84033
 20
7.75315
 30
0.0
 40
0.00513889
 41
0.00513889
  0
VERTEX
  8
0
 10
5.95876
 20
7.75315
 30
0.0
 40
0.00513889
 41
0.00513889
  0
SEQEND
 8
0
  0
POLYLINE
  8
0
 62
     0
 66
     1
 10
0
 20
0
 30
0.0
 40
0.37
 41
0.37
  0
VERTEX
  8
0
 10
5.69265
 20
7.71024
 30
0.0
 40
0.00513889
 41
0.00513889
  0
VERTEX
  8
0
 10
5.70226
 20
7.71024
 30
0.0
 40
0.00513889
 41
0.00513889
  0
VERTEX
  8
0
 10
5.71072
 20
7.7105
 30
0.0
 40
0.00513889
 41
0.00513889
  0
VERTEX
  8
0
 10
5.71739
 20
7.71089
 30
0.0
 40
0.00513889
 41
0.00513889
  0
VERTEX
  8
0
 10
5.72131
 20
7.71132
 30
0.0
 40
0.00513889
 41
0.00513889
  0
VERTEX
  8
0
 10
5.72211
 20
7.71175
 30
0.0
 40
0.00513889
 41
0.00513889
  0
SEQEND
 8
0
  0
POLYLINE
  8
0
 62
     0
 66
     1
 10
0
 20
0
 30
0.0
 40
0.37
 41
0.37
  0
VERTEX
  8
0
 10
5.69265
 20
7.71024
 30
0.0
 40
0.00513889
 41
0.00513889
  0
VERTEX
  8
0
 10
5.69265
 20
8.06853
 30
0.0
 40
0.00513889
 41
0.00513889
  0
SEQEND
 8
0
  0
POLYLINE
  8
0
 62
     0
 66
     1
 10
0
 20
0
 30
0.0
 40
0.37
 41
0.37
  0
VERTEX
  8
0
 10
5.69265
 20
8.06853
 30
0.0
 40
0.00513889
 41
0.00513889
  0
VERTEX
  8
0
 10
5.70226
 20
8.06879
 30
0.0
 40
0.00513889
 41
0.00513889
  0
VERTEX
  8
0
 10
5.71072
 20
8.0695
 30
0.0
 40
0.00513889
 41
0.00513889
  0
VERTEX
  8
0
 10
5.71739
 20
8.07064
 30
0.0
 40
0.00513889
 41
0.00513889
  0
VERTEX
  8
0
 10
5.72131
 20
8.072
 30
0.0
 40
0.00513889
 41
0.00513889
  0
VERTEX
  8
0
 10
5.72211
 20
8.07324
 30
0.0
 40
0.00513889
 41
0.00513889
  0
SEQEND
 8
0
  0
POLYLINE
  8
0
 62
     0
 66
     1
 10
0
 20
0
 30
0.0
 40
0.37
 41
0.37
  0
VERTEX
  8
0
 10
5.72211
 20
8.17828
 30
0.0
 40
0.00513889
 41
0.00513889
  0
VERTEX
  8
0
 10
5.69265
 20
8.17828
 30
0.0
 40
0.00513889
 41
0.00513889
  0
SEQEND
 8
0
  0
POLYLINE
  8
0
 62
     0
 66
     1
 10
0
 20
0
 30
0.0
 40
0.37
 41
0.37
  0
VERTEX
  8
0
 10
4.81863
 20
7.71024
 30
0.0
 40
0.00513889
 41
0.00513889
  0
VERTEX
  8
0
 10
4.81863
 20
8.06853
 30
0.0
 40
0.00513889
 41
0.00513889
  0
SEQEND
 8
0
  0
POLYLINE
  8
0
 62
     0
 66
     1
 10
0
 20
0
 30
0.0
 40
0.37
 41
0.37
  0
VERTEX
  8
0
 10
4.78907
 20
7.71175
 30
0.0
 40
0.00513889
 41
0.00513889
  0
VERTEX
  8
0
 10
4.79075
 20
7.71115
 30
0.0
 40
0.00513889
 41
0.00513889
  0
VERTEX
  8
0
 10
4.79531
 20
7.71078
 30
0.0
 40
0.00513889
 41
0.00513889
  0
VERTEX
  8
0
 10
4.8024
 20
7.7105
 30
0.0
 40
0.00513889
 41
0.00513889
  0
VERTEX
  8
0
 10
4.81125
 20
7.71024
 30
0.0
 40
0.00513889
 41
0.00513889
  0
VERTEX
  8
0
 10
4.81863
 20
7.71024
 30
0.0
 40
0.00513889
 41
0.00513889
  0
SEQEND
 8
0
  0
POLYLINE
  8
0
 62
     0
 66
     1
 10
0
 20
0
 30
0.0
 40
0.37
 41
0.37
  0
VERTEX
  8
0
 10
4.78907
 20
8.07324
 30
0.0
 40
0.00513889
 41
0.00513889
  0
VERTEX
  8
0
 10
4.79075
 20
8.07172
 30
0.0
 40
0.00513889
 41
0.00513889
  0
VERTEX
  8
0
 10
4.79531
 20
8.07036
 30
0.0
 40
0.00513889
 41
0.00513889
  0
VERTEX
  8
0
 10
4.8024
 20
8.06939
 30
0.0
 40
0.00513889
 41
0.00513889
  0
VERTEX
  8
0
 10
4.81125
 20
8.06868
 30
0.0
 40
0.00513889
 41
0.00513889
  0
VERTEX
  8
0
 10
4.81863
 20
8.06853
 30
0.0
 40
0.00513889
 41
0.00513889
  0
SEQEND
 8
0
  0
POLYLINE
  8
0
 62
     0
 66
     1
 10
0
 20
0
 30
0.0
 40
0.37
 41
0.37
  0
VERTEX
  8
0
 10
4.78907
 20
8.17828
 30
0.0
 40
0.00513889
 41
0.00513889
  0
VERTEX
  8
0
 10
4.81863
 20
8.17828
 30
0.0
 40
0.00513889
 41
0.00513889
  0
SEQEND
 8
0
  0
POLYLINE
  8
0
 62
     0
 66
     1
 10
0
 20
0
 30
0.0
 40
0.37
 41
0.37
  0
VERTEX
  8
0
 10
4.96029
 20
7.68246
 30
0.0
 40
0.00513889
 41
0.00513889
  0
VERTEX
  8
0
 10
4.96072
 20
7.69021
 30
0.0
 40
0.00513889
 41
0.00513889
  0
SEQEND
 8
0
  0
POLYLINE
  8
0
 62
     0
 66
     1
 10
0
 20
0
 30
0.0
 40
0.37
 41
0.37
  0
VERTEX
  8
0
 10
5.55089
 20
7.68246
 30
0.0
 40
0.00513889
 41
0.00513889
  0
VERTEX
  8
0
 10
5.55046
 20
7.69021
 30
0.0
 40
0.00513889
 41
0.00513889
  0
SEQEND
 8
0
  0
POLYLINE
  8
0
 62
     0
 66
     1
 10
0
 20
0
 30
0.0
 40
0.37
 41
0.37
  0
VERTEX
  8
0
 10
5.55018
 20
7.68994
 30
0.0
 40
0.00513889
 41
0.00513889
  0
VERTEX
  8
0
 10
5.54958
 20
7.68978
 30
0.0
 40
0.00513889
 41
0.00513889
  0
SEQEND
 8
0
  0
POLYLINE
  8
0
 62
     0
 66
     1
 10
0
 20
0
 30
0.0
 40
0.37
 41
0.37
  0
VERTEX
  8
0
 10
5.49126
 20
7.68853
 30
0.0
 40
0.00513889
 41
0.00513889
  0
VERTEX
  8
0
 10
5.51101
 20
7.68886
 30
0.0
 40
0.00513889
 41
0.00513889
  0
VERTEX
  8
0
 10
5.52072
 20
7.68901
 30
0.0
 40
0.00513889
 41
0.00513889
  0
VERTEX
  8
0
 10
5.54047
 20
7.68956
 30
0.0
 40
0.00513889
 41
0.00513889
  0
VERTEX
  8
0
 10
5.54958
 20
7.68983
 30
0.0
 40
0.00513889
 41
0.00513889
  0
SEQEND
 8
0
  0
POLYLINE
  8
0
 62
     0
 66
     1
 10
0
 20
0
 30
0.0
 40
0.37
 41
0.37
  0
VERTEX
  8
0
 10
5.55089
 20
7.68246
 30
0.0
 40
0.00513889
 41
0.00513889
  0
VERTEX
  8
0
 10
5.55018
 20
7.68994
 30
0.0
 40
0.00513889
 41
0.00513889
  0
SEQEND
 8
0
  0
POLYLINE
  8
0
 62
     0
 66
     1
 10
0
 20
0
 30
0.0
 40
0.37
 41
0.37
  0
VERTEX
  8
0
 10
5.49186
 20
7.68246
 30
0.0
 40
0.00513889
 41
0.00513889
  0
VERTEX
  8
0
 10
5.49126
 20
7.68842
 30
0.0
 40
0.00513889
 41
0.00513889
  0
SEQEND
 8
0
  0
POLYLINE
  8
0
 62
     0
 66
     1
 10
0
 20
0
 30
0.0
 40
0.37
 41
0.37
  0
VERTEX
  8
0
 10
5.49186
 20
7.68246
 30
0.0
 40
0.00513889
 41
0.00513889
  0
VERTEX
  8
0
 10
5.25558
 20
7.68246
 30
0.0
 40
0.00513889
 41
0.00513889
  0
SEQEND
 8
0
  0
POLYLINE
  8
0
 62
     0
 66
     1
 10
0
 20
0
 30
0.0
 40
0.37
 41
0.37
  0
VERTEX
  8
0
 10
4.96029
 20
7.68246
 30
0.0
 40
0.00513889
 41
0.00513889
  0
VERTEX
  8
0
 10
4.96099
 20
7.68994
 30
0.0
 40
0.00513889
 41
0.00513889
  0
SEQEND
 8
0
  0
POLYLINE
  8
0
 62
     0
 66
     1
 10
0
 20
0
 30
0.0
 40
0.37
 41
0.37
  0
VERTEX
  8
0
 10
4.96099
 20
7.68994
 30
0.0
 40
0.00513889
 41
0.00513889
  0
VERTEX
  8
0
 10
4.96153
 20
7.68978
 30
0.0
 40
0.00513889
 41
0.00513889
  0
SEQEND
 8
0
  0
POLYLINE
  8
0
 62
     0
 66
     1
 10
0
 20
0
 30
0.0
 40
0.37
 41
0.37
  0
VERTEX
  8
0
 10
4.96153
 20
7.68978
 30
0.0
 40
0.00513889
 41
0.00513889
  0
VERTEX
  8
0
 10
4.99115
 20
7.68896
 30
0.0
 40
0.00513889
 41
0.00513889
  0
VERTEX
  8
0
 10
5.00097
 20
7.68881
 30
0.0
 40
0.00513889
 41
0.00513889
  0
VERTEX
  8
0
 10
5.01085
 20
7.68864
 30
0.0
 40
0.00513889
 41
0.00513889
  0
VERTEX
  8
0
 10
5.02001
 20
7.68847
 30
0.0
 40
0.00513889
 41
0.00513889
  0
SEQEND
 8
0
  0
POLYLINE
  8
0
 62
     0
 66
     1
 10
0
 20
0
 30
0.0
 40
0.37
 41
0.37
  0
VERTEX
  8
0
 10
5.01947
 20
7.68246
 30
0.0
 40
0.00513889
 41
0.00513889
  0
VERTEX
  8
0
 10
5.02001
 20
7.68842
 30
0.0
 40
0.00513889
 41
0.00513889
  0
SEQEND
 8
0
  0
POLYLINE
  8
0
 62
     0
 66
     1
 10
0
 20
0
 30
0.0
 40
0.37
 41
0.37
  0
VERTEX
  8
0
 10
5.25558
 20
7.68246
 30
0.0
 40
0.00513889
 41
0.00513889
  0
VERTEX
  8
0
 10
5.01947
 20
7.68246
 30
0.0
 40
0.00513889
 41
0.00513889
  0
SEQEND
 8
0
  0
POLYLINE
  8
0
 62
     0
 66
     1
 10
0
 20
0
 30
0.0
 40
0.37
 41
0.37
  0
VERTEX
  8
0
 10
5.69265
 20
7.68212
 30
0.0
 40
0.00513889
 41
0.00513889
  0
VERTEX
  8
0
 10
5.69265
 20
7.71024
 30
0.0
 40
0.00513889
 41
0.00513889
  0
SEQEND
 8
0
  0
POLYLINE
  8
0
 62
     0
 66
     1
 10
0
 20
0
 30
0.0
 40
0.37
 41
0.37
  0
VERTEX
  8
0
 10
4.81863
 20
7.71024
 30
0.0
 40
0.00513889
 41
0.00513889
  0
VERTEX
  8
0
 10
5.69265
 20
7.71024
 30
0.0
 40
0.00513889
 41
0.00513889
  0
SEQEND
 8
0
  0
POLYLINE
  8
0
 62
     0
 66
     1
 10
0
 20
0
 30
0.0
 40
0.37
 41
0.37
  0
VERTEX
  8
0
 10
4.81863
 20
7.68212
 30
0.0
 40
0.00513889
 41
0.00513889
  0
VERTEX
  8
0
 10
4.81863
 20
7.71024
 30
0.0
 40
0.00513889
 41
0.00513889
  0
SEQEND
 8
0
  0
POLYLINE
  8
0
 62
     0
 66
     1
 10
0
 20
0
 30
0.0
 40
0.37
 41
0.37
  0
VERTEX
  8
0
 10
4.685
 20
8.1531
 30
0.0
 40
0.00513889
 41
0.00513889
  0
VERTEX
  8
0
 10
4.68587
 20
8.17828
 30
0.0
 40
0.00513889
 41
0.00513889
  0
SEQEND
 8
0
  0
POLYLINE
  8
0
 62
     0
 66
     1
 10
0
 20
0
 30
0.0
 40
0.37
 41
0.37
  0
VERTEX
  8
0
 10
4.67019
 20
7.72786
 30
0.0
 40
0.00513889
 41
0.00513889
  0
VERTEX
  8
0
 10
4.685
 20
8.1531
 30
0.0
 40
0.00513889
 41
0.00513889
  0
SEQEND
 8
0
  0
POLYLINE
  8
0
 62
     0
 66
     1
 10
0
 20
0
 30
0.0
 40
0.37
 41
0.37
  0
VERTEX
  8
0
 10
4.55251
 20
7.72786
 30
0.0
 40
0.00513889
 41
0.00513889
  0
VERTEX
  8
0
 10
4.67019
 20
7.72786
 30
0.0
 40
0.00513889
 41
0.00513889
  0
SEQEND
 8
0
  0
POLYLINE
  8
0
 62
     0
 66
     1
 10
0
 20
0
 30
0.0
 40
0.37
 41
0.37
  0
VERTEX
  8
0
 10
4.3935
 20
7.58772
 30
0.0
 40
0.00513889
 41
0.00513889
  0
VERTEX
  8
0
 10
4.49294
 20
7.58772
 30
0.0
 40
0.00513889
 41
0.00513889
  0
SEQEND
 8
0
  0
POLYLINE
  8
0
 62
     0
 66
     1
 10
0
 20
0
 30
0.0
 40
0.37
 41
0.37
  0
VERTEX
  8
0
 10
4.55251
 20
7.72786
 30
0.0
 40
0.00513889
 41
0.00513889
  0
VERTEX
  8
0
 10
4.49294
 20
7.58772
 30
0.0
 40
0.00513889
 41
0.00513889
  0
SEQEND
 8
0
  0
POLYLINE
  8
0
 62
     0
 66
     1
 10
0
 20
0
 30
0.0
 40
0.37
 41
0.37
  0
VERTEX
  8
0
 10
5.95876
 20
7.72786
 30
0.0
 40
0.00513889
 41
0.00513889
  0
VERTEX
  8
0
 10
6.01824
 20
7.58772
 30
0.0
 40
0.00513889
 41
0.00513889
  0
SEQEND
 8
0
  0
POLYLINE
  8
0
 62
     0
 66
     1
 10
0
 20
0
 30
0.0
 40
0.37
 41
0.37
  0
VERTEX
  8
0
 10
6.11778
 20
7.58772
 30
0.0
 40
0.00513889
 41
0.00513889
  0
VERTEX
  8
0
 10
6.01824
 20
7.58772
 30
0.0
 40
0.00513889
 41
0.00513889
  0
SEQEND
 8
0
  0
POLYLINE
  8
0
 62
     0
 66
     1
 10
0
 20
0
 30
0.0
 40
0.37
 41
0.37
  0
VERTEX
  8
0
 10
5.84115
 20
7.72786
 30
0.0
 40
0.00513889
 41
0.00513889
  0
VERTEX
  8
0
 10
5.95876
 20
7.72786
 30
0.0
 40
0.00513889
 41
0.00513889
  0
SEQEND
 8
0
  0
POLYLINE
  8
0
 62
     0
 66
     1
 10
0
 20
0
 30
0.0
 40
0.37
 41
0.37
  0
VERTEX
  8
0
 10
5.84115
 20
7.72786
 30
0.0
 40
0.00513889
 41
0.00513889
  0
VERTEX
  8
0
 10
5.82628
 20
8.1531
 30
0.0
 40
0.00513889
 41
0.00513889
  0
SEQEND
 8
0
  0
POLYLINE
  8
0
 62
     0
 66
     1
 10
0
 20
0
 30
0.0
 40
0.37
 41
0.37
  0
VERTEX
  8
0
 10
5.82628
 20
8.1531
 30
0.0
 40
0.00513889
 41
0.00513889
  0
VERTEX
  8
0
 10
5.82547
 20
8.17828
 30
0.0
 40
0.00513889
 41
0.00513889
  0
SEQEND
 8
0
  0
POLYLINE
  8
0
 62
     0
 66
     1
 10
0
 20
0
 30
0.0
 40
0.37
 41
0.37
  0
VERTEX
  8
0
 10
5.72211
 20
8.17828
 30
0.0
 40
0.00513889
 41
0.00513889
  0
VERTEX
  8
0
 10
5.82547
 20
8.17828
 30
0.0
 40
0.00513889
 41
0.00513889
  0
SEQEND
 8
0
  0
POLYLINE
  8
0
 62
     0
 66
     1
 10
0
 20
0
 30
0.0
 40
0.37
 41
0.37
  0
VERTEX
  8
0
 10
5.72211
 20
8.17828
 30
0.0
 40
0.00513889
 41
0.00513889
  0
VERTEX
  8
0
 10
5.72211
 20
8.1531
 30
0.0
 40
0.00513889
 41
0.00513889
  0
SEQEND
 8
0
  0
POLYLINE
  8
0
 62
     0
 66
     1
 10
0
 20
0
 30
0.0
 40
0.37
 41
0.37
  0
VERTEX
  8
0
 10
5.72211
 20
8.1531
 30
0.0
 40
0.00513889
 41
0.00513889
  0
VERTEX
  8
0
 10
5.82628
 20
8.1531
 30
0.0
 40
0.00513889
 41
0.00513889
  0
SEQEND
 8
0
  0
POLYLINE
  8
0
 62
     0
 66
     1
 10
0
 20
0
 30
0.0
 40
0.37
 41
0.37
  0
VERTEX
  8
0
 10
5.72211
 20
7.71175
 30
0.0
 40
0.00513889
 41
0.00513889
  0
VERTEX
  8
0
 10
5.72211
 20
8.1531
 30
0.0
 40
0.00513889
 41
0.00513889
  0
SEQEND
 8
0
  0
POLYLINE
  8
0
 62
     0
 66
     1
 10
0
 20
0
 30
0.0
 40
0.37
 41
0.37
  0
VERTEX
  8
0
 10
4.78907
 20
8.17828
 30
0.0
 40
0.00513889
 41
0.00513889
  0
VERTEX
  8
0
 10
4.78907
 20
8.1531
 30
0.0
 40
0.00513889
 41
0.00513889
  0
SEQEND
 8
0
  0
POLYLINE
  8
0
 62
     0
 66
     1
 10
0
 20
0
 30
0.0
 40
0.37
 41
0.37
  0
VERTEX
  8
0
 10
4.78907
 20
7.71175
 30
0.0
 40
0.00513889
 41
0.00513889
  0
VERTEX
  8
0
 10
4.78907
 20
8.1531
 30
0.0
 40
0.00513889
 41
0.00513889
  0
SEQEND
 8
0
  0
POLYLINE
  8
0
 62
     0
 66
     1
 10
0
 20
0
 30
0.0
 40
0.37
 41
0.37
  0
VERTEX
  8
0
 10
4.685
 20
8.1531
 30
0.0
 40
0.00513889
 41
0.00513889
  0
VERTEX
  8
0
 10
4.78907
 20
8.1531
 30
0.0
 40
0.00513889
 41
0.00513889
  0
SEQEND
 8
0
  0
POLYLINE
  8
0
 62
     0
 66
     1
 10
0
 20
0
 30
0.0
 40
0.37
 41
0.37
  0
VERTEX
  8
0
 10
4.68587
 20
8.17828
 30
0.0
 40
0.00513889
 41
0.00513889
  0
VERTEX
  8
0
 10
4.78907
 20
8.17828
 30
0.0
 40
0.00513889
 41
0.00513889
  0
SEQEND
 8
0
  0
POLYLINE
  8
0
 62
     0
 66
     1
 10
0
 20
0
 30
0.0
 40
0.37
 41
0.37
  0
VERTEX
  8
0
 10
4.96029
 20
7.68246
 30
0.0
 40
0.00513889
 41
0.00513889
  0
VERTEX
  8
0
 10
4.96517
 20
7.68212
 30
0.0
 40
0.00513889
 41
0.00513889
  0
SEQEND
 8
0
  0
POLYLINE
  8
0
 62
     0
 66
     1
 10
0
 20
0
 30
0.0
 40
0.37
 41
0.37
  0
VERTEX
  8
0
 10
5.54611
 20
7.68212
 30
0.0
 40
0.00513889
 41
0.00513889
  0
VERTEX
  8
0
 10
5.55089
 20
7.6824
 30
0.0
 40
0.00513889
 41
0.00513889
  0
SEQEND
 8
0
  0
POLYLINE
  8
0
 62
     0
 66
     1
 10
0
 20
0
 30
0.0
 40
0.37
 41
0.37
  0
VERTEX
  8
0
 10
5.49186
 20
7.68246
 30
0.0
 40
0.00513889
 41
0.00513889
  0
VERTEX
  8
0
 10
5.52615
 20
7.68212
 30
0.0
 40
0.00513889
 41
0.00513889
  0
SEQEND
 8
0
  0
POLYLINE
  8
0
 62
     0
 66
     1
 10
0
 20
0
 30
0.0
 40
0.37
 41
0.37
  0
VERTEX
  8
0
 10
4.98519
 20
7.68212
 30
0.0
 40
0.00513889
 41
0.00513889
  0
VERTEX
  8
0
 10
5.01947
 20
7.6824
 30
0.0
 40
0.00513889
 41
0.00513889
  0
SEQEND
 8
0
  0
POLYLINE
  8
0
 62
     0
 66
     1
 10
0
 20
0
 30
0.0
 40
0.37
 41
0.37
  0
VERTEX
  8
0
 10
5.69265
 20
7.68212
 30
0.0
 40
0.00513889
 41
0.00513889
  0
VERTEX
  8
0
 10
5.70226
 20
7.68381
 30
0.0
 40
0.00513889
 41
0.00513889
  0
VERTEX
  8
0
 10
5.71072
 20
7.68842
 30
0.0
 40
0.00513889
 41
0.00513889
  0
VERTEX
  8
0
 10
5.71739
 20
7.69547
 30
0.0
 40
0.00513889
 41
0.00513889
  0
VERTEX
  8
0
 10
5.72131
 20
7.70438
 30
0.0
 40
0.00513889
 41
0.00513889
  0
VERTEX
  8
0
 10
5.72211
 20
7.71175
 30
0.0
 40
0.00513889
 41
0.00513889
  0
SEQEND
 8
0
  0
POLYLINE
  8
0
 62
     0
 66
     1
 10
0
 20
0
 30
0.0
 40
0.37
 41
0.37
  0
VERTEX
  8
0
 10
4.78907
 20
7.71175
 30
0.0
 40
0.00513889
 41
0.00513889
  0
VERTEX
  8
0
 10
4.79075
 20
7.70215
 30
0.0
 40
0.00513889
 41
0.00513889
  0
VERTEX
  8
0
 10
4.79531
 20
7.69368
 30
0.0
 40
0.00513889
 41
0.00513889
  0
VERTEX
  8
0
 10
4.8024
 20
7.68701
 30
0.0
 40
0.00513889
 41
0.00513889
  0
VERTEX
  8
0
 10
4.81125
 20
7.68311
 30
0.0
 40
0.00513889
 41
0.00513889
  0
VERTEX
  8
0
 10
4.81863
 20
7.68212
 30
0.0
 40
0.00513889
 41
0.00513889
  0
SEQEND
 8
0
  0
POLYLINE
  8
0
 62
     0
 66
     1
 10
0
 20
0
 30
0.0
 40
0.37
 41
0.37
  0
VERTEX
  8
0
 10
4.49294
 20
7.58772
 30
0.0
 40
0.00513889
 41
0.00513889
  0
VERTEX
  8
0
 10
4.55875
 20
7.58772
 30
0.0
 40
0.00513889
 41
0.00513889
  0
SEQEND
 8
0
  0
POLYLINE
  8
0
 62
     0
 66
     1
 10
0
 20
0
 30
0.0
 40
0.37
 41
0.37
  0
VERTEX
  8
0
 10
4.93126
 20
7.58772
 30
0.0
 40
0.00513889
 41
0.00513889
  0
VERTEX
  8
0
 10
5.58003
 20
7.58772
 30
0.0
 40
0.00513889
 41
0.00513889
  0
SEQEND
 8
0
  0
POLYLINE
  8
0
 62
     0
 66
     1
 10
0
 20
0
 30
0.0
 40
0.37
 41
0.37
  0
VERTEX
  8
0
 10
5.95253
 20
7.58772
 30
0.0
 40
0.00513889
 41
0.00513889
  0
VERTEX
  8
0
 10
6.01824
 20
7.58772
 30
0.0
 40
0.00513889
 41
0.00513889
  0
SEQEND
 8
0
  0
POLYLINE
  8
0
 62
     0
 66
     1
 10
0
 20
0
 30
0.0
 40
0.37
 41
0.37
  0
VERTEX
  8
0
 10
5.69265
 20
7.68212
 30
0.0
 40
0.00513889
 41
0.00513889
  0
VERTEX
  8
0
 10
4.81863
 20
7.68212
 30
0.0
 40
0.00513889
 41
0.00513889
  0
SEQEND
 8
0
  0
POLYLINE
  8
0
 62
     0
 66
     1
 10
0
 20
0
 30
0.0
 40
0.37
 41
0.37
  0
VERTEX
  8
0
 10
5.55089
 20
7.56407
 30
0.0
 40
0.00513889
 41
0.00513889
  0
VERTEX
  8
0
 10
5.54893
 20
7.57351
 30
0.0
 40
0.00513889
 41
0.00513889
  0
VERTEX
  8
0
 10
5.54335
 20
7.58132
 30
0.0
 40
0.00513889
 41
0.00513889
  0
VERTEX
  8
0
 10
5.53515
 20
7.58632
 30
0.0
 40
0.00513889
 41
0.00513889
  0
VERTEX
  8
0
 10
5.52724
 20
7.58772
 30
0.0
 40
0.00513889
 41
0.00513889
  0
SEQEND
 8
0
  0
POLYLINE
  8
0
 62
     0
 66
     1
 10
0
 20
0
 30
0.0
 40
0.37
 41
0.37
  0
VERTEX
  8
0
 10
5.55089
 20
7.54769
 30
0.0
 40
0.00513889
 41
0.00513889
  0
VERTEX
  8
0
 10
5.55089
 20
7.56407
 30
0.0
 40
0.00513889
 41
0.00513889
  0
SEQEND
 8
0
  0
POLYLINE
  8
0
 62
     0
 66
     1
 10
0
 20
0
 30
0.0
 40
0.37
 41
0.37
  0
VERTEX
  8
0
 10
4.96029
 20
7.42231
 30
0.0
 40
0.00513889
 41
0.00513889
  0
VERTEX
  8
0
 10
4.96029
 20
7.56407
 30
0.0
 40
0.00513889
 41
0.00513889
  0
SEQEND
 8
0
  0
POLYLINE
  8
0
 62
     0
 66
     1
 10
0
 20
0
 30
0.0
 40
0.37
 41
0.37
  0
VERTEX
  8
0
 10
4.98394
 20
7.58772
 30
0.0
 40
0.00513889
 41
0.00513889
  0
VERTEX
  8
0
 10
4.97461
 20
7.58578
 30
0.0
 40
0.00513889
 41
0.00513889
  0
VERTEX
  8
0
 10
4.96669
 20
7.58018
 30
0.0
 40
0.00513889
 41
0.00513889
  0
VERTEX
  8
0
 10
4.96169
 20
7.57189
 30
0.0
 40
0.00513889
 41
0.00513889
  0
VERTEX
  8
0
 10
4.96029
 20
7.56407
 30
0.0
 40
0.00513889
 41
0.00513889
  0
SEQEND
 8
0
  0
POLYLINE
  8
0
 62
     0
 66
     1
 10
0
 20
0
 30
0.0
 40
0.37
 41
0.37
  0
VERTEX
  8
0
 10
5.02115
 20
8.24701
 30
0.0
 40
0.00513889
 41
0.00513889
  0
VERTEX
  8
0
 10
5.02115
 20
8.63965
 30
0.0
 40
0.00513889
 41
0.00513889
  0
SEQEND
 8
0
  0
POLYLINE
  8
0
 62
     0
 66
     1
 10
0
 20
0
 30
0.0
 40
0.37
 41
0.37
  0
VERTEX
  8
0
 10
5.05365
 20
8.67215
 30
0.0
 40
0.00513889
 41
0.00513889
  0
VERTEX
  8
0
 10
5.46115
 20
8.67215
 30
0.0
 40
0.00513889
 41
0.00513889
  0
SEQEND
 8
0
  0
POLYLINE
  8
0
 62
     0
 66
     1
 10
0
 20
0
 30
0.0
 40
0.37
 41
0.37
  0
VERTEX
  8
0
 10
5.49365
 20
8.63965
 30
0.0
 40
0.00513889
 41
0.00513889
  0
VERTEX
  8
0
 10
5.49365
 20
8.24701
 30
0.0
 40
0.00513889
 41
0.00513889
  0
SEQEND
 8
0
  0
POLYLINE
  8
0
 62
     0
 66
     1
 10
0
 20
0
 30
0.0
 40
0.37
 41
0.37
  0
VERTEX
  8
0
 10
4.831
 20
8.17606
 30
0.0
 40
0.00513889
 41
0.00513889
  0
VERTEX
  8
0
 10
4.87819
 20
8.22342
 30
0.0
 40
0.00513889
 41
0.00513889
  0
SEQEND
 8
0
  0
POLYLINE
  8
0
 62
     0
 66
     1
 10
0
 20
0
 30
0.0
 40
0.37
 41
0.37
  0
VERTEX
  8
0
 10
4.87819
 20
8.22342
 30
0.0
 40
0.00513889
 41
0.00513889
  0
VERTEX
  8
0
 10
4.87819
 20
8.24701
 30
0.0
 40
0.00513889
 41
0.00513889
  0
SEQEND
 8
0
  0
POLYLINE
  8
0
 62
     0
 66
     1
 10
0
 20
0
 30
0.0
 40
0.37
 41
0.37
  0
VERTEX
  8
0
 10
4.87819
 20
8.24701
 30
0.0
 40
0.00513889
 41
0.00513889
  0
VERTEX
  8
0
 10
5.63656
 20
8.24701
 30
0.0
 40
0.00513889
 41
0.00513889
  0
SEQEND
 8
0
  0
POLYLINE
  8
0
 62
     0
 66
     1
 10
0
 20
0
 30
0.0
 40
0.37
 41
0.37
  0
VERTEX
  8
0
 10
5.63656
 20
8.24701
 30
0.0
 40
0.00513889
 41
0.00513889
  0
VERTEX
  8
0
 10
5.63656
 20
8.22342
 30
0.0
 40
0.00513889
 41
0.00513889
  0
SEQEND
 8
0
  0
POLYLINE
  8
0
 62
     0
 66
     1
 10
0
 20
0
 30
0.0
 40
0.37
 41
0.37
  0
VERTEX
  8
0
 10
5.63656
 20
8.22342
 30
0.0
 40
0.00513889
 41
0.00513889
  0
VERTEX
  8
0
 10
5.68375
 20
8.17606
 30
0.0
 40
0.00513889
 41
0.00513889
  0
SEQEND
 8
0
  0
POLYLINE
  8
0
 62
     0
 66
     1
 10
0
 20
0
 30
0.0
 40
0.37
 41
0.37
  0
VERTEX
  8
0
 10
4.87819
 20
8.22342
 30
0.0
 40
0.00513889
 41
0.00513889
  0
VERTEX
  8
0
 10
5.63656
 20
8.22342
 30
0.0
 40
0.00513889
 41
0.00513889
  0
SEQEND
 8
0
  0
POLYLINE
  8
0
 62
     0
 66
     1
 10
0
 20
0
 30
0.0
 40
0.37
 41
0.37
  0
VERTEX
  8
0
 10
5.07433
 20
8.24701
 30
0.0
 40
0.00513889
 41
0.00513889
  0
VERTEX
  8
0
 10
5.07433
 20
8.61897
 30
0.0
 40
0.00513889
 41
0.00513889
  0
SEQEND
 8
0
  0
POLYLINE
  8
0
 62
     0
 66
     1
 10
0
 20
0
 30
0.0
 40
0.37
 41
0.37
  0
VERTEX
  8
0
 10
5.07433
 20
8.61897
 30
0.0
 40
0.00513889
 41
0.00513889
  0
VERTEX
  8
0
 10
5.18001
 20
8.61897
 30
0.0
 40
0.00513889
 41
0.00513889
  0
SEQEND
 8
0
  0
POLYLINE
  8
0
 62
     0
 66
     1
 10
0
 20
0
 30
0.0
 40
0.37
 41
0.37
  0
VERTEX
  8
0
 10
5.33475
 20
8.61897
 30
0.0
 40
0.00513889
 41
0.00513889
  0
VERTEX
  8
0
 10
5.44043
 20
8.61897
 30
0.0
 40
0.00513889
 41
0.00513889
  0
SEQEND
 8
0
  0
POLYLINE
  8
0
 62
     0
 66
     1
 10
0
 20
0
 30
0.0
 40
0.37
 41
0.37
  0
VERTEX
  8
0
 10
5.44043
 20
8.61897
 30
0.0
 40
0.00513889
 41
0.00513889
  0
VERTEX
  8
0
 10
5.44043
 20
8.24701
 30
0.0
 40
0.00513889
 41
0.00513889
  0
SEQEND
 8
0
  0
POLYLINE
  8
0
 62
     0
 66
     1
 10
0
 20
0
 30
0.0
 40
0.37
 41
0.37
  0
VERTEX
  8
0
 10
5.07433
 20
8.61897
 30
0.0
 40
0.00513889
 41
0.00513889
  0
VERTEX
  8
0
 10
5.06033
 20
8.63314
 30
0.0
 40
0.00513889
 41
0.00513889
  0
SEQEND
 8
0
  0
POLYLINE
  8
0
 62
     0
 66
     1
 10
0
 20
0
 30
0.0
 40
0.37
 41
0.37
  0
VERTEX
  8
0
 10
5.44043
 20
8.61897
 30
0.0
 40
0.00513889
 41
0.00513889
  0
VERTEX
  8
0
 10
5.45475
 20
8.6334
 30
0.0
 40
0.00513889
 41
0.00513889
  0
SEQEND
 8
0
  0
POLYLINE
  8
0
 62
     0
 66
     1
 10
0
 20
0
 30
0.0
 40
0.37
 41
0.37
  0
VERTEX
  8
0
 10
5.18001
 20
8.63965
 30
0.0
 40
0.00513889
 41
0.00513889
  0
VERTEX
  8
0
 10
5.19542
 20
8.67215
 30
0.0
 40
0.00513889
 41
0.00513889
  0
SEQEND
 8
0
  0
POLYLINE
  8
0
 62
     0
 66
     1
 10
0
 20
0
 30
0.0
 40
0.37
 41
0.37
  0
VERTEX
  8
0
 10
5.3195
 20
8.67215
 30
0.0
 40
0.00513889
 41
0.00513889
  0
VERTEX
  8
0
 10
5.33475
 20
8.63965
 30
0.0
 40
0.00513889
 41
0.00513889
  0
SEQEND
 8
0
  0
POLYLINE
  8
0
 62
     0
 66
     1
 10
0
 20
0
 30
0.0
 40
0.37
 41
0.37
  0
VERTEX
  8
0
 10
5.18001
 20
8.63965
 30
0.0
 40
0.00513889
 41
0.00513889
  0
VERTEX
  8
0
 10
5.18001
 20
8.24701
 30
0.0
 40
0.00513889
 41
0.00513889
  0
SEQEND
 8
0
  0
POLYLINE
  8
0
 62
     0
 66
     1
 10
0
 20
0
 30
0.0
 40
0.37
 41
0.37
  0
VERTEX
  8
0
 10
5.33475
 20
8.63965
 30
0.0
 40
0.00513889
 41
0.00513889
  0
VERTEX
  8
0
 10
5.33475
 20
8.24701
 30
0.0
 40
0.00513889
 41
0.00513889
  0
SEQEND
 8
0
  0
POLYLINE
  8
0
 62
     0
 66
     1
 10
0
 20
0
 30
0.0
 40
0.37
 41
0.37
  0
VERTEX
  8
0
 10
5.04476
 20
8.24701
 30
0.0
 40
0.00513889
 41
0.00513889
  0
VERTEX
  8
0
 10
5.04476
 20
8.63385
 30
0.0
 40
0.00513889
 41
0.00513889
  0
SEQEND
 8
0
  0
POLYLINE
  8
0
 62
     0
 66
     1
 10
0
 20
0
 30
0.0
 40
0.37
 41
0.37
  0
VERTEX
  8
0
 10
5.05963
 20
8.64854
 30
0.0
 40
0.00513889
 41
0.00513889
  0
VERTEX
  8
0
 10
5.05072
 20
8.64561
 30
0.0
 40
0.00513889
 41
0.00513889
  0
VERTEX
  8
0
 10
5.04546
 20
8.63786
 30
0.0
 40
0.00513889
 41
0.00513889
  0
VERTEX
  8
0
 10
5.04476
 20
8.63385
 30
0.0
 40
0.00513889
 41
0.00513889
  0
SEQEND
 8
0
  0
POLYLINE
  8
0
 62
     0
 66
     1
 10
0
 20
0
 30
0.0
 40
0.37
 41
0.37
  0
VERTEX
  8
0
 10
5.05963
 20
8.64854
 30
0.0
 40
0.00513889
 41
0.00513889
  0
VERTEX
  8
0
 10
5.18419
 20
8.64854
 30
0.0
 40
0.00513889
 41
0.00513889
  0
SEQEND
 8
0
  0
POLYLINE
  8
0
 62
     0
 66
     1
 10
0
 20
0
 30
0.0
 40
0.37
 41
0.37
  0
VERTEX
  8
0
 10
5.33057
 20
8.64854
 30
0.0
 40
0.00513889
 41
0.00513889
  0
VERTEX
  8
0
 10
5.45518
 20
8.64854
 30
0.0
 40
0.00513889
 41
0.00513889
  0
SEQEND
 8
0
  0
POLYLINE
  8
0
 62
     0
 66
     1
 10
0
 20
0
 30
0.0
 40
0.37
 41
0.37
  0
VERTEX
  8
0
 10
5.47006
 20
8.63385
 30
0.0
 40
0.00513889
 41
0.00513889
  0
VERTEX
  8
0
 10
5.47006
 20
8.24701
 30
0.0
 40
0.00513889
 41
0.00513889
  0
SEQEND
 8
0
  0
POLYLINE
  8
0
 62
     0
 66
     1
 10
0
 20
0
 30
0.0
 40
0.37
 41
0.37
  0
VERTEX
  8
0
 10
5.47006
 20
8.63385
 30
0.0
 40
0.00513889
 41
0.00513889
  0
VERTEX
  8
0
 10
5.46696
 20
8.64258
 30
0.0
 40
0.00513889
 41
0.00513889
  0
VERTEX
  8
0
 10
5.45931
 20
8.648
 30
0.0
 40
0.00513889
 41
0.00513889
  0
VERTEX
  8
0
 10
5.45518
 20
8.64854
 30
0.0
 40
0.00513889
 41
0.00513889
  0
SEQEND
 8
0
  0
POLYLINE
  8
0
 62
     0
 66
     1
 10
0
 20
0
 30
0.0
 40
0.37
 41
0.37
  0
VERTEX
  8
0
 10
5.02115
 20
8.63965
 30
0.0
 40
0.00513889
 41
0.00513889
  0
VERTEX
  8
0
 10
5.05365
 20
8.67215
 30
0.0
 40
0.00513889
 41
0.00513889
  0
SEQEND
 8
0
  0
POLYLINE
  8
0
 62
     0
 66
     1
 10
0
 20
0
 30
0.0
 40
0.37
 41
0.37
  0
VERTEX
  8
0
 10
5.46115
 20
8.67215
 30
0.0
 40
0.00513889
 41
0.00513889
  0
VERTEX
  8
0
 10
5.49365
 20
8.63965
 30
0.0
 40
0.00513889
 41
0.00513889
  0
SEQEND
 8
0
  0
POLYLINE
  8
0
 62
     0
 66
     1
 10
0
 20
0
 30
0.0
 40
0.37
 41
0.37
  0
VERTEX
  8
0
 10
5.18001
 20
8.63965
 30
0.0
 40
0.00513889
 41
0.00513889
  0
VERTEX
  8
0
 10
5.33475
 20
8.63965
 30
0.0
 40
0.00513889
 41
0.00513889
  0
SEQEND
 8
0
  0
POLYLINE
  8
0
 62
     0
 66
     1
 10
0
 20
0
 30
0.0
 40
0.37
 41
0.37
  0
VERTEX
  8
0
 10
5.0224
 20
7.05268
 30
0.0
 40
0.00513889
 41
0.00513889
  0
VERTEX
  8
0
 10
5.03825
 20
7.33996
 30
0.0
 40
0.00513889
 41
0.00513889
  0
SEQEND
 8
0
  0
POLYLINE
  8
0
 62
     0
 66
     1
 10
0
 20
0
 30
0.0
 40
0.37
 41
0.37
  0
VERTEX
  8
0
 10
4.99881
 20
7.03049
 30
0.0
 40
0.00513889
 41
0.00513889
  0
VERTEX
  8
0
 10
5.00825
 20
7.03244
 30
0.0
 40
0.00513889
 41
0.00513889
  0
VERTEX
  8
0
 10
5.01617
 20
7.03797
 30
0.0
 40
0.00513889
 41
0.00513889
  0
VERTEX
  8
0
 10
5.02115
 20
7.04617
 30
0.0
 40
0.00513889
 41
0.00513889
  0
VERTEX
  8
0
 10
5.0224
 20
7.05268
 30
0.0
 40
0.00513889
 41
0.00513889
  0
SEQEND
 8
0
  0
POLYLINE
  8
0
 62
     0
 66
     1
 10
0
 20
0
 30
0.0
 40
0.37
 41
0.37
  0
VERTEX
  8
0
 10
5.25738
 20
7.56788
 30
0.0
 40
0.00513889
 41
0.00513889
  0
VERTEX
  8
0
 10
5.14518
 20
7.56788
 30
0.0
 40
0.00513889
 41
0.00513889
  0
SEQEND
 8
0
  0
POLYLINE
  8
0
 62
     0
 66
     1
 10
0
 20
0
 30
0.0
 40
0.37
 41
0.37
  0
VERTEX
  8
0
 10
5.14518
 20
7.56788
 30
0.0
 40
0.00513889
 41
0.00513889
  0
VERTEX
  8
0
 10
5.12158
 20
7.13672
 30
0.0
 40
0.00513889
 41
0.00513889
  0
SEQEND
 8
0
  0
POLYLINE
  8
0
 62
     0
 66
     1
 10
0
 20
0
 30
0.0
 40
0.37
 41
0.37
  0
VERTEX
  8
0
 10
5.12158
 20
7.13672
 30
0.0
 40
0.00513889
 41
0.00513889
  0
VERTEX
  8
0
 10
5.02696
 20
7.13672
 30
0.0
 40
0.00513889
 41
0.00513889
  0
SEQEND
 8
0
  0
POLYLINE
  8
0
 62
     0
 66
     1
 10
0
 20
0
 30
0.0
 40
0.37
 41
0.37
  0
VERTEX
  8
0
 10
5.03353
 20
7.25478
 30
0.0
 40
0.00513889
 41
0.00513889
  0
VERTEX
  8
0
 10
5.12793
 20
7.25478
 30
0.0
 40
0.00513889
 41
0.00513889
  0
SEQEND
 8
0
  0
POLYLINE
  8
0
 62
     0
 66
     1
 10
0
 20
0
 30
0.0
 40
0.37
 41
0.37
  0
VERTEX
  8
0
 10
5.03239
 20
7.23356
 30
0.0
 40
0.00513889
 41
0.00513889
  0
VERTEX
  8
0
 10
5.12685
 20
7.23356
 30
0.0
 40
0.00513889
 41
0.00513889
  0
SEQEND
 8
0
  0
POLYLINE
  8
0
 62
     0
 66
     1
 10
0
 20
0
 30
0.0
 40
0.37
 41
0.37
  0
VERTEX
  8
0
 10
5.03825
 20
7.33996
 30
0.0
 40
0.00513889
 41
0.00513889
  0
VERTEX
  8
0
 10
5.13265
 20
7.33996
 30
0.0
 40
0.00513889
 41
0.00513889
  0
SEQEND
 8
0
  0
POLYLINE
  8
0
 62
     0
 66
     1
 10
0
 20
0
 30
0.0
 40
0.37
 41
0.37
  0
VERTEX
  8
0
 10
5.14128
 20
7.49701
 30
0.0
 40
0.00513889
 41
0.00513889
  0
VERTEX
  8
0
 10
5.25738
 20
7.49701
 30
0.0
 40
0.00513889
 41
0.00513889
  0
SEQEND
 8
0
  0
POLYLINE
  8
0
 62
     0
 66
     1
 10
0
 20
0
 30
0.0
 40
0.37
 41
0.37
  0
VERTEX
  8
0
 10
4.99881
 20
7.03049
 30
0.0
 40
0.00513889
 41
0.00513889
  0
VERTEX
  8
0
 10
4.96213
 20
7.03049
 30
0.0
 40
0.00513889
 41
0.00513889
  0
SEQEND
 8
0
  0
POLYLINE
  8
0
 62
     0
 66
     1
 10
0
 20
0
 30
0.0
 40
0.37
 41
0.37
  0
VERTEX
  8
0
 10
4.96213
 20
7.03049
 30
0.0
 40
0.00513889
 41
0.00513889
  0
VERTEX
  8
0
 10
4.93311
 20
7.5855
 30
0.0
 40
0.00513889
 41
0.00513889
  0
SEQEND
 8
0
  0
POLYLINE
  8
0
 62
     0
 66
     1
 10
0
 20
0
 30
0.0
 40
0.37
 41
0.37
  0
VERTEX
  8
0
 10
5.25738
 20
6.93593
 30
0.0
 40
0.00513889
 41
0.00513889
  0
VERTEX
  8
0
 10
4.53336
 20
6.93593
 30
0.0
 40
0.00513889
 41
0.00513889
  0
SEQEND
 8
0
  0
POLYLINE
  8
0
 62
     0
 66
     1
 10
0
 20
0
 30
0.0
 40
0.37
 41
0.37
  0
VERTEX
  8
0
 10
4.93918
 20
7.46744
 30
0.0
 40
0.00513889
 41
0.00513889
  0
VERTEX
  8
0
 10
4.33615
 20
7.46744
 30
0.0
 40
0.00513889
 41
0.00513889
  0
SEQEND
 8
0
  0
POLYLINE
  8
0
 62
     0
 66
     1
 10
0
 20
0
 30
0.0
 40
0.37
 41
0.37
  0
VERTEX
  8
0
 10
4.33615
 20
7.46744
 30
0.0
 40
0.00513889
 41
0.00513889
  0
VERTEX
  8
0
 10
4.33615
 20
7.5855
 30
0.0
 40
0.00513889
 41
0.00513889
  0
SEQEND
 8
0
  0
POLYLINE
  8
0
 62
     0
 66
     1
 10
0
 20
0
 30
0.0
 40
0.37
 41
0.37
  0
VERTEX
  8
0
 10
4.33615
 20
7.5855
 30
0.0
 40
0.00513889
 41
0.00513889
  0
VERTEX
  8
0
 10
4.39518
 20
7.5855
 30
0.0
 40
0.00513889
 41
0.00513889
  0
SEQEND
 8
0
  0
POLYLINE
  8
0
 62
     0
 66
     1
 10
0
 20
0
 30
0.0
 40
0.37
 41
0.37
  0
VERTEX
  8
0
 10
4.60422
 20
6.93593
 30
0.0
 40
0.00513889
 41
0.00513889
  0
VERTEX
  8
0
 10
4.60422
 20
7.46744
 30
0.0
 40
0.00513889
 41
0.00513889
  0
SEQEND
 8
0
  0
POLYLINE
  8
0
 62
     0
 66
     1
 10
0
 20
0
 30
0.0
 40
0.37
 41
0.37
  0
VERTEX
  8
0
 10
4.78142
 20
7.23118
 30
0.0
 40
0.00513889
 41
0.00513889
  0
VERTEX
  8
0
 10
4.78142
 20
7.46744
 30
0.0
 40
0.00513889
 41
0.00513889
  0
SEQEND
 8
0
  0
POLYLINE
  8
0
 62
     0
 66
     1
 10
0
 20
0
 30
0.0
 40
0.37
 41
0.37
  0
VERTEX
  8
0
 10
4.85226
 20
7.23118
 30
0.0
 40
0.00513889
 41
0.00513889
  0
VERTEX
  8
0
 10
4.85226
 20
7.46744
 30
0.0
 40
0.00513889
 41
0.00513889
  0
SEQEND
 8
0
  0
POLYLINE
  8
0
 62
     0
 66
     1
 10
0
 20
0
 30
0.0
 40
0.37
 41
0.37
  0
VERTEX
  8
0
 10
4.78142
 20
7.29021
 30
0.0
 40
0.00513889
 41
0.00513889
  0
VERTEX
  8
0
 10
4.85226
 20
7.29021
 30
0.0
 40
0.00513889
 41
0.00513889
  0
SEQEND
 8
0
  0
POLYLINE
  8
0
 62
     0
 66
     1
 10
0
 20
0
 30
0.0
 40
0.37
 41
0.37
  0
VERTEX
  8
0
 10
4.44239
 20
7.46744
 30
0.0
 40
0.00513889
 41
0.00513889
  0
VERTEX
  8
0
 10
4.44239
 20
7.29021
 30
0.0
 40
0.00513889
 41
0.00513889
  0
SEQEND
 8
0
  0
POLYLINE
  8
0
 62
     0
 66
     1
 10
0
 20
0
 30
0.0
 40
0.37
 41
0.37
  0
VERTEX
  8
0
 10
4.44239
 20
7.29021
 30
0.0
 40
0.00513889
 41
0.00513889
  0
VERTEX
  8
0
 10
4.53336
 20
6.93593
 30
0.0
 40
0.00513889
 41
0.00513889
  0
SEQEND
 8
0
  0
POLYLINE
  8
0
 62
     0
 66
     1
 10
0
 20
0
 30
0.0
 40
0.37
 41
0.37
  0
VERTEX
  8
0
 10
5.02713
 20
6.8769
 30
0.0
 40
0.00513889
 41
0.00513889
  0
VERTEX
  8
0
 10
5.02713
 20
6.65685
 30
0.0
 40
0.00513889
 41
0.00513889
  0
SEQEND
 8
0
  0
POLYLINE
  8
0
 62
     0
 66
     1
 10
0
 20
0
 30
0.0
 40
0.37
 41
0.37
  0
VERTEX
  8
0
 10
5.02713
 20
6.8769
 30
0.0
 40
0.00513889
 41
0.00513889
  0
VERTEX
  8
0
 10
5.02626
 20
6.88661
 30
0.0
 40
0.00513889
 41
0.00513889
  0
VERTEX
  8
0
 10
5.02376
 20
6.89615
 30
0.0
 40
0.00513889
 41
0.00513889
  0
VERTEX
  8
0
 10
5.01992
 20
6.90506
 30
0.0
 40
0.00513889
 41
0.00513889
  0
VERTEX
  8
0
 10
5.01449
 20
6.91325
 30
0.0
 40
0.00513889
 41
0.00513889
  0
VERTEX
  8
0
 10
5.00782
 20
6.92046
 30
0.0
 40
0.00513889
 41
0.00513889
  0
VERTEX
  8
0
 10
5.00006
 20
6.92643
 30
0.0
 40
0.00513889
 41
0.00513889
  0
VERTEX
  8
0
 10
4.99143
 20
6.93115
 30
0.0
 40
0.00513889
 41
0.00513889
  0
VERTEX
  8
0
 10
4.9821
 20
6.93425
 30
0.0
 40
0.00513889
 41
0.00513889
  0
VERTEX
  8
0
 10
4.97239
 20
6.93576
 30
0.0
 40
0.00513889
 41
0.00513889
  0
VERTEX
  8
0
 10
4.9681
 20
6.93593
 30
0.0
 40
0.00513889
 41
0.00513889
  0
SEQEND
 8
0
  0
POLYLINE
  8
0
 62
     0
 66
     1
 10
0
 20
0
 30
0.0
 40
0.37
 41
0.37
  0
VERTEX
  8
0
 10
5.02713
 20
6.65685
 30
0.0
 40
0.00513889
 41
0.00513889
  0
VERTEX
  8
0
 10
5.09782
 20
6.5344
 30
0.0
 40
0.00513889
 41
0.00513889
  0
SEQEND
 8
0
  0
POLYLINE
  8
0
 62
     0
 66
     1
 10
0
 20
0
 30
0.0
 40
0.37
 41
0.37
  0
VERTEX
  8
0
 10
5.08074
 20
6.56396
 30
0.0
 40
0.00513889
 41
0.00513889
  0
VERTEX
  8
0
 10
5.08615
 20
6.55604
 30
0.0
 40
0.00513889
 41
0.00513889
  0
SEQEND
 8
0
  0
POLYLINE
  8
0
 62
     0
 66
     1
 10
0
 20
0
 30
0.0
 40
0.37
 41
0.37
  0
VERTEX
  8
0
 10
5.09782
 20
6.5344
 30
0.0
 40
0.00513889
 41
0.00513889
  0
VERTEX
  8
0
 10
5.25738
 20
6.5344
 30
0.0
 40
0.00513889
 41
0.00513889
  0
SEQEND
 8
0
  0
POLYLINE
  8
0
 62
     0
 66
     1
 10
0
 20
0
 30
0.0
 40
0.37
 41
0.37
  0
VERTEX
  8
0
 10
5.02713
 20
6.65685
 30
0.0
 40
0.00513889
 41
0.00513889
  0
VERTEX
  8
0
 10
5.25738
 20
6.65685
 30
0.0
 40
0.00513889
 41
0.00513889
  0
SEQEND
 8
0
  0
POLYLINE
  8
0
 62
     0
 66
     1
 10
0
 20
0
 30
0.0
 40
0.37
 41
0.37
  0
VERTEX
  8
0
 10
4.65739
 20
6.72504
 30
0.0
 40
0.00513889
 41
0.00513889
  0
VERTEX
  8
0
 10
4.65739
 20
6.68576
 30
0.0
 40
0.00513889
 41
0.00513889
  0
SEQEND
 8
0
  0
POLYLINE
  8
0
 62
     0
 66
     1
 10
0
 20
0
 30
0.0
 40
0.37
 41
0.37
  0
VERTEX
  8
0
 10
4.65739
 20
6.64643
 30
0.0
 40
0.00513889
 41
0.00513889
  0
VERTEX
  8
0
 10
4.65739
 20
6.47493
 30
0.0
 40
0.00513889
 41
0.00513889
  0
SEQEND
 8
0
  0
POLYLINE
  8
0
 62
     0
 66
     1
 10
0
 20
0
 30
0.0
 40
0.37
 41
0.37
  0
VERTEX
  8
0
 10
4.65739
 20
6.76449
 30
0.0
 40
0.00513889
 41
0.00513889
  0
VERTEX
  8
0
 10
4.65739
 20
6.93593
 30
0.0
 40
0.00513889
 41
0.00513889
  0
SEQEND
 8
0
  0
POLYLINE
  8
0
 62
     0
 66
     1
 10
0
 20
0
 30
0.0
 40
0.37
 41
0.37
  0
VERTEX
  8
0
 10
4.56879
 20
6.93593
 30
0.0
 40
0.00513889
 41
0.00513889
  0
VERTEX
  8
0
 10
4.56879
 20
6.67606
 30
0.0
 40
0.00513889
 41
0.00513889
  0
SEQEND
 8
0
  0
POLYLINE
  8
0
 62
     0
 66
     1
 10
0
 20
0
 30
0.0
 40
0.37
 41
0.37
  0
VERTEX
  8
0
 10
4.56879
 20
6.67606
 30
0.0
 40
0.00513889
 41
0.00513889
  0
VERTEX
  8
0
 10
4.62782
 20
6.5344
 30
0.0
 40
0.00513889
 41
0.00513889
  0
SEQEND
 8
0
  0
POLYLINE
  8
0
 62
     0
 66
     1
 10
0
 20
0
 30
0.0
 40
0.37
 41
0.37
  0
VERTEX
  8
0
 10
4.62782
 20
6.5344
 30
0.0
 40
0.00513889
 41
0.00513889
  0
VERTEX
  8
0
 10
4.65739
 20
6.5344
 30
0.0
 40
0.00513889
 41
0.00513889
  0
SEQEND
 8
0
  0
POLYLINE
  8
0
 62
     0
 66
     1
 10
0
 20
0
 30
0.0
 40
0.37
 41
0.37
  0
VERTEX
  8
0
 10
4.56879
 20
6.67606
 30
0.0
 40
0.00513889
 41
0.00513889
  0
VERTEX
  8
0
 10
4.65739
 20
6.67606
 30
0.0
 40
0.00513889
 41
0.00513889
  0
SEQEND
 8
0
  0
POLYLINE
  8
0
 62
     0
 66
     1
 10
0
 20
0
 30
0.0
 40
0.37
 41
0.37
  0
VERTEX
  8
0
 10
4.74599
 20
6.67606
 30
0.0
 40
0.00513889
 41
0.00513889
  0
VERTEX
  8
0
 10
4.68696
 20
6.5344
 30
0.0
 40
0.00513889
 41
0.00513889
  0
SEQEND
 8
0
  0
POLYLINE
  8
0
 62
     0
 66
     1
 10
0
 20
0
 30
0.0
 40
0.37
 41
0.37
  0
VERTEX
  8
0
 10
4.68696
 20
6.5344
 30
0.0
 40
0.00513889
 41
0.00513889
  0
VERTEX
  8
0
 10
4.65739
 20
6.5344
 30
0.0
 40
0.00513889
 41
0.00513889
  0
SEQEND
 8
0
  0
POLYLINE
  8
0
 62
     0
 66
     1
 10
0
 20
0
 30
0.0
 40
0.37
 41
0.37
  0
VERTEX
  8
0
 10
4.74599
 20
6.67606
 30
0.0
 40
0.00513889
 41
0.00513889
  0
VERTEX
  8
0
 10
4.65739
 20
6.67606
 30
0.0
 40
0.00513889
 41
0.00513889
  0
SEQEND
 8
0
  0
POLYLINE
  8
0
 62
     0
 66
     1
 10
0
 20
0
 30
0.0
 40
0.37
 41
0.37
  0
VERTEX
  8
0
 10
4.74599
 20
6.67606
 30
0.0
 40
0.00513889
 41
0.00513889
  0
VERTEX
  8
0
 10
4.76546
 20
6.72282
 30
0.0
 40
0.00513889
 41
0.00513889
  0
SEQEND
 8
0
  0
POLYLINE
  8
0
 62
     0
 66
     1
 10
0
 20
0
 30
0.0
 40
0.37
 41
0.37
  0
VERTEX
  8
0
 10
4.76546
 20
6.72282
 30
0.0
 40
0.00513889
 41
0.00513889
  0
VERTEX
  8
0
 10
4.76546
 20
6.9005
 30
0.0
 40
0.00513889
 41
0.00513889
  0
SEQEND
 8
0
  0
POLYLINE
  8
0
 62
     0
 66
     1
 10
0
 20
0
 30
0.0
 40
0.37
 41
0.37
  0
VERTEX
  8
0
 10
4.74599
 20
6.67606
 30
0.0
 40
0.00513889
 41
0.00513889
  0
VERTEX
  8
0
 10
4.74599
 20
6.88618
 30
0.0
 40
0.00513889
 41
0.00513889
  0
SEQEND
 8
0
  0
POLYLINE
  8
0
 62
     0
 66
     1
 10
0
 20
0
 30
0.0
 40
0.37
 41
0.37
  0
VERTEX
  8
0
 10
4.61838
 20
6.93593
 30
0.0
 40
0.00513889
 41
0.00513889
  0
VERTEX
  8
0
 10
4.61838
 20
6.67606
 30
0.0
 40
0.00513889
 41
0.00513889
  0
SEQEND
 8
0
  0
POLYLINE
  8
0
 62
     0
 66
     1
 10
0
 20
0
 30
0.0
 40
0.37
 41
0.37
  0
VERTEX
  8
0
 10
4.61838
 20
6.67606
 30
0.0
 40
0.00513889
 41
0.00513889
  0
VERTEX
  8
0
 10
4.59836
 20
6.72282
 30
0.0
 40
0.00513889
 41
0.00513889
  0
SEQEND
 8
0
  0
POLYLINE
  8
0
 62
     0
 66
     1
 10
0
 20
0
 30
0.0
 40
0.37
 41
0.37
  0
VERTEX
  8
0
 10
4.59836
 20
6.72282
 30
0.0
 40
0.00513889
 41
0.00513889
  0
VERTEX
  8
0
 10
4.59836
 20
6.93593
 30
0.0
 40
0.00513889
 41
0.00513889
  0
SEQEND
 8
0
  0
POLYLINE
  8
0
 62
     0
 66
     1
 10
0
 20
0
 30
0.0
 40
0.37
 41
0.37
  0
VERTEX
  8
0
 10
4.65506
 20
6.93593
 30
0.0
 40
0.00513889
 41
0.00513889
  0
VERTEX
  8
0
 10
4.65587
 20
6.92617
 30
0.0
 40
0.00513889
 41
0.00513889
  0
VERTEX
  8
0
 10
4.65821
 20
6.91661
 30
0.0
 40
0.00513889
 41
0.00513889
  0
VERTEX
  8
0
 10
4.66228
 20
6.90771
 30
0.0
 40
0.00513889
 41
0.00513889
  0
VERTEX
  8
0
 10
4.66769
 20
6.89953
 30
0.0
 40
0.00513889
 41
0.00513889
  0
VERTEX
  8
0
 10
4.67432
 20
6.89231
 30
0.0
 40
0.00513889
 41
0.00513889
  0
VERTEX
  8
0
 10
4.68213
 20
6.88633
 30
0.0
 40
0.00513889
 41
0.00513889
  0
VERTEX
  8
0
 10
4.69069
 20
6.88172
 30
0.0
 40
0.00513889
 41
0.00513889
  0
VERTEX
  8
0
 10
4.70003
 20
6.87853
 30
0.0
 40
0.00513889
 41
0.00513889
  0
VERTEX
  8
0
 10
4.70975
 20
6.87701
 30
0.0
 40
0.00513889
 41
0.00513889
  0
VERTEX
  8
0
 10
4.71946
 20
6.87717
 30
0.0
 40
0.00513889
 41
0.00513889
  0
VERTEX
  8
0
 10
4.72922
 20
6.87885
 30
0.0
 40
0.00513889
 41
0.00513889
  0
VERTEX
  8
0
 10
4.73839
 20
6.88217
 30
0.0
 40
0.00513889
 41
0.00513889
  0
VERTEX
  8
0
 10
4.74696
 20
6.88688
 30
0.0
 40
0.00513889
 41
0.00513889
  0
VERTEX
  8
0
 10
4.75461
 20
6.89301
 30
0.0
 40
0.00513889
 41
0.00513889
  0
VERTEX
  8
0
 10
4.76112
 20
6.90039
 30
0.0
 40
0.00513889
 41
0.00513889
  0
VERTEX
  8
0
 10
4.76644
 20
6.90869
 30
0.0
 40
0.00513889
 41
0.00513889
  0
VERTEX
  8
0
 10
4.77029
 20
6.91775
 30
0.0
 40
0.00513889
 41
0.00513889
  0
VERTEX
  8
0
 10
4.77251
 20
6.92719
 30
0.0
 40
0.00513889
 41
0.00513889
  0
VERTEX
  8
0
 10
4.77311
 20
6.93593
 30
0.0
 40
0.00513889
 41
0.00513889
  0
SEQEND
 8
0
  0
POLYLINE
  8
0
 62
     0
 66
     1
 10
0
 20
0
 30
0.0
 40
0.37
 41
0.37
  0
VERTEX
  8
0
 10
4.76129
 20
6.9005
 30
0.0
 40
0.00513889
 41
0.00513889
  0
VERTEX
  8
0
 10
5.02214
 20
6.9005
 30
0.0
 40
0.00513889
 41
0.00513889
  0
SEQEND
 8
0
  0
POLYLINE
  8
0
 62
     0
 66
     1
 10
0
 20
0
 30
0.0
 40
0.37
 41
0.37
  0
VERTEX
  8
0
 10
4.9445
 20
6.9005
 30
0.0
 40
0.00513889
 41
0.00513889
  0
VERTEX
  8
0
 10
4.9445
 20
6.93593
 30
0.0
 40
0.00513889
 41
0.00513889
  0
SEQEND
 8
0
  0
POLYLINE
  8
0
 62
     0
 66
     1
 10
0
 20
0
 30
0.0
 40
0.37
 41
0.37
  0
VERTEX
  8
0
 10
5.4924
 20
7.05268
 30
0.0
 40
0.00513889
 41
0.00513889
  0
VERTEX
  8
0
 10
5.47657
 20
7.33996
 30
0.0
 40
0.00513889
 41
0.00513889
  0
SEQEND
 8
0
  0
POLYLINE
  8
0
 62
     0
 66
     1
 10
0
 20
0
 30
0.0
 40
0.37
 41
0.37
  0
VERTEX
  8
0
 10
5.4924
 20
7.05268
 30
0.0
 40
0.00513889
 41
0.00513889
  0
VERTEX
  8
0
 10
5.4949
 20
7.0434
 30
0.0
 40
0.00513889
 41
0.00513889
  0
VERTEX
  8
0
 10
5.50087
 20
7.03592
 30
0.0
 40
0.00513889
 41
0.00513889
  0
VERTEX
  8
0
 10
5.50933
 20
7.03131
 30
0.0
 40
0.00513889
 41
0.00513889
  0
VERTEX
  8
0
 10
5.516
 20
7.03049
 30
0.0
 40
0.00513889
 41
0.00513889
  0
SEQEND
 8
0
  0
POLYLINE
  8
0
 62
     0
 66
     1
 10
0
 20
0
 30
0.0
 40
0.37
 41
0.37
  0
VERTEX
  8
0
 10
5.25738
 20
7.56788
 30
0.0
 40
0.00513889
 41
0.00513889
  0
VERTEX
  8
0
 10
5.36963
 20
7.56788
 30
0.0
 40
0.00513889
 41
0.00513889
  0
SEQEND
 8
0
  0
POLYLINE
  8
0
 62
     0
 66
     1
 10
0
 20
0
 30
0.0
 40
0.37
 41
0.37
  0
VERTEX
  8
0
 10
5.36963
 20
7.56788
 30
0.0
 40
0.00513889
 41
0.00513889
  0
VERTEX
  8
0
 10
5.39324
 20
7.13672
 30
0.0
 40
0.00513889
 41
0.00513889
  0
SEQEND
 8
0
  0
POLYLINE
  8
0
 62
     0
 66
     1
 10
0
 20
0
 30
0.0
 40
0.37
 41
0.37
  0
VERTEX
  8
0
 10
5.39324
 20
7.13672
 30
0.0
 40
0.00513889
 41
0.00513889
  0
VERTEX
  8
0
 10
5.48779
 20
7.13672
 30
0.0
 40
0.00513889
 41
0.00513889
  0
SEQEND
 8
0
  0
POLYLINE
  8
0
 62
     0
 66
     1
 10
0
 20
0
 30
0.0
 40
0.37
 41
0.37
  0
VERTEX
  8
0
 10
5.48128
 20
7.25478
 30
0.0
 40
0.00513889
 41
0.00513889
  0
VERTEX
  8
0
 10
5.38683
 20
7.25478
 30
0.0
 40
0.00513889
 41
0.00513889
  0
SEQEND
 8
0
  0
POLYLINE
  8
0
 62
     0
 66
     1
 10
0
 20
0
 30
0.0
 40
0.37
 41
0.37
  0
VERTEX
  8
0
 10
5.48236
 20
7.23356
 30
0.0
 40
0.00513889
 41
0.00513889
  0
VERTEX
  8
0
 10
5.38797
 20
7.23356
 30
0.0
 40
0.00513889
 41
0.00513889
  0
SEQEND
 8
0
  0
POLYLINE
  8
0
 62
     0
 66
     1
 10
0
 20
0
 30
0.0
 40
0.37
 41
0.37
  0
VERTEX
  8
0
 10
5.47657
 20
7.33996
 30
0.0
 40
0.00513889
 41
0.00513889
  0
VERTEX
  8
0
 10
5.38211
 20
7.33996
 30
0.0
 40
0.00513889
 41
0.00513889
  0
SEQEND
 8
0
  0
POLYLINE
  8
0
 62
     0
 66
     1
 10
0
 20
0
 30
0.0
 40
0.37
 41
0.37
  0
VERTEX
  8
0
 10
5.37349
 20
7.49701
 30
0.0
 40
0.00513889
 41
0.00513889
  0
VERTEX
  8
0
 10
5.25738
 20
7.49701
 30
0.0
 40
0.00513889
 41
0.00513889
  0
SEQEND
 8
0
  0
POLYLINE
  8
0
 62
     0
 66
     1
 10
0
 20
0
 30
0.0
 40
0.37
 41
0.37
  0
VERTEX
  8
0
 10
5.516
 20
7.03049
 30
0.0
 40
0.00513889
 41
0.00513889
  0
VERTEX
  8
0
 10
5.55268
 20
7.03049
 30
0.0
 40
0.00513889
 41
0.00513889
  0
SEQEND
 8
0
  0
POLYLINE
  8
0
 62
     0
 66
     1
 10
0
 20
0
 30
0.0
 40
0.37
 41
0.37
  0
VERTEX
  8
0
 10
5.55268
 20
7.03049
 30
0.0
 40
0.00513889
 41
0.00513889
  0
VERTEX
  8
0
 10
5.58182
 20
7.5855
 30
0.0
 40
0.00513889
 41
0.00513889
  0
SEQEND
 8
0
  0
POLYLINE
  8
0
 62
     0
 66
     1
 10
0
 20
0
 30
0.0
 40
0.37
 41
0.37
  0
VERTEX
  8
0
 10
5.25738
 20
6.93593
 30
0.0
 40
0.00513889
 41
0.00513889
  0
VERTEX
  8
0
 10
5.98144
 20
6.93593
 30
0.0
 40
0.00513889
 41
0.00513889
  0
SEQEND
 8
0
  0
POLYLINE
  8
0
 62
     0
 66
     1
 10
0
 20
0
 30
0.0
 40
0.37
 41
0.37
  0
VERTEX
  8
0
 10
5.57557
 20
7.46744
 30
0.0
 40
0.00513889
 41
0.00513889
  0
VERTEX
  8
0
 10
6.17865
 20
7.46744
 30
0.0
 40
0.00513889
 41
0.00513889
  0
SEQEND
 8
0
  0
POLYLINE
  8
0
 62
     0
 66
     1
 10
0
 20
0
 30
0.0
 40
0.37
 41
0.37
  0
VERTEX
  8
0
 10
6.17865
 20
7.46744
 30
0.0
 40
0.00513889
 41
0.00513889
  0
VERTEX
  8
0
 10
6.17865
 20
7.5855
 30
0.0
 40
0.00513889
 41
0.00513889
  0
SEQEND
 8
0
  0
POLYLINE
  8
0
 62
     0
 66
     1
 10
0
 20
0
 30
0.0
 40
0.37
 41
0.37
  0
VERTEX
  8
0
 10
6.17865
 20
7.5855
 30
0.0
 40
0.00513889
 41
0.00513889
  0
VERTEX
  8
0
 10
6.11963
 20
7.5855
 30
0.0
 40
0.00513889
 41
0.00513889
  0
SEQEND
 8
0
  0
POLYLINE
  8
0
 62
     0
 66
     1
 10
0
 20
0
 30
0.0
 40
0.37
 41
0.37
  0
VERTEX
  8
0
 10
5.9106
 20
6.93593
 30
0.0
 40
0.00513889
 41
0.00513889
  0
VERTEX
  8
0
 10
5.9106
 20
7.46744
 30
0.0
 40
0.00513889
 41
0.00513889
  0
SEQEND
 8
0
  0
POLYLINE
  8
0
 62
     0
 66
     1
 10
0
 20
0
 30
0.0
 40
0.37
 41
0.37
  0
VERTEX
  8
0
 10
5.73335
 20
7.23118
 30
0.0
 40
0.00513889
 41
0.00513889
  0
VERTEX
  8
0
 10
5.73335
 20
7.46744
 30
0.0
 40
0.00513889
 41
0.00513889
  0
SEQEND
 8
0
  0
POLYLINE
  8
0
 62
     0
 66
     1
 10
0
 20
0
 30
0.0
 40
0.37
 41
0.37
  0
VERTEX
  8
0
 10
5.66254
 20
7.23118
 30
0.0
 40
0.00513889
 41
0.00513889
  0
VERTEX
  8
0
 10
5.66254
 20
7.46744
 30
0.0
 40
0.00513889
 41
0.00513889
  0
SEQEND
 8
0
  0
POLYLINE
  8
0
 62
     0
 66
     1
 10
0
 20
0
 30
0.0
 40
0.37
 41
0.37
  0
VERTEX
  8
0
 10
5.73335
 20
7.29021
 30
0.0
 40
0.00513889
 41
0.00513889
  0
VERTEX
  8
0
 10
5.66254
 20
7.29021
 30
0.0
 40
0.00513889
 41
0.00513889
  0
SEQEND
 8
0
  0
POLYLINE
  8
0
 62
     0
 66
     1
 10
0
 20
0
 30
0.0
 40
0.37
 41
0.37
  0
VERTEX
  8
0
 10
6.07238
 20
7.46744
 30
0.0
 40
0.00513889
 41
0.00513889
  0
VERTEX
  8
0
 10
6.07238
 20
7.29021
 30
0.0
 40
0.00513889
 41
0.00513889
  0
SEQEND
 8
0
  0
POLYLINE
  8
0
 62
     0
 66
     1
 10
0
 20
0
 30
0.0
 40
0.37
 41
0.37
  0
VERTEX
  8
0
 10
6.07238
 20
7.29021
 30
0.0
 40
0.00513889
 41
0.00513889
  0
VERTEX
  8
0
 10
5.98144
 20
6.93593
 30
0.0
 40
0.00513889
 41
0.00513889
  0
SEQEND
 8
0
  0
POLYLINE
  8
0
 62
     0
 66
     1
 10
0
 20
0
 30
0.0
 40
0.37
 41
0.37
  0
VERTEX
  8
0
 10
5.48768
 20
6.8769
 30
0.0
 40
0.00513889
 41
0.00513889
  0
VERTEX
  8
0
 10
5.48768
 20
6.65685
 30
0.0
 40
0.00513889
 41
0.00513889
  0
SEQEND
 8
0
  0
POLYLINE
  8
0
 62
     0
 66
     1
 10
0
 20
0
 30
0.0
 40
0.37
 41
0.37
  0
VERTEX
  8
0
 10
5.54682
 20
6.93593
 30
0.0
 40
0.00513889
 41
0.00513889
  0
VERTEX
  8
0
 10
5.537
 20
6.93506
 30
0.0
 40
0.00513889
 41
0.00513889
  0
VERTEX
  8
0
 10
5.5275
 20
6.93272
 30
0.0
 40
0.00513889
 41
0.00513889
  0
VERTEX
  8
0
 10
5.5185
 20
6.92865
 30
0.0
 40
0.00513889
 41
0.00513889
  0
VERTEX
  8
0
 10
5.51031
 20
6.92339
 30
0.0
 40
0.00513889
 41
0.00513889
  0
VERTEX
  8
0
 10
5.5031
 20
6.91672
 30
0.0
 40
0.00513889
 41
0.00513889
  0
VERTEX
  8
0
 10
5.49713
 20
6.90896
 30
0.0
 40
0.00513889
 41
0.00513889
  0
VERTEX
  8
0
 10
5.49251
 20
6.90022
 30
0.0
 40
0.00513889
 41
0.00513889
  0
VERTEX
  8
0
 10
5.48947
 20
6.8909
 30
0.0
 40
0.00513889
 41
0.00513889
  0
VERTEX
  8
0
 10
5.48779
 20
6.88129
 30
0.0
 40
0.00513889
 41
0.00513889
  0
VERTEX
  8
0
 10
5.48763
 20
6.87685
 30
0.0
 40
0.00513889
 41
0.00513889
  0
SEQEND
 8
0
  0
POLYLINE
  8
0
 62
     0
 66
     1
 10
0
 20
0
 30
0.0
 40
0.37
 41
0.37
  0
VERTEX
  8
0
 10
5.48768
 20
6.65685
 30
0.0
 40
0.00513889
 41
0.00513889
  0
VERTEX
  8
0
 10
5.41699
 20
6.5344
 30
0.0
 40
0.00513889
 41
0.00513889
  0
SEQEND
 8
0
  0
POLYLINE
  8
0
 62
     0
 66
     1
 10
0
 20
0
 30
0.0
 40
0.37
 41
0.37
  0
VERTEX
  8
0
 10
5.42865
 20
6.55604
 30
0.0
 40
0.00513889
 41
0.00513889
  0
VERTEX
  8
0
 10
5.43408
 20
6.56396
 30
0.0
 40
0.00513889
 41
0.00513889
  0
SEQEND
 8
0
  0
POLYLINE
  8
0
 62
     0
 66
     1
 10
0
 20
0
 30
0.0
 40
0.37
 41
0.37
  0
VERTEX
  8
0
 10
5.41699
 20
6.5344
 30
0.0
 40
0.00513889
 41
0.00513889
  0
VERTEX
  8
0
 10
5.25738
 20
6.5344
 30
0.0
 40
0.00513889
 41
0.00513889
  0
SEQEND
 8
0
  0
POLYLINE
  8
0
 62
     0
 66
     1
 10
0
 20
0
 30
0.0
 40
0.37
 41
0.37
  0
VERTEX
  8
0
 10
5.48768
 20
6.65685
 30
0.0
 40
0.00513889
 41
0.00513889
  0
VERTEX
  8
0
 10
5.25738
 20
6.65685
 30
0.0
 40
0.00513889
 41
0.00513889
  0
SEQEND
 8
0
  0
POLYLINE
  8
0
 62
     0
 66
     1
 10
0
 20
0
 30
0.0
 40
0.37
 41
0.37
  0
VERTEX
  8
0
 10
5.94601
 20
6.93593
 30
0.0
 40
0.00513889
 41
0.00513889
  0
VERTEX
  8
0
 10
5.94601
 20
6.67606
 30
0.0
 40
0.00513889
 41
0.00513889
  0
SEQEND
 8
0
  0
POLYLINE
  8
0
 62
     0
 66
     1
 10
0
 20
0
 30
0.0
 40
0.37
 41
0.37
  0
VERTEX
  8
0
 10
5.94601
 20
6.67606
 30
0.0
 40
0.00513889
 41
0.00513889
  0
VERTEX
  8
0
 10
5.88699
 20
6.5344
 30
0.0
 40
0.00513889
 41
0.00513889
  0
SEQEND
 8
0
  0
POLYLINE
  8
0
 62
     0
 66
     1
 10
0
 20
0
 30
0.0
 40
0.37
 41
0.37
  0
VERTEX
  8
0
 10
5.88699
 20
6.5344
 30
0.0
 40
0.00513889
 41
0.00513889
  0
VERTEX
  8
0
 10
5.85736
 20
6.5344
 30
0.0
 40
0.00513889
 41
0.00513889
  0
SEQEND
 8
0
  0
POLYLINE
  8
0
 62
     0
 66
     1
 10
0
 20
0
 30
0.0
 40
0.37
 41
0.37
  0
VERTEX
  8
0
 10
5.94601
 20
6.67606
 30
0.0
 40
0.00513889
 41
0.00513889
  0
VERTEX
  8
0
 10
5.85736
 20
6.67606
 30
0.0
 40
0.00513889
 41
0.00513889
  0
SEQEND
 8
0
  0
POLYLINE
  8
0
 62
     0
 66
     1
 10
0
 20
0
 30
0.0
 40
0.37
 41
0.37
  0
VERTEX
  8
0
 10
5.76878
 20
6.67606
 30
0.0
 40
0.00513889
 41
0.00513889
  0
VERTEX
  8
0
 10
5.82781
 20
6.5344
 30
0.0
 40
0.00513889
 41
0.00513889
  0
SEQEND
 8
0
  0
POLYLINE
  8
0
 62
     0
 66
     1
 10
0
 20
0
 30
0.0
 40
0.37
 41
0.37
  0
VERTEX
  8
0
 10
5.82781
 20
6.5344
 30
0.0
 40
0.00513889
 41
0.00513889
  0
VERTEX
  8
0
 10
5.85736
 20
6.5344
 30
0.0
 40
0.00513889
 41
0.00513889
  0
SEQEND
 8
0
  0
POLYLINE
  8
0
 62
     0
 66
     1
 10
0
 20
0
 30
0.0
 40
0.37
 41
0.37
  0
VERTEX
  8
0
 10
5.76878
 20
6.67606
 30
0.0
 40
0.00513889
 41
0.00513889
  0
VERTEX
  8
0
 10
5.85736
 20
6.67606
 30
0.0
 40
0.00513889
 41
0.00513889
  0
SEQEND
 8
0
  0
POLYLINE
  8
0
 62
     0
 66
     1
 10
0
 20
0
 30
0.0
 40
0.37
 41
0.37
  0
VERTEX
  8
0
 10
5.76878
 20
6.67606
 30
0.0
 40
0.00513889
 41
0.00513889
  0
VERTEX
  8
0
 10
5.74935
 20
6.72282
 30
0.0
 40
0.00513889
 41
0.00513889
  0
SEQEND
 8
0
  0
POLYLINE
  8
0
 62
     0
 66
     1
 10
0
 20
0
 30
0.0
 40
0.37
 41
0.37
  0
VERTEX
  8
0
 10
5.74935
 20
6.72282
 30
0.0
 40
0.00513889
 41
0.00513889
  0
VERTEX
  8
0
 10
5.74935
 20
6.9005
 30
0.0
 40
0.00513889
 41
0.00513889
  0
SEQEND
 8
0
  0
POLYLINE
  8
0
 62
     0
 66
     1
 10
0
 20
0
 30
0.0
 40
0.37
 41
0.37
  0
VERTEX
  8
0
 10
5.76878
 20
6.67606
 30
0.0
 40
0.00513889
 41
0.00513889
  0
VERTEX
  8
0
 10
5.76878
 20
6.88618
 30
0.0
 40
0.00513889
 41
0.00513889
  0
SEQEND
 8
0
  0
POLYLINE
  8
0
 62
     0
 66
     1
 10
0
 20
0
 30
0.0
 40
0.37
 41
0.37
  0
VERTEX
  8
0
 10
5.89643
 20
6.93593
 30
0.0
 40
0.00513889
 41
0.00513889
  0
VERTEX
  8
0
 10
5.89643
 20
6.67606
 30
0.0
 40
0.00513889
 41
0.00513889
  0
SEQEND
 8
0
  0
POLYLINE
  8
0
 62
     0
 66
     1
 10
0
 20
0
 30
0.0
 40
0.37
 41
0.37
  0
VERTEX
  8
0
 10
5.89643
 20
6.67606
 30
0.0
 40
0.00513889
 41
0.00513889
  0
VERTEX
  8
0
 10
5.91639
 20
6.72282
 30
0.0
 40
0.00513889
 41
0.00513889
  0
SEQEND
 8
0
  0
POLYLINE
  8
0
 62
     0
 66
     1
 10
0
 20
0
 30
0.0
 40
0.37
 41
0.37
  0
VERTEX
  8
0
 10
5.91639
 20
6.72282
 30
0.0
 40
0.00513889
 41
0.00513889
  0
VERTEX
  8
0
 10
5.91639
 20
6.93593
 30
0.0
 40
0.00513889
 41
0.00513889
  0
SEQEND
 8
0
  0
POLYLINE
  8
0
 62
     0
 66
     1
 10
0
 20
0
 30
0.0
 40
0.37
 41
0.37
  0
VERTEX
  8
0
 10
5.74169
 20
6.93593
 30
0.0
 40
0.00513889
 41
0.00513889
  0
VERTEX
  8
0
 10
5.74251
 20
6.92617
 30
0.0
 40
0.00513889
 41
0.00513889
  0
VERTEX
  8
0
 10
5.7449
 20
6.91661
 30
0.0
 40
0.00513889
 41
0.00513889
  0
VERTEX
  8
0
 10
5.74881
 20
6.90771
 30
0.0
 40
0.00513889
 41
0.00513889
  0
VERTEX
  8
0
 10
5.75418
 20
6.89953
 30
0.0
 40
0.00513889
 41
0.00513889
  0
VERTEX
  8
0
 10
5.76085
 20
6.89231
 30
0.0
 40
0.00513889
 41
0.00513889
  0
VERTEX
  8
0
 10
5.76867
 20
6.88633
 30
0.0
 40
0.00513889
 41
0.00513889
  0
VERTEX
  8
0
 10
5.7774
 20
6.88172
 30
0.0
 40
0.00513889
 41
0.00513889
  0
VERTEX
  8
0
 10
5.78668
 20
6.87853
 30
0.0
 40
0.00513889
 41
0.00513889
  0
VERTEX
  8
0
 10
5.79628
 20
6.87701
 30
0.0
 40
0.00513889
 41
0.00513889
  0
VERTEX
  8
0
 10
5.80615
 20
6.87717
 30
0.0
 40
0.00513889
 41
0.00513889
  0
VERTEX
  8
0
 10
5.81569
 20
6.87885
 30
0.0
 40
0.00513889
 41
0.00513889
  0
VERTEX
  8
0
 10
5.82503
 20
6.88217
 30
0.0
 40
0.00513889
 41
0.00513889
  0
VERTEX
  8
0
 10
5.83365
 20
6.88688
 30
0.0
 40
0.00513889
 41
0.00513889
  0
VERTEX
  8
0
 10
5.84131
 20
6.89301
 30
0.0
 40
0.00513889
 41
0.00513889
  0
VERTEX
  8
0
 10
5.84782
 20
6.90039
 30
0.0
 40
0.00513889
 41
0.00513889
  0
VERTEX
  8
0
 10
5.85308
 20
6.90869
 30
0.0
 40
0.00513889
 41
0.00513889
  0
VERTEX
  8
0
 10
5.85682
 20
6.91775
 30
0.0
 40
0.00513889
 41
0.00513889
  0
VERTEX
  8
0
 10
5.85906
 20
6.92719
 30
0.0
 40
0.00513889
 41
0.00513889
  0
VERTEX
  8
0
 10
5.85975
 20
6.93593
 30
0.0
 40
0.00513889
 41
0.00513889
  0
SEQEND
 8
0
  0
POLYLINE
  8
0
 62
     0
 66
     1
 10
0
 20
0
 30
0.0
 40
0.37
 41
0.37
  0
VERTEX
  8
0
 10
5.75353
 20
6.9005
 30
0.0
 40
0.00513889
 41
0.00513889
  0
VERTEX
  8
0
 10
5.49268
 20
6.9005
 30
0.0
 40
0.00513889
 41
0.00513889
  0
SEQEND
 8
0
  0
POLYLINE
  8
0
 62
     0
 66
     1
 10
0
 20
0
 30
0.0
 40
0.37
 41
0.37
  0
VERTEX
  8
0
 10
5.57042
 20
6.9005
 30
0.0
 40
0.00513889
 41
0.00513889
  0
VERTEX
  8
0
 10
5.57042
 20
6.93593
 30
0.0
 40
0.00513889
 41
0.00513889
  0
SEQEND
 8
0
  0
POLYLINE
  8
0
 62
     0
 66
     1
 10
0
 20
0
 30
0.0
 40
0.37
 41
0.37
  0
VERTEX
  8
0
 10
4.74544
 20
6.67606
 30
0.0
 40
0.00513889
 41
0.00513889
  0
VERTEX
  8
0
 10
4.74544
 20
6.5491
 30
0.0
 40
0.00513889
 41
0.00513889
  0
SEQEND
 8
0
  0
POLYLINE
  8
0
 62
     0
 66
     1
 10
0
 20
0
 30
0.0
 40
0.37
 41
0.37
  0
VERTEX
  8
0
 10
4.74544
 20
6.5491
 30
0.0
 40
0.00513889
 41
0.00513889
  0
VERTEX
  8
0
 10
4.8074
 20
6.48714
 30
0.0
 40
0.00513889
 41
0.00513889
  0
SEQEND
 8
0
  0
POLYLINE
  8
0
 62
     0
 66
     1
 10
0
 20
0
 30
0.0
 40
0.37
 41
0.37
  0
VERTEX
  8
0
 10
4.8074
 20
6.48714
 30
0.0
 40
0.00513889
 41
0.00513889
  0
VERTEX
  8
0
 10
4.86947
 20
6.5491
 30
0.0
 40
0.00513889
 41
0.00513889
  0
SEQEND
 8
0
  0
POLYLINE
  8
0
 62
     0
 66
     1
 10
0
 20
0
 30
0.0
 40
0.37
 41
0.37
  0
VERTEX
  8
0
 10
4.86947
 20
6.5491
 30
0.0
 40
0.00513889
 41
0.00513889
  0
VERTEX
  8
0
 10
4.86947
 20
6.9005
 30
0.0
 40
0.00513889
 41
0.00513889
  0
SEQEND
 8
0
  0
POLYLINE
  8
0
 62
     0
 66
     1
 10
0
 20
0
 30
0.0
 40
0.37
 41
0.37
  0
VERTEX
  8
0
 10
4.63058
 20
8.14008
 30
0.0
 40
0.00513889
 41
0.00513889
  0
VERTEX
  8
0
 10
4.39518
 20
7.5855
 30
0.0
 40
0.00513889
 41
0.00513889
  0
SEQEND
 8
0
  0
POLYLINE
  8
0
 62
     0
 66
     1
 10
0
 20
0
 30
0.0
 40
0.37
 41
0.37
  0
VERTEX
  8
0
 10
4.39518
 20
7.5855
 30
0.0
 40
0.00513889
 41
0.00513889
  0
VERTEX
  8
0
 10
5.25738
 20
7.5855
 30
0.0
 40
0.00513889
 41
0.00513889
  0
SEQEND
 8
0
  0
POLYLINE
  8
0
 62
     0
 66
     1
 10
0
 20
0
 30
0.0
 40
0.37
 41
0.37
  0
VERTEX
  8
0
 10
4.67279
 20
8.17606
 30
0.0
 40
0.00513889
 41
0.00513889
  0
VERTEX
  8
0
 10
5.25738
 20
8.17606
 30
0.0
 40
0.00513889
 41
0.00513889
  0
SEQEND
 8
0
  0
POLYLINE
  8
0
 62
     0
 66
     1
 10
0
 20
0
 30
0.0
 40
0.37
 41
0.37
  0
VERTEX
  8
0
 10
4.6849
 20
8.17606
 30
0.0
 40
0.00513889
 41
0.00513889
  0
VERTEX
  8
0
 10
4.67518
 20
8.17535
 30
0.0
 40
0.00513889
 41
0.00513889
  0
VERTEX
  8
0
 10
4.66575
 20
8.17285
 30
0.0
 40
0.00513889
 41
0.00513889
  0
VERTEX
  8
0
 10
4.65668
 20
8.16894
 30
0.0
 40
0.00513889
 41
0.00513889
  0
VERTEX
  8
0
 10
4.64849
 20
8.16351
 30
0.0
 40
0.00513889
 41
0.00513889
  0
VERTEX
  8
0
 10
4.64128
 20
8.15685
 30
0.0
 40
0.00513889
 41
0.00513889
  0
VERTEX
  8
0
 10
4.63531
 20
8.14908
 30
0.0
 40
0.00513889
 41
0.00513889
  0
VERTEX
  8
0
 10
4.63075
 20
8.14035
 30
0.0
 40
0.00513889
 41
0.00513889
  0
VERTEX
  8
0
 10
4.63058
 20
8.14008
 30
0.0
 40
0.00513889
 41
0.00513889
  0
SEQEND
 8
0
  0
POLYLINE
  8
0
 62
     0
 66
     1
 10
0
 20
0
 30
0.0
 40
0.37
 41
0.37
  0
VERTEX
  8
0
 10
4.50444
 20
7.75092
 30
0.0
 40
0.00513889
 41
0.00513889
  0
VERTEX
  8
0
 10
4.67279
 20
7.75092
 30
0.0
 40
0.00513889
 41
0.00513889
  0
SEQEND
 8
0
  0
POLYLINE
  8
0
 62
     0
 66
     1
 10
0
 20
0
 30
0.0
 40
0.37
 41
0.37
  0
VERTEX
  8
0
 10
4.50444
 20
7.75092
 30
0.0
 40
0.00513889
 41
0.00513889
  0
VERTEX
  8
0
 10
4.49474
 20
7.75006
 30
0.0
 40
0.00513889
 41
0.00513889
  0
VERTEX
  8
0
 10
4.48519
 20
7.74772
 30
0.0
 40
0.00513889
 41
0.00513889
  0
VERTEX
  8
0
 10
4.47629
 20
7.74365
 30
0.0
 40
0.00513889
 41
0.00513889
  0
VERTEX
  8
0
 10
4.4681
 20
7.73828
 30
0.0
 40
0.00513889
 41
0.00513889
  0
VERTEX
  8
0
 10
4.46089
 20
7.73161
 30
0.0
 40
0.00513889
 41
0.00513889
  0
VERTEX
  8
0
 10
4.45492
 20
7.72379
 30
0.0
 40
0.00513889
 41
0.00513889
  0
VERTEX
  8
0
 10
4.45019
 20
7.71522
 30
0.0
 40
0.00513889
 41
0.00513889
  0
VERTEX
  8
0
 10
4.45019
 20
7.71496
 30
0.0
 40
0.00513889
 41
0.00513889
  0
SEQEND
 8
0
  0
POLYLINE
  8
0
 62
     0
 66
     1
 10
0
 20
0
 30
0.0
 40
0.37
 41
0.37
  0
VERTEX
  8
0
 10
4.82628
 20
7.75092
 30
0.0
 40
0.00513889
 41
0.00513889
  0
VERTEX
  8
0
 10
5.25738
 20
7.75092
 30
0.0
 40
0.00513889
 41
0.00513889
  0
SEQEND
 8
0
  0
POLYLINE
  8
0
 62
     0
 66
     1
 10
0
 20
0
 30
0.0
 40
0.37
 41
0.37
  0
VERTEX
  8
0
 10
4.67279
 20
8.17606
 30
0.0
 40
0.00513889
 41
0.00513889
  0
VERTEX
  8
0
 10
4.67279
 20
7.75092
 30
0.0
 40
0.00513889
 41
0.00513889
  0
SEQEND
 8
0
  0
POLYLINE
  8
0
 62
     0
 66
     1
 10
0
 20
0
 30
0.0
 40
0.37
 41
0.37
  0
VERTEX
  8
0
 10
4.79085
 20
8.17606
 30
0.0
 40
0.00513889
 41
0.00513889
  0
VERTEX
  8
0
 10
4.79085
 20
7.75353
 30
0.0
 40
0.00513889
 41
0.00513889
  0
SEQEND
 8
0
  0
POLYLINE
  8
0
 62
     0
 66
     1
 10
0
 20
0
 30
0.0
 40
0.37
 41
0.37
  0
VERTEX
  8
0
 10
4.79085
 20
7.78629
 30
0.0
 40
0.00513889
 41
0.00513889
  0
VERTEX
  8
0
 10
4.79226
 20
7.77675
 30
0.0
 40
0.00513889
 41
0.00513889
  0
VERTEX
  8
0
 10
4.79611
 20
7.76768
 30
0.0
 40
0.00513889
 41
0.00513889
  0
VERTEX
  8
0
 10
4.8024
 20
7.76019
 30
0.0
 40
0.00513889
 41
0.00513889
  0
VERTEX
  8
0
 10
4.81033
 20
7.75467
 30
0.0
 40
0.00513889
 41
0.00513889
  0
VERTEX
  8
0
 10
4.81961
 20
7.75157
 30
0.0
 40
0.00513889
 41
0.00513889
  0
VERTEX
  8
0
 10
4.82628
 20
7.75092
 30
0.0
 40
0.00513889
 41
0.00513889
  0
SEQEND
 8
0
  0
POLYLINE
  8
0
 62
     0
 66
     1
 10
0
 20
0
 30
0.0
 40
0.37
 41
0.37
  0
VERTEX
  8
0
 10
4.63726
 20
7.7181
 30
0.0
 40
0.00513889
 41
0.00513889
  0
VERTEX
  8
0
 10
4.64697
 20
7.71951
 30
0.0
 40
0.00513889
 41
0.00513889
  0
VERTEX
  8
0
 10
4.65587
 20
7.72342
 30
0.0
 40
0.00513889
 41
0.00513889
  0
VERTEX
  8
0
 10
4.66336
 20
7.72965
 30
0.0
 40
0.00513889
 41
0.00513889
  0
VERTEX
  8
0
 10
4.66894
 20
7.73757
 30
0.0
 40
0.00513889
 41
0.00513889
  0
VERTEX
  8
0
 10
4.6721
 20
7.74685
 30
0.0
 40
0.00513889
 41
0.00513889
  0
VERTEX
  8
0
 10
4.67279
 20
7.75353
 30
0.0
 40
0.00513889
 41
0.00513889
  0
SEQEND
 8
0
  0
POLYLINE
  8
0
 62
     0
 66
     1
 10
0
 20
0
 30
0.0
 40
0.37
 41
0.37
  0
VERTEX
  8
0
 10
4.79085
 20
7.75353
 30
0.0
 40
0.00513889
 41
0.00513889
  0
VERTEX
  8
0
 10
4.79226
 20
7.74397
 30
0.0
 40
0.00513889
 41
0.00513889
  0
VERTEX
  8
0
 10
4.79611
 20
7.73492
 30
0.0
 40
0.00513889
 41
0.00513889
  0
VERTEX
  8
0
 10
4.8024
 20
7.72743
 30
0.0
 40
0.00513889
 41
0.00513889
  0
VERTEX
  8
0
 10
4.81033
 20
7.7219
 30
0.0
 40
0.00513889
 41
0.00513889
  0
VERTEX
  8
0
 10
4.81961
 20
7.71881
 30
0.0
 40
0.00513889
 41
0.00513889
  0
VERTEX
  8
0
 10
4.82628
 20
7.7181
 30
0.0
 40
0.00513889
 41
0.00513889
  0
SEQEND
 8
0
  0
POLYLINE
  8
0
 62
     0
 66
     1
 10
0
 20
0
 30
0.0
 40
0.37
 41
0.37
  0
VERTEX
  8
0
 10
5.88422
 20
8.14008
 30
0.0
 40
0.00513889
 41
0.00513889
  0
VERTEX
  8
0
 10
6.11963
 20
7.5855
 30
0.0
 40
0.00513889
 41
0.00513889
  0
SEQEND
 8
0
  0
POLYLINE
  8
0
 62
     0
 66
     1
 10
0
 20
0
 30
0.0
 40
0.37
 41
0.37
  0
VERTEX
  8
0
 10
6.11963
 20
7.5855
 30
0.0
 40
0.00513889
 41
0.00513889
  0
VERTEX
  8
0
 10
5.25738
 20
7.5855
 30
0.0
 40
0.00513889
 41
0.00513889
  0
SEQEND
 8
0
  0
POLYLINE
  8
0
 62
     0
 66
     1
 10
0
 20
0
 30
0.0
 40
0.37
 41
0.37
  0
VERTEX
  8
0
 10
5.84196
 20
8.17606
 30
0.0
 40
0.00513889
 41
0.00513889
  0
VERTEX
  8
0
 10
5.25738
 20
8.17606
 30
0.0
 40
0.00513889
 41
0.00513889
  0
SEQEND
 8
0
  0
POLYLINE
  8
0
 62
     0
 66
     1
 10
0
 20
0
 30
0.0
 40
0.37
 41
0.37
  0
VERTEX
  8
0
 10
5.88422
 20
8.14008
 30
0.0
 40
0.00513889
 41
0.00513889
  0
VERTEX
  8
0
 10
5.87961
 20
8.14882
 30
0.0
 40
0.00513889
 41
0.00513889
  0
VERTEX
  8
0
 10
5.87364
 20
8.15657
 30
0.0
 40
0.00513889
 41
0.00513889
  0
VERTEX
  8
0
 10
5.86654
 20
8.16325
 30
0.0
 40
0.00513889
 41
0.00513889
  0
VERTEX
  8
0
 10
5.85835
 20
8.16868
 30
0.0
 40
0.00513889
 41
0.00513889
  0
VERTEX
  8
0
 10
5.8495
 20
8.17269
 30
0.0
 40
0.00513889
 41
0.00513889
  0
VERTEX
  8
0
 10
5.8399
 20
8.17518
 30
0.0
 40
0.00513889
 41
0.00513889
  0
VERTEX
  8
0
 10
5.83018
 20
8.17606
 30
0.0
 40
0.00513889
 41
0.00513889
  0
VERTEX
  8
0
 10
5.82992
 20
8.17606
 30
0.0
 40
0.00513889
 41
0.00513889
  0
SEQEND
 8
0
  0
POLYLINE
  8
0
 62
     0
 66
     1
 10
0
 20
0
 30
0.0
 40
0.37
 41
0.37
  0
VERTEX
  8
0
 10
6.01031
 20
7.75092
 30
0.0
 40
0.00513889
 41
0.00513889
  0
VERTEX
  8
0
 10
5.84196
 20
7.75092
 30
0.0
 40
0.00513889
 41
0.00513889
  0
SEQEND
 8
0
  0
POLYLINE
  8
0
 62
     0
 66
     1
 10
0
 20
0
 30
0.0
 40
0.37
 41
0.37
  0
VERTEX
  8
0
 10
6.06478
 20
7.71496
 30
0.0
 40
0.00513889
 41
0.00513889
  0
VERTEX
  8
0
 10
6.06017
 20
7.72353
 30
0.0
 40
0.00513889
 41
0.00513889
  0
VERTEX
  8
0
 10
6.05419
 20
7.73144
 30
0.0
 40
0.00513889
 41
0.00513889
  0
VERTEX
  8
0
 10
6.04699
 20
7.73813
 30
0.0
 40
0.00513889
 41
0.00513889
  0
VERTEX
  8
0
 10
6.0389
 20
7.74354
 30
0.0
 40
0.00513889
 41
0.00513889
  0
VERTEX
  8
0
 10
6.02989
 20
7.74756
 30
0.0
 40
0.00513889
 41
0.00513889
  0
VERTEX
  8
0
 10
6.02046
 20
7.75006
 30
0.0
 40
0.00513889
 41
0.00513889
  0
VERTEX
  8
0
 10
6.01058
 20
7.75092
 30
0.0
 40
0.00513889
 41
0.00513889
  0
VERTEX
  8
0
 10
6.01031
 20
7.75092
 30
0.0
 40
0.00513889
 41
0.00513889
  0
SEQEND
 8
0
  0
POLYLINE
  8
0
 62
     0
 66
     1
 10
0
 20
0
 30
0.0
 40
0.37
 41
0.37
  0
VERTEX
  8
0
 10
5.68847
 20
7.75092
 30
0.0
 40
0.00513889
 41
0.00513889
  0
VERTEX
  8
0
 10
5.25738
 20
7.75092
 30
0.0
 40
0.00513889
 41
0.00513889
  0
SEQEND
 8
0
  0
POLYLINE
  8
0
 62
     0
 66
     1
 10
0
 20
0
 30
0.0
 40
0.37
 41
0.37
  0
VERTEX
  8
0
 10
5.84196
 20
8.17606
 30
0.0
 40
0.00513889
 41
0.00513889
  0
VERTEX
  8
0
 10
5.84196
 20
7.75092
 30
0.0
 40
0.00513889
 41
0.00513889
  0
SEQEND
 8
0
  0
POLYLINE
  8
0
 62
     0
 66
     1
 10
0
 20
0
 30
0.0
 40
0.37
 41
0.37
  0
VERTEX
  8
0
 10
5.7239
 20
8.17606
 30
0.0
 40
0.00513889
 41
0.00513889
  0
VERTEX
  8
0
 10
5.7239
 20
7.75353
 30
0.0
 40
0.00513889
 41
0.00513889
  0
SEQEND
 8
0
  0
POLYLINE
  8
0
 62
     0
 66
     1
 10
0
 20
0
 30
0.0
 40
0.37
 41
0.37
  0
VERTEX
  8
0
 10
5.68847
 20
7.75092
 30
0.0
 40
0.00513889
 41
0.00513889
  0
VERTEX
  8
0
 10
5.69824
 20
7.75228
 30
0.0
 40
0.00513889
 41
0.00513889
  0
VERTEX
  8
0
 10
5.70714
 20
7.75618
 30
0.0
 40
0.00513889
 41
0.00513889
  0
VERTEX
  8
0
 10
5.71463
 20
7.76243
 30
0.0
 40
0.00513889
 41
0.00513889
  0
VERTEX
  8
0
 10
5.72017
 20
7.77035
 30
0.0
 40
0.00513889
 41
0.00513889
  0
VERTEX
  8
0
 10
5.72319
 20
7.77968
 30
0.0
 40
0.00513889
 41
0.00513889
  0
VERTEX
  8
0
 10
5.7239
 20
7.78629
 30
0.0
 40
0.00513889
 41
0.00513889
  0
SEQEND
 8
0
  0
POLYLINE
  8
0
 62
     0
 66
     1
 10
0
 20
0
 30
0.0
 40
0.37
 41
0.37
  0
VERTEX
  8
0
 10
5.84196
 20
7.75353
 30
0.0
 40
0.00513889
 41
0.00513889
  0
VERTEX
  8
0
 10
5.84337
 20
7.74397
 30
0.0
 40
0.00513889
 41
0.00513889
  0
VERTEX
  8
0
 10
5.84728
 20
7.73492
 30
0.0
 40
0.00513889
 41
0.00513889
  0
VERTEX
  8
0
 10
5.85351
 20
7.72743
 30
0.0
 40
0.00513889
 41
0.00513889
  0
VERTEX
  8
0
 10
5.86154
 20
7.7219
 30
0.0
 40
0.00513889
 41
0.00513889
  0
VERTEX
  8
0
 10
5.87071
 20
7.71881
 30
0.0
 40
0.00513889
 41
0.00513889
  0
VERTEX
  8
0
 10
5.87756
 20
7.7181
 30
0.0
 40
0.00513889
 41
0.00513889
  0
SEQEND
 8
0
  0
POLYLINE
  8
0
 62
     0
 66
     1
 10
0
 20
0
 30
0.0
 40
0.37
 41
0.37
  0
VERTEX
  8
0
 10
5.68847
 20
7.7181
 30
0.0
 40
0.00513889
 41
0.00513889
  0
VERTEX
  8
0
 10
5.69824
 20
7.71951
 30
0.0
 40
0.00513889
 41
0.00513889
  0
VERTEX
  8
0
 10
5.70714
 20
7.72342
 30
0.0
 40
0.00513889
 41
0.00513889
  0
VERTEX
  8
0
 10
5.71463
 20
7.72965
 30
0.0
 40
0.00513889
 41
0.00513889
  0
VERTEX
  8
0
 10
5.72017
 20
7.73757
 30
0.0
 40
0.00513889
 41
0.00513889
  0
VERTEX
  8
0
 10
5.72319
 20
7.74685
 30
0.0
 40
0.00513889
 41
0.00513889
  0
VERTEX
  8
0
 10
5.7239
 20
7.75353
 30
0.0
 40
0.00513889
 41
0.00513889
  0
SEQEND
 8
0
  0
POLYLINE
  8
0
 62
     0
 66
     1
 10
0
 20
0
 30
0.0
 40
0.37
 41
0.37
  0
VERTEX
  8
0
 10
5.49544
 20
6.93593
 30
0.0
 40
0.00513889
 41
0.00513889
  0
VERTEX
  8
0
 10
5.49544
 20
6.5491
 30
0.0
 40
0.00513889
 41
0.00513889
  0
SEQEND
 8
0
  0
POLYLINE
  8
0
 62
     0
 66
     1
 10
0
 20
0
 30
0.0
 40
0.37
 41
0.37
  0
VERTEX
  8
0
 10
5.49544
 20
6.5491
 30
0.0
 40
0.00513889
 41
0.00513889
  0
VERTEX
  8
0
 10
5.5574
 20
6.48714
 30
0.0
 40
0.00513889
 41
0.00513889
  0
SEQEND
 8
0
  0
POLYLINE
  8
0
 62
     0
 66
     1
 10
0
 20
0
 30
0.0
 40
0.37
 41
0.37
  0
VERTEX
  8
0
 10
5.5574
 20
6.48714
 30
0.0
 40
0.00513889
 41
0.00513889
  0
VERTEX
  8
0
 10
5.61947
 20
6.5491
 30
0.0
 40
0.00513889
 41
0.00513889
  0
SEQEND
 8
0
  0
POLYLINE
  8
0
 62
     0
 66
     1
 10
0
 20
0
 30
0.0
 40
0.37
 41
0.37
  0
VERTEX
  8
0
 10
5.61947
 20
6.5491
 30
0.0
 40
0.00513889
 41
0.00513889
  0
VERTEX
  8
0
 10
5.61947
 20
6.93593
 30
0.0
 40
0.00513889
 41
0.00513889
  0
SEQEND
 8
0
  0
POLYLINE
  8
0
 62
     0
 66
     1
 10
0
 20
0
 30
0.0
 40
0.37
 41
0.37
  0
VERTEX
  8
0
 10
5.25558
 20
6.70578
 30
0.0
 40
0.00513889
 41
0.00513889
  0
VERTEX
  8
0
 10
5.25558
 20
6.74522
 30
0.0
 40
0.00513889
 41
0.00513889
  0
SEQEND
 8
0
  0
POLYLINE
  8
0
 62
     0
 66
     1
 10
0
 20
0
 30
0.0
 40
0.37
 41
0.37
  0
VERTEX
  8
0
 10
5.25558
 20
6.7845
 30
0.0
 40
0.00513889
 41
0.00513889
  0
VERTEX
  8
0
 10
5.25558
 20
6.90978
 30
0.0
 40
0.00513889
 41
0.00513889
  0
SEQEND
 8
0
  0
POLYLINE
  8
0
 62
     0
 66
     1
 10
0
 20
0
 30
0.0
 40
0.37
 41
0.37
  0
VERTEX
  8
0
 10
5.25558
 20
6.66644
 30
0.0
 40
0.00513889
 41
0.00513889
  0
VERTEX
  8
0
 10
5.25558
 20
6.54135
 30
0.0
 40
0.00513889
 41
0.00513889
  0
SEQEND
 8
0
  0
POLYLINE
  8
0
 62
     0
 66
     1
 10
0
 20
0
 30
0.0
 40
0.37
 41
0.37
  0
VERTEX
  8
0
 10
5.30935
 20
8.51492
 30
0.0
 40
0.00513889
 41
0.00513889
  0
VERTEX
  8
0
 10
5.20182
 20
8.51492
 30
0.0
 40
0.00513889
 41
0.00513889
  0
SEQEND
 8
0
  0
POLYLINE
  8
0
 62
     0
 66
     1
 10
0
 20
0
 30
0.0
 40
0.37
 41
0.37
  0
VERTEX
  8
0
 10
5.25558
 20
8.56868
 30
0.0
 40
0.00513889
 41
0.00513889
  0
VERTEX
  8
0
 10
5.25558
 20
8.46115
 30
0.0
 40
0.00513889
 41
0.00513889
  0
SEQEND
 8
0
  0
POLYLINE
  8
0
 62
     0
 66
     1
 10
0
 20
0
 30
0.0
 40
0.37
 41
0.37
  0
VERTEX
  8
0
 10
5.49186
 20
7.68246
 30
0.0
 40
0.00513889
 41
0.00513889
  0
VERTEX
  8
0
 10
5.49186
 20
7.68212
 30
0.0
 40
0.00513889
 41
0.00513889
  0
SEQEND
 8
0
  0
POLYLINE
  8
0
 62
     0
 66
     1
 10
0
 20
0
 30
0.0
 40
0.37
 41
0.37
  0
VERTEX
  8
0
 10
5.01947
 20
7.68246
 30
0.0
 40
0.00513889
 41
0.00513889
  0
VERTEX
  8
0
 10
5.01947
 20
7.68212
 30
0.0
 40
0.00513889
 41
0.00513889
  0
SEQEND
 8
0
  0
POLYLINE
  8
0
 62
     0
 66
     1
 10
0
 20
0
 30
0.0
 40
0.99
 41
0.99
  0
VERTEX
  8
0
 10
6.40283
 20
7.29243
 30
0.0
 40
0.01375
 41
0.01375
  0
VERTEX
  8
0
 10
6.08242
 20
7.29243
 30
0.0
 40
0.01375
 41
0.01375
  0
SEQEND
 8
0
  0
POLYLINE
  8
0
 62
     0
 66
     1
 10
0
 20
0
 30
0.0
 40
0.99
 41
0.99
  0
VERTEX
  8
0
 10
4.42893
 20
7.29243
 30
0.0
 40
0.01375
 41
0.01375
  0
VERTEX
  8
0
 10
4.42893
 20
7.46967
 30
0.0
 40
0.01375
 41
0.01375
  0
SEQEND
 8
0
  0
POLYLINE
  8
0
 62
     0
 66
     1
 10
0
 20
0
 30
0.0
 40
0.99
 41
0.99
  0
VERTEX
  8
0
 10
6.08242
 20
7.29243
 30
0.0
 40
0.01375
 41
0.01375
  0
VERTEX
  8
0
 10
6.08242
 20
7.46967
 30
0.0
 40
0.01375
 41
0.01375
  0
SEQEND
 8
0
  0
POLYLINE
  8
0
 62
     0
 66
     1
 10
0
 20
0
 30
0.0
 40
0.99
 41
0.99
  0
VERTEX
  8
0
 10
6.08242
 20
7.46967
 30
0.0
 40
0.01375
 41
0.01375
  0
VERTEX
  8
0
 10
6.39671
 20
7.46967
 30
0.0
 40
0.01375
 41
0.01375
  0
SEQEND
 8
0
  0
POLYLINE
  8
0
 62
     0
 66
     1
 10
0
 20
0
 30
0.0
 40
0.99
 41
0.99
  0
VERTEX
  8
0
 10
4.42893
 20
7.29243
 30
0.0
 40
0.01375
 41
0.01375
  0
VERTEX
  8
0
 10
3.98335
 20
7.29243
 30
0.0
 40
0.01375
 41
0.01375
  0
SEQEND
 8
0
  0
POLYLINE
  8
0
 62
     0
 66
     1
 10
0
 20
0
 30
0.0
 40
0.99
 41
0.99
  0
VERTEX
  8
0
 10
4.42893
 20
7.46967
 30
0.0
 40
0.01375
 41
0.01375
  0
VERTEX
  8
0
 10
3.99311
 20
7.46967
 30
0.0
 40
0.01375
 41
0.01375
  0
SEQEND
 8
0
  0
ENDSEC
  0
EOF
