  0
SECTION
  2
HEADER
  9
$ACADVER
  1
AC1009
  9
$FILLMODE
 70
 0
  9
$SPLFRAME
 70
 1
  9
$EXTMIN
 10
0
 20
0
 30
0.0
  9
$EXTMAX
 10
41.6667
 20
41.6667
 30
0.0
  0
ENDSEC
  0
SECTION
  2
TABLES
  0
TABLE
  2
LAYER
 70
1
  0
LAYER
  2
0
 70
     0
 62
     7
  6
CONTINUOUS
  0
ENDTAB
  0
ENDSEC
  0
SECTION
  2
ENTITIES
  0
POLYLINE
  8
0
 62
     0
 66
     1
 10
0
 20
0
 30
0.0
 40
0.37
 41
0.37
  0
VERTEX
  8
0
 10
5.67828
 20
6.85633
 30
0.0
 40
0.00513889
 41
0.00513889
  0
VERTEX
  8
0
 10
5.69769
 20
6.86757
 30
0.0
 40
0.00513889
 41
0.00513889
  0
SEQEND
 8
0
  0
POLYLINE
  8
0
 62
     0
 66
     1
 10
0
 20
0
 30
0.0
 40
0.37
 41
0.37
  0
VERTEX
  8
0
 10
5.35715
 20
6.76188
 30
0.0
 40
0.00513889
 41
0.00513889
  0
VERTEX
  8
0
 10
5.38661
 20
6.77897
 30
0.0
 40
0.00513889
 41
0.00513889
  0
SEQEND
 8
0
  0
POLYLINE
  8
0
 62
     0
 66
     1
 10
0
 20
0
 30
0.0
 40
0.37
 41
0.37
  0
VERTEX
  8
0
 10
5.52078
 20
6.85633
 30
0.0
 40
0.00513889
 41
0.00513889
  0
VERTEX
  8
0
 10
5.65229
 20
6.93229
 30
0.0
 40
0.00513889
 41
0.00513889
  0
SEQEND
 8
0
  0
POLYLINE
  8
0
 62
     0
 66
     1
 10
0
 20
0
 30
0.0
 40
0.37
 41
0.37
  0
VERTEX
  8
0
 10
5.27344
 20
6.80453
 30
0.0
 40
0.00513889
 41
0.00513889
  0
VERTEX
  8
0
 10
5.52815
 20
6.95144
 30
0.0
 40
0.00513889
 41
0.00513889
  0
SEQEND
 8
0
  0
POLYLINE
  8
0
 62
     0
 66
     1
 10
0
 20
0
 30
0.0
 40
0.37
 41
0.37
  0
VERTEX
  8
0
 10
5.20578
 20
6.85633
 30
0.0
 40
0.00513889
 41
0.00513889
  0
VERTEX
  8
0
 10
5.37244
 20
6.95258
 30
0.0
 40
0.00513889
 41
0.00513889
  0
SEQEND
 8
0
  0
POLYLINE
  8
0
 62
     0
 66
     1
 10
0
 20
0
 30
0.0
 40
0.37
 41
0.37
  0
VERTEX
  8
0
 10
5.38146
 20
6.95785
 30
0.0
 40
0.00513889
 41
0.00513889
  0
VERTEX
  8
0
 10
5.38271
 20
6.95856
 30
0.0
 40
0.00513889
 41
0.00513889
  0
SEQEND
 8
0
  0
POLYLINE
  8
0
 62
     0
 66
     1
 10
0
 20
0
 30
0.0
 40
0.37
 41
0.37
  0
VERTEX
  8
0
 10
5.20117
 20
6.94467
 30
0.0
 40
0.00513889
 41
0.00513889
  0
VERTEX
  8
0
 10
5.28065
 20
6.9905
 30
0.0
 40
0.00513889
 41
0.00513889
  0
SEQEND
 8
0
  0
POLYLINE
  8
0
 62
     0
 66
     1
 10
0
 20
0
 30
0.0
 40
0.37
 41
0.37
  0
VERTEX
  8
0
 10
5.20117
 20
7.03564
 30
0.0
 40
0.00513889
 41
0.00513889
  0
VERTEX
  8
0
 10
5.27604
 20
7.07883
 30
0.0
 40
0.00513889
 41
0.00513889
  0
SEQEND
 8
0
  0
POLYLINE
  8
0
 62
     0
 66
     1
 10
0
 20
0
 30
0.0
 40
0.37
 41
0.37
  0
VERTEX
  8
0
 10
5.20117
 20
7.12646
 30
0.0
 40
0.00513889
 41
0.00513889
  0
VERTEX
  8
0
 10
5.27132
 20
7.16699
 30
0.0
 40
0.00513889
 41
0.00513889
  0
SEQEND
 8
0
  0
POLYLINE
  8
0
 62
     0
 66
     1
 10
0
 20
0
 30
0.0
 40
0.37
 41
0.37
  0
VERTEX
  8
0
 10
5.13519
 20
7.12185
 30
0.0
 40
0.00513889
 41
0.00513889
  0
VERTEX
  8
0
 10
5.15853
 20
7.16228
 30
0.0
 40
0.00513889
 41
0.00513889
  0
SEQEND
 8
0
  0
POLYLINE
  8
0
 62
     0
 66
     1
 10
0
 20
0
 30
0.0
 40
0.37
 41
0.37
  0
VERTEX
  8
0
 10
4.84343
 20
6.61632
 30
0.0
 40
0.00513889
 41
0.00513889
  0
VERTEX
  8
0
 10
4.96149
 20
6.82075
 30
0.0
 40
0.00513889
 41
0.00513889
  0
SEQEND
 8
0
  0
POLYLINE
  8
0
 62
     0
 66
     1
 10
0
 20
0
 30
0.0
 40
0.37
 41
0.37
  0
VERTEX
  8
0
 10
5.5905
 20
6.30658
 30
0.0
 40
0.00513889
 41
0.00513889
  0
VERTEX
  8
0
 10
5.64051
 20
6.25662
 30
0.0
 40
0.00513889
 41
0.00513889
  0
SEQEND
 8
0
  0
POLYLINE
  8
0
 62
     0
 66
     1
 10
0
 20
0
 30
0.0
 40
0.37
 41
0.37
  0
VERTEX
  8
0
 10
5.59924
 20
6.40924
 30
0.0
 40
0.00513889
 41
0.00513889
  0
VERTEX
  8
0
 10
5.65229
 20
6.35618
 30
0.0
 40
0.00513889
 41
0.00513889
  0
SEQEND
 8
0
  0
POLYLINE
  8
0
 62
     0
 66
     1
 10
0
 20
0
 30
0.0
 40
0.37
 41
0.37
  0
VERTEX
  8
0
 10
5.60519
 20
6.51465
 30
0.0
 40
0.00513889
 41
0.00513889
  0
VERTEX
  8
0
 10
5.6651
 20
6.45481
 30
0.0
 40
0.00513889
 41
0.00513889
  0
SEQEND
 8
0
  0
POLYLINE
  8
0
 62
     0
 66
     1
 10
0
 20
0
 30
0.0
 40
0.37
 41
0.37
  0
VERTEX
  8
0
 10
5.62869
 20
6.60243
 30
0.0
 40
0.00513889
 41
0.00513889
  0
VERTEX
  8
0
 10
5.67899
 20
6.55214
 30
0.0
 40
0.00513889
 41
0.00513889
  0
SEQEND
 8
0
  0
POLYLINE
  8
0
 62
     0
 66
     1
 10
0
 20
0
 30
0.0
 40
0.37
 41
0.37
  0
VERTEX
  8
0
 10
5.65218
 20
6.69021
 30
0.0
 40
0.00513889
 41
0.00513889
  0
VERTEX
  8
0
 10
5.70053
 20
6.64204
 30
0.0
 40
0.00513889
 41
0.00513889
  0
SEQEND
 8
0
  0
POLYLINE
  8
0
 62
     0
 66
     1
 10
0
 20
0
 30
0.0
 40
0.37
 41
0.37
  0
VERTEX
  8
0
 10
5.67578
 20
6.7781
 30
0.0
 40
0.00513889
 41
0.00513889
  0
VERTEX
  8
0
 10
5.72396
 20
6.72993
 30
0.0
 40
0.00513889
 41
0.00513889
  0
SEQEND
 8
0
  0
POLYLINE
  8
0
 62
     0
 66
     1
 10
0
 20
0
 30
0.0
 40
0.37
 41
0.37
  0
VERTEX
  8
0
 10
5.72661
 20
6.83871
 30
0.0
 40
0.00513889
 41
0.00513889
  0
VERTEX
  8
0
 10
5.79742
 20
6.76785
 30
0.0
 40
0.00513889
 41
0.00513889
  0
SEQEND
 8
0
  0
POLYLINE
  8
0
 62
     0
 66
     1
 10
0
 20
0
 30
0.0
 40
0.37
 41
0.37
  0
VERTEX
  8
0
 10
4.96442
 20
6.26454
 30
0.0
 40
0.00513889
 41
0.00513889
  0
VERTEX
  8
0
 10
5.07411
 20
6.15479
 30
0.0
 40
0.00513889
 41
0.00513889
  0
SEQEND
 8
0
  0
POLYLINE
  8
0
 62
     0
 66
     1
 10
0
 20
0
 30
0.0
 40
0.37
 41
0.37
  0
VERTEX
  8
0
 10
4.96442
 20
6.37592
 30
0.0
 40
0.00513889
 41
0.00513889
  0
VERTEX
  8
0
 10
5.03831
 20
6.30203
 30
0.0
 40
0.00513889
 41
0.00513889
  0
SEQEND
 8
0
  0
POLYLINE
  8
0
 62
     0
 66
     1
 10
0
 20
0
 30
0.0
 40
0.37
 41
0.37
  0
VERTEX
  8
0
 10
5.058
 20
6.28244
 30
0.0
 40
0.00513889
 41
0.00513889
  0
VERTEX
  8
0
 10
5.13357
 20
6.20676
 30
0.0
 40
0.00513889
 41
0.00513889
  0
SEQEND
 8
0
  0
POLYLINE
  8
0
 62
     0
 66
     1
 10
0
 20
0
 30
0.0
 40
0.37
 41
0.37
  0
VERTEX
  8
0
 10
4.96442
 20
6.48731
 30
0.0
 40
0.00513889
 41
0.00513889
  0
VERTEX
  8
0
 10
5.03831
 20
6.41342
 30
0.0
 40
0.00513889
 41
0.00513889
  0
SEQEND
 8
0
  0
POLYLINE
  8
0
 62
     0
 66
     1
 10
0
 20
0
 30
0.0
 40
0.37
 41
0.37
  0
VERTEX
  8
0
 10
5.18576
 20
6.26579
 30
0.0
 40
0.00513889
 41
0.00513889
  0
VERTEX
  8
0
 10
5.24496
 20
6.20676
 30
0.0
 40
0.00513889
 41
0.00513889
  0
SEQEND
 8
0
  0
POLYLINE
  8
0
 62
     0
 66
     1
 10
0
 20
0
 30
0.0
 40
0.37
 41
0.37
  0
VERTEX
  8
0
 10
4.96442
 20
6.59853
 30
0.0
 40
0.00513889
 41
0.00513889
  0
VERTEX
  8
0
 10
5.03592
 20
6.52718
 30
0.0
 40
0.00513889
 41
0.00513889
  0
SEQEND
 8
0
  0
POLYLINE
  8
0
 62
     0
 66
     1
 10
0
 20
0
 30
0.0
 40
0.37
 41
0.37
  0
VERTEX
  8
0
 10
5.19769
 20
6.36535
 30
0.0
 40
0.00513889
 41
0.00513889
  0
VERTEX
  8
0
 10
5.31575
 20
6.24718
 30
0.0
 40
0.00513889
 41
0.00513889
  0
SEQEND
 8
0
  0
POLYLINE
  8
0
 62
     0
 66
     1
 10
0
 20
0
 30
0.0
 40
0.37
 41
0.37
  0
VERTEX
  8
0
 10
4.96442
 20
6.70996
 30
0.0
 40
0.00513889
 41
0.00513889
  0
VERTEX
  8
0
 10
5.0319
 20
6.64258
 30
0.0
 40
0.00513889
 41
0.00513889
  0
SEQEND
 8
0
  0
POLYLINE
  8
0
 62
     0
 66
     1
 10
0
 20
0
 30
0.0
 40
0.37
 41
0.37
  0
VERTEX
  8
0
 10
5.19769
 20
6.47672
 30
0.0
 40
0.00513889
 41
0.00513889
  0
VERTEX
  8
0
 10
5.31261
 20
6.36176
 30
0.0
 40
0.00513889
 41
0.00513889
  0
SEQEND
 8
0
  0
POLYLINE
  8
0
 62
     0
 66
     1
 10
0
 20
0
 30
0.0
 40
0.37
 41
0.37
  0
VERTEX
  8
0
 10
4.96442
 20
6.82135
 30
0.0
 40
0.00513889
 41
0.00513889
  0
VERTEX
  8
0
 10
5.00174
 20
6.78396
 30
0.0
 40
0.00513889
 41
0.00513889
  0
SEQEND
 8
0
  0
POLYLINE
  8
0
 62
     0
 66
     1
 10
0
 20
0
 30
0.0
 40
0.37
 41
0.37
  0
VERTEX
  8
0
 10
5.19769
 20
6.588
 30
0.0
 40
0.00513889
 41
0.00513889
  0
VERTEX
  8
0
 10
5.30647
 20
6.47922
 30
0.0
 40
0.00513889
 41
0.00513889
  0
SEQEND
 8
0
  0
POLYLINE
  8
0
 62
     0
 66
     1
 10
0
 20
0
 30
0.0
 40
0.37
 41
0.37
  0
VERTEX
  8
0
 10
5.19769
 20
6.69938
 30
0.0
 40
0.00513889
 41
0.00513889
  0
VERTEX
  8
0
 10
5.30035
 20
6.59674
 30
0.0
 40
0.00513889
 41
0.00513889
  0
SEQEND
 8
0
  0
POLYLINE
  8
0
 62
     0
 66
     1
 10
0
 20
0
 30
0.0
 40
0.37
 41
0.37
  0
VERTEX
  8
0
 10
5.19769
 20
6.81076
 30
0.0
 40
0.00513889
 41
0.00513889
  0
VERTEX
  8
0
 10
5.29411
 20
6.71425
 30
0.0
 40
0.00513889
 41
0.00513889
  0
SEQEND
 8
0
  0
POLYLINE
  8
0
 62
     3
 66
     1
 10
0
 20
0
 30
0.0
 70
     1
 40
0
 41
0
  0
VERTEX
  8
0
 10
5.37549
 20
6.16786
 30
0.0
 40
0
 41
0
  0
VERTEX
  8
0
 10
5.37549
 20
6.21272
 30
0.0
 40
0
 41
0
  0
VERTEX
  8
0
 10
5.51118
 20
6.21272
 30
0.0
 40
0
 41
0
  0
VERTEX
  8
0
 10
5.51118
 20
6.16786
 30
0.0
 40
0
 41
0
  0
VERTEX
  8
0
 10
5.53787
 20
6.16786
 30
0.0
 40
0
 41
0
  0
VERTEX
  8
0
 10
5.53787
 20
6.14774
 30
0.0
 40
0
 41
0
  0
VERTEX
  8
0
 10
5.34885
 20
6.14774
 30
0.0
 40
0
 41
0
  0
VERTEX
  8
0
 10
5.34885
 20
6.16786
 30
0.0
 40
0
 41
0
  0
VERTEX
  8
0
 10
5.37549
 20
6.16786
 30
0.0
 40
0
 41
0
  0
SEQEND
 8
0
  0
POLYLINE
  8
0
 62
     0
 66
     1
 10
0
 20
0
 30
0.0
 40
0.37
 41
0.37
  0
VERTEX
  8
0
 10
4.86257
 20
6.46658
 30
0.0
 40
0.00513889
 41
0.00513889
  0
VERTEX
  8
0
 10
4.86507
 20
6.45703
 30
0.0
 40
0.00513889
 41
0.00513889
  0
VERTEX
  8
0
 10
4.86774
 20
6.4476
 30
0.0
 40
0.00513889
 41
0.00513889
  0
VERTEX
  8
0
 10
4.8705
 20
6.43815
 30
0.0
 40
0.00513889
 41
0.00513889
  0
VERTEX
  8
0
 10
4.87343
 20
6.42871
 30
0.0
 40
0.00513889
 41
0.00513889
  0
VERTEX
  8
0
 10
4.87663
 20
6.41938
 30
0.0
 40
0.00513889
 41
0.00513889
  0
VERTEX
  8
0
 10
4.87978
 20
6.41004
 30
0.0
 40
0.00513889
 41
0.00513889
  0
VERTEX
  8
0
 10
4.88314
 20
6.40093
 30
0.0
 40
0.00513889
 41
0.00513889
  0
VERTEX
  8
0
 10
4.88672
 20
6.3916
 30
0.0
 40
0.00513889
 41
0.00513889
  0
VERTEX
  8
0
 10
4.89035
 20
6.3826
 30
0.0
 40
0.00513889
 41
0.00513889
  0
VERTEX
  8
0
 10
4.89426
 20
6.37343
 30
0.0
 40
0.00513889
 41
0.00513889
  0
VERTEX
  8
0
 10
4.89811
 20
6.36453
 30
0.0
 40
0.00513889
 41
0.00513889
  0
VERTEX
  8
0
 10
4.90229
 20
6.35547
 30
0.0
 40
0.00513889
 41
0.00513889
  0
VERTEX
  8
0
 10
4.90647
 20
6.34663
 30
0.0
 40
0.00513889
 41
0.00513889
  0
VERTEX
  8
0
 10
4.91092
 20
6.33783
 30
0.0
 40
0.00513889
 41
0.00513889
  0
SEQEND
 8
0
  0
POLYLINE
  8
0
 62
     0
 66
     1
 10
0
 20
0
 30
0.0
 40
0.37
 41
0.37
  0
VERTEX
  8
0
 10
4.92979
 20
6.30328
 30
0.0
 40
0.00513889
 41
0.00513889
  0
VERTEX
  8
0
 10
4.93494
 20
6.29482
 30
0.0
 40
0.00513889
 41
0.00513889
  0
VERTEX
  8
0
 10
4.94011
 20
6.28646
 30
0.0
 40
0.00513889
 41
0.00513889
  0
VERTEX
  8
0
 10
4.94547
 20
6.27826
 30
0.0
 40
0.00513889
 41
0.00513889
  0
VERTEX
  8
0
 10
4.9509
 20
6.27007
 30
0.0
 40
0.00513889
 41
0.00513889
  0
SEQEND
 8
0
  0
POLYLINE
  8
0
 62
     0
 66
     1
 10
0
 20
0
 30
0.0
 40
0.37
 41
0.37
  0
VERTEX
  8
0
 10
4.97396
 20
6.23812
 30
0.0
 40
0.00513889
 41
0.00513889
  0
VERTEX
  8
0
 10
4.98008
 20
6.23047
 30
0.0
 40
0.00513889
 41
0.00513889
  0
VERTEX
  8
0
 10
4.98633
 20
6.22288
 30
0.0
 40
0.00513889
 41
0.00513889
  0
VERTEX
  8
0
 10
4.99257
 20
6.21522
 30
0.0
 40
0.00513889
 41
0.00513889
  0
VERTEX
  8
0
 10
4.99914
 20
6.20785
 30
0.0
 40
0.00513889
 41
0.00513889
  0
VERTEX
  8
0
 10
5.00564
 20
6.20047
 30
0.0
 40
0.00513889
 41
0.00513889
  0
VERTEX
  8
0
 10
5.01232
 20
6.19325
 30
0.0
 40
0.00513889
 41
0.00513889
  0
VERTEX
  8
0
 10
5.0191
 20
6.18619
 30
0.0
 40
0.00513889
 41
0.00513889
  0
VERTEX
  8
0
 10
5.02604
 20
6.1791
 30
0.0
 40
0.00513889
 41
0.00513889
  0
VERTEX
  8
0
 10
5.03299
 20
6.17231
 30
0.0
 40
0.00513889
 41
0.00513889
  0
VERTEX
  8
0
 10
5.04021
 20
6.16547
 30
0.0
 40
0.00513889
 41
0.00513889
  0
VERTEX
  8
0
 10
5.04742
 20
6.15881
 30
0.0
 40
0.00513889
 41
0.00513889
  0
VERTEX
  8
0
 10
5.05479
 20
6.15218
 30
0.0
 40
0.00513889
 41
0.00513889
  0
VERTEX
  8
0
 10
5.06218
 20
6.14578
 30
0.0
 40
0.00513889
 41
0.00513889
  0
VERTEX
  8
0
 10
5.06967
 20
6.13938
 30
0.0
 40
0.00513889
 41
0.00513889
  0
VERTEX
  8
0
 10
5.07368
 20
6.13618
 30
0.0
 40
0.00513889
 41
0.00513889
  0
SEQEND
 8
0
  0
POLYLINE
  8
0
 62
     0
 66
     1
 10
0
 20
0
 30
0.0
 40
0.37
 41
0.37
  0
VERTEX
  8
0
 10
4.98508
 20
7.01606
 30
0.0
 40
0.00513889
 41
0.00513889
  0
VERTEX
  8
0
 10
4.97885
 20
7.0084
 30
0.0
 40
0.00513889
 41
0.00513889
  0
VERTEX
  8
0
 10
4.97287
 20
7.00065
 30
0.0
 40
0.00513889
 41
0.00513889
  0
VERTEX
  8
0
 10
4.9669
 20
6.99274
 30
0.0
 40
0.00513889
 41
0.00513889
  0
VERTEX
  8
0
 10
4.96149
 20
6.98535
 30
0.0
 40
0.00513889
 41
0.00513889
  0
SEQEND
 8
0
  0
POLYLINE
  8
0
 62
     0
 66
     1
 10
0
 20
0
 30
0.0
 40
0.37
 41
0.37
  0
VERTEX
  8
0
 10
5.07368
 20
7.10411
 30
0.0
 40
0.00513889
 41
0.00513889
  0
VERTEX
  8
0
 10
5.06608
 20
7.09788
 30
0.0
 40
0.00513889
 41
0.00513889
  0
VERTEX
  8
0
 10
5.05854
 20
7.09147
 30
0.0
 40
0.00513889
 41
0.00513889
  0
VERTEX
  8
0
 10
5.05122
 20
7.08496
 30
0.0
 40
0.00513889
 41
0.00513889
  0
VERTEX
  8
0
 10
5.04394
 20
7.0784
 30
0.0
 40
0.00513889
 41
0.00513889
  0
VERTEX
  8
0
 10
5.03674
 20
7.07161
 30
0.0
 40
0.00513889
 41
0.00513889
  0
VERTEX
  8
0
 10
5.02968
 20
7.06478
 30
0.0
 40
0.00513889
 41
0.00513889
  0
VERTEX
  8
0
 10
5.02274
 20
7.05783
 30
0.0
 40
0.00513889
 41
0.00513889
  0
VERTEX
  8
0
 10
5.0159
 20
7.05078
 30
0.0
 40
0.00513889
 41
0.00513889
  0
VERTEX
  8
0
 10
5.00911
 20
7.04357
 30
0.0
 40
0.00513889
 41
0.00513889
  0
VERTEX
  8
0
 10
5.00244
 20
7.03635
 30
0.0
 40
0.00513889
 41
0.00513889
  0
VERTEX
  8
0
 10
4.99593
 20
7.02897
 30
0.0
 40
0.00513889
 41
0.00513889
  0
VERTEX
  8
0
 10
4.98953
 20
7.02149
 30
0.0
 40
0.00513889
 41
0.00513889
  0
VERTEX
  8
0
 10
4.98508
 20
7.01606
 30
0.0
 40
0.00513889
 41
0.00513889
  0
SEQEND
 8
0
  0
POLYLINE
  8
0
 62
     0
 66
     1
 10
0
 20
0
 30
0.0
 40
0.37
 41
0.37
  0
VERTEX
  8
0
 10
5.61703
 20
6.20676
 30
0.0
 40
0.00513889
 41
0.00513889
  0
VERTEX
  8
0
 10
5.63465
 20
6.20676
 30
0.0
 40
0.00513889
 41
0.00513889
  0
SEQEND
 8
0
  0
POLYLINE
  8
0
 62
     0
 66
     1
 10
0
 20
0
 30
0.0
 40
0.37
 41
0.37
  0
VERTEX
  8
0
 10
5.52843
 20
6.20676
 30
0.0
 40
0.00513889
 41
0.00513889
  0
VERTEX
  8
0
 10
5.61703
 20
6.20676
 30
0.0
 40
0.00513889
 41
0.00513889
  0
SEQEND
 8
0
  0
POLYLINE
  8
0
 62
     0
 66
     1
 10
0
 20
0
 30
0.0
 40
0.37
 41
0.37
  0
VERTEX
  8
0
 10
5.52843
 20
6.20676
 30
0.0
 40
0.00513889
 41
0.00513889
  0
VERTEX
  8
0
 10
5.35118
 20
6.20676
 30
0.0
 40
0.00513889
 41
0.00513889
  0
SEQEND
 8
0
  0
POLYLINE
  8
0
 62
     0
 66
     1
 10
0
 20
0
 30
0.0
 40
0.37
 41
0.37
  0
VERTEX
  8
0
 10
5.26258
 20
6.20676
 30
0.0
 40
0.00513889
 41
0.00513889
  0
VERTEX
  8
0
 10
5.35118
 20
6.20676
 30
0.0
 40
0.00513889
 41
0.00513889
  0
SEQEND
 8
0
  0
POLYLINE
  8
0
 62
     0
 66
     1
 10
0
 20
0
 30
0.0
 40
0.37
 41
0.37
  0
VERTEX
  8
0
 10
5.13271
 20
6.20676
 30
0.0
 40
0.00513889
 41
0.00513889
  0
VERTEX
  8
0
 10
5.26258
 20
6.20676
 30
0.0
 40
0.00513889
 41
0.00513889
  0
SEQEND
 8
0
  0
POLYLINE
  8
0
 62
     0
 66
     1
 10
0
 20
0
 30
0.0
 40
0.37
 41
0.37
  0
VERTEX
  8
0
 10
5.63465
 20
6.20676
 30
0.0
 40
0.00513889
 41
0.00513889
  0
VERTEX
  8
0
 10
5.65826
 20
6.40756
 30
0.0
 40
0.00513889
 41
0.00513889
  0
SEQEND
 8
0
  0
POLYLINE
  8
0
 62
     0
 66
     1
 10
0
 20
0
 30
0.0
 40
0.37
 41
0.37
  0
VERTEX
  8
0
 10
5.58746
 20
6.23633
 30
0.0
 40
0.00513889
 41
0.00513889
  0
VERTEX
  8
0
 10
5.61703
 20
6.20676
 30
0.0
 40
0.00513889
 41
0.00513889
  0
SEQEND
 8
0
  0
POLYLINE
  8
0
 62
     0
 66
     1
 10
0
 20
0
 30
0.0
 40
0.37
 41
0.37
  0
VERTEX
  8
0
 10
5.56386
 20
6.23633
 30
0.0
 40
0.00513889
 41
0.00513889
  0
VERTEX
  8
0
 10
5.58746
 20
6.23633
 30
0.0
 40
0.00513889
 41
0.00513889
  0
SEQEND
 8
0
  0
POLYLINE
  8
0
 62
     0
 66
     1
 10
0
 20
0
 30
0.0
 40
0.37
 41
0.37
  0
VERTEX
  8
0
 10
5.56386
 20
6.30132
 30
0.0
 40
0.00513889
 41
0.00513889
  0
VERTEX
  8
0
 10
5.56386
 20
6.23633
 30
0.0
 40
0.00513889
 41
0.00513889
  0
SEQEND
 8
0
  0
POLYLINE
  8
0
 62
     0
 66
     1
 10
0
 20
0
 30
0.0
 40
0.37
 41
0.37
  0
VERTEX
  8
0
 10
5.57563
 20
6.30132
 30
0.0
 40
0.00513889
 41
0.00513889
  0
VERTEX
  8
0
 10
5.56386
 20
6.30132
 30
0.0
 40
0.00513889
 41
0.00513889
  0
SEQEND
 8
0
  0
POLYLINE
  8
0
 62
     0
 66
     1
 10
0
 20
0
 30
0.0
 40
0.37
 41
0.37
  0
VERTEX
  8
0
 10
5.57563
 20
6.30132
 30
0.0
 40
0.00513889
 41
0.00513889
  0
VERTEX
  8
0
 10
5.58507
 20
6.30328
 30
0.0
 40
0.00513889
 41
0.00513889
  0
VERTEX
  8
0
 10
5.59289
 20
6.30881
 30
0.0
 40
0.00513889
 41
0.00513889
  0
VERTEX
  8
0
 10
5.59788
 20
6.317
 30
0.0
 40
0.00513889
 41
0.00513889
  0
VERTEX
  8
0
 10
5.59924
 20
6.32493
 30
0.0
 40
0.00513889
 41
0.00513889
  0
SEQEND
 8
0
  0
POLYLINE
  8
0
 62
     0
 66
     1
 10
0
 20
0
 30
0.0
 40
0.37
 41
0.37
  0
VERTEX
  8
0
 10
5.59924
 20
6.32493
 30
0.0
 40
0.00513889
 41
0.00513889
  0
VERTEX
  8
0
 10
5.59924
 20
6.49257
 30
0.0
 40
0.00513889
 41
0.00513889
  0
SEQEND
 8
0
  0
POLYLINE
  8
0
 62
     0
 66
     1
 10
0
 20
0
 30
0.0
 40
0.37
 41
0.37
  0
VERTEX
  8
0
 10
5.59924
 20
6.49257
 30
0.0
 40
0.00513889
 41
0.00513889
  0
VERTEX
  8
0
 10
5.692
 20
6.83871
 30
0.0
 40
0.00513889
 41
0.00513889
  0
SEQEND
 8
0
  0
POLYLINE
  8
0
 62
     0
 66
     1
 10
0
 20
0
 30
0.0
 40
0.37
 41
0.37
  0
VERTEX
  8
0
 10
5.692
 20
6.83871
 30
0.0
 40
0.00513889
 41
0.00513889
  0
VERTEX
  8
0
 10
5.83371
 20
6.83871
 30
0.0
 40
0.00513889
 41
0.00513889
  0
SEQEND
 8
0
  0
POLYLINE
  8
0
 62
     0
 66
     1
 10
0
 20
0
 30
0.0
 40
0.37
 41
0.37
  0
VERTEX
  8
0
 10
5.83371
 20
6.83871
 30
0.0
 40
0.00513889
 41
0.00513889
  0
VERTEX
  8
0
 10
5.83371
 20
6.76785
 30
0.0
 40
0.00513889
 41
0.00513889
  0
SEQEND
 8
0
  0
POLYLINE
  8
0
 62
     0
 66
     1
 10
0
 20
0
 30
0.0
 40
0.37
 41
0.37
  0
VERTEX
  8
0
 10
5.83371
 20
6.76785
 30
0.0
 40
0.00513889
 41
0.00513889
  0
VERTEX
  8
0
 10
5.7341
 20
6.76785
 30
0.0
 40
0.00513889
 41
0.00513889
  0
SEQEND
 8
0
  0
POLYLINE
  8
0
 62
     0
 66
     1
 10
0
 20
0
 30
0.0
 40
0.37
 41
0.37
  0
VERTEX
  8
0
 10
5.7341
 20
6.76785
 30
0.0
 40
0.00513889
 41
0.00513889
  0
VERTEX
  8
0
 10
5.68192
 20
6.57286
 30
0.0
 40
0.00513889
 41
0.00513889
  0
SEQEND
 8
0
  0
POLYLINE
  8
0
 62
     0
 66
     1
 10
0
 20
0
 30
0.0
 40
0.37
 41
0.37
  0
VERTEX
  8
0
 10
5.68192
 20
6.57286
 30
0.0
 40
0.00513889
 41
0.00513889
  0
VERTEX
  8
0
 10
5.65826
 20
6.40756
 30
0.0
 40
0.00513889
 41
0.00513889
  0
SEQEND
 8
0
  0
POLYLINE
  8
0
 62
     0
 66
     1
 10
0
 20
0
 30
0.0
 40
0.37
 41
0.37
  0
VERTEX
  8
0
 10
5.29215
 20
6.23633
 30
0.0
 40
0.00513889
 41
0.00513889
  0
VERTEX
  8
0
 10
5.26258
 20
6.20676
 30
0.0
 40
0.00513889
 41
0.00513889
  0
SEQEND
 8
0
  0
POLYLINE
  8
0
 62
     0
 66
     1
 10
0
 20
0
 30
0.0
 40
0.37
 41
0.37
  0
VERTEX
  8
0
 10
4.96442
 20
6.25092
 30
0.0
 40
0.00513889
 41
0.00513889
  0
VERTEX
  8
0
 10
4.96442
 20
6.8209
 30
0.0
 40
0.00513889
 41
0.00513889
  0
SEQEND
 8
0
  0
POLYLINE
  8
0
 62
     0
 66
     1
 10
0
 20
0
 30
0.0
 40
0.37
 41
0.37
  0
VERTEX
  8
0
 10
4.97618
 20
6.83274
 30
0.0
 40
0.00513889
 41
0.00513889
  0
VERTEX
  8
0
 10
4.96789
 20
6.82926
 30
0.0
 40
0.00513889
 41
0.00513889
  0
VERTEX
  8
0
 10
4.96442
 20
6.8209
 30
0.0
 40
0.00513889
 41
0.00513889
  0
SEQEND
 8
0
  0
POLYLINE
  8
0
 62
     0
 66
     1
 10
0
 20
0
 30
0.0
 40
0.37
 41
0.37
  0
VERTEX
  8
0
 10
4.97618
 20
6.83274
 30
0.0
 40
0.00513889
 41
0.00513889
  0
VERTEX
  8
0
 10
4.97814
 20
6.83274
 30
0.0
 40
0.00513889
 41
0.00513889
  0
SEQEND
 8
0
  0
POLYLINE
  8
0
 62
     0
 66
     1
 10
0
 20
0
 30
0.0
 40
0.37
 41
0.37
  0
VERTEX
  8
0
 10
4.98936
 20
6.82438
 30
0.0
 40
0.00513889
 41
0.00513889
  0
VERTEX
  8
0
 10
4.98356
 20
6.83149
 30
0.0
 40
0.00513889
 41
0.00513889
  0
VERTEX
  8
0
 10
4.97814
 20
6.83274
 30
0.0
 40
0.00513889
 41
0.00513889
  0
SEQEND
 8
0
  0
POLYLINE
  8
0
 62
     0
 66
     1
 10
0
 20
0
 30
0.0
 40
0.37
 41
0.37
  0
VERTEX
  8
0
 10
4.98936
 20
6.82438
 30
0.0
 40
0.00513889
 41
0.00513889
  0
VERTEX
  8
0
 10
5.03006
 20
6.69103
 30
0.0
 40
0.00513889
 41
0.00513889
  0
SEQEND
 8
0
  0
POLYLINE
  8
0
 62
     0
 66
     1
 10
0
 20
0
 30
0.0
 40
0.37
 41
0.37
  0
VERTEX
  8
0
 10
5.03006
 20
6.69103
 30
0.0
 40
0.00513889
 41
0.00513889
  0
VERTEX
  8
0
 10
5.03831
 20
6.45953
 30
0.0
 40
0.00513889
 41
0.00513889
  0
SEQEND
 8
0
  0
POLYLINE
  8
0
 62
     0
 66
     1
 10
0
 20
0
 30
0.0
 40
0.37
 41
0.37
  0
VERTEX
  8
0
 10
5.03831
 20
6.45953
 30
0.0
 40
0.00513889
 41
0.00513889
  0
VERTEX
  8
0
 10
5.03831
 20
6.29422
 30
0.0
 40
0.00513889
 41
0.00513889
  0
SEQEND
 8
0
  0
POLYLINE
  8
0
 62
     0
 66
     1
 10
0
 20
0
 30
0.0
 40
0.37
 41
0.37
  0
VERTEX
  8
0
 10
5.03831
 20
6.29422
 30
0.0
 40
0.00513889
 41
0.00513889
  0
VERTEX
  8
0
 10
5.04178
 20
6.28575
 30
0.0
 40
0.00513889
 41
0.00513889
  0
VERTEX
  8
0
 10
5.05007
 20
6.28244
 30
0.0
 40
0.00513889
 41
0.00513889
  0
SEQEND
 8
0
  0
POLYLINE
  8
0
 62
     0
 66
     1
 10
0
 20
0
 30
0.0
 40
0.37
 41
0.37
  0
VERTEX
  8
0
 10
5.05007
 20
6.28244
 30
0.0
 40
0.00513889
 41
0.00513889
  0
VERTEX
  8
0
 10
5.09131
 20
6.28244
 30
0.0
 40
0.00513889
 41
0.00513889
  0
SEQEND
 8
0
  0
POLYLINE
  8
0
 62
     0
 66
     1
 10
0
 20
0
 30
0.0
 40
0.37
 41
0.37
  0
VERTEX
  8
0
 10
5.09131
 20
6.28244
 30
0.0
 40
0.00513889
 41
0.00513889
  0
VERTEX
  8
0
 10
5.09131
 20
6.26579
 30
0.0
 40
0.00513889
 41
0.00513889
  0
SEQEND
 8
0
  0
POLYLINE
  8
0
 62
     0
 66
     1
 10
0
 20
0
 30
0.0
 40
0.37
 41
0.37
  0
VERTEX
  8
0
 10
5.09131
 20
6.26579
 30
0.0
 40
0.00513889
 41
0.00513889
  0
VERTEX
  8
0
 10
5.19769
 20
6.26579
 30
0.0
 40
0.00513889
 41
0.00513889
  0
SEQEND
 8
0
  0
POLYLINE
  8
0
 62
     0
 66
     1
 10
0
 20
0
 30
0.0
 40
0.37
 41
0.37
  0
VERTEX
  8
0
 10
5.19769
 20
6.85633
 30
0.0
 40
0.00513889
 41
0.00513889
  0
VERTEX
  8
0
 10
5.19769
 20
6.26579
 30
0.0
 40
0.00513889
 41
0.00513889
  0
SEQEND
 8
0
  0
POLYLINE
  8
0
 62
     0
 66
     1
 10
0
 20
0
 30
0.0
 40
0.37
 41
0.37
  0
VERTEX
  8
0
 10
5.19769
 20
6.85633
 30
0.0
 40
0.00513889
 41
0.00513889
  0
VERTEX
  8
0
 10
5.24274
 20
6.85633
 30
0.0
 40
0.00513889
 41
0.00513889
  0
SEQEND
 8
0
  0
POLYLINE
  8
0
 62
     0
 66
     1
 10
0
 20
0
 30
0.0
 40
0.37
 41
0.37
  0
VERTEX
  8
0
 10
5.26856
 20
6.78549
 30
0.0
 40
0.00513889
 41
0.00513889
  0
VERTEX
  8
0
 10
5.24274
 20
6.85633
 30
0.0
 40
0.00513889
 41
0.00513889
  0
SEQEND
 8
0
  0
POLYLINE
  8
0
 62
     0
 66
     1
 10
0
 20
0
 30
0.0
 40
0.37
 41
0.37
  0
VERTEX
  8
0
 10
5.29036
 20
6.78549
 30
0.0
 40
0.00513889
 41
0.00513889
  0
VERTEX
  8
0
 10
5.26856
 20
6.78549
 30
0.0
 40
0.00513889
 41
0.00513889
  0
SEQEND
 8
0
  0
POLYLINE
  8
0
 62
     0
 66
     1
 10
0
 20
0
 30
0.0
 40
0.37
 41
0.37
  0
VERTEX
  8
0
 10
5.31467
 20
6.32368
 30
0.0
 40
0.00513889
 41
0.00513889
  0
VERTEX
  8
0
 10
5.29036
 20
6.78549
 30
0.0
 40
0.00513889
 41
0.00513889
  0
SEQEND
 8
0
  0
POLYLINE
  8
0
 62
     0
 66
     1
 10
0
 20
0
 30
0.0
 40
0.37
 41
0.37
  0
VERTEX
  8
0
 10
5.31467
 20
6.32368
 30
0.0
 40
0.00513889
 41
0.00513889
  0
VERTEX
  8
0
 10
5.31575
 20
6.31743
 30
0.0
 40
0.00513889
 41
0.00513889
  0
SEQEND
 8
0
  0
POLYLINE
  8
0
 62
     0
 66
     1
 10
0
 20
0
 30
0.0
 40
0.37
 41
0.37
  0
VERTEX
  8
0
 10
5.31575
 20
6.23633
 30
0.0
 40
0.00513889
 41
0.00513889
  0
VERTEX
  8
0
 10
5.31575
 20
6.31743
 30
0.0
 40
0.00513889
 41
0.00513889
  0
SEQEND
 8
0
  0
POLYLINE
  8
0
 62
     0
 66
     1
 10
0
 20
0
 30
0.0
 40
0.37
 41
0.37
  0
VERTEX
  8
0
 10
5.29215
 20
6.23633
 30
0.0
 40
0.00513889
 41
0.00513889
  0
VERTEX
  8
0
 10
5.31575
 20
6.23633
 30
0.0
 40
0.00513889
 41
0.00513889
  0
SEQEND
 8
0
  0
POLYLINE
  8
0
 62
     0
 66
     1
 10
0
 20
0
 30
0.0
 40
0.37
 41
0.37
  0
VERTEX
  8
0
 10
5.13271
 20
6.20676
 30
0.0
 40
0.00513889
 41
0.00513889
  0
VERTEX
  8
0
 10
5.12299
 20
6.20589
 30
0.0
 40
0.00513889
 41
0.00513889
  0
VERTEX
  8
0
 10
5.11339
 20
6.20356
 30
0.0
 40
0.00513889
 41
0.00513889
  0
VERTEX
  8
0
 10
5.10454
 20
6.19949
 30
0.0
 40
0.00513889
 41
0.00513889
  0
VERTEX
  8
0
 10
5.09636
 20
6.19422
 30
0.0
 40
0.00513889
 41
0.00513889
  0
VERTEX
  8
0
 10
5.08908
 20
6.18756
 30
0.0
 40
0.00513889
 41
0.00513889
  0
VERTEX
  8
0
 10
5.08311
 20
6.17979
 30
0.0
 40
0.00513889
 41
0.00513889
  0
VERTEX
  8
0
 10
5.0784
 20
6.17106
 30
0.0
 40
0.00513889
 41
0.00513889
  0
VERTEX
  8
0
 10
5.07536
 20
6.16174
 30
0.0
 40
0.00513889
 41
0.00513889
  0
VERTEX
  8
0
 10
5.07383
 20
6.15218
 30
0.0
 40
0.00513889
 41
0.00513889
  0
VERTEX
  8
0
 10
5.07368
 20
6.14774
 30
0.0
 40
0.00513889
 41
0.00513889
  0
SEQEND
 8
0
  0
POLYLINE
  8
0
 62
     0
 66
     1
 10
0
 20
0
 30
0.0
 40
0.37
 41
0.37
  0
VERTEX
  8
0
 10
5.60688
 20
6.85633
 30
0.0
 40
0.00513889
 41
0.00513889
  0
VERTEX
  8
0
 10
5.76633
 20
6.85633
 30
0.0
 40
0.00513889
 41
0.00513889
  0
SEQEND
 8
0
  0
POLYLINE
  8
0
 62
     0
 66
     1
 10
0
 20
0
 30
0.0
 40
0.37
 41
0.37
  0
VERTEX
  8
0
 10
5.60021
 20
6.85633
 30
0.0
 40
0.00513889
 41
0.00513889
  0
VERTEX
  8
0
 10
5.60688
 20
6.85633
 30
0.0
 40
0.00513889
 41
0.00513889
  0
SEQEND
 8
0
  0
POLYLINE
  8
0
 62
     0
 66
     1
 10
0
 20
0
 30
0.0
 40
0.37
 41
0.37
  0
VERTEX
  8
0
 10
5.24274
 20
6.85633
 30
0.0
 40
0.00513889
 41
0.00513889
  0
VERTEX
  8
0
 10
5.2545
 20
6.85633
 30
0.0
 40
0.00513889
 41
0.00513889
  0
SEQEND
 8
0
  0
POLYLINE
  8
0
 62
     0
 66
     1
 10
0
 20
0
 30
0.0
 40
0.37
 41
0.37
  0
VERTEX
  8
0
 10
5.76633
 20
6.73828
 30
0.0
 40
0.00513889
 41
0.00513889
  0
VERTEX
  8
0
 10
5.76633
 20
6.76785
 30
0.0
 40
0.00513889
 41
0.00513889
  0
SEQEND
 8
0
  0
POLYLINE
  8
0
 62
     0
 66
     1
 10
0
 20
0
 30
0.0
 40
0.37
 41
0.37
  0
VERTEX
  8
0
 10
5.76633
 20
6.83871
 30
0.0
 40
0.00513889
 41
0.00513889
  0
VERTEX
  8
0
 10
5.76633
 20
6.85633
 30
0.0
 40
0.00513889
 41
0.00513889
  0
SEQEND
 8
0
  0
POLYLINE
  8
0
 62
     0
 66
     1
 10
0
 20
0
 30
0.0
 40
0.37
 41
0.37
  0
VERTEX
  8
0
 10
5.65826
 20
6.73828
 30
0.0
 40
0.00513889
 41
0.00513889
  0
VERTEX
  8
0
 10
5.6651
 20
6.73828
 30
0.0
 40
0.00513889
 41
0.00513889
  0
SEQEND
 8
0
  0
POLYLINE
  8
0
 62
     0
 66
     1
 10
0
 20
0
 30
0.0
 40
0.37
 41
0.37
  0
VERTEX
  8
0
 10
5.72618
 20
6.73828
 30
0.0
 40
0.00513889
 41
0.00513889
  0
VERTEX
  8
0
 10
5.76633
 20
6.73828
 30
0.0
 40
0.00513889
 41
0.00513889
  0
SEQEND
 8
0
  0
POLYLINE
  8
0
 62
     0
 66
     1
 10
0
 20
0
 30
0.0
 40
0.37
 41
0.37
  0
VERTEX
  8
0
 10
5.65826
 20
6.73828
 30
0.0
 40
0.00513889
 41
0.00513889
  0
VERTEX
  8
0
 10
5.65826
 20
6.713
 30
0.0
 40
0.00513889
 41
0.00513889
  0
SEQEND
 8
0
  0
POLYLINE
  8
0
 62
     0
 66
     1
 10
0
 20
0
 30
0.0
 40
0.37
 41
0.37
  0
VERTEX
  8
0
 10
5.59924
 20
6.83274
 30
0.0
 40
0.00513889
 41
0.00513889
  0
VERTEX
  8
0
 10
5.58979
 20
6.81646
 30
0.0
 40
0.00513889
 41
0.00513889
  0
SEQEND
 8
0
  0
POLYLINE
  8
0
 62
     0
 66
     1
 10
0
 20
0
 30
0.0
 40
0.37
 41
0.37
  0
VERTEX
  8
0
 10
5.59924
 20
6.83274
 30
0.0
 40
0.00513889
 41
0.00513889
  0
VERTEX
  8
0
 10
5.60688
 20
6.85633
 30
0.0
 40
0.00513889
 41
0.00513889
  0
SEQEND
 8
0
  0
POLYLINE
  8
0
 62
     0
 66
     1
 10
0
 20
0
 30
0.0
 40
0.37
 41
0.37
  0
VERTEX
  8
0
 10
5.59413
 20
6.32368
 30
0.0
 40
0.00513889
 41
0.00513889
  0
VERTEX
  8
0
 10
5.59924
 20
6.32368
 30
0.0
 40
0.00513889
 41
0.00513889
  0
SEQEND
 8
0
  0
POLYLINE
  8
0
 62
     0
 66
     1
 10
0
 20
0
 30
0.0
 40
0.37
 41
0.37
  0
VERTEX
  8
0
 10
5.72325
 20
6.50439
 30
0.0
 40
0.00513889
 41
0.00513889
  0
VERTEX
  8
0
 10
5.65826
 20
6.40756
 30
0.0
 40
0.00513889
 41
0.00513889
  0
SEQEND
 8
0
  0
POLYLINE
  8
0
 62
     0
 66
     1
 10
0
 20
0
 30
0.0
 40
0.37
 41
0.37
  0
VERTEX
  8
0
 10
4.96149
 20
6.8209
 30
0.0
 40
0.00513889
 41
0.00513889
  0
VERTEX
  8
0
 10
4.96442
 20
6.8209
 30
0.0
 40
0.00513889
 41
0.00513889
  0
SEQEND
 8
0
  0
POLYLINE
  8
0
 62
     0
 66
     1
 10
0
 20
0
 30
0.0
 40
0.37
 41
0.37
  0
VERTEX
  8
0
 10
4.96149
 20
6.83274
 30
0.0
 40
0.00513889
 41
0.00513889
  0
VERTEX
  8
0
 10
4.97618
 20
6.83274
 30
0.0
 40
0.00513889
 41
0.00513889
  0
SEQEND
 8
0
  0
POLYLINE
  8
0
 62
     0
 66
     1
 10
0
 20
0
 30
0.0
 40
0.37
 41
0.37
  0
VERTEX
  8
0
 10
5.33203
 20
6.78549
 30
0.0
 40
0.00513889
 41
0.00513889
  0
VERTEX
  8
0
 10
5.31575
 20
6.78549
 30
0.0
 40
0.00513889
 41
0.00513889
  0
SEQEND
 8
0
  0
POLYLINE
  8
0
 62
     0
 66
     1
 10
0
 20
0
 30
0.0
 40
0.37
 41
0.37
  0
VERTEX
  8
0
 10
5.31575
 20
6.78549
 30
0.0
 40
0.00513889
 41
0.00513889
  0
VERTEX
  8
0
 10
5.31413
 20
6.78549
 30
0.0
 40
0.00513889
 41
0.00513889
  0
SEQEND
 8
0
  0
POLYLINE
  8
0
 62
     0
 66
     1
 10
0
 20
0
 30
0.0
 40
0.37
 41
0.37
  0
VERTEX
  8
0
 10
5.31413
 20
6.78549
 30
0.0
 40
0.00513889
 41
0.00513889
  0
VERTEX
  8
0
 10
5.29036
 20
6.78549
 30
0.0
 40
0.00513889
 41
0.00513889
  0
SEQEND
 8
0
  0
POLYLINE
  8
0
 62
     0
 66
     1
 10
0
 20
0
 30
0.0
 40
0.37
 41
0.37
  0
VERTEX
  8
0
 10
5.17464
 20
6.92731
 30
0.0
 40
0.00513889
 41
0.00513889
  0
VERTEX
  8
0
 10
5.17757
 20
6.92731
 30
0.0
 40
0.00513889
 41
0.00513889
  0
SEQEND
 8
0
  0
POLYLINE
  8
0
 62
     0
 66
     1
 10
0
 20
0
 30
0.0
 40
0.37
 41
0.37
  0
VERTEX
  8
0
 10
5.59413
 20
6.32493
 30
0.0
 40
0.00513889
 41
0.00513889
  0
VERTEX
  8
0
 10
5.59429
 20
6.31022
 30
0.0
 40
0.00513889
 41
0.00513889
  0
SEQEND
 8
0
  0
POLYLINE
  8
0
 62
     0
 66
     1
 10
0
 20
0
 30
0.0
 40
0.37
 41
0.37
  0
VERTEX
  8
0
 10
5.59413
 20
6.32493
 30
0.0
 40
0.00513889
 41
0.00513889
  0
VERTEX
  8
0
 10
5.58979
 20
6.81646
 30
0.0
 40
0.00513889
 41
0.00513889
  0
SEQEND
 8
0
  0
POLYLINE
  8
0
 62
     0
 66
     1
 10
0
 20
0
 30
0.0
 40
0.37
 41
0.37
  0
VERTEX
  8
0
 10
5.72325
 20
6.50439
 30
0.0
 40
0.00513889
 41
0.00513889
  0
VERTEX
  8
0
 10
5.72325
 20
6.52561
 30
0.0
 40
0.00513889
 41
0.00513889
  0
SEQEND
 8
0
  0
POLYLINE
  8
0
 62
     0
 66
     1
 10
0
 20
0
 30
0.0
 40
0.37
 41
0.37
  0
VERTEX
  8
0
 10
5.72325
 20
6.52561
 30
0.0
 40
0.00513889
 41
0.00513889
  0
VERTEX
  8
0
 10
5.71149
 20
6.52561
 30
0.0
 40
0.00513889
 41
0.00513889
  0
SEQEND
 8
0
  0
POLYLINE
  8
0
 62
     0
 66
     1
 10
0
 20
0
 30
0.0
 40
0.37
 41
0.37
  0
VERTEX
  8
0
 10
5.68192
 20
6.57286
 30
0.0
 40
0.00513889
 41
0.00513889
  0
VERTEX
  8
0
 10
5.71149
 20
6.52561
 30
0.0
 40
0.00513889
 41
0.00513889
  0
SEQEND
 8
0
  0
POLYLINE
  8
0
 62
     0
 66
     1
 10
0
 20
0
 30
0.0
 40
0.37
 41
0.37
  0
VERTEX
  8
0
 10
5.00868
 20
6.76118
 30
0.0
 40
0.00513889
 41
0.00513889
  0
VERTEX
  8
0
 10
5.00868
 20
6.76188
 30
0.0
 40
0.00513889
 41
0.00513889
  0
SEQEND
 8
0
  0
POLYLINE
  8
0
 62
     0
 66
     1
 10
0
 20
0
 30
0.0
 40
0.37
 41
0.37
  0
VERTEX
  8
0
 10
5.11496
 20
6.76188
 30
0.0
 40
0.00513889
 41
0.00513889
  0
VERTEX
  8
0
 10
5.11496
 20
6.26579
 30
0.0
 40
0.00513889
 41
0.00513889
  0
SEQEND
 8
0
  0
POLYLINE
  8
0
 62
     0
 66
     1
 10
0
 20
0
 30
0.0
 40
0.37
 41
0.37
  0
VERTEX
  8
0
 10
5.48118
 20
6.20676
 30
0.0
 40
0.00513889
 41
0.00513889
  0
VERTEX
  8
0
 10
5.48356
 20
6.19732
 30
0.0
 40
0.00513889
 41
0.00513889
  0
VERTEX
  8
0
 10
5.48731
 20
6.18815
 30
0.0
 40
0.00513889
 41
0.00513889
  0
VERTEX
  8
0
 10
5.49219
 20
6.17964
 30
0.0
 40
0.00513889
 41
0.00513889
  0
VERTEX
  8
0
 10
5.49815
 20
6.17188
 30
0.0
 40
0.00513889
 41
0.00513889
  0
VERTEX
  8
0
 10
5.50521
 20
6.1651
 30
0.0
 40
0.00513889
 41
0.00513889
  0
VERTEX
  8
0
 10
5.51303
 20
6.15913
 30
0.0
 40
0.00513889
 41
0.00513889
  0
VERTEX
  8
0
 10
5.5216
 20
6.1544
 30
0.0
 40
0.00513889
 41
0.00513889
  0
VERTEX
  8
0
 10
5.53076
 20
6.15088
 30
0.0
 40
0.00513889
 41
0.00513889
  0
VERTEX
  8
0
 10
5.54036
 20
6.14865
 30
0.0
 40
0.00513889
 41
0.00513889
  0
VERTEX
  8
0
 10
5.55024
 20
6.14774
 30
0.0
 40
0.00513889
 41
0.00513889
  0
VERTEX
  8
0
 10
5.55203
 20
6.14774
 30
0.0
 40
0.00513889
 41
0.00513889
  0
SEQEND
 8
0
  0
POLYLINE
  8
0
 62
     0
 66
     1
 10
0
 20
0
 30
0.0
 40
0.37
 41
0.37
  0
VERTEX
  8
0
 10
5.55203
 20
6.14774
 30
0.0
 40
0.00513889
 41
0.00513889
  0
VERTEX
  8
0
 10
5.56174
 20
6.14839
 30
0.0
 40
0.00513889
 41
0.00513889
  0
VERTEX
  8
0
 10
5.57135
 20
6.15033
 30
0.0
 40
0.00513889
 41
0.00513889
  0
VERTEX
  8
0
 10
5.58062
 20
6.15369
 30
0.0
 40
0.00513889
 41
0.00513889
  0
VERTEX
  8
0
 10
5.58942
 20
6.15815
 30
0.0
 40
0.00513889
 41
0.00513889
  0
VERTEX
  8
0
 10
5.59744
 20
6.16385
 30
0.0
 40
0.00513889
 41
0.00513889
  0
VERTEX
  8
0
 10
5.60454
 20
6.17051
 30
0.0
 40
0.00513889
 41
0.00513889
  0
VERTEX
  8
0
 10
5.61079
 20
6.17811
 30
0.0
 40
0.00513889
 41
0.00513889
  0
VERTEX
  8
0
 10
5.61594
 20
6.18647
 30
0.0
 40
0.00513889
 41
0.00513889
  0
VERTEX
  8
0
 10
5.61979
 20
6.19547
 30
0.0
 40
0.00513889
 41
0.00513889
  0
VERTEX
  8
0
 10
5.62256
 20
6.20492
 30
0.0
 40
0.00513889
 41
0.00513889
  0
VERTEX
  8
0
 10
5.62289
 20
6.20676
 30
0.0
 40
0.00513889
 41
0.00513889
  0
SEQEND
 8
0
  0
POLYLINE
  8
0
 62
     0
 66
     1
 10
0
 20
0
 30
0.0
 40
0.37
 41
0.37
  0
VERTEX
  8
0
 10
4.86257
 20
6.46658
 30
0.0
 40
0.00513889
 41
0.00513889
  0
VERTEX
  8
0
 10
4.92051
 20
6.46658
 30
0.0
 40
0.00513889
 41
0.00513889
  0
SEQEND
 8
0
  0
POLYLINE
  8
0
 62
     0
 66
     1
 10
0
 20
0
 30
0.0
 40
0.37
 41
0.37
  0
VERTEX
  8
0
 10
4.96149
 20
6.53743
 30
0.0
 40
0.00513889
 41
0.00513889
  0
VERTEX
  8
0
 10
4.96149
 20
6.98535
 30
0.0
 40
0.00513889
 41
0.00513889
  0
SEQEND
 8
0
  0
POLYLINE
  8
0
 62
     0
 66
     1
 10
0
 20
0
 30
0.0
 40
0.37
 41
0.37
  0
VERTEX
  8
0
 10
4.92051
 20
6.46658
 30
0.0
 40
0.00513889
 41
0.00513889
  0
VERTEX
  8
0
 10
4.96149
 20
6.53743
 30
0.0
 40
0.00513889
 41
0.00513889
  0
SEQEND
 8
0
  0
POLYLINE
  8
0
 62
     0
 66
     1
 10
0
 20
0
 30
0.0
 40
0.37
 41
0.37
  0
VERTEX
  8
0
 10
4.96149
 20
6.98535
 30
0.0
 40
0.00513889
 41
0.00513889
  0
VERTEX
  8
0
 10
4.95578
 20
6.97726
 30
0.0
 40
0.00513889
 41
0.00513889
  0
VERTEX
  8
0
 10
4.95019
 20
6.96924
 30
0.0
 40
0.00513889
 41
0.00513889
  0
VERTEX
  8
0
 10
4.94482
 20
6.96104
 30
0.0
 40
0.00513889
 41
0.00513889
  0
VERTEX
  8
0
 10
4.9394
 20
6.95269
 30
0.0
 40
0.00513889
 41
0.00513889
  0
VERTEX
  8
0
 10
4.93425
 20
6.94439
 30
0.0
 40
0.00513889
 41
0.00513889
  0
VERTEX
  8
0
 10
4.92925
 20
6.93593
 30
0.0
 40
0.00513889
 41
0.00513889
  0
VERTEX
  8
0
 10
4.92426
 20
6.9274
 30
0.0
 40
0.00513889
 41
0.00513889
  0
VERTEX
  8
0
 10
4.91954
 20
6.91883
 30
0.0
 40
0.00513889
 41
0.00513889
  0
VERTEX
  8
0
 10
4.91482
 20
6.91004
 30
0.0
 40
0.00513889
 41
0.00513889
  0
VERTEX
  8
0
 10
4.90593
 20
6.89258
 30
0.0
 40
0.00513889
 41
0.00513889
  0
VERTEX
  8
0
 10
4.90175
 20
6.88368
 30
0.0
 40
0.00513889
 41
0.00513889
  0
VERTEX
  8
0
 10
4.89774
 20
6.87468
 30
0.0
 40
0.00513889
 41
0.00513889
  0
VERTEX
  8
0
 10
4.89372
 20
6.86561
 30
0.0
 40
0.00513889
 41
0.00513889
  0
SEQEND
 8
0
  0
POLYLINE
  8
0
 62
     0
 66
     1
 10
0
 20
0
 30
0.0
 40
0.37
 41
0.37
  0
VERTEX
  8
0
 10
4.87939
 20
6.82894
 30
0.0
 40
0.00513889
 41
0.00513889
  0
VERTEX
  8
0
 10
4.87619
 20
6.81976
 30
0.0
 40
0.00513889
 41
0.00513889
  0
VERTEX
  8
0
 10
4.87299
 20
6.81033
 30
0.0
 40
0.00513889
 41
0.00513889
  0
VERTEX
  8
0
 10
4.87007
 20
6.80106
 30
0.0
 40
0.00513889
 41
0.00513889
  0
VERTEX
  8
0
 10
4.86729
 20
6.79161
 30
0.0
 40
0.00513889
 41
0.00513889
  0
SEQEND
 8
0
  0
POLYLINE
  8
0
 62
     0
 66
     1
 10
0
 20
0
 30
0.0
 40
0.37
 41
0.37
  0
VERTEX
  8
0
 10
4.85775
 20
6.75342
 30
0.0
 40
0.00513889
 41
0.00513889
  0
VERTEX
  8
0
 10
4.85579
 20
6.74371
 30
0.0
 40
0.00513889
 41
0.00513889
  0
VERTEX
  8
0
 10
4.85385
 20
6.7341
 30
0.0
 40
0.00513889
 41
0.00513889
  0
VERTEX
  8
0
 10
4.85047
 20
6.71468
 30
0.0
 40
0.00513889
 41
0.00513889
  0
VERTEX
  8
0
 10
4.84912
 20
6.70492
 30
0.0
 40
0.00513889
 41
0.00513889
  0
VERTEX
  8
0
 10
4.84787
 20
6.69521
 30
0.0
 40
0.00513889
 41
0.00513889
  0
VERTEX
  8
0
 10
4.84674
 20
6.68533
 30
0.0
 40
0.00513889
 41
0.00513889
  0
VERTEX
  8
0
 10
4.84576
 20
6.67562
 30
0.0
 40
0.00513889
 41
0.00513889
  0
VERTEX
  8
0
 10
4.84511
 20
6.66575
 30
0.0
 40
0.00513889
 41
0.00513889
  0
VERTEX
  8
0
 10
4.8444
 20
6.65593
 30
0.0
 40
0.00513889
 41
0.00513889
  0
VERTEX
  8
0
 10
4.84381
 20
6.64615
 30
0.0
 40
0.00513889
 41
0.00513889
  0
VERTEX
  8
0
 10
4.84353
 20
6.63633
 30
0.0
 40
0.00513889
 41
0.00513889
  0
VERTEX
  8
0
 10
4.84337
 20
6.62646
 30
0.0
 40
0.00513889
 41
0.00513889
  0
VERTEX
  8
0
 10
4.84337
 20
6.6166
 30
0.0
 40
0.00513889
 41
0.00513889
  0
VERTEX
  8
0
 10
4.84353
 20
6.60672
 30
0.0
 40
0.00513889
 41
0.00513889
  0
VERTEX
  8
0
 10
4.84381
 20
6.5969
 30
0.0
 40
0.00513889
 41
0.00513889
  0
VERTEX
  8
0
 10
4.84424
 20
6.58713
 30
0.0
 40
0.00513889
 41
0.00513889
  0
VERTEX
  8
0
 10
4.84478
 20
6.57731
 30
0.0
 40
0.00513889
 41
0.00513889
  0
VERTEX
  8
0
 10
4.84565
 20
6.56743
 30
0.0
 40
0.00513889
 41
0.00513889
  0
VERTEX
  8
0
 10
4.84646
 20
6.55772
 30
0.0
 40
0.00513889
 41
0.00513889
  0
VERTEX
  8
0
 10
4.8476
 20
6.54785
 30
0.0
 40
0.00513889
 41
0.00513889
  0
VERTEX
  8
0
 10
4.8501
 20
6.52843
 30
0.0
 40
0.00513889
 41
0.00513889
  0
VERTEX
  8
0
 10
4.85161
 20
6.51867
 30
0.0
 40
0.00513889
 41
0.00513889
  0
VERTEX
  8
0
 10
4.85331
 20
6.50896
 30
0.0
 40
0.00513889
 41
0.00513889
  0
VERTEX
  8
0
 10
4.85519
 20
6.49924
 30
0.0
 40
0.00513889
 41
0.00513889
  0
VERTEX
  8
0
 10
4.85715
 20
6.48964
 30
0.0
 40
0.00513889
 41
0.00513889
  0
VERTEX
  8
0
 10
4.85926
 20
6.48008
 30
0.0
 40
0.00513889
 41
0.00513889
  0
SEQEND
 8
0
  0
POLYLINE
  8
0
 62
     0
 66
     1
 10
0
 20
0
 30
0.0
 40
0.37
 41
0.37
  0
VERTEX
  8
0
 10
4.86203
 20
6.46853
 30
0.0
 40
0.00513889
 41
0.00513889
  0
VERTEX
  8
0
 10
4.86257
 20
6.46658
 30
0.0
 40
0.00513889
 41
0.00513889
  0
SEQEND
 8
0
  0
POLYLINE
  8
0
 62
     0
 66
     1
 10
0
 20
0
 30
0.0
 40
0.37
 41
0.37
  0
VERTEX
  8
0
 10
5.00857
 20
6.76188
 30
0.0
 40
0.00513889
 41
0.00513889
  0
VERTEX
  8
0
 10
5.17464
 20
6.76188
 30
0.0
 40
0.00513889
 41
0.00513889
  0
SEQEND
 8
0
  0
POLYLINE
  8
0
 62
     0
 66
     1
 10
0
 20
0
 30
0.0
 40
0.37
 41
0.37
  0
VERTEX
  8
0
 10
5.07394
 20
7.10439
 30
0.0
 40
0.00513889
 41
0.00513889
  0
VERTEX
  8
0
 10
5.06646
 20
7.09814
 30
0.0
 40
0.00513889
 41
0.00513889
  0
VERTEX
  8
0
 10
5.05897
 20
7.09174
 30
0.0
 40
0.00513889
 41
0.00513889
  0
VERTEX
  8
0
 10
5.0516
 20
7.08524
 30
0.0
 40
0.00513889
 41
0.00513889
  0
VERTEX
  8
0
 10
5.04428
 20
7.07867
 30
0.0
 40
0.00513889
 41
0.00513889
  0
VERTEX
  8
0
 10
5.037
 20
7.07189
 30
0.0
 40
0.00513889
 41
0.00513889
  0
VERTEX
  8
0
 10
5.02994
 20
7.06506
 30
0.0
 40
0.00513889
 41
0.00513889
  0
VERTEX
  8
0
 10
5.023
 20
7.05811
 30
0.0
 40
0.00513889
 41
0.00513889
  0
VERTEX
  8
0
 10
5.01617
 20
7.05106
 30
0.0
 40
0.00513889
 41
0.00513889
  0
VERTEX
  8
0
 10
5.00939
 20
7.04394
 30
0.0
 40
0.00513889
 41
0.00513889
  0
VERTEX
  8
0
 10
5.00288
 20
7.03662
 30
0.0
 40
0.00513889
 41
0.00513889
  0
VERTEX
  8
0
 10
4.99631
 20
7.02924
 30
0.0
 40
0.00513889
 41
0.00513889
  0
VERTEX
  8
0
 10
4.98996
 20
7.02175
 30
0.0
 40
0.00513889
 41
0.00513889
  0
VERTEX
  8
0
 10
4.98356
 20
7.01421
 30
0.0
 40
0.00513889
 41
0.00513889
  0
VERTEX
  8
0
 10
4.97743
 20
7.00646
 30
0.0
 40
0.00513889
 41
0.00513889
  0
SEQEND
 8
0
  0
POLYLINE
  8
0
 62
     0
 66
     1
 10
0
 20
0
 30
0.0
 40
0.37
 41
0.37
  0
VERTEX
  8
0
 10
4.96343
 20
6.98812
 30
0.0
 40
0.00513889
 41
0.00513889
  0
VERTEX
  8
0
 10
4.96149
 20
6.98535
 30
0.0
 40
0.00513889
 41
0.00513889
  0
SEQEND
 8
0
  0
POLYLINE
  8
0
 62
     0
 66
     1
 10
0
 20
0
 30
0.0
 40
0.37
 41
0.37
  0
VERTEX
  8
0
 10
5.17464
 20
7.10439
 30
0.0
 40
0.00513889
 41
0.00513889
  0
VERTEX
  8
0
 10
5.17464
 20
6.76188
 30
0.0
 40
0.00513889
 41
0.00513889
  0
SEQEND
 8
0
  0
POLYLINE
  8
0
 62
     0
 66
     1
 10
0
 20
0
 30
0.0
 40
0.37
 41
0.37
  0
VERTEX
  8
0
 10
5.17464
 20
7.10439
 30
0.0
 40
0.00513889
 41
0.00513889
  0
VERTEX
  8
0
 10
5.17464
 20
7.17106
 30
0.0
 40
0.00513889
 41
0.00513889
  0
SEQEND
 8
0
  0
POLYLINE
  8
0
 62
     0
 66
     1
 10
0
 20
0
 30
0.0
 40
0.37
 41
0.37
  0
VERTEX
  8
0
 10
5.1416
 20
7.10439
 30
0.0
 40
0.00513889
 41
0.00513889
  0
VERTEX
  8
0
 10
5.17464
 20
7.10439
 30
0.0
 40
0.00513889
 41
0.00513889
  0
SEQEND
 8
0
  0
POLYLINE
  8
0
 62
     0
 66
     1
 10
0
 20
0
 30
0.0
 40
0.37
 41
0.37
  0
VERTEX
  8
0
 10
5.1416
 20
7.10439
 30
0.0
 40
0.00513889
 41
0.00513889
  0
VERTEX
  8
0
 10
5.07394
 20
7.10439
 30
0.0
 40
0.00513889
 41
0.00513889
  0
SEQEND
 8
0
  0
POLYLINE
  8
0
 62
     0
 66
     1
 10
0
 20
0
 30
0.0
 40
0.37
 41
0.37
  0
VERTEX
  8
0
 10
5.12744
 20
7.14328
 30
0.0
 40
0.00513889
 41
0.00513889
  0
VERTEX
  8
0
 10
5.1416
 20
7.10439
 30
0.0
 40
0.00513889
 41
0.00513889
  0
SEQEND
 8
0
  0
POLYLINE
  8
0
 62
     0
 66
     1
 10
0
 20
0
 30
0.0
 40
0.37
 41
0.37
  0
VERTEX
  8
0
 10
5.17464
 20
7.17106
 30
0.0
 40
0.00513889
 41
0.00513889
  0
VERTEX
  8
0
 10
5.16607
 20
7.16635
 30
0.0
 40
0.00513889
 41
0.00513889
  0
VERTEX
  8
0
 10
5.14882
 20
7.15657
 30
0.0
 40
0.00513889
 41
0.00513889
  0
VERTEX
  8
0
 10
5.14051
 20
7.15147
 30
0.0
 40
0.00513889
 41
0.00513889
  0
VERTEX
  8
0
 10
5.13217
 20
7.14632
 30
0.0
 40
0.00513889
 41
0.00513889
  0
VERTEX
  8
0
 10
5.12381
 20
7.1409
 30
0.0
 40
0.00513889
 41
0.00513889
  0
VERTEX
  8
0
 10
5.11561
 20
7.13547
 30
0.0
 40
0.00513889
 41
0.00513889
  0
VERTEX
  8
0
 10
5.10758
 20
7.12978
 30
0.0
 40
0.00513889
 41
0.00513889
  0
VERTEX
  8
0
 10
5.09967
 20
7.12408
 30
0.0
 40
0.00513889
 41
0.00513889
  0
VERTEX
  8
0
 10
5.09174
 20
7.11828
 30
0.0
 40
0.00513889
 41
0.00513889
  0
VERTEX
  8
0
 10
5.08382
 20
7.11231
 30
0.0
 40
0.00513889
 41
0.00513889
  0
VERTEX
  8
0
 10
5.07617
 20
7.10618
 30
0.0
 40
0.00513889
 41
0.00513889
  0
VERTEX
  8
0
 10
5.07394
 20
7.10439
 30
0.0
 40
0.00513889
 41
0.00513889
  0
SEQEND
 8
0
  0
POLYLINE
  8
0
 62
     0
 66
     1
 10
0
 20
0
 30
0.0
 40
0.37
 41
0.37
  0
VERTEX
  8
0
 10
5.17757
 20
7.17258
 30
0.0
 40
0.00513889
 41
0.00513889
  0
VERTEX
  8
0
 10
5.17464
 20
7.17106
 30
0.0
 40
0.00513889
 41
0.00513889
  0
SEQEND
 8
0
  0
POLYLINE
  8
0
 62
     0
 66
     1
 10
0
 20
0
 30
0.0
 40
0.37
 41
0.37
  0
VERTEX
  8
0
 10
5.17757
 20
7.17258
 30
0.0
 40
0.00513889
 41
0.00513889
  0
VERTEX
  8
0
 10
5.1894
 20
7.17854
 30
0.0
 40
0.00513889
 41
0.00513889
  0
SEQEND
 8
0
  0
POLYLINE
  8
0
 62
     0
 66
     1
 10
0
 20
0
 30
0.0
 40
0.37
 41
0.37
  0
VERTEX
  8
0
 10
5.1894
 20
7.17854
 30
0.0
 40
0.00513889
 41
0.00513889
  0
VERTEX
  8
0
 10
5.20117
 20
7.18435
 30
0.0
 40
0.00513889
 41
0.00513889
  0
SEQEND
 8
0
  0
POLYLINE
  8
0
 62
     0
 66
     1
 10
0
 20
0
 30
0.0
 40
0.37
 41
0.37
  0
VERTEX
  8
0
 10
5.2691
 20
7.21158
 30
0.0
 40
0.00513889
 41
0.00513889
  0
VERTEX
  8
0
 10
5.25982
 20
7.20839
 30
0.0
 40
0.00513889
 41
0.00513889
  0
VERTEX
  8
0
 10
5.25049
 20
7.20508
 30
0.0
 40
0.00513889
 41
0.00513889
  0
VERTEX
  8
0
 10
5.24132
 20
7.20144
 30
0.0
 40
0.00513889
 41
0.00513889
  0
VERTEX
  8
0
 10
5.23215
 20
7.19786
 30
0.0
 40
0.00513889
 41
0.00513889
  0
VERTEX
  8
0
 10
5.22299
 20
7.19412
 30
0.0
 40
0.00513889
 41
0.00513889
  0
VERTEX
  8
0
 10
5.21397
 20
7.19021
 30
0.0
 40
0.00513889
 41
0.00513889
  0
VERTEX
  8
0
 10
5.20508
 20
7.18619
 30
0.0
 40
0.00513889
 41
0.00513889
  0
VERTEX
  8
0
 10
5.20117
 20
7.18435
 30
0.0
 40
0.00513889
 41
0.00513889
  0
SEQEND
 8
0
  0
POLYLINE
  8
0
 62
     0
 66
     1
 10
0
 20
0
 30
0.0
 40
0.37
 41
0.37
  0
VERTEX
  8
0
 10
5.43494
 20
7.243
 30
0.0
 40
0.00513889
 41
0.00513889
  0
VERTEX
  8
0
 10
5.42507
 20
7.24246
 30
0.0
 40
0.00513889
 41
0.00513889
  0
VERTEX
  8
0
 10
5.41536
 20
7.2416
 30
0.0
 40
0.00513889
 41
0.00513889
  0
VERTEX
  8
0
 10
5.40549
 20
7.24078
 30
0.0
 40
0.00513889
 41
0.00513889
  0
VERTEX
  8
0
 10
5.39578
 20
7.23964
 30
0.0
 40
0.00513889
 41
0.00513889
  0
VERTEX
  8
0
 10
5.3859
 20
7.23856
 30
0.0
 40
0.00513889
 41
0.00513889
  0
VERTEX
  8
0
 10
5.37619
 20
7.23714
 30
0.0
 40
0.00513889
 41
0.00513889
  0
VERTEX
  8
0
 10
5.36649
 20
7.23563
 30
0.0
 40
0.00513889
 41
0.00513889
  0
VERTEX
  8
0
 10
5.35678
 20
7.23394
 30
0.0
 40
0.00513889
 41
0.00513889
  0
VERTEX
  8
0
 10
5.34717
 20
7.23215
 30
0.0
 40
0.00513889
 41
0.00513889
  0
VERTEX
  8
0
 10
5.33746
 20
7.23019
 30
0.0
 40
0.00513889
 41
0.00513889
  0
VERTEX
  8
0
 10
5.32785
 20
7.22814
 30
0.0
 40
0.00513889
 41
0.00513889
  0
VERTEX
  8
0
 10
5.31825
 20
7.22575
 30
0.0
 40
0.00513889
 41
0.00513889
  0
VERTEX
  8
0
 10
5.30871
 20
7.22342
 30
0.0
 40
0.00513889
 41
0.00513889
  0
VERTEX
  8
0
 10
5.29926
 20
7.22076
 30
0.0
 40
0.00513889
 41
0.00513889
  0
SEQEND
 8
0
  0
POLYLINE
  8
0
 62
     0
 66
     1
 10
0
 20
0
 30
0.0
 40
0.37
 41
0.37
  0
VERTEX
  8
0
 10
5.27007
 20
7.21186
 30
0.0
 40
0.00513889
 41
0.00513889
  0
VERTEX
  8
0
 10
5.2691
 20
7.21158
 30
0.0
 40
0.00513889
 41
0.00513889
  0
SEQEND
 8
0
  0
POLYLINE
  8
0
 62
     0
 66
     1
 10
0
 20
0
 30
0.0
 40
0.37
 41
0.37
  0
VERTEX
  8
0
 10
5.17757
 20
6.92731
 30
0.0
 40
0.00513889
 41
0.00513889
  0
VERTEX
  8
0
 10
5.17464
 20
6.92731
 30
0.0
 40
0.00513889
 41
0.00513889
  0
SEQEND
 8
0
  0
POLYLINE
  8
0
 62
     0
 66
     1
 10
0
 20
0
 30
0.0
 40
0.37
 41
0.37
  0
VERTEX
  8
0
 10
5.38661
 20
6.85633
 30
0.0
 40
0.00513889
 41
0.00513889
  0
VERTEX
  8
0
 10
5.70551
 20
6.85633
 30
0.0
 40
0.00513889
 41
0.00513889
  0
SEQEND
 8
0
  0
POLYLINE
  8
0
 62
     0
 66
     1
 10
0
 20
0
 30
0.0
 40
0.37
 41
0.37
  0
VERTEX
  8
0
 10
5.20117
 20
6.85633
 30
0.0
 40
0.00513889
 41
0.00513889
  0
VERTEX
  8
0
 10
5.2545
 20
6.85633
 30
0.0
 40
0.00513889
 41
0.00513889
  0
SEQEND
 8
0
  0
POLYLINE
  8
0
 62
     0
 66
     1
 10
0
 20
0
 30
0.0
 40
0.37
 41
0.37
  0
VERTEX
  8
0
 10
5.61871
 20
6.98036
 30
0.0
 40
0.00513889
 41
0.00513889
  0
VERTEX
  8
0
 10
5.43494
 20
7.243
 30
0.0
 40
0.00513889
 41
0.00513889
  0
SEQEND
 8
0
  0
POLYLINE
  8
0
 62
     0
 66
     1
 10
0
 20
0
 30
0.0
 40
0.37
 41
0.37
  0
VERTEX
  8
0
 10
5.61871
 20
6.98036
 30
0.0
 40
0.00513889
 41
0.00513889
  0
VERTEX
  8
0
 10
5.63938
 20
6.9509
 30
0.0
 40
0.00513889
 41
0.00513889
  0
SEQEND
 8
0
  0
POLYLINE
  8
0
 62
     0
 66
     1
 10
0
 20
0
 30
0.0
 40
0.37
 41
0.37
  0
VERTEX
  8
0
 10
5.70551
 20
6.85633
 30
0.0
 40
0.00513889
 41
0.00513889
  0
VERTEX
  8
0
 10
5.63938
 20
6.9509
 30
0.0
 40
0.00513889
 41
0.00513889
  0
SEQEND
 8
0
  0
POLYLINE
  8
0
 62
     0
 66
     1
 10
0
 20
0
 30
0.0
 40
0.37
 41
0.37
  0
VERTEX
  8
0
 10
5.17757
 20
6.87993
 30
0.0
 40
0.00513889
 41
0.00513889
  0
VERTEX
  8
0
 10
5.17953
 20
6.87061
 30
0.0
 40
0.00513889
 41
0.00513889
  0
VERTEX
  8
0
 10
5.18506
 20
6.86274
 30
0.0
 40
0.00513889
 41
0.00513889
  0
VERTEX
  8
0
 10
5.19342
 20
6.85769
 30
0.0
 40
0.00513889
 41
0.00513889
  0
VERTEX
  8
0
 10
5.20117
 20
6.85633
 30
0.0
 40
0.00513889
 41
0.00513889
  0
SEQEND
 8
0
  0
POLYLINE
  8
0
 62
     0
 66
     1
 10
0
 20
0
 30
0.0
 40
0.37
 41
0.37
  0
VERTEX
  8
0
 10
5.20117
 20
6.85633
 30
0.0
 40
0.00513889
 41
0.00513889
  0
VERTEX
  8
0
 10
5.20117
 20
7.18435
 30
0.0
 40
0.00513889
 41
0.00513889
  0
SEQEND
 8
0
  0
POLYLINE
  8
0
 62
     0
 66
     1
 10
0
 20
0
 30
0.0
 40
0.37
 41
0.37
  0
VERTEX
  8
0
 10
5.28119
 20
6.97885
 30
0.0
 40
0.00513889
 41
0.00513889
  0
VERTEX
  8
0
 10
5.2691
 20
7.21158
 30
0.0
 40
0.00513889
 41
0.00513889
  0
SEQEND
 8
0
  0
POLYLINE
  8
0
 62
     0
 66
     1
 10
0
 20
0
 30
0.0
 40
0.37
 41
0.37
  0
VERTEX
  8
0
 10
5.28119
 20
6.97885
 30
0.0
 40
0.00513889
 41
0.00513889
  0
VERTEX
  8
0
 10
5.28342
 20
6.9694
 30
0.0
 40
0.00513889
 41
0.00513889
  0
VERTEX
  8
0
 10
5.28842
 20
6.96104
 30
0.0
 40
0.00513889
 41
0.00513889
  0
VERTEX
  8
0
 10
5.2959
 20
6.95492
 30
0.0
 40
0.00513889
 41
0.00513889
  0
VERTEX
  8
0
 10
5.30496
 20
6.95144
 30
0.0
 40
0.00513889
 41
0.00513889
  0
VERTEX
  8
0
 10
5.31076
 20
6.9509
 30
0.0
 40
0.00513889
 41
0.00513889
  0
SEQEND
 8
0
  0
POLYLINE
  8
0
 62
     0
 66
     1
 10
0
 20
0
 30
0.0
 40
0.37
 41
0.37
  0
VERTEX
  8
0
 10
5.32172
 20
6.9509
 30
0.0
 40
0.00513889
 41
0.00513889
  0
VERTEX
  8
0
 10
5.31076
 20
6.9509
 30
0.0
 40
0.00513889
 41
0.00513889
  0
SEQEND
 8
0
  0
POLYLINE
  8
0
 62
     0
 66
     1
 10
0
 20
0
 30
0.0
 40
0.37
 41
0.37
  0
VERTEX
  8
0
 10
5.32172
 20
6.95107
 30
0.0
 40
0.00513889
 41
0.00513889
  0
VERTEX
  8
0
 10
5.32172
 20
6.9509
 30
0.0
 40
0.00513889
 41
0.00513889
  0
SEQEND
 8
0
  0
POLYLINE
  8
0
 62
     0
 66
     1
 10
0
 20
0
 30
0.0
 40
0.37
 41
0.37
  0
VERTEX
  8
0
 10
5.32172
 20
6.95107
 30
0.0
 40
0.00513889
 41
0.00513889
  0
VERTEX
  8
0
 10
5.32189
 20
6.95367
 30
0.0
 40
0.00513889
 41
0.00513889
  0
SEQEND
 8
0
  0
POLYLINE
  8
0
 62
     0
 66
     1
 10
0
 20
0
 30
0.0
 40
0.37
 41
0.37
  0
VERTEX
  8
0
 10
5.32189
 20
6.95367
 30
0.0
 40
0.00513889
 41
0.00513889
  0
VERTEX
  8
0
 10
5.32775
 20
6.95313
 30
0.0
 40
0.00513889
 41
0.00513889
  0
SEQEND
 8
0
  0
POLYLINE
  8
0
 62
     0
 66
     1
 10
0
 20
0
 30
0.0
 40
0.37
 41
0.37
  0
VERTEX
  8
0
 10
5.32775
 20
6.95313
 30
0.0
 40
0.00513889
 41
0.00513889
  0
VERTEX
  8
0
 10
5.33371
 20
6.95258
 30
0.0
 40
0.00513889
 41
0.00513889
  0
SEQEND
 8
0
  0
POLYLINE
  8
0
 62
     0
 66
     1
 10
0
 20
0
 30
0.0
 40
0.37
 41
0.37
  0
VERTEX
  8
0
 10
5.33371
 20
6.95258
 30
0.0
 40
0.00513889
 41
0.00513889
  0
VERTEX
  8
0
 10
5.33968
 20
6.95215
 30
0.0
 40
0.00513889
 41
0.00513889
  0
SEQEND
 8
0
  0
POLYLINE
  8
0
 62
     0
 66
     1
 10
0
 20
0
 30
0.0
 40
0.37
 41
0.37
  0
VERTEX
  8
0
 10
5.33968
 20
6.95215
 30
0.0
 40
0.00513889
 41
0.00513889
  0
VERTEX
  8
0
 10
5.34549
 20
6.95161
 30
0.0
 40
0.00513889
 41
0.00513889
  0
SEQEND
 8
0
  0
POLYLINE
  8
0
 62
     0
 66
     1
 10
0
 20
0
 30
0.0
 40
0.37
 41
0.37
  0
VERTEX
  8
0
 10
5.34549
 20
6.95161
 30
0.0
 40
0.00513889
 41
0.00513889
  0
VERTEX
  8
0
 10
5.35146
 20
6.95107
 30
0.0
 40
0.00513889
 41
0.00513889
  0
SEQEND
 8
0
  0
POLYLINE
  8
0
 62
     0
 66
     1
 10
0
 20
0
 30
0.0
 40
0.37
 41
0.37
  0
VERTEX
  8
0
 10
5.35146
 20
6.95107
 30
0.0
 40
0.00513889
 41
0.00513889
  0
VERTEX
  8
0
 10
5.35172
 20
6.95632
 30
0.0
 40
0.00513889
 41
0.00513889
  0
SEQEND
 8
0
  0
POLYLINE
  8
0
 62
     0
 66
     1
 10
0
 20
0
 30
0.0
 40
0.37
 41
0.37
  0
VERTEX
  8
0
 10
5.35172
 20
6.95632
 30
0.0
 40
0.00513889
 41
0.00513889
  0
VERTEX
  8
0
 10
5.35758
 20
6.95518
 30
0.0
 40
0.00513889
 41
0.00513889
  0
SEQEND
 8
0
  0
POLYLINE
  8
0
 62
     0
 66
     1
 10
0
 20
0
 30
0.0
 40
0.37
 41
0.37
  0
VERTEX
  8
0
 10
5.35758
 20
6.95518
 30
0.0
 40
0.00513889
 41
0.00513889
  0
VERTEX
  8
0
 10
5.36356
 20
6.95426
 30
0.0
 40
0.00513889
 41
0.00513889
  0
SEQEND
 8
0
  0
POLYLINE
  8
0
 62
     0
 66
     1
 10
0
 20
0
 30
0.0
 40
0.37
 41
0.37
  0
VERTEX
  8
0
 10
5.36356
 20
6.95426
 30
0.0
 40
0.00513889
 41
0.00513889
  0
VERTEX
  8
0
 10
5.36942
 20
6.95313
 30
0.0
 40
0.00513889
 41
0.00513889
  0
SEQEND
 8
0
  0
POLYLINE
  8
0
 62
     0
 66
     1
 10
0
 20
0
 30
0.0
 40
0.37
 41
0.37
  0
VERTEX
  8
0
 10
5.36942
 20
6.95313
 30
0.0
 40
0.00513889
 41
0.00513889
  0
VERTEX
  8
0
 10
5.37522
 20
6.95215
 30
0.0
 40
0.00513889
 41
0.00513889
  0
SEQEND
 8
0
  0
POLYLINE
  8
0
 62
     0
 66
     1
 10
0
 20
0
 30
0.0
 40
0.37
 41
0.37
  0
VERTEX
  8
0
 10
5.37522
 20
6.95215
 30
0.0
 40
0.00513889
 41
0.00513889
  0
VERTEX
  8
0
 10
5.38108
 20
6.95107
 30
0.0
 40
0.00513889
 41
0.00513889
  0
SEQEND
 8
0
  0
POLYLINE
  8
0
 62
     0
 66
     1
 10
0
 20
0
 30
0.0
 40
0.37
 41
0.37
  0
VERTEX
  8
0
 10
5.38108
 20
6.95107
 30
0.0
 40
0.00513889
 41
0.00513889
  0
VERTEX
  8
0
 10
5.38124
 20
6.95258
 30
0.0
 40
0.00513889
 41
0.00513889
  0
SEQEND
 8
0
  0
POLYLINE
  8
0
 62
     0
 66
     1
 10
0
 20
0
 30
0.0
 40
0.37
 41
0.37
  0
VERTEX
  8
0
 10
5.38118
 20
6.95258
 30
0.0
 40
0.00513889
 41
0.00513889
  0
VERTEX
  8
0
 10
5.38118
 20
6.9541
 30
0.0
 40
0.00513889
 41
0.00513889
  0
SEQEND
 8
0
  0
POLYLINE
  8
0
 62
     0
 66
     1
 10
0
 20
0
 30
0.0
 40
0.37
 41
0.37
  0
VERTEX
  8
0
 10
5.38118
 20
6.9541
 30
0.0
 40
0.00513889
 41
0.00513889
  0
VERTEX
  8
0
 10
5.38135
 20
6.95578
 30
0.0
 40
0.00513889
 41
0.00513889
  0
SEQEND
 8
0
  0
POLYLINE
  8
0
 62
     0
 66
     1
 10
0
 20
0
 30
0.0
 40
0.37
 41
0.37
  0
VERTEX
  8
0
 10
5.38135
 20
6.95578
 30
0.0
 40
0.00513889
 41
0.00513889
  0
VERTEX
  8
0
 10
5.38151
 20
6.95731
 30
0.0
 40
0.00513889
 41
0.00513889
  0
SEQEND
 8
0
  0
POLYLINE
  8
0
 62
     0
 66
     1
 10
0
 20
0
 30
0.0
 40
0.37
 41
0.37
  0
VERTEX
  8
0
 10
5.38146
 20
6.95731
 30
0.0
 40
0.00513889
 41
0.00513889
  0
VERTEX
  8
0
 10
5.38146
 20
6.95882
 30
0.0
 40
0.00513889
 41
0.00513889
  0
SEQEND
 8
0
  0
POLYLINE
  8
0
 62
     0
 66
     1
 10
0
 20
0
 30
0.0
 40
0.37
 41
0.37
  0
VERTEX
  8
0
 10
5.38146
 20
6.95882
 30
0.0
 40
0.00513889
 41
0.00513889
  0
VERTEX
  8
0
 10
5.38732
 20
6.95731
 30
0.0
 40
0.00513889
 41
0.00513889
  0
SEQEND
 8
0
  0
POLYLINE
  8
0
 62
     0
 66
     1
 10
0
 20
0
 30
0.0
 40
0.37
 41
0.37
  0
VERTEX
  8
0
 10
5.38732
 20
6.95731
 30
0.0
 40
0.00513889
 41
0.00513889
  0
VERTEX
  8
0
 10
5.39301
 20
6.95578
 30
0.0
 40
0.00513889
 41
0.00513889
  0
SEQEND
 8
0
  0
POLYLINE
  8
0
 62
     0
 66
     1
 10
0
 20
0
 30
0.0
 40
0.37
 41
0.37
  0
VERTEX
  8
0
 10
5.39301
 20
6.95578
 30
0.0
 40
0.00513889
 41
0.00513889
  0
VERTEX
  8
0
 10
5.39882
 20
6.9541
 30
0.0
 40
0.00513889
 41
0.00513889
  0
SEQEND
 8
0
  0
POLYLINE
  8
0
 62
     0
 66
     1
 10
0
 20
0
 30
0.0
 40
0.37
 41
0.37
  0
VERTEX
  8
0
 10
5.39882
 20
6.9541
 30
0.0
 40
0.00513889
 41
0.00513889
  0
VERTEX
  8
0
 10
5.40451
 20
6.95258
 30
0.0
 40
0.00513889
 41
0.00513889
  0
SEQEND
 8
0
  0
POLYLINE
  8
0
 62
     0
 66
     1
 10
0
 20
0
 30
0.0
 40
0.37
 41
0.37
  0
VERTEX
  8
0
 10
5.40451
 20
6.95258
 30
0.0
 40
0.00513889
 41
0.00513889
  0
VERTEX
  8
0
 10
5.41021
 20
6.95107
 30
0.0
 40
0.00513889
 41
0.00513889
  0
SEQEND
 8
0
  0
POLYLINE
  8
0
 62
     0
 66
     1
 10
0
 20
0
 30
0.0
 40
0.37
 41
0.37
  0
VERTEX
  8
0
 10
5.41021
 20
6.95107
 30
0.0
 40
0.00513889
 41
0.00513889
  0
VERTEX
  8
0
 10
5.4694
 20
6.95107
 30
0.0
 40
0.00513889
 41
0.00513889
  0
SEQEND
 8
0
  0
POLYLINE
  8
0
 62
     0
 66
     1
 10
0
 20
0
 30
0.0
 40
0.37
 41
0.37
  0
VERTEX
  8
0
 10
5.4751
 20
6.95258
 30
0.0
 40
0.00513889
 41
0.00513889
  0
VERTEX
  8
0
 10
5.4694
 20
6.95107
 30
0.0
 40
0.00513889
 41
0.00513889
  0
SEQEND
 8
0
  0
POLYLINE
  8
0
 62
     0
 66
     1
 10
0
 20
0
 30
0.0
 40
0.37
 41
0.37
  0
VERTEX
  8
0
 10
5.48079
 20
6.9541
 30
0.0
 40
0.00513889
 41
0.00513889
  0
VERTEX
  8
0
 10
5.4751
 20
6.95258
 30
0.0
 40
0.00513889
 41
0.00513889
  0
SEQEND
 8
0
  0
POLYLINE
  8
0
 62
     0
 66
     1
 10
0
 20
0
 30
0.0
 40
0.37
 41
0.37
  0
VERTEX
  8
0
 10
5.4866
 20
6.95578
 30
0.0
 40
0.00513889
 41
0.00513889
  0
VERTEX
  8
0
 10
5.48079
 20
6.9541
 30
0.0
 40
0.00513889
 41
0.00513889
  0
SEQEND
 8
0
  0
POLYLINE
  8
0
 62
     0
 66
     1
 10
0
 20
0
 30
0.0
 40
0.37
 41
0.37
  0
VERTEX
  8
0
 10
5.49229
 20
6.95731
 30
0.0
 40
0.00513889
 41
0.00513889
  0
VERTEX
  8
0
 10
5.4866
 20
6.95578
 30
0.0
 40
0.00513889
 41
0.00513889
  0
SEQEND
 8
0
  0
POLYLINE
  8
0
 62
     0
 66
     1
 10
0
 20
0
 30
0.0
 40
0.37
 41
0.37
  0
VERTEX
  8
0
 10
5.49815
 20
6.95882
 30
0.0
 40
0.00513889
 41
0.00513889
  0
VERTEX
  8
0
 10
5.49229
 20
6.95731
 30
0.0
 40
0.00513889
 41
0.00513889
  0
SEQEND
 8
0
  0
POLYLINE
  8
0
 62
     0
 66
     1
 10
0
 20
0
 30
0.0
 40
0.37
 41
0.37
  0
VERTEX
  8
0
 10
5.49815
 20
6.95731
 30
0.0
 40
0.00513889
 41
0.00513889
  0
VERTEX
  8
0
 10
5.49815
 20
6.95882
 30
0.0
 40
0.00513889
 41
0.00513889
  0
SEQEND
 8
0
  0
POLYLINE
  8
0
 62
     0
 66
     1
 10
0
 20
0
 30
0.0
 40
0.37
 41
0.37
  0
VERTEX
  8
0
 10
5.49826
 20
6.95578
 30
0.0
 40
0.00513889
 41
0.00513889
  0
VERTEX
  8
0
 10
5.4981
 20
6.95731
 30
0.0
 40
0.00513889
 41
0.00513889
  0
SEQEND
 8
0
  0
POLYLINE
  8
0
 62
     0
 66
     1
 10
0
 20
0
 30
0.0
 40
0.37
 41
0.37
  0
VERTEX
  8
0
 10
5.49826
 20
6.9541
 30
0.0
 40
0.00513889
 41
0.00513889
  0
VERTEX
  8
0
 10
5.49826
 20
6.95578
 30
0.0
 40
0.00513889
 41
0.00513889
  0
SEQEND
 8
0
  0
POLYLINE
  8
0
 62
     0
 66
     1
 10
0
 20
0
 30
0.0
 40
0.37
 41
0.37
  0
VERTEX
  8
0
 10
5.49843
 20
6.95258
 30
0.0
 40
0.00513889
 41
0.00513889
  0
VERTEX
  8
0
 10
5.49826
 20
6.9541
 30
0.0
 40
0.00513889
 41
0.00513889
  0
SEQEND
 8
0
  0
POLYLINE
  8
0
 62
     0
 66
     1
 10
0
 20
0
 30
0.0
 40
0.37
 41
0.37
  0
VERTEX
  8
0
 10
5.49854
 20
6.95107
 30
0.0
 40
0.00513889
 41
0.00513889
  0
VERTEX
  8
0
 10
5.49837
 20
6.95258
 30
0.0
 40
0.00513889
 41
0.00513889
  0
SEQEND
 8
0
  0
POLYLINE
  8
0
 62
     0
 66
     1
 10
0
 20
0
 30
0.0
 40
0.37
 41
0.37
  0
VERTEX
  8
0
 10
5.50439
 20
6.95215
 30
0.0
 40
0.00513889
 41
0.00513889
  0
VERTEX
  8
0
 10
5.49854
 20
6.95107
 30
0.0
 40
0.00513889
 41
0.00513889
  0
SEQEND
 8
0
  0
POLYLINE
  8
0
 62
     0
 66
     1
 10
0
 20
0
 30
0.0
 40
0.37
 41
0.37
  0
VERTEX
  8
0
 10
5.51019
 20
6.95313
 30
0.0
 40
0.00513889
 41
0.00513889
  0
VERTEX
  8
0
 10
5.50439
 20
6.95215
 30
0.0
 40
0.00513889
 41
0.00513889
  0
SEQEND
 8
0
  0
POLYLINE
  8
0
 62
     0
 66
     1
 10
0
 20
0
 30
0.0
 40
0.37
 41
0.37
  0
VERTEX
  8
0
 10
5.51606
 20
6.95426
 30
0.0
 40
0.00513889
 41
0.00513889
  0
VERTEX
  8
0
 10
5.51019
 20
6.95313
 30
0.0
 40
0.00513889
 41
0.00513889
  0
SEQEND
 8
0
  0
POLYLINE
  8
0
 62
     0
 66
     1
 10
0
 20
0
 30
0.0
 40
0.37
 41
0.37
  0
VERTEX
  8
0
 10
5.52203
 20
6.95518
 30
0.0
 40
0.00513889
 41
0.00513889
  0
VERTEX
  8
0
 10
5.51606
 20
6.95426
 30
0.0
 40
0.00513889
 41
0.00513889
  0
SEQEND
 8
0
  0
POLYLINE
  8
0
 62
     0
 66
     1
 10
0
 20
0
 30
0.0
 40
0.37
 41
0.37
  0
VERTEX
  8
0
 10
5.52789
 20
6.95632
 30
0.0
 40
0.00513889
 41
0.00513889
  0
VERTEX
  8
0
 10
5.52203
 20
6.95518
 30
0.0
 40
0.00513889
 41
0.00513889
  0
SEQEND
 8
0
  0
POLYLINE
  8
0
 62
     0
 66
     1
 10
0
 20
0
 30
0.0
 40
0.37
 41
0.37
  0
VERTEX
  8
0
 10
5.52815
 20
6.95107
 30
0.0
 40
0.00513889
 41
0.00513889
  0
VERTEX
  8
0
 10
5.52789
 20
6.95632
 30
0.0
 40
0.00513889
 41
0.00513889
  0
SEQEND
 8
0
  0
POLYLINE
  8
0
 62
     0
 66
     1
 10
0
 20
0
 30
0.0
 40
0.37
 41
0.37
  0
VERTEX
  8
0
 10
5.53396
 20
6.95161
 30
0.0
 40
0.00513889
 41
0.00513889
  0
VERTEX
  8
0
 10
5.52815
 20
6.95107
 30
0.0
 40
0.00513889
 41
0.00513889
  0
SEQEND
 8
0
  0
POLYLINE
  8
0
 62
     0
 66
     1
 10
0
 20
0
 30
0.0
 40
0.37
 41
0.37
  0
VERTEX
  8
0
 10
5.53993
 20
6.95215
 30
0.0
 40
0.00513889
 41
0.00513889
  0
VERTEX
  8
0
 10
5.53396
 20
6.95161
 30
0.0
 40
0.00513889
 41
0.00513889
  0
SEQEND
 8
0
  0
POLYLINE
  8
0
 62
     0
 66
     1
 10
0
 20
0
 30
0.0
 40
0.37
 41
0.37
  0
VERTEX
  8
0
 10
5.5459
 20
6.95258
 30
0.0
 40
0.00513889
 41
0.00513889
  0
VERTEX
  8
0
 10
5.53993
 20
6.95215
 30
0.0
 40
0.00513889
 41
0.00513889
  0
SEQEND
 8
0
  0
POLYLINE
  8
0
 62
     0
 66
     1
 10
0
 20
0
 30
0.0
 40
0.37
 41
0.37
  0
VERTEX
  8
0
 10
5.55186
 20
6.95313
 30
0.0
 40
0.00513889
 41
0.00513889
  0
VERTEX
  8
0
 10
5.5459
 20
6.95258
 30
0.0
 40
0.00513889
 41
0.00513889
  0
SEQEND
 8
0
  0
POLYLINE
  8
0
 62
     0
 66
     1
 10
0
 20
0
 30
0.0
 40
0.37
 41
0.37
  0
VERTEX
  8
0
 10
5.55772
 20
6.95367
 30
0.0
 40
0.00513889
 41
0.00513889
  0
VERTEX
  8
0
 10
5.55186
 20
6.95313
 30
0.0
 40
0.00513889
 41
0.00513889
  0
SEQEND
 8
0
  0
POLYLINE
  8
0
 62
     0
 66
     1
 10
0
 20
0
 30
0.0
 40
0.37
 41
0.37
  0
VERTEX
  8
0
 10
5.55783
 20
6.95107
 30
0.0
 40
0.00513889
 41
0.00513889
  0
VERTEX
  8
0
 10
5.55772
 20
6.95367
 30
0.0
 40
0.00513889
 41
0.00513889
  0
SEQEND
 8
0
  0
POLYLINE
  8
0
 62
     0
 66
     1
 10
0
 20
0
 30
0.0
 40
0.37
 41
0.37
  0
VERTEX
  8
0
 10
5.55783
 20
6.95107
 30
0.0
 40
0.00513889
 41
0.00513889
  0
VERTEX
  8
0
 10
5.55783
 20
6.9509
 30
0.0
 40
0.00513889
 41
0.00513889
  0
SEQEND
 8
0
  0
POLYLINE
  8
0
 62
     0
 66
     1
 10
0
 20
0
 30
0.0
 40
0.37
 41
0.37
  0
VERTEX
  8
0
 10
5.63938
 20
6.9509
 30
0.0
 40
0.00513889
 41
0.00513889
  0
VERTEX
  8
0
 10
5.55783
 20
6.9509
 30
0.0
 40
0.00513889
 41
0.00513889
  0
SEQEND
 8
0
  0
POLYLINE
  8
0
 62
     0
 66
     1
 10
0
 20
0
 30
0.0
 40
0.37
 41
0.37
  0
VERTEX
  8
0
 10
5.38661
 20
6.85633
 30
0.0
 40
0.00513889
 41
0.00513889
  0
VERTEX
  8
0
 10
5.38661
 20
6.76188
 30
0.0
 40
0.00513889
 41
0.00513889
  0
SEQEND
 8
0
  0
POLYLINE
  8
0
 62
     0
 66
     1
 10
0
 20
0
 30
0.0
 40
0.37
 41
0.37
  0
VERTEX
  8
0
 10
5.34576
 20
6.76188
 30
0.0
 40
0.00513889
 41
0.00513889
  0
VERTEX
  8
0
 10
5.38661
 20
6.76188
 30
0.0
 40
0.00513889
 41
0.00513889
  0
SEQEND
 8
0
  0
POLYLINE
  8
0
 62
     0
 66
     1
 10
0
 20
0
 30
0.0
 40
0.37
 41
0.37
  0
VERTEX
  8
0
 10
5.34576
 20
6.76188
 30
0.0
 40
0.00513889
 41
0.00513889
  0
VERTEX
  8
0
 10
5.33214
 20
6.78549
 30
0.0
 40
0.00513889
 41
0.00513889
  0
SEQEND
 8
0
  0
POLYLINE
  8
0
 62
     0
 66
     1
 10
0
 20
0
 30
0.0
 40
0.37
 41
0.37
  0
VERTEX
  8
0
 10
5.33214
 20
6.78549
 30
0.0
 40
0.00513889
 41
0.00513889
  0
VERTEX
  8
0
 10
5.28039
 20
6.78549
 30
0.0
 40
0.00513889
 41
0.00513889
  0
SEQEND
 8
0
  0
POLYLINE
  8
0
 62
     0
 66
     1
 10
0
 20
0
 30
0.0
 40
0.37
 41
0.37
  0
VERTEX
  8
0
 10
5.28039
 20
6.78549
 30
0.0
 40
0.00513889
 41
0.00513889
  0
VERTEX
  8
0
 10
5.2545
 20
6.85633
 30
0.0
 40
0.00513889
 41
0.00513889
  0
SEQEND
 8
0
  0
POLYLINE
  8
0
 62
     0
 66
     1
 10
0
 20
0
 30
0.0
 40
0.37
 41
0.37
  0
VERTEX
  8
0
 10
5.58658
 20
6.83274
 30
0.0
 40
0.00513889
 41
0.00513889
  0
VERTEX
  8
0
 10
5.60021
 20
6.85633
 30
0.0
 40
0.00513889
 41
0.00513889
  0
SEQEND
 8
0
  0
POLYLINE
  8
0
 62
     0
 66
     1
 10
0
 20
0
 30
0.0
 40
0.37
 41
0.37
  0
VERTEX
  8
0
 10
5.58658
 20
6.83274
 30
0.0
 40
0.00513889
 41
0.00513889
  0
VERTEX
  8
0
 10
5.38661
 20
6.83274
 30
0.0
 40
0.00513889
 41
0.00513889
  0
SEQEND
 8
0
  0
POLYLINE
  8
0
 62
     0
 66
     1
 10
0
 20
0
 30
0.0
 40
0.37
 41
0.37
  0
VERTEX
  8
0
 10
5.61871
 20
6.98036
 30
0.0
 40
0.00513889
 41
0.00513889
  0
VERTEX
  8
0
 10
5.31076
 20
6.98036
 30
0.0
 40
0.00513889
 41
0.00513889
  0
SEQEND
 8
0
  0
POLYLINE
  8
0
 62
     0
 66
     1
 10
0
 20
0
 30
0.0
 40
0.37
 41
0.37
  0
VERTEX
  8
0
 10
5.31076
 20
6.9509
 30
0.0
 40
0.00513889
 41
0.00513889
  0
VERTEX
  8
0
 10
5.31076
 20
6.98036
 30
0.0
 40
0.00513889
 41
0.00513889
  0
SEQEND
 8
0
  0
POLYLINE
  8
0
 62
     0
 66
     1
 10
0
 20
0
 30
0.0
 40
0.37
 41
0.37
  0
VERTEX
  8
0
 10
5.31076
 20
6.98036
 30
0.0
 40
0.00513889
 41
0.00513889
  0
VERTEX
  8
0
 10
5.29812
 20
7.22049
 30
0.0
 40
0.00513889
 41
0.00513889
  0
SEQEND
 8
0
  0
POLYLINE
  8
0
 62
     0
 66
     1
 10
0
 20
0
 30
0.0
 40
0.37
 41
0.37
  0
VERTEX
  8
0
 10
5.1894
 20
6.87993
 30
0.0
 40
0.00513889
 41
0.00513889
  0
VERTEX
  8
0
 10
5.19038
 20
6.87061
 30
0.0
 40
0.00513889
 41
0.00513889
  0
VERTEX
  8
0
 10
5.19314
 20
6.86274
 30
0.0
 40
0.00513889
 41
0.00513889
  0
VERTEX
  8
0
 10
5.19732
 20
6.85769
 30
0.0
 40
0.00513889
 41
0.00513889
  0
VERTEX
  8
0
 10
5.20117
 20
6.85633
 30
0.0
 40
0.00513889
 41
0.00513889
  0
SEQEND
 8
0
  0
POLYLINE
  8
0
 62
     0
 66
     1
 10
0
 20
0
 30
0.0
 40
0.37
 41
0.37
  0
VERTEX
  8
0
 10
5.17757
 20
6.87993
 30
0.0
 40
0.00513889
 41
0.00513889
  0
VERTEX
  8
0
 10
5.1894
 20
6.87993
 30
0.0
 40
0.00513889
 41
0.00513889
  0
SEQEND
 8
0
  0
POLYLINE
  8
0
 62
     0
 66
     1
 10
0
 20
0
 30
0.0
 40
0.37
 41
0.37
  0
VERTEX
  8
0
 10
5.17757
 20
7.17258
 30
0.0
 40
0.00513889
 41
0.00513889
  0
VERTEX
  8
0
 10
5.17757
 20
6.87993
 30
0.0
 40
0.00513889
 41
0.00513889
  0
SEQEND
 8
0
  0
POLYLINE
  8
0
 62
     0
 66
     1
 10
0
 20
0
 30
0.0
 40
0.37
 41
0.37
  0
VERTEX
  8
0
 10
5.1894
 20
6.87993
 30
0.0
 40
0.00513889
 41
0.00513889
  0
VERTEX
  8
0
 10
5.20117
 20
6.87993
 30
0.0
 40
0.00513889
 41
0.00513889
  0
SEQEND
 8
0
  0
POLYLINE
  8
0
 62
     0
 66
     1
 10
0
 20
0
 30
0.0
 40
0.37
 41
0.37
  0
VERTEX
  8
0
 10
5.1894
 20
7.17854
 30
0.0
 40
0.00513889
 41
0.00513889
  0
VERTEX
  8
0
 10
5.1894
 20
6.87993
 30
0.0
 40
0.00513889
 41
0.00513889
  0
SEQEND
 8
0
  0
POLYLINE
  8
0
 62
     0
 66
     1
 10
0
 20
0
 30
0.0
 40
0.37
 41
0.37
  0
VERTEX
  8
0
 10
5.32329
 20
6.95714
 30
0.0
 40
0.00513889
 41
0.00513889
  0
VERTEX
  8
0
 10
5.32189
 20
6.95367
 30
0.0
 40
0.00513889
 41
0.00513889
  0
SEQEND
 8
0
  0
POLYLINE
  8
0
 62
     0
 66
     1
 10
0
 20
0
 30
0.0
 40
0.37
 41
0.37
  0
VERTEX
  8
0
 10
5.32314
 20
6.95714
 30
0.0
 40
0.00513889
 41
0.00513889
  0
VERTEX
  8
0
 10
5.35161
 20
6.95161
 30
0.0
 40
0.00513889
 41
0.00513889
  0
SEQEND
 8
0
  0
POLYLINE
  8
0
 62
     0
 66
     1
 10
0
 20
0
 30
0.0
 40
0.37
 41
0.37
  0
VERTEX
  8
0
 10
5.35704
 20
6.96311
 30
0.0
 40
0.00513889
 41
0.00513889
  0
VERTEX
  8
0
 10
5.35172
 20
6.95632
 30
0.0
 40
0.00513889
 41
0.00513889
  0
SEQEND
 8
0
  0
POLYLINE
  8
0
 62
     0
 66
     1
 10
0
 20
0
 30
0.0
 40
0.37
 41
0.37
  0
VERTEX
  8
0
 10
5.35704
 20
6.96311
 30
0.0
 40
0.00513889
 41
0.00513889
  0
VERTEX
  8
0
 10
5.38135
 20
6.95356
 30
0.0
 40
0.00513889
 41
0.00513889
  0
SEQEND
 8
0
  0
POLYLINE
  8
0
 62
     0
 66
     1
 10
0
 20
0
 30
0.0
 40
0.37
 41
0.37
  0
VERTEX
  8
0
 10
5.39214
 20
6.96897
 30
0.0
 40
0.00513889
 41
0.00513889
  0
VERTEX
  8
0
 10
5.38482
 20
6.96257
 30
0.0
 40
0.00513889
 41
0.00513889
  0
VERTEX
  8
0
 10
5.38146
 20
6.95882
 30
0.0
 40
0.00513889
 41
0.00513889
  0
SEQEND
 8
0
  0
POLYLINE
  8
0
 62
     0
 66
     1
 10
0
 20
0
 30
0.0
 40
0.37
 41
0.37
  0
VERTEX
  8
0
 10
5.39214
 20
6.96897
 30
0.0
 40
0.00513889
 41
0.00513889
  0
VERTEX
  8
0
 10
5.42275
 20
6.95107
 30
0.0
 40
0.00513889
 41
0.00513889
  0
SEQEND
 8
0
  0
POLYLINE
  8
0
 62
     0
 66
     1
 10
0
 20
0
 30
0.0
 40
0.37
 41
0.37
  0
VERTEX
  8
0
 10
5.49815
 20
6.95882
 30
0.0
 40
0.00513889
 41
0.00513889
  0
VERTEX
  8
0
 10
5.49132
 20
6.96593
 30
0.0
 40
0.00513889
 41
0.00513889
  0
VERTEX
  8
0
 10
5.48747
 20
6.96897
 30
0.0
 40
0.00513889
 41
0.00513889
  0
SEQEND
 8
0
  0
POLYLINE
  8
0
 62
     0
 66
     1
 10
0
 20
0
 30
0.0
 40
0.37
 41
0.37
  0
VERTEX
  8
0
 10
5.48747
 20
6.96897
 30
0.0
 40
0.00513889
 41
0.00513889
  0
VERTEX
  8
0
 10
5.45687
 20
6.95107
 30
0.0
 40
0.00513889
 41
0.00513889
  0
SEQEND
 8
0
  0
POLYLINE
  8
0
 62
     0
 66
     1
 10
0
 20
0
 30
0.0
 40
0.37
 41
0.37
  0
VERTEX
  8
0
 10
5.52789
 20
6.95632
 30
0.0
 40
0.00513889
 41
0.00513889
  0
VERTEX
  8
0
 10
5.52257
 20
6.96311
 30
0.0
 40
0.00513889
 41
0.00513889
  0
SEQEND
 8
0
  0
POLYLINE
  8
0
 62
     0
 66
     1
 10
0
 20
0
 30
0.0
 40
0.37
 41
0.37
  0
VERTEX
  8
0
 10
5.52257
 20
6.96311
 30
0.0
 40
0.00513889
 41
0.00513889
  0
VERTEX
  8
0
 10
5.49826
 20
6.95356
 30
0.0
 40
0.00513889
 41
0.00513889
  0
SEQEND
 8
0
  0
POLYLINE
  8
0
 62
     0
 66
     1
 10
0
 20
0
 30
0.0
 40
0.37
 41
0.37
  0
VERTEX
  8
0
 10
5.55632
 20
6.95714
 30
0.0
 40
0.00513889
 41
0.00513889
  0
VERTEX
  8
0
 10
5.55772
 20
6.95367
 30
0.0
 40
0.00513889
 41
0.00513889
  0
SEQEND
 8
0
  0
POLYLINE
  8
0
 62
     0
 66
     1
 10
0
 20
0
 30
0.0
 40
0.37
 41
0.37
  0
VERTEX
  8
0
 10
5.55647
 20
6.95714
 30
0.0
 40
0.00513889
 41
0.00513889
  0
VERTEX
  8
0
 10
5.528
 20
6.95161
 30
0.0
 40
0.00513889
 41
0.00513889
  0
SEQEND
 8
0
  0
POLYLINE
  8
0
 62
     0
 66
     1
 10
0
 20
0
 30
0.0
 40
0.37
 41
0.37
  0
VERTEX
  8
0
 10
5.55647
 20
6.95714
 30
0.0
 40
0.00513889
 41
0.00513889
  0
VERTEX
  8
0
 10
5.5466
 20
6.95774
 30
0.0
 40
0.00513889
 41
0.00513889
  0
VERTEX
  8
0
 10
5.53674
 20
6.95801
 30
0.0
 40
0.00513889
 41
0.00513889
  0
VERTEX
  8
0
 10
5.52692
 20
6.95817
 30
0.0
 40
0.00513889
 41
0.00513889
  0
VERTEX
  8
0
 10
5.52675
 20
6.95801
 30
0.0
 40
0.00513889
 41
0.00513889
  0
SEQEND
 8
0
  0
POLYLINE
  8
0
 62
     0
 66
     1
 10
0
 20
0
 30
0.0
 40
0.37
 41
0.37
  0
VERTEX
  8
0
 10
5.35286
 20
6.95801
 30
0.0
 40
0.00513889
 41
0.00513889
  0
VERTEX
  8
0
 10
5.34299
 20
6.95801
 30
0.0
 40
0.00513889
 41
0.00513889
  0
VERTEX
  8
0
 10
5.33328
 20
6.95774
 30
0.0
 40
0.00513889
 41
0.00513889
  0
VERTEX
  8
0
 10
5.3234
 20
6.95714
 30
0.0
 40
0.00513889
 41
0.00513889
  0
VERTEX
  8
0
 10
5.32314
 20
6.95714
 30
0.0
 40
0.00513889
 41
0.00513889
  0
SEQEND
 8
0
  0
POLYLINE
  8
0
 62
     0
 66
     1
 10
0
 20
0
 30
0.0
 40
0.37
 41
0.37
  0
VERTEX
  8
0
 10
5.28119
 20
6.97885
 30
0.0
 40
0.00513889
 41
0.00513889
  0
VERTEX
  8
0
 10
5.31076
 20
6.98036
 30
0.0
 40
0.00513889
 41
0.00513889
  0
SEQEND
 8
0
  0
POLYLINE
  8
0
 62
     0
 66
     1
 10
0
 20
0
 30
0.0
 40
0.37
 41
0.37
  0
VERTEX
  8
0
 10
5.38786
 20
6.9656
 30
0.0
 40
0.00513889
 41
0.00513889
  0
VERTEX
  8
0
 10
5.36062
 20
6.96397
 30
0.0
 40
0.00513889
 41
0.00513889
  0
VERTEX
  8
0
 10
5.35775
 20
6.96343
 30
0.0
 40
0.00513889
 41
0.00513889
  0
VERTEX
  8
0
 10
5.35715
 20
6.96311
 30
0.0
 40
0.00513889
 41
0.00513889
  0
VERTEX
  8
0
 10
5.35699
 20
6.96311
 30
0.0
 40
0.00513889
 41
0.00513889
  0
SEQEND
 8
0
  0
POLYLINE
  8
0
 62
     0
 66
     1
 10
0
 20
0
 30
0.0
 40
0.37
 41
0.37
  0
VERTEX
  8
0
 10
5.41732
 20
6.97325
 30
0.0
 40
0.00513889
 41
0.00513889
  0
VERTEX
  8
0
 10
5.40067
 20
6.97131
 30
0.0
 40
0.00513889
 41
0.00513889
  0
VERTEX
  8
0
 10
5.39437
 20
6.96994
 30
0.0
 40
0.00513889
 41
0.00513889
  0
VERTEX
  8
0
 10
5.39214
 20
6.96897
 30
0.0
 40
0.00513889
 41
0.00513889
  0
SEQEND
 8
0
  0
POLYLINE
  8
0
 62
     0
 66
     1
 10
0
 20
0
 30
0.0
 40
0.37
 41
0.37
  0
VERTEX
  8
0
 10
5.41732
 20
6.97325
 30
0.0
 40
0.00513889
 41
0.00513889
  0
VERTEX
  8
0
 10
5.43283
 20
6.95107
 30
0.0
 40
0.00513889
 41
0.00513889
  0
SEQEND
 8
0
  0
POLYLINE
  8
0
 62
     0
 66
     1
 10
0
 20
0
 30
0.0
 40
0.37
 41
0.37
  0
VERTEX
  8
0
 10
5.46229
 20
6.97325
 30
0.0
 40
0.00513889
 41
0.00513889
  0
VERTEX
  8
0
 10
5.47857
 20
6.97146
 30
0.0
 40
0.00513889
 41
0.00513889
  0
VERTEX
  8
0
 10
5.48535
 20
6.96994
 30
0.0
 40
0.00513889
 41
0.00513889
  0
VERTEX
  8
0
 10
5.48747
 20
6.96897
 30
0.0
 40
0.00513889
 41
0.00513889
  0
SEQEND
 8
0
  0
POLYLINE
  8
0
 62
     0
 66
     1
 10
0
 20
0
 30
0.0
 40
0.37
 41
0.37
  0
VERTEX
  8
0
 10
5.46229
 20
6.97325
 30
0.0
 40
0.00513889
 41
0.00513889
  0
VERTEX
  8
0
 10
5.44672
 20
6.95107
 30
0.0
 40
0.00513889
 41
0.00513889
  0
SEQEND
 8
0
  0
POLYLINE
  8
0
 62
     0
 66
     1
 10
0
 20
0
 30
0.0
 40
0.37
 41
0.37
  0
VERTEX
  8
0
 10
5.46229
 20
6.97325
 30
0.0
 40
0.00513889
 41
0.00513889
  0
VERTEX
  8
0
 10
5.45258
 20
6.97379
 30
0.0
 40
0.00513889
 41
0.00513889
  0
VERTEX
  8
0
 10
5.44271
 20
6.97424
 30
0.0
 40
0.00513889
 41
0.00513889
  0
VERTEX
  8
0
 10
5.43978
 20
6.97424
 30
0.0
 40
0.00513889
 41
0.00513889
  0
SEQEND
 8
0
  0
POLYLINE
  8
0
 62
     0
 66
     1
 10
0
 20
0
 30
0.0
 40
0.37
 41
0.37
  0
VERTEX
  8
0
 10
5.43978
 20
6.97424
 30
0.0
 40
0.00513889
 41
0.00513889
  0
VERTEX
  8
0
 10
5.42996
 20
6.97396
 30
0.0
 40
0.00513889
 41
0.00513889
  0
VERTEX
  8
0
 10
5.42008
 20
6.97342
 30
0.0
 40
0.00513889
 41
0.00513889
  0
VERTEX
  8
0
 10
5.41732
 20
6.97331
 30
0.0
 40
0.00513889
 41
0.00513889
  0
SEQEND
 8
0
  0
POLYLINE
  8
0
 62
     0
 66
     1
 10
0
 20
0
 30
0.0
 40
0.37
 41
0.37
  0
VERTEX
  8
0
 10
5.49175
 20
6.9656
 30
0.0
 40
0.00513889
 41
0.00513889
  0
VERTEX
  8
0
 10
5.51899
 20
6.96397
 30
0.0
 40
0.00513889
 41
0.00513889
  0
VERTEX
  8
0
 10
5.52186
 20
6.96343
 30
0.0
 40
0.00513889
 41
0.00513889
  0
VERTEX
  8
0
 10
5.52246
 20
6.96311
 30
0.0
 40
0.00513889
 41
0.00513889
  0
VERTEX
  8
0
 10
5.52263
 20
6.96311
 30
0.0
 40
0.00513889
 41
0.00513889
  0
SEQEND
 8
0
  0
POLYLINE
  8
0
 62
     0
 66
     1
 10
0
 20
0
 30
0.0
 40
0.37
 41
0.37
  0
VERTEX
  8
0
 10
4.78136
 20
7.51785
 30
0.0
 40
0.00513889
 41
0.00513889
  0
VERTEX
  8
0
 10
4.88758
 20
7.51785
 30
0.0
 40
0.00513889
 41
0.00513889
  0
SEQEND
 8
0
  0
POLYLINE
  8
0
 62
     0
 66
     1
 10
0
 20
0
 30
0.0
 40
0.37
 41
0.37
  0
VERTEX
  8
0
 10
4.88758
 20
7.51785
 30
0.0
 40
0.00513889
 41
0.00513889
  0
VERTEX
  8
0
 10
4.90539
 20
7.51785
 30
0.0
 40
0.00513889
 41
0.00513889
  0
SEQEND
 8
0
  0
POLYLINE
  8
0
 62
     0
 66
     1
 10
0
 20
0
 30
0.0
 40
0.37
 41
0.37
  0
VERTEX
  8
0
 10
4.60715
 20
7.91938
 30
0.0
 40
0.00513889
 41
0.00513889
  0
VERTEX
  8
0
 10
4.76953
 20
7.91938
 30
0.0
 40
0.00513889
 41
0.00513889
  0
SEQEND
 8
0
  0
POLYLINE
  8
0
 62
     0
 66
     1
 10
0
 20
0
 30
0.0
 40
0.37
 41
0.37
  0
VERTEX
  8
0
 10
4.7666
 20
7.91049
 30
0.0
 40
0.00513889
 41
0.00513889
  0
VERTEX
  8
0
 10
4.7666
 20
7.51785
 30
0.0
 40
0.00513889
 41
0.00513889
  0
SEQEND
 8
0
  0
POLYLINE
  8
0
 62
     0
 66
     1
 10
0
 20
0
 30
0.0
 40
0.37
 41
0.37
  0
VERTEX
  8
0
 10
4.78136
 20
7.92518
 30
0.0
 40
0.00513889
 41
0.00513889
  0
VERTEX
  8
0
 10
4.77246
 20
7.92231
 30
0.0
 40
0.00513889
 41
0.00513889
  0
VERTEX
  8
0
 10
4.76714
 20
7.91465
 30
0.0
 40
0.00513889
 41
0.00513889
  0
VERTEX
  8
0
 10
4.7666
 20
7.91049
 30
0.0
 40
0.00513889
 41
0.00513889
  0
SEQEND
 8
0
  0
POLYLINE
  8
0
 62
     0
 66
     1
 10
0
 20
0
 30
0.0
 40
0.37
 41
0.37
  0
VERTEX
  8
0
 10
4.78136
 20
7.51785
 30
0.0
 40
0.00513889
 41
0.00513889
  0
VERTEX
  8
0
 10
4.78136
 20
7.94299
 30
0.0
 40
0.00513889
 41
0.00513889
  0
SEQEND
 8
0
  0
POLYLINE
  8
0
 62
     0
 66
     1
 10
0
 20
0
 30
0.0
 40
0.37
 41
0.37
  0
VERTEX
  8
0
 10
4.90539
 20
7.51785
 30
0.0
 40
0.00513889
 41
0.00513889
  0
VERTEX
  8
0
 10
4.90539
 20
7.94299
 30
0.0
 40
0.00513889
 41
0.00513889
  0
SEQEND
 8
0
  0
POLYLINE
  8
0
 62
     0
 66
     1
 10
0
 20
0
 30
0.0
 40
0.37
 41
0.37
  0
VERTEX
  8
0
 10
4.92008
 20
7.91049
 30
0.0
 40
0.00513889
 41
0.00513889
  0
VERTEX
  8
0
 10
4.92008
 20
7.51785
 30
0.0
 40
0.00513889
 41
0.00513889
  0
SEQEND
 8
0
  0
POLYLINE
  8
0
 62
     0
 66
     1
 10
0
 20
0
 30
0.0
 40
0.37
 41
0.37
  0
VERTEX
  8
0
 10
4.92008
 20
7.91049
 30
0.0
 40
0.00513889
 41
0.00513889
  0
VERTEX
  8
0
 10
4.91715
 20
7.91938
 30
0.0
 40
0.00513889
 41
0.00513889
  0
VERTEX
  8
0
 10
4.9095
 20
7.92464
 30
0.0
 40
0.00513889
 41
0.00513889
  0
VERTEX
  8
0
 10
4.90539
 20
7.92518
 30
0.0
 40
0.00513889
 41
0.00513889
  0
SEQEND
 8
0
  0
POLYLINE
  8
0
 62
     0
 66
     1
 10
0
 20
0
 30
0.0
 40
0.37
 41
0.37
  0
VERTEX
  8
0
 10
4.91715
 20
7.91938
 30
0.0
 40
0.00513889
 41
0.00513889
  0
VERTEX
  8
0
 10
5.07954
 20
7.91938
 30
0.0
 40
0.00513889
 41
0.00513889
  0
SEQEND
 8
0
  0
POLYLINE
  8
0
 62
     0
 66
     1
 10
0
 20
0
 30
0.0
 40
0.37
 41
0.37
  0
VERTEX
  8
0
 10
4.63075
 20
7.94299
 30
0.0
 40
0.00513889
 41
0.00513889
  0
VERTEX
  8
0
 10
5.05593
 20
7.94299
 30
0.0
 40
0.00513889
 41
0.00513889
  0
SEQEND
 8
0
  0
POLYLINE
  8
0
 62
     0
 66
     1
 10
0
 20
0
 30
0.0
 40
0.37
 41
0.37
  0
VERTEX
  8
0
 10
4.60715
 20
7.91938
 30
0.0
 40
0.00513889
 41
0.00513889
  0
VERTEX
  8
0
 10
4.63075
 20
7.94299
 30
0.0
 40
0.00513889
 41
0.00513889
  0
SEQEND
 8
0
  0
POLYLINE
  8
0
 62
     0
 66
     1
 10
0
 20
0
 30
0.0
 40
0.37
 41
0.37
  0
VERTEX
  8
0
 10
4.60715
 20
7.51785
 30
0.0
 40
0.00513889
 41
0.00513889
  0
VERTEX
  8
0
 10
4.60715
 20
7.91938
 30
0.0
 40
0.00513889
 41
0.00513889
  0
SEQEND
 8
0
  0
POLYLINE
  8
0
 62
     0
 66
     1
 10
0
 20
0
 30
0.0
 40
0.37
 41
0.37
  0
VERTEX
  8
0
 10
5.07954
 20
7.91938
 30
0.0
 40
0.00513889
 41
0.00513889
  0
VERTEX
  8
0
 10
5.07954
 20
7.51785
 30
0.0
 40
0.00513889
 41
0.00513889
  0
SEQEND
 8
0
  0
POLYLINE
  8
0
 62
     0
 66
     1
 10
0
 20
0
 30
0.0
 40
0.37
 41
0.37
  0
VERTEX
  8
0
 10
5.05593
 20
7.94299
 30
0.0
 40
0.00513889
 41
0.00513889
  0
VERTEX
  8
0
 10
5.07954
 20
7.91938
 30
0.0
 40
0.00513889
 41
0.00513889
  0
SEQEND
 8
0
  0
POLYLINE
  8
0
 62
     0
 66
     1
 10
0
 20
0
 30
0.0
 40
0.37
 41
0.37
  0
VERTEX
  8
0
 10
4.52382
 20
7.44689
 30
0.0
 40
0.00513889
 41
0.00513889
  0
VERTEX
  8
0
 10
4.57107
 20
7.49425
 30
0.0
 40
0.00513889
 41
0.00513889
  0
SEQEND
 8
0
  0
POLYLINE
  8
0
 62
     0
 66
     1
 10
0
 20
0
 30
0.0
 40
0.37
 41
0.37
  0
VERTEX
  8
0
 10
4.57107
 20
7.49425
 30
0.0
 40
0.00513889
 41
0.00513889
  0
VERTEX
  8
0
 10
4.57107
 20
7.51785
 30
0.0
 40
0.00513889
 41
0.00513889
  0
SEQEND
 8
0
  0
POLYLINE
  8
0
 62
     0
 66
     1
 10
0
 20
0
 30
0.0
 40
0.37
 41
0.37
  0
VERTEX
  8
0
 10
4.57107
 20
7.51785
 30
0.0
 40
0.00513889
 41
0.00513889
  0
VERTEX
  8
0
 10
4.78136
 20
7.51785
 30
0.0
 40
0.00513889
 41
0.00513889
  0
SEQEND
 8
0
  0
POLYLINE
  8
0
 62
     0
 66
     1
 10
0
 20
0
 30
0.0
 40
0.37
 41
0.37
  0
VERTEX
  8
0
 10
4.90539
 20
7.51785
 30
0.0
 40
0.00513889
 41
0.00513889
  0
VERTEX
  8
0
 10
5.11561
 20
7.51785
 30
0.0
 40
0.00513889
 41
0.00513889
  0
SEQEND
 8
0
  0
POLYLINE
  8
0
 62
     0
 66
     1
 10
0
 20
0
 30
0.0
 40
0.37
 41
0.37
  0
VERTEX
  8
0
 10
5.11561
 20
7.51785
 30
0.0
 40
0.00513889
 41
0.00513889
  0
VERTEX
  8
0
 10
5.11561
 20
7.49425
 30
0.0
 40
0.00513889
 41
0.00513889
  0
SEQEND
 8
0
  0
POLYLINE
  8
0
 62
     0
 66
     1
 10
0
 20
0
 30
0.0
 40
0.37
 41
0.37
  0
VERTEX
  8
0
 10
5.11561
 20
7.49425
 30
0.0
 40
0.00513889
 41
0.00513889
  0
VERTEX
  8
0
 10
5.16287
 20
7.44689
 30
0.0
 40
0.00513889
 41
0.00513889
  0
SEQEND
 8
0
  0
POLYLINE
  8
0
 62
     0
 66
     1
 10
0
 20
0
 30
0.0
 40
0.37
 41
0.37
  0
VERTEX
  8
0
 10
4.57107
 20
7.49425
 30
0.0
 40
0.00513889
 41
0.00513889
  0
VERTEX
  8
0
 10
4.88758
 20
7.49425
 30
0.0
 40
0.00513889
 41
0.00513889
  0
SEQEND
 8
0
  0
POLYLINE
  8
0
 62
     0
 66
     1
 10
0
 20
0
 30
0.0
 40
0.37
 41
0.37
  0
VERTEX
  8
0
 10
4.88758
 20
7.49425
 30
0.0
 40
0.00513889
 41
0.00513889
  0
VERTEX
  8
0
 10
5.11561
 20
7.49425
 30
0.0
 40
0.00513889
 41
0.00513889
  0
SEQEND
 8
0
  0
POLYLINE
  8
0
 62
     0
 66
     1
 10
0
 20
0
 30
0.0
 40
0.37
 41
0.37
  0
VERTEX
  8
0
 10
4.61301
 20
6.14774
 30
0.0
 40
0.00513889
 41
0.00513889
  0
VERTEX
  8
0
 10
4.61214
 20
6.15744
 30
0.0
 40
0.00513889
 41
0.00513889
  0
VERTEX
  8
0
 10
4.60981
 20
6.16699
 30
0.0
 40
0.00513889
 41
0.00513889
  0
VERTEX
  8
0
 10
4.60579
 20
6.17589
 30
0.0
 40
0.00513889
 41
0.00513889
  0
VERTEX
  8
0
 10
4.60047
 20
6.18408
 30
0.0
 40
0.00513889
 41
0.00513889
  0
VERTEX
  8
0
 10
4.59381
 20
6.19129
 30
0.0
 40
0.00513889
 41
0.00513889
  0
VERTEX
  8
0
 10
4.58604
 20
6.19732
 30
0.0
 40
0.00513889
 41
0.00513889
  0
VERTEX
  8
0
 10
4.57731
 20
6.20204
 30
0.0
 40
0.00513889
 41
0.00513889
  0
VERTEX
  8
0
 10
4.56799
 20
6.20508
 30
0.0
 40
0.00513889
 41
0.00513889
  0
VERTEX
  8
0
 10
4.55843
 20
6.2066
 30
0.0
 40
0.00513889
 41
0.00513889
  0
VERTEX
  8
0
 10
4.55399
 20
6.20676
 30
0.0
 40
0.00513889
 41
0.00513889
  0
SEQEND
 8
0
  0
POLYLINE
  8
0
 62
     0
 66
     1
 10
0
 20
0
 30
0.0
 40
0.37
 41
0.37
  0
VERTEX
  8
0
 10
5.13271
 20
6.20676
 30
0.0
 40
0.00513889
 41
0.00513889
  0
VERTEX
  8
0
 10
5.12299
 20
6.20589
 30
0.0
 40
0.00513889
 41
0.00513889
  0
VERTEX
  8
0
 10
5.11339
 20
6.20356
 30
0.0
 40
0.00513889
 41
0.00513889
  0
VERTEX
  8
0
 10
5.10454
 20
6.19949
 30
0.0
 40
0.00513889
 41
0.00513889
  0
VERTEX
  8
0
 10
5.09636
 20
6.19422
 30
0.0
 40
0.00513889
 41
0.00513889
  0
VERTEX
  8
0
 10
5.08908
 20
6.18756
 30
0.0
 40
0.00513889
 41
0.00513889
  0
VERTEX
  8
0
 10
5.08311
 20
6.17979
 30
0.0
 40
0.00513889
 41
0.00513889
  0
VERTEX
  8
0
 10
5.0784
 20
6.17106
 30
0.0
 40
0.00513889
 41
0.00513889
  0
VERTEX
  8
0
 10
5.07536
 20
6.16174
 30
0.0
 40
0.00513889
 41
0.00513889
  0
VERTEX
  8
0
 10
5.07383
 20
6.15218
 30
0.0
 40
0.00513889
 41
0.00513889
  0
VERTEX
  8
0
 10
5.07368
 20
6.14774
 30
0.0
 40
0.00513889
 41
0.00513889
  0
SEQEND
 8
0
  0
POLYLINE
  8
0
 62
     0
 66
     1
 10
0
 20
0
 30
0.0
 40
0.37
 41
0.37
  0
VERTEX
  8
0
 10
4.05203
 20
6.20676
 30
0.0
 40
0.00513889
 41
0.00513889
  0
VERTEX
  8
0
 10
5.63465
 20
6.20676
 30
0.0
 40
0.00513889
 41
0.00513889
  0
SEQEND
 8
0
  0
POLYLINE
  8
0
 62
     0
 66
     1
 10
0
 20
0
 30
0.0
 40
0.37
 41
0.37
  0
VERTEX
  8
0
 10
3.92036
 20
6.85633
 30
0.0
 40
0.00513889
 41
0.00513889
  0
VERTEX
  8
0
 10
3.92036
 20
6.73828
 30
0.0
 40
0.00513889
 41
0.00513889
  0
SEQEND
 8
0
  0
POLYLINE
  8
0
 62
     0
 66
     1
 10
0
 20
0
 30
0.0
 40
0.37
 41
0.37
  0
VERTEX
  8
0
 10
3.92036
 20
6.73828
 30
0.0
 40
0.00513889
 41
0.00513889
  0
VERTEX
  8
0
 10
4.15826
 20
6.73828
 30
0.0
 40
0.00513889
 41
0.00513889
  0
SEQEND
 8
0
  0
POLYLINE
  8
0
 62
     0
 66
     1
 10
0
 20
0
 30
0.0
 40
0.37
 41
0.37
  0
VERTEX
  8
0
 10
4.15826
 20
6.20676
 30
0.0
 40
0.00513889
 41
0.00513889
  0
VERTEX
  8
0
 10
4.15826
 20
6.85633
 30
0.0
 40
0.00513889
 41
0.00513889
  0
SEQEND
 8
0
  0
POLYLINE
  8
0
 62
     0
 66
     1
 10
0
 20
0
 30
0.0
 40
0.37
 41
0.37
  0
VERTEX
  8
0
 10
4.45356
 20
6.20676
 30
0.0
 40
0.00513889
 41
0.00513889
  0
VERTEX
  8
0
 10
4.45356
 20
6.85633
 30
0.0
 40
0.00513889
 41
0.00513889
  0
SEQEND
 8
0
  0
POLYLINE
  8
0
 62
     0
 66
     1
 10
0
 20
0
 30
0.0
 40
0.37
 41
0.37
  0
VERTEX
  8
0
 10
4.07563
 20
6.20676
 30
0.0
 40
0.00513889
 41
0.00513889
  0
VERTEX
  8
0
 10
4.07563
 20
6.73828
 30
0.0
 40
0.00513889
 41
0.00513889
  0
SEQEND
 8
0
  0
POLYLINE
  8
0
 62
     0
 66
     1
 10
0
 20
0
 30
0.0
 40
0.37
 41
0.37
  0
VERTEX
  8
0
 10
4.62478
 20
6.85633
 30
0.0
 40
0.00513889
 41
0.00513889
  0
VERTEX
  8
0
 10
4.65272
 20
6.32493
 30
0.0
 40
0.00513889
 41
0.00513889
  0
SEQEND
 8
0
  0
POLYLINE
  8
0
 62
     0
 66
     1
 10
0
 20
0
 30
0.0
 40
0.37
 41
0.37
  0
VERTEX
  8
0
 10
4.65272
 20
6.32493
 30
0.0
 40
0.00513889
 41
0.00513889
  0
VERTEX
  8
0
 10
4.91868
 20
6.32493
 30
0.0
 40
0.00513889
 41
0.00513889
  0
SEQEND
 8
0
  0
POLYLINE
  8
0
 62
     0
 66
     1
 10
0
 20
0
 30
0.0
 40
0.37
 41
0.37
  0
VERTEX
  8
0
 10
5.65826
 20
6.40756
 30
0.0
 40
0.00513889
 41
0.00513889
  0
VERTEX
  8
0
 10
5.63465
 20
6.20676
 30
0.0
 40
0.00513889
 41
0.00513889
  0
SEQEND
 8
0
  0
POLYLINE
  8
0
 62
     0
 66
     1
 10
0
 20
0
 30
0.0
 40
0.37
 41
0.37
  0
VERTEX
  8
0
 10
4.05203
 20
6.20676
 30
0.0
 40
0.00513889
 41
0.00513889
  0
VERTEX
  8
0
 10
4.02843
 20
6.40756
 30
0.0
 40
0.00513889
 41
0.00513889
  0
SEQEND
 8
0
  0
POLYLINE
  8
0
 62
     0
 66
     1
 10
0
 20
0
 30
0.0
 40
0.37
 41
0.37
  0
VERTEX
  8
0
 10
4.02843
 20
6.40756
 30
0.0
 40
0.00513889
 41
0.00513889
  0
VERTEX
  8
0
 10
4.02843
 20
6.73828
 30
0.0
 40
0.00513889
 41
0.00513889
  0
SEQEND
 8
0
  0
POLYLINE
  8
0
 62
     0
 66
     1
 10
0
 20
0
 30
0.0
 40
0.37
 41
0.37
  0
VERTEX
  8
0
 10
3.92036
 20
6.85633
 30
0.0
 40
0.00513889
 41
0.00513889
  0
VERTEX
  8
0
 10
4.89285
 20
6.85633
 30
0.0
 40
0.00513889
 41
0.00513889
  0
SEQEND
 8
0
  0
POLYLINE
  8
0
 62
     0
 66
     1
 10
0
 20
0
 30
0.0
 40
0.37
 41
0.37
  0
VERTEX
  8
0
 10
4.07563
 20
6.56104
 30
0.0
 40
0.00513889
 41
0.00513889
  0
VERTEX
  8
0
 10
4.15826
 20
6.56104
 30
0.0
 40
0.00513889
 41
0.00513889
  0
SEQEND
 8
0
  0
POLYLINE
  8
0
 62
     0
 66
     1
 10
0
 20
0
 30
0.0
 40
0.37
 41
0.37
  0
VERTEX
  8
0
 10
4.45356
 20
6.56104
 30
0.0
 40
0.00513889
 41
0.00513889
  0
VERTEX
  8
0
 10
4.64035
 20
6.56104
 30
0.0
 40
0.00513889
 41
0.00513889
  0
SEQEND
 8
0
  0
POLYLINE
  8
0
 62
     0
 66
     1
 10
0
 20
0
 30
0.0
 40
0.37
 41
0.37
  0
VERTEX
  8
0
 10
4.06386
 20
6.20676
 30
0.0
 40
0.00513889
 41
0.00513889
  0
VERTEX
  8
0
 10
4.06619
 20
6.19732
 30
0.0
 40
0.00513889
 41
0.00513889
  0
VERTEX
  8
0
 10
4.06993
 20
6.18815
 30
0.0
 40
0.00513889
 41
0.00513889
  0
VERTEX
  8
0
 10
4.07482
 20
6.17964
 30
0.0
 40
0.00513889
 41
0.00513889
  0
VERTEX
  8
0
 10
4.08089
 20
6.17188
 30
0.0
 40
0.00513889
 41
0.00513889
  0
VERTEX
  8
0
 10
4.08783
 20
6.1651
 30
0.0
 40
0.00513889
 41
0.00513889
  0
VERTEX
  8
0
 10
4.09576
 20
6.15913
 30
0.0
 40
0.00513889
 41
0.00513889
  0
VERTEX
  8
0
 10
4.10439
 20
6.1544
 30
0.0
 40
0.00513889
 41
0.00513889
  0
VERTEX
  8
0
 10
4.11356
 20
6.15088
 30
0.0
 40
0.00513889
 41
0.00513889
  0
VERTEX
  8
0
 10
4.12315
 20
6.14865
 30
0.0
 40
0.00513889
 41
0.00513889
  0
VERTEX
  8
0
 10
4.13286
 20
6.14774
 30
0.0
 40
0.00513889
 41
0.00513889
  0
VERTEX
  8
0
 10
4.14274
 20
6.14811
 30
0.0
 40
0.00513889
 41
0.00513889
  0
VERTEX
  8
0
 10
4.15229
 20
6.14996
 30
0.0
 40
0.00513889
 41
0.00513889
  0
VERTEX
  8
0
 10
4.16162
 20
6.153
 30
0.0
 40
0.00513889
 41
0.00513889
  0
VERTEX
  8
0
 10
4.17051
 20
6.15728
 30
0.0
 40
0.00513889
 41
0.00513889
  0
VERTEX
  8
0
 10
4.17871
 20
6.16271
 30
0.0
 40
0.00513889
 41
0.00513889
  0
VERTEX
  8
0
 10
4.18604
 20
6.16922
 30
0.0
 40
0.00513889
 41
0.00513889
  0
VERTEX
  8
0
 10
4.19243
 20
6.1766
 30
0.0
 40
0.00513889
 41
0.00513889
  0
VERTEX
  8
0
 10
4.19769
 20
6.18494
 30
0.0
 40
0.00513889
 41
0.00513889
  0
VERTEX
  8
0
 10
4.20188
 20
6.19385
 30
0.0
 40
0.00513889
 41
0.00513889
  0
VERTEX
  8
0
 10
4.20481
 20
6.20313
 30
0.0
 40
0.00513889
 41
0.00513889
  0
VERTEX
  8
0
 10
4.20551
 20
6.20676
 30
0.0
 40
0.00513889
 41
0.00513889
  0
SEQEND
 8
0
  0
POLYLINE
  8
0
 62
     0
 66
     1
 10
0
 20
0
 30
0.0
 40
0.37
 41
0.37
  0
VERTEX
  8
0
 10
5.48118
 20
6.20676
 30
0.0
 40
0.00513889
 41
0.00513889
  0
VERTEX
  8
0
 10
5.48356
 20
6.19732
 30
0.0
 40
0.00513889
 41
0.00513889
  0
VERTEX
  8
0
 10
5.48731
 20
6.18815
 30
0.0
 40
0.00513889
 41
0.00513889
  0
VERTEX
  8
0
 10
5.49219
 20
6.17964
 30
0.0
 40
0.00513889
 41
0.00513889
  0
VERTEX
  8
0
 10
5.49815
 20
6.17188
 30
0.0
 40
0.00513889
 41
0.00513889
  0
VERTEX
  8
0
 10
5.50521
 20
6.1651
 30
0.0
 40
0.00513889
 41
0.00513889
  0
VERTEX
  8
0
 10
5.51303
 20
6.15913
 30
0.0
 40
0.00513889
 41
0.00513889
  0
VERTEX
  8
0
 10
5.5216
 20
6.1544
 30
0.0
 40
0.00513889
 41
0.00513889
  0
VERTEX
  8
0
 10
5.53076
 20
6.15088
 30
0.0
 40
0.00513889
 41
0.00513889
  0
VERTEX
  8
0
 10
5.54036
 20
6.14865
 30
0.0
 40
0.00513889
 41
0.00513889
  0
VERTEX
  8
0
 10
5.55024
 20
6.14774
 30
0.0
 40
0.00513889
 41
0.00513889
  0
VERTEX
  8
0
 10
5.55994
 20
6.14811
 30
0.0
 40
0.00513889
 41
0.00513889
  0
VERTEX
  8
0
 10
5.56967
 20
6.14996
 30
0.0
 40
0.00513889
 41
0.00513889
  0
VERTEX
  8
0
 10
5.579
 20
6.153
 30
0.0
 40
0.00513889
 41
0.00513889
  0
VERTEX
  8
0
 10
5.58783
 20
6.15728
 30
0.0
 40
0.00513889
 41
0.00513889
  0
VERTEX
  8
0
 10
5.59592
 20
6.16271
 30
0.0
 40
0.00513889
 41
0.00513889
  0
VERTEX
  8
0
 10
5.60331
 20
6.16922
 30
0.0
 40
0.00513889
 41
0.00513889
  0
VERTEX
  8
0
 10
5.60965
 20
6.1766
 30
0.0
 40
0.00513889
 41
0.00513889
  0
VERTEX
  8
0
 10
5.61507
 20
6.18494
 30
0.0
 40
0.00513889
 41
0.00513889
  0
VERTEX
  8
0
 10
5.61925
 20
6.19385
 30
0.0
 40
0.00513889
 41
0.00513889
  0
VERTEX
  8
0
 10
5.62218
 20
6.20313
 30
0.0
 40
0.00513889
 41
0.00513889
  0
VERTEX
  8
0
 10
5.62289
 20
6.20676
 30
0.0
 40
0.00513889
 41
0.00513889
  0
SEQEND
 8
0
  0
POLYLINE
  8
0
 62
     0
 66
     1
 10
0
 20
0
 30
0.0
 40
0.37
 41
0.37
  0
VERTEX
  8
0
 10
5.76633
 20
6.83871
 30
0.0
 40
0.00513889
 41
0.00513889
  0
VERTEX
  8
0
 10
5.83371
 20
6.83871
 30
0.0
 40
0.00513889
 41
0.00513889
  0
SEQEND
 8
0
  0
POLYLINE
  8
0
 62
     0
 66
     1
 10
0
 20
0
 30
0.0
 40
0.37
 41
0.37
  0
VERTEX
  8
0
 10
5.83371
 20
6.83871
 30
0.0
 40
0.00513889
 41
0.00513889
  0
VERTEX
  8
0
 10
5.83371
 20
6.76785
 30
0.0
 40
0.00513889
 41
0.00513889
  0
SEQEND
 8
0
  0
POLYLINE
  8
0
 62
     0
 66
     1
 10
0
 20
0
 30
0.0
 40
0.37
 41
0.37
  0
VERTEX
  8
0
 10
5.83371
 20
6.76785
 30
0.0
 40
0.00513889
 41
0.00513889
  0
VERTEX
  8
0
 10
5.76633
 20
6.76785
 30
0.0
 40
0.00513889
 41
0.00513889
  0
SEQEND
 8
0
  0
POLYLINE
  8
0
 62
     0
 66
     1
 10
0
 20
0
 30
0.0
 40
0.37
 41
0.37
  0
VERTEX
  8
0
 10
3.92036
 20
6.83871
 30
0.0
 40
0.00513889
 41
0.00513889
  0
VERTEX
  8
0
 10
3.85297
 20
6.83871
 30
0.0
 40
0.00513889
 41
0.00513889
  0
SEQEND
 8
0
  0
POLYLINE
  8
0
 62
     0
 66
     1
 10
0
 20
0
 30
0.0
 40
0.37
 41
0.37
  0
VERTEX
  8
0
 10
3.85297
 20
6.83871
 30
0.0
 40
0.00513889
 41
0.00513889
  0
VERTEX
  8
0
 10
3.85297
 20
6.76785
 30
0.0
 40
0.00513889
 41
0.00513889
  0
SEQEND
 8
0
  0
POLYLINE
  8
0
 62
     0
 66
     1
 10
0
 20
0
 30
0.0
 40
0.37
 41
0.37
  0
VERTEX
  8
0
 10
3.85297
 20
6.76785
 30
0.0
 40
0.00513889
 41
0.00513889
  0
VERTEX
  8
0
 10
3.92036
 20
6.76785
 30
0.0
 40
0.00513889
 41
0.00513889
  0
SEQEND
 8
0
  0
POLYLINE
  8
0
 62
     0
 66
     1
 10
0
 20
0
 30
0.0
 40
0.37
 41
0.37
  0
VERTEX
  8
0
 10
4.75483
 20
6.20676
 30
0.0
 40
0.00513889
 41
0.00513889
  0
VERTEX
  8
0
 10
4.75483
 20
5.94689
 30
0.0
 40
0.00513889
 41
0.00513889
  0
SEQEND
 8
0
  0
POLYLINE
  8
0
 62
     0
 66
     1
 10
0
 20
0
 30
0.0
 40
0.37
 41
0.37
  0
VERTEX
  8
0
 10
4.75483
 20
5.94689
 30
0.0
 40
0.00513889
 41
0.00513889
  0
VERTEX
  8
0
 10
4.81386
 20
5.80524
 30
0.0
 40
0.00513889
 41
0.00513889
  0
SEQEND
 8
0
  0
POLYLINE
  8
0
 62
     0
 66
     1
 10
0
 20
0
 30
0.0
 40
0.37
 41
0.37
  0
VERTEX
  8
0
 10
4.81386
 20
5.80524
 30
0.0
 40
0.00513889
 41
0.00513889
  0
VERTEX
  8
0
 10
4.87289
 20
5.80524
 30
0.0
 40
0.00513889
 41
0.00513889
  0
SEQEND
 8
0
  0
POLYLINE
  8
0
 62
     0
 66
     1
 10
0
 20
0
 30
0.0
 40
0.37
 41
0.37
  0
VERTEX
  8
0
 10
4.87289
 20
5.80524
 30
0.0
 40
0.00513889
 41
0.00513889
  0
VERTEX
  8
0
 10
4.93192
 20
5.94689
 30
0.0
 40
0.00513889
 41
0.00513889
  0
SEQEND
 8
0
  0
POLYLINE
  8
0
 62
     0
 66
     1
 10
0
 20
0
 30
0.0
 40
0.37
 41
0.37
  0
VERTEX
  8
0
 10
4.93192
 20
5.94689
 30
0.0
 40
0.00513889
 41
0.00513889
  0
VERTEX
  8
0
 10
4.93192
 20
6.20676
 30
0.0
 40
0.00513889
 41
0.00513889
  0
SEQEND
 8
0
  0
POLYLINE
  8
0
 62
     0
 66
     1
 10
0
 20
0
 30
0.0
 40
0.37
 41
0.37
  0
VERTEX
  8
0
 10
3.98118
 20
6.85633
 30
0.0
 40
0.00513889
 41
0.00513889
  0
VERTEX
  8
0
 10
4.89285
 20
6.85633
 30
0.0
 40
0.00513889
 41
0.00513889
  0
SEQEND
 8
0
  0
POLYLINE
  8
0
 62
     0
 66
     1
 10
0
 20
0
 30
0.0
 40
0.37
 41
0.37
  0
VERTEX
  8
0
 10
5.70551
 20
6.85633
 30
0.0
 40
0.00513889
 41
0.00513889
  0
VERTEX
  8
0
 10
5.30979
 20
7.42171
 30
0.0
 40
0.00513889
 41
0.00513889
  0
SEQEND
 8
0
  0
POLYLINE
  8
0
 62
     0
 66
     1
 10
0
 20
0
 30
0.0
 40
0.37
 41
0.37
  0
VERTEX
  8
0
 10
4.27647
 20
7.44689
 30
0.0
 40
0.00513889
 41
0.00513889
  0
VERTEX
  8
0
 10
4.2666
 20
7.44661
 30
0.0
 40
0.00513889
 41
0.00513889
  0
VERTEX
  8
0
 10
4.25672
 20
7.44575
 30
0.0
 40
0.00513889
 41
0.00513889
  0
VERTEX
  8
0
 10
4.24701
 20
7.44422
 30
0.0
 40
0.00513889
 41
0.00513889
  0
VERTEX
  8
0
 10
4.23747
 20
7.44228
 30
0.0
 40
0.00513889
 41
0.00513889
  0
VERTEX
  8
0
 10
4.22797
 20
7.43967
 30
0.0
 40
0.00513889
 41
0.00513889
  0
VERTEX
  8
0
 10
4.21853
 20
7.43647
 30
0.0
 40
0.00513889
 41
0.00513889
  0
VERTEX
  8
0
 10
4.20953
 20
7.43283
 30
0.0
 40
0.00513889
 41
0.00513889
  0
VERTEX
  8
0
 10
4.20063
 20
7.42854
 30
0.0
 40
0.00513889
 41
0.00513889
  0
VERTEX
  8
0
 10
4.192
 20
7.42383
 30
0.0
 40
0.00513889
 41
0.00513889
  0
VERTEX
  8
0
 10
4.18371
 20
7.41857
 30
0.0
 40
0.00513889
 41
0.00513889
  0
VERTEX
  8
0
 10
4.17578
 20
7.41271
 30
0.0
 40
0.00513889
 41
0.00513889
  0
VERTEX
  8
0
 10
4.16813
 20
7.40662
 30
0.0
 40
0.00513889
 41
0.00513889
  0
VERTEX
  8
0
 10
4.16092
 20
7.39996
 30
0.0
 40
0.00513889
 41
0.00513889
  0
VERTEX
  8
0
 10
4.15414
 20
7.39285
 30
0.0
 40
0.00513889
 41
0.00513889
  0
VERTEX
  8
0
 10
4.14774
 20
7.38536
 30
0.0
 40
0.00513889
 41
0.00513889
  0
VERTEX
  8
0
 10
4.14176
 20
7.37744
 30
0.0
 40
0.00513889
 41
0.00513889
  0
VERTEX
  8
0
 10
4.13618
 20
7.36925
 30
0.0
 40
0.00513889
 41
0.00513889
  0
VERTEX
  8
0
 10
4.13135
 20
7.36079
 30
0.0
 40
0.00513889
 41
0.00513889
  0
VERTEX
  8
0
 10
4.1269
 20
7.352
 30
0.0
 40
0.00513889
 41
0.00513889
  0
VERTEX
  8
0
 10
4.12289
 20
7.34299
 30
0.0
 40
0.00513889
 41
0.00513889
  0
VERTEX
  8
0
 10
4.11951
 20
7.33382
 30
0.0
 40
0.00513889
 41
0.00513889
  0
VERTEX
  8
0
 10
4.11757
 20
7.32758
 30
0.0
 40
0.00513889
 41
0.00513889
  0
SEQEND
 8
0
  0
POLYLINE
  8
0
 62
     0
 66
     1
 10
0
 20
0
 30
0.0
 40
0.37
 41
0.37
  0
VERTEX
  8
0
 10
4.11757
 20
7.32758
 30
0.0
 40
0.00513889
 41
0.00513889
  0
VERTEX
  8
0
 10
3.98118
 20
6.85633
 30
0.0
 40
0.00513889
 41
0.00513889
  0
SEQEND
 8
0
  0
POLYLINE
  8
0
 62
     0
 66
     1
 10
0
 20
0
 30
0.0
 40
0.37
 41
0.37
  0
VERTEX
  8
0
 10
4.44174
 20
6.85633
 30
0.0
 40
0.00513889
 41
0.00513889
  0
VERTEX
  8
0
 10
4.44174
 20
6.32135
 30
0.0
 40
0.00513889
 41
0.00513889
  0
SEQEND
 8
0
  0
POLYLINE
  8
0
 62
     0
 66
     1
 10
0
 20
0
 30
0.0
 40
0.37
 41
0.37
  0
VERTEX
  8
0
 10
4.44174
 20
6.32135
 30
0.0
 40
0.00513889
 41
0.00513889
  0
VERTEX
  8
0
 10
4.17008
 20
6.32135
 30
0.0
 40
0.00513889
 41
0.00513889
  0
SEQEND
 8
0
  0
POLYLINE
  8
0
 62
     0
 66
     1
 10
0
 20
0
 30
0.0
 40
0.37
 41
0.37
  0
VERTEX
  8
0
 10
4.17008
 20
6.32135
 30
0.0
 40
0.00513889
 41
0.00513889
  0
VERTEX
  8
0
 10
4.17008
 20
6.85633
 30
0.0
 40
0.00513889
 41
0.00513889
  0
SEQEND
 8
0
  0
POLYLINE
  8
0
 62
     0
 66
     1
 10
0
 20
0
 30
0.0
 40
0.37
 41
0.37
  0
VERTEX
  8
0
 10
4.44174
 20
6.49854
 30
0.0
 40
0.00513889
 41
0.00513889
  0
VERTEX
  8
0
 10
4.17008
 20
6.49854
 30
0.0
 40
0.00513889
 41
0.00513889
  0
SEQEND
 8
0
  0
POLYLINE
  8
0
 62
     0
 66
     1
 10
0
 20
0
 30
0.0
 40
0.37
 41
0.37
  0
VERTEX
  8
0
 10
4.48079
 20
7.44689
 30
0.0
 40
0.00513889
 41
0.00513889
  0
VERTEX
  8
0
 10
4.48079
 20
6.9891
 30
0.0
 40
0.00513889
 41
0.00513889
  0
SEQEND
 8
0
  0
POLYLINE
  8
0
 62
     0
 66
     1
 10
0
 20
0
 30
0.0
 40
0.37
 41
0.37
  0
VERTEX
  8
0
 10
4.48079
 20
7.02175
 30
0.0
 40
0.00513889
 41
0.00513889
  0
VERTEX
  8
0
 10
4.02897
 20
7.02175
 30
0.0
 40
0.00513889
 41
0.00513889
  0
SEQEND
 8
0
  0
POLYLINE
  8
0
 62
     0
 66
     1
 10
0
 20
0
 30
0.0
 40
0.37
 41
0.37
  0
VERTEX
  8
0
 10
3.46631
 20
6.14774
 30
0.0
 40
0.00513889
 41
0.00513889
  0
VERTEX
  8
0
 10
3.46576
 20
6.14231
 30
0.0
 40
0.00513889
 41
0.00513889
  0
SEQEND
 8
0
  0
POLYLINE
  8
0
 62
     0
 66
     1
 10
0
 20
0
 30
0.0
 40
0.37
 41
0.37
  0
VERTEX
  8
0
 10
3.46576
 20
6.14231
 30
0.0
 40
0.00513889
 41
0.00513889
  0
VERTEX
  8
0
 10
3.46468
 20
6.12788
 30
0.0
 40
0.00513889
 41
0.00513889
  0
SEQEND
 8
0
  0
POLYLINE
  8
0
 62
     0
 66
     1
 10
0
 20
0
 30
0.0
 40
0.37
 41
0.37
  0
VERTEX
  8
0
 10
3.46468
 20
6.12788
 30
0.0
 40
0.00513889
 41
0.00513889
  0
VERTEX
  8
0
 10
3.46468
 20
6.11524
 30
0.0
 40
0.00513889
 41
0.00513889
  0
SEQEND
 8
0
  0
POLYLINE
  8
0
 62
     0
 66
     1
 10
0
 20
0
 30
0.0
 40
0.37
 41
0.37
  0
VERTEX
  8
0
 10
3.46468
 20
6.11524
 30
0.0
 40
0.00513889
 41
0.00513889
  0
VERTEX
  8
0
 10
3.46756
 20
6.09967
 30
0.0
 40
0.00513889
 41
0.00513889
  0
SEQEND
 8
0
  0
POLYLINE
  8
0
 62
     0
 66
     1
 10
0
 20
0
 30
0.0
 40
0.37
 41
0.37
  0
VERTEX
  8
0
 10
3.46756
 20
6.09967
 30
0.0
 40
0.00513889
 41
0.00513889
  0
VERTEX
  8
0
 10
3.47038
 20
6.08242
 30
0.0
 40
0.00513889
 41
0.00513889
  0
SEQEND
 8
0
  0
POLYLINE
  8
0
 62
     0
 66
     1
 10
0
 20
0
 30
0.0
 40
0.37
 41
0.37
  0
VERTEX
  8
0
 10
3.47038
 20
6.08242
 30
0.0
 40
0.00513889
 41
0.00513889
  0
VERTEX
  8
0
 10
3.47271
 20
6.06993
 30
0.0
 40
0.00513889
 41
0.00513889
  0
SEQEND
 8
0
  0
POLYLINE
  8
0
 62
     0
 66
     1
 10
0
 20
0
 30
0.0
 40
0.37
 41
0.37
  0
VERTEX
  8
0
 10
3.47271
 20
6.06993
 30
0.0
 40
0.00513889
 41
0.00513889
  0
VERTEX
  8
0
 10
3.47412
 20
6.05811
 30
0.0
 40
0.00513889
 41
0.00513889
  0
SEQEND
 8
0
  0
POLYLINE
  8
0
 62
     0
 66
     1
 10
0
 20
0
 30
0.0
 40
0.37
 41
0.37
  0
VERTEX
  8
0
 10
3.47412
 20
6.05811
 30
0.0
 40
0.00513889
 41
0.00513889
  0
VERTEX
  8
0
 10
3.47814
 20
6.03396
 30
0.0
 40
0.00513889
 41
0.00513889
  0
SEQEND
 8
0
  0
POLYLINE
  8
0
 62
     0
 66
     1
 10
0
 20
0
 30
0.0
 40
0.37
 41
0.37
  0
VERTEX
  8
0
 10
3.47814
 20
6.03396
 30
0.0
 40
0.00513889
 41
0.00513889
  0
VERTEX
  8
0
 10
3.47911
 20
6.01676
 30
0.0
 40
0.00513889
 41
0.00513889
  0
SEQEND
 8
0
  0
POLYLINE
  8
0
 62
     0
 66
     1
 10
0
 20
0
 30
0.0
 40
0.37
 41
0.37
  0
VERTEX
  8
0
 10
3.47911
 20
6.01676
 30
0.0
 40
0.00513889
 41
0.00513889
  0
VERTEX
  8
0
 10
3.47911
 20
6.00424
 30
0.0
 40
0.00513889
 41
0.00513889
  0
SEQEND
 8
0
  0
POLYLINE
  8
0
 62
     0
 66
     1
 10
0
 20
0
 30
0.0
 40
0.37
 41
0.37
  0
VERTEX
  8
0
 10
3.47911
 20
6.00424
 30
0.0
 40
0.00513889
 41
0.00513889
  0
VERTEX
  8
0
 10
3.47939
 20
5.98953
 30
0.0
 40
0.00513889
 41
0.00513889
  0
SEQEND
 8
0
  0
POLYLINE
  8
0
 62
     0
 66
     1
 10
0
 20
0
 30
0.0
 40
0.37
 41
0.37
  0
VERTEX
  8
0
 10
3.47939
 20
5.98953
 30
0.0
 40
0.00513889
 41
0.00513889
  0
VERTEX
  8
0
 10
3.47939
 20
5.97715
 30
0.0
 40
0.00513889
 41
0.00513889
  0
SEQEND
 8
0
  0
POLYLINE
  8
0
 62
     0
 66
     1
 10
0
 20
0
 30
0.0
 40
0.37
 41
0.37
  0
VERTEX
  8
0
 10
3.47939
 20
5.97715
 30
0.0
 40
0.00513889
 41
0.00513889
  0
VERTEX
  8
0
 10
3.47982
 20
5.97049
 30
0.0
 40
0.00513889
 41
0.00513889
  0
SEQEND
 8
0
  0
POLYLINE
  8
0
 62
     0
 66
     1
 10
0
 20
0
 30
0.0
 40
0.37
 41
0.37
  0
VERTEX
  8
0
 10
6.18565
 20
6.14774
 30
0.0
 40
0.00513889
 41
0.00513889
  0
VERTEX
  8
0
 10
6.18539
 20
6.14382
 30
0.0
 40
0.00513889
 41
0.00513889
  0
SEQEND
 8
0
  0
POLYLINE
  8
0
 62
     0
 66
     1
 10
0
 20
0
 30
0.0
 40
0.37
 41
0.37
  0
VERTEX
  8
0
 10
6.18539
 20
6.14382
 30
0.0
 40
0.00513889
 41
0.00513889
  0
VERTEX
  8
0
 10
6.18354
 20
6.12619
 30
0.0
 40
0.00513889
 41
0.00513889
  0
SEQEND
 8
0
  0
POLYLINE
  8
0
 62
     0
 66
     1
 10
0
 20
0
 30
0.0
 40
0.37
 41
0.37
  0
VERTEX
  8
0
 10
6.18354
 20
6.12619
 30
0.0
 40
0.00513889
 41
0.00513889
  0
VERTEX
  8
0
 10
6.18272
 20
6.11356
 30
0.0
 40
0.00513889
 41
0.00513889
  0
SEQEND
 8
0
  0
POLYLINE
  8
0
 62
     0
 66
     1
 10
0
 20
0
 30
0.0
 40
0.37
 41
0.37
  0
VERTEX
  8
0
 10
6.18272
 20
6.11356
 30
0.0
 40
0.00513889
 41
0.00513889
  0
VERTEX
  8
0
 10
6.1805
 20
6.09244
 30
0.0
 40
0.00513889
 41
0.00513889
  0
SEQEND
 8
0
  0
POLYLINE
  8
0
 62
     0
 66
     1
 10
0
 20
0
 30
0.0
 40
0.37
 41
0.37
  0
VERTEX
  8
0
 10
6.1805
 20
6.09244
 30
0.0
 40
0.00513889
 41
0.00513889
  0
VERTEX
  8
0
 10
6.17649
 20
6.0734
 30
0.0
 40
0.00513889
 41
0.00513889
  0
SEQEND
 8
0
  0
POLYLINE
  8
0
 62
     0
 66
     1
 10
0
 20
0
 30
0.0
 40
0.37
 41
0.37
  0
VERTEX
  8
0
 10
6.17649
 20
6.0734
 30
0.0
 40
0.00513889
 41
0.00513889
  0
VERTEX
  8
0
 10
6.17117
 20
6.05757
 30
0.0
 40
0.00513889
 41
0.00513889
  0
SEQEND
 8
0
  0
POLYLINE
  8
0
 62
     0
 66
     1
 10
0
 20
0
 30
0.0
 40
0.37
 41
0.37
  0
VERTEX
  8
0
 10
6.17117
 20
6.05757
 30
0.0
 40
0.00513889
 41
0.00513889
  0
VERTEX
  8
0
 10
6.16715
 20
6.03885
 30
0.0
 40
0.00513889
 41
0.00513889
  0
SEQEND
 8
0
  0
POLYLINE
  8
0
 62
     0
 66
     1
 10
0
 20
0
 30
0.0
 40
0.37
 41
0.37
  0
VERTEX
  8
0
 10
6.16715
 20
6.03885
 30
0.0
 40
0.00513889
 41
0.00513889
  0
VERTEX
  8
0
 10
6.16493
 20
6.02507
 30
0.0
 40
0.00513889
 41
0.00513889
  0
SEQEND
 8
0
  0
POLYLINE
  8
0
 62
     0
 66
     1
 10
0
 20
0
 30
0.0
 40
0.37
 41
0.37
  0
VERTEX
  8
0
 10
6.16493
 20
6.02507
 30
0.0
 40
0.00513889
 41
0.00513889
  0
VERTEX
  8
0
 10
6.16314
 20
6.01329
 30
0.0
 40
0.00513889
 41
0.00513889
  0
SEQEND
 8
0
  0
POLYLINE
  8
0
 62
     0
 66
     1
 10
0
 20
0
 30
0.0
 40
0.37
 41
0.37
  0
VERTEX
  8
0
 10
6.16314
 20
6.01329
 30
0.0
 40
0.00513889
 41
0.00513889
  0
VERTEX
  8
0
 10
6.16174
 20
5.99425
 30
0.0
 40
0.00513889
 41
0.00513889
  0
SEQEND
 8
0
  0
POLYLINE
  8
0
 62
     0
 66
     1
 10
0
 20
0
 30
0.0
 40
0.37
 41
0.37
  0
VERTEX
  8
0
 10
6.16174
 20
5.99425
 30
0.0
 40
0.00513889
 41
0.00513889
  0
VERTEX
  8
0
 10
6.15967
 20
5.98036
 30
0.0
 40
0.00513889
 41
0.00513889
  0
SEQEND
 8
0
  0
POLYLINE
  8
0
 62
     0
 66
     1
 10
0
 20
0
 30
0.0
 40
0.37
 41
0.37
  0
VERTEX
  8
0
 10
6.15967
 20
5.98036
 30
0.0
 40
0.00513889
 41
0.00513889
  0
VERTEX
  8
0
 10
6.1594
 20
5.97049
 30
0.0
 40
0.00513889
 41
0.00513889
  0
SEQEND
 8
0
  0
POLYLINE
  8
0
 62
     0
 66
     1
 10
0
 20
0
 30
0.0
 40
0.37
 41
0.37
  0
VERTEX
  8
0
 10
3.46631
 20
6.14774
 30
0.0
 40
0.00513889
 41
0.00513889
  0
VERTEX
  8
0
 10
4.61301
 20
6.14774
 30
0.0
 40
0.00513889
 41
0.00513889
  0
SEQEND
 8
0
  0
POLYLINE
  8
0
 62
     0
 66
     1
 10
0
 20
0
 30
0.0
 40
0.37
 41
0.37
  0
VERTEX
  8
0
 10
4.61301
 20
6.14774
 30
0.0
 40
0.00513889
 41
0.00513889
  0
VERTEX
  8
0
 10
4.75483
 20
6.14774
 30
0.0
 40
0.00513889
 41
0.00513889
  0
SEQEND
 8
0
  0
POLYLINE
  8
0
 62
     0
 66
     1
 10
0
 20
0
 30
0.0
 40
0.37
 41
0.37
  0
VERTEX
  8
0
 10
4.93192
 20
6.14774
 30
0.0
 40
0.00513889
 41
0.00513889
  0
VERTEX
  8
0
 10
5.07368
 20
6.14774
 30
0.0
 40
0.00513889
 41
0.00513889
  0
SEQEND
 8
0
  0
POLYLINE
  8
0
 62
     0
 66
     1
 10
0
 20
0
 30
0.0
 40
0.37
 41
0.37
  0
VERTEX
  8
0
 10
5.07368
 20
6.14774
 30
0.0
 40
0.00513889
 41
0.00513889
  0
VERTEX
  8
0
 10
6.18565
 20
6.14774
 30
0.0
 40
0.00513889
 41
0.00513889
  0
SEQEND
 8
0
  0
POLYLINE
  8
0
 62
     0
 66
     1
 10
0
 20
0
 30
0.0
 40
0.37
 41
0.37
  0
VERTEX
  8
0
 10
3.47982
 20
5.97049
 30
0.0
 40
0.00513889
 41
0.00513889
  0
VERTEX
  8
0
 10
4.61301
 20
5.97049
 30
0.0
 40
0.00513889
 41
0.00513889
  0
SEQEND
 8
0
  0
POLYLINE
  8
0
 62
     0
 66
     1
 10
0
 20
0
 30
0.0
 40
0.37
 41
0.37
  0
VERTEX
  8
0
 10
4.61301
 20
5.97049
 30
0.0
 40
0.00513889
 41
0.00513889
  0
VERTEX
  8
0
 10
4.75483
 20
5.97049
 30
0.0
 40
0.00513889
 41
0.00513889
  0
SEQEND
 8
0
  0
POLYLINE
  8
0
 62
     0
 66
     1
 10
0
 20
0
 30
0.0
 40
0.37
 41
0.37
  0
VERTEX
  8
0
 10
4.93192
 20
5.97049
 30
0.0
 40
0.00513889
 41
0.00513889
  0
VERTEX
  8
0
 10
5.07368
 20
5.97049
 30
0.0
 40
0.00513889
 41
0.00513889
  0
SEQEND
 8
0
  0
POLYLINE
  8
0
 62
     0
 66
     1
 10
0
 20
0
 30
0.0
 40
0.37
 41
0.37
  0
VERTEX
  8
0
 10
5.07368
 20
5.97049
 30
0.0
 40
0.00513889
 41
0.00513889
  0
VERTEX
  8
0
 10
6.1594
 20
5.97049
 30
0.0
 40
0.00513889
 41
0.00513889
  0
SEQEND
 8
0
  0
POLYLINE
  8
0
 62
     0
 66
     1
 10
0
 20
0
 30
0.0
 40
0.37
 41
0.37
  0
VERTEX
  8
0
 10
4.743
 20
6.14774
 30
0.0
 40
0.00513889
 41
0.00513889
  0
VERTEX
  8
0
 10
4.743
 20
5.97049
 30
0.0
 40
0.00513889
 41
0.00513889
  0
SEQEND
 8
0
  0
POLYLINE
  8
0
 62
     0
 66
     1
 10
0
 20
0
 30
0.0
 40
0.37
 41
0.37
  0
VERTEX
  8
0
 10
4.94368
 20
6.14774
 30
0.0
 40
0.00513889
 41
0.00513889
  0
VERTEX
  8
0
 10
4.94368
 20
5.97049
 30
0.0
 40
0.00513889
 41
0.00513889
  0
SEQEND
 8
0
  0
POLYLINE
  8
0
 62
     0
 66
     1
 10
0
 20
0
 30
0.0
 40
0.37
 41
0.37
  0
VERTEX
  8
0
 10
4.7991
 20
6.20676
 30
0.0
 40
0.00513889
 41
0.00513889
  0
VERTEX
  8
0
 10
4.7991
 20
5.94689
 30
0.0
 40
0.00513889
 41
0.00513889
  0
SEQEND
 8
0
  0
POLYLINE
  8
0
 62
     0
 66
     1
 10
0
 20
0
 30
0.0
 40
0.37
 41
0.37
  0
VERTEX
  8
0
 10
4.88758
 20
6.20676
 30
0.0
 40
0.00513889
 41
0.00513889
  0
VERTEX
  8
0
 10
4.88758
 20
5.94689
 30
0.0
 40
0.00513889
 41
0.00513889
  0
SEQEND
 8
0
  0
POLYLINE
  8
0
 62
     0
 66
     1
 10
0
 20
0
 30
0.0
 40
0.37
 41
0.37
  0
VERTEX
  8
0
 10
4.45481
 20
5.87603
 30
0.0
 40
0.00513889
 41
0.00513889
  0
VERTEX
  8
0
 10
4.54329
 20
5.87603
 30
0.0
 40
0.00513889
 41
0.00513889
  0
SEQEND
 8
0
  0
POLYLINE
  8
0
 62
     0
 66
     1
 10
0
 20
0
 30
0.0
 40
0.37
 41
0.37
  0
VERTEX
  8
0
 10
4.24328
 20
5.87603
 30
0.0
 40
0.00513889
 41
0.00513889
  0
VERTEX
  8
0
 10
4.3119
 20
5.87603
 30
0.0
 40
0.00513889
 41
0.00513889
  0
SEQEND
 8
0
  0
POLYLINE
  8
0
 62
     0
 66
     1
 10
0
 20
0
 30
0.0
 40
0.37
 41
0.37
  0
VERTEX
  8
0
 10
4.28228
 20
5.87603
 30
0.0
 40
0.00513889
 41
0.00513889
  0
VERTEX
  8
0
 10
4.28228
 20
5.75797
 30
0.0
 40
0.00513889
 41
0.00513889
  0
SEQEND
 8
0
  0
POLYLINE
  8
0
 62
     0
 66
     1
 10
0
 20
0
 30
0.0
 40
0.37
 41
0.37
  0
VERTEX
  8
0
 10
4.28228
 20
5.75797
 30
0.0
 40
0.00513889
 41
0.00513889
  0
VERTEX
  8
0
 10
4.3119
 20
5.75797
 30
0.0
 40
0.00513889
 41
0.00513889
  0
SEQEND
 8
0
  0
POLYLINE
  8
0
 62
     0
 66
     1
 10
0
 20
0
 30
0.0
 40
0.37
 41
0.37
  0
VERTEX
  8
0
 10
4.45481
 20
5.75797
 30
0.0
 40
0.00513889
 41
0.00513889
  0
VERTEX
  8
0
 10
4.54329
 20
5.75797
 30
0.0
 40
0.00513889
 41
0.00513889
  0
SEQEND
 8
0
  0
POLYLINE
  8
0
 62
     0
 66
     1
 10
0
 20
0
 30
0.0
 40
0.37
 41
0.37
  0
VERTEX
  8
0
 10
4.3119
 20
5.75797
 30
0.0
 40
0.00513889
 41
0.00513889
  0
VERTEX
  8
0
 10
4.3119
 20
5.97049
 30
0.0
 40
0.00513889
 41
0.00513889
  0
SEQEND
 8
0
  0
POLYLINE
  8
0
 62
     0
 66
     1
 10
0
 20
0
 30
0.0
 40
0.37
 41
0.37
  0
VERTEX
  8
0
 10
4.45481
 20
5.75797
 30
0.0
 40
0.00513889
 41
0.00513889
  0
VERTEX
  8
0
 10
4.45481
 20
5.97049
 30
0.0
 40
0.00513889
 41
0.00513889
  0
SEQEND
 8
0
  0
POLYLINE
  8
0
 62
     0
 66
     1
 10
0
 20
0
 30
0.0
 40
0.37
 41
0.37
  0
VERTEX
  8
0
 10
4.24328
 20
5.97049
 30
0.0
 40
0.00513889
 41
0.00513889
  0
VERTEX
  8
0
 10
4.24328
 20
5.87603
 30
0.0
 40
0.00513889
 41
0.00513889
  0
SEQEND
 8
0
  0
POLYLINE
  8
0
 62
     0
 66
     1
 10
0
 20
0
 30
0.0
 40
0.37
 41
0.37
  0
VERTEX
  8
0
 10
4.24328
 20
6.20676
 30
0.0
 40
0.00513889
 41
0.00513889
  0
VERTEX
  8
0
 10
4.24328
 20
6.14774
 30
0.0
 40
0.00513889
 41
0.00513889
  0
SEQEND
 8
0
  0
POLYLINE
  8
0
 62
     0
 66
     1
 10
0
 20
0
 30
0.0
 40
0.37
 41
0.37
  0
VERTEX
  8
0
 10
4.54329
 20
6.20676
 30
0.0
 40
0.00513889
 41
0.00513889
  0
VERTEX
  8
0
 10
4.54329
 20
6.14774
 30
0.0
 40
0.00513889
 41
0.00513889
  0
SEQEND
 8
0
  0
POLYLINE
  8
0
 62
     0
 66
     1
 10
0
 20
0
 30
0.0
 40
0.37
 41
0.37
  0
VERTEX
  8
0
 10
4.54329
 20
5.97049
 30
0.0
 40
0.00513889
 41
0.00513889
  0
VERTEX
  8
0
 10
4.54329
 20
5.75797
 30
0.0
 40
0.00513889
 41
0.00513889
  0
SEQEND
 8
0
  0
POLYLINE
  8
0
 62
     0
 66
     1
 10
0
 20
0
 30
0.0
 40
0.37
 41
0.37
  0
VERTEX
  8
0
 10
4.45481
 20
6.20676
 30
0.0
 40
0.00513889
 41
0.00513889
  0
VERTEX
  8
0
 10
4.45481
 20
6.14774
 30
0.0
 40
0.00513889
 41
0.00513889
  0
SEQEND
 8
0
  0
POLYLINE
  8
0
 62
     0
 66
     1
 10
0
 20
0
 30
0.0
 40
0.37
 41
0.37
  0
VERTEX
  8
0
 10
4.3119
 20
6.20676
 30
0.0
 40
0.00513889
 41
0.00513889
  0
VERTEX
  8
0
 10
4.3119
 20
6.14774
 30
0.0
 40
0.00513889
 41
0.00513889
  0
SEQEND
 8
0
  0
POLYLINE
  8
0
 62
     0
 66
     1
 10
0
 20
0
 30
0.0
 40
0.37
 41
0.37
  0
VERTEX
  8
0
 10
5.30979
 20
7.42171
 30
0.0
 40
0.00513889
 41
0.00513889
  0
VERTEX
  8
0
 10
5.30354
 20
7.42925
 30
0.0
 40
0.00513889
 41
0.00513889
  0
VERTEX
  8
0
 10
5.29606
 20
7.43565
 30
0.0
 40
0.00513889
 41
0.00513889
  0
VERTEX
  8
0
 10
5.28771
 20
7.44075
 30
0.0
 40
0.00513889
 41
0.00513889
  0
VERTEX
  8
0
 10
5.27854
 20
7.44439
 30
0.0
 40
0.00513889
 41
0.00513889
  0
VERTEX
  8
0
 10
5.26899
 20
7.44646
 30
0.0
 40
0.00513889
 41
0.00513889
  0
VERTEX
  8
0
 10
5.26144
 20
7.44689
 30
0.0
 40
0.00513889
 41
0.00513889
  0
SEQEND
 8
0
  0
POLYLINE
  8
0
 62
     0
 66
     1
 10
0
 20
0
 30
0.0
 40
0.37
 41
0.37
  0
VERTEX
  8
0
 10
5.26144
 20
7.44689
 30
0.0
 40
0.00513889
 41
0.00513889
  0
VERTEX
  8
0
 10
4.27647
 20
7.44689
 30
0.0
 40
0.00513889
 41
0.00513889
  0
SEQEND
 8
0
  0
POLYLINE
  8
0
 62
     0
 66
     1
 10
0
 20
0
 30
0.0
 40
0.37
 41
0.37
  0
VERTEX
  8
0
 10
3.9605
 20
6.73828
 30
0.0
 40
0.00513889
 41
0.00513889
  0
VERTEX
  8
0
 10
4.00483
 20
6.57286
 30
0.0
 40
0.00513889
 41
0.00513889
  0
SEQEND
 8
0
  0
POLYLINE
  8
0
 62
     0
 66
     1
 10
0
 20
0
 30
0.0
 40
0.37
 41
0.37
  0
VERTEX
  8
0
 10
4.02843
 20
6.61079
 30
0.0
 40
0.00513889
 41
0.00513889
  0
VERTEX
  8
0
 10
3.97521
 20
6.52561
 30
0.0
 40
0.00513889
 41
0.00513889
  0
SEQEND
 8
0
  0
POLYLINE
  8
0
 62
     0
 66
     1
 10
0
 20
0
 30
0.0
 40
0.37
 41
0.37
  0
VERTEX
  8
0
 10
3.96343
 20
6.50439
 30
0.0
 40
0.00513889
 41
0.00513889
  0
VERTEX
  8
0
 10
3.96343
 20
6.52561
 30
0.0
 40
0.00513889
 41
0.00513889
  0
SEQEND
 8
0
  0
POLYLINE
  8
0
 62
     0
 66
     1
 10
0
 20
0
 30
0.0
 40
0.37
 41
0.37
  0
VERTEX
  8
0
 10
4.02604
 20
6.40756
 30
0.0
 40
0.00513889
 41
0.00513889
  0
VERTEX
  8
0
 10
3.96343
 20
6.50439
 30
0.0
 40
0.00513889
 41
0.00513889
  0
SEQEND
 8
0
  0
POLYLINE
  8
0
 62
     0
 66
     1
 10
0
 20
0
 30
0.0
 40
0.37
 41
0.37
  0
VERTEX
  8
0
 10
3.96343
 20
6.52561
 30
0.0
 40
0.00513889
 41
0.00513889
  0
VERTEX
  8
0
 10
3.97521
 20
6.52561
 30
0.0
 40
0.00513889
 41
0.00513889
  0
SEQEND
 8
0
  0
POLYLINE
  8
0
 62
     0
 66
     1
 10
0
 20
0
 30
0.0
 40
0.37
 41
0.37
  0
VERTEX
  8
0
 10
4.02843
 20
6.713
 30
0.0
 40
0.00513889
 41
0.00513889
  0
VERTEX
  8
0
 10
4.0216
 20
6.73828
 30
0.0
 40
0.00513889
 41
0.00513889
  0
SEQEND
 8
0
  0
POLYLINE
  8
0
 62
     0
 66
     1
 10
0
 20
0
 30
0.0
 40
0.37
 41
0.37
  0
VERTEX
  8
0
 10
5.66064
 20
6.40756
 30
0.0
 40
0.00513889
 41
0.00513889
  0
VERTEX
  8
0
 10
5.72325
 20
6.50439
 30
0.0
 40
0.00513889
 41
0.00513889
  0
SEQEND
 8
0
  0
POLYLINE
  8
0
 62
     0
 66
     1
 10
0
 20
0
 30
0.0
 40
0.37
 41
0.37
  0
VERTEX
  8
0
 10
5.72325
 20
6.50439
 30
0.0
 40
0.00513889
 41
0.00513889
  0
VERTEX
  8
0
 10
5.72325
 20
6.52561
 30
0.0
 40
0.00513889
 41
0.00513889
  0
SEQEND
 8
0
  0
POLYLINE
  8
0
 62
     0
 66
     1
 10
0
 20
0
 30
0.0
 40
0.37
 41
0.37
  0
VERTEX
  8
0
 10
5.72325
 20
6.52561
 30
0.0
 40
0.00513889
 41
0.00513889
  0
VERTEX
  8
0
 10
5.71149
 20
6.52561
 30
0.0
 40
0.00513889
 41
0.00513889
  0
SEQEND
 8
0
  0
POLYLINE
  8
0
 62
     0
 66
     1
 10
0
 20
0
 30
0.0
 40
0.37
 41
0.37
  0
VERTEX
  8
0
 10
5.68192
 20
6.57286
 30
0.0
 40
0.00513889
 41
0.00513889
  0
VERTEX
  8
0
 10
5.71149
 20
6.52561
 30
0.0
 40
0.00513889
 41
0.00513889
  0
SEQEND
 8
0
  0
POLYLINE
  8
0
 62
     0
 66
     1
 10
0
 20
0
 30
0.0
 40
0.37
 41
0.37
  0
VERTEX
  8
0
 10
5.72618
 20
6.73828
 30
0.0
 40
0.00513889
 41
0.00513889
  0
VERTEX
  8
0
 10
5.68192
 20
6.57286
 30
0.0
 40
0.00513889
 41
0.00513889
  0
SEQEND
 8
0
  0
POLYLINE
  8
0
 62
     0
 66
     1
 10
0
 20
0
 30
0.0
 40
0.37
 41
0.37
  0
VERTEX
  8
0
 10
4.61301
 20
5.92329
 30
0.0
 40
0.00513889
 41
0.00513889
  0
VERTEX
  8
0
 10
5.07368
 20
5.92329
 30
0.0
 40
0.00513889
 41
0.00513889
  0
SEQEND
 8
0
  0
POLYLINE
  8
0
 62
     0
 66
     1
 10
0
 20
0
 30
0.0
 40
0.37
 41
0.37
  0
VERTEX
  8
0
 10
4.61301
 20
5.97049
 30
0.0
 40
0.00513889
 41
0.00513889
  0
VERTEX
  8
0
 10
4.61301
 20
5.92329
 30
0.0
 40
0.00513889
 41
0.00513889
  0
SEQEND
 8
0
  0
POLYLINE
  8
0
 62
     0
 66
     1
 10
0
 20
0
 30
0.0
 40
0.37
 41
0.37
  0
VERTEX
  8
0
 10
4.61301
 20
5.92329
 30
0.0
 40
0.00513889
 41
0.00513889
  0
VERTEX
  8
0
 10
4.68121
 20
5.80524
 30
0.0
 40
0.00513889
 41
0.00513889
  0
SEQEND
 8
0
  0
POLYLINE
  8
0
 62
     0
 66
     1
 10
0
 20
0
 30
0.0
 40
0.37
 41
0.37
  0
VERTEX
  8
0
 10
4.68121
 20
5.80524
 30
0.0
 40
0.00513889
 41
0.00513889
  0
VERTEX
  8
0
 10
4.80399
 20
5.80524
 30
0.0
 40
0.00513889
 41
0.00513889
  0
SEQEND
 8
0
  0
POLYLINE
  8
0
 62
     0
 66
     1
 10
0
 20
0
 30
0.0
 40
0.37
 41
0.37
  0
VERTEX
  8
0
 10
4.88271
 20
5.80524
 30
0.0
 40
0.00513889
 41
0.00513889
  0
VERTEX
  8
0
 10
5.00549
 20
5.80524
 30
0.0
 40
0.00513889
 41
0.00513889
  0
SEQEND
 8
0
  0
POLYLINE
  8
0
 62
     0
 66
     1
 10
0
 20
0
 30
0.0
 40
0.37
 41
0.37
  0
VERTEX
  8
0
 10
5.00549
 20
5.80524
 30
0.0
 40
0.00513889
 41
0.00513889
  0
VERTEX
  8
0
 10
5.07368
 20
5.92329
 30
0.0
 40
0.00513889
 41
0.00513889
  0
SEQEND
 8
0
  0
POLYLINE
  8
0
 62
     0
 66
     1
 10
0
 20
0
 30
0.0
 40
0.37
 41
0.37
  0
VERTEX
  8
0
 10
5.07368
 20
5.92329
 30
0.0
 40
0.00513889
 41
0.00513889
  0
VERTEX
  8
0
 10
5.07368
 20
5.97049
 30
0.0
 40
0.00513889
 41
0.00513889
  0
SEQEND
 8
0
  0
POLYLINE
  8
0
 62
     0
 66
     1
 10
0
 20
0
 30
0.0
 40
0.37
 41
0.37
  0
VERTEX
  8
0
 10
6.12744
 20
5.97049
 30
0.0
 40
0.00513889
 41
0.00513889
  0
VERTEX
  8
0
 10
6.1626
 20
6.00575
 30
0.0
 40
0.00513889
 41
0.00513889
  0
SEQEND
 8
0
  0
POLYLINE
  8
0
 62
     0
 66
     1
 10
0
 20
0
 30
0.0
 40
0.37
 41
0.37
  0
VERTEX
  8
0
 10
6.02718
 20
5.97049
 30
0.0
 40
0.00513889
 41
0.00513889
  0
VERTEX
  8
0
 10
6.18371
 20
6.12717
 30
0.0
 40
0.00513889
 41
0.00513889
  0
SEQEND
 8
0
  0
POLYLINE
  8
0
 62
     0
 66
     1
 10
0
 20
0
 30
0.0
 40
0.37
 41
0.37
  0
VERTEX
  8
0
 10
5.92686
 20
5.97049
 30
0.0
 40
0.00513889
 41
0.00513889
  0
VERTEX
  8
0
 10
6.10411
 20
6.14774
 30
0.0
 40
0.00513889
 41
0.00513889
  0
SEQEND
 8
0
  0
POLYLINE
  8
0
 62
     0
 66
     1
 10
0
 20
0
 30
0.0
 40
0.37
 41
0.37
  0
VERTEX
  8
0
 10
5.82676
 20
5.97049
 30
0.0
 40
0.00513889
 41
0.00513889
  0
VERTEX
  8
0
 10
6.00385
 20
6.14774
 30
0.0
 40
0.00513889
 41
0.00513889
  0
SEQEND
 8
0
  0
POLYLINE
  8
0
 62
     0
 66
     1
 10
0
 20
0
 30
0.0
 40
0.37
 41
0.37
  0
VERTEX
  8
0
 10
5.72646
 20
5.97049
 30
0.0
 40
0.00513889
 41
0.00513889
  0
VERTEX
  8
0
 10
5.90369
 20
6.14774
 30
0.0
 40
0.00513889
 41
0.00513889
  0
SEQEND
 8
0
  0
POLYLINE
  8
0
 62
     0
 66
     1
 10
0
 20
0
 30
0.0
 40
0.37
 41
0.37
  0
VERTEX
  8
0
 10
5.62636
 20
5.97049
 30
0.0
 40
0.00513889
 41
0.00513889
  0
VERTEX
  8
0
 10
5.80344
 20
6.14774
 30
0.0
 40
0.00513889
 41
0.00513889
  0
SEQEND
 8
0
  0
POLYLINE
  8
0
 62
     0
 66
     1
 10
0
 20
0
 30
0.0
 40
0.37
 41
0.37
  0
VERTEX
  8
0
 10
5.52604
 20
5.97049
 30
0.0
 40
0.00513889
 41
0.00513889
  0
VERTEX
  8
0
 10
5.70329
 20
6.14774
 30
0.0
 40
0.00513889
 41
0.00513889
  0
SEQEND
 8
0
  0
POLYLINE
  8
0
 62
     0
 66
     1
 10
0
 20
0
 30
0.0
 40
0.37
 41
0.37
  0
VERTEX
  8
0
 10
5.42578
 20
5.97049
 30
0.0
 40
0.00513889
 41
0.00513889
  0
VERTEX
  8
0
 10
5.60297
 20
6.14774
 30
0.0
 40
0.00513889
 41
0.00513889
  0
SEQEND
 8
0
  0
POLYLINE
  8
0
 62
     0
 66
     1
 10
0
 20
0
 30
0.0
 40
0.37
 41
0.37
  0
VERTEX
  8
0
 10
5.32563
 20
5.97049
 30
0.0
 40
0.00513889
 41
0.00513889
  0
VERTEX
  8
0
 10
5.50271
 20
6.14774
 30
0.0
 40
0.00513889
 41
0.00513889
  0
SEQEND
 8
0
  0
POLYLINE
  8
0
 62
     0
 66
     1
 10
0
 20
0
 30
0.0
 40
0.37
 41
0.37
  0
VERTEX
  8
0
 10
5.22537
 20
5.97049
 30
0.0
 40
0.00513889
 41
0.00513889
  0
VERTEX
  8
0
 10
5.40256
 20
6.14774
 30
0.0
 40
0.00513889
 41
0.00513889
  0
SEQEND
 8
0
  0
POLYLINE
  8
0
 62
     0
 66
     1
 10
0
 20
0
 30
0.0
 40
0.37
 41
0.37
  0
VERTEX
  8
0
 10
5.12522
 20
5.97049
 30
0.0
 40
0.00513889
 41
0.00513889
  0
VERTEX
  8
0
 10
5.30231
 20
6.14774
 30
0.0
 40
0.00513889
 41
0.00513889
  0
SEQEND
 8
0
  0
POLYLINE
  8
0
 62
     0
 66
     1
 10
0
 20
0
 30
0.0
 40
0.37
 41
0.37
  0
VERTEX
  8
0
 10
5.02496
 20
5.97049
 30
0.0
 40
0.00513889
 41
0.00513889
  0
VERTEX
  8
0
 10
5.20215
 20
6.14774
 30
0.0
 40
0.00513889
 41
0.00513889
  0
SEQEND
 8
0
  0
POLYLINE
  8
0
 62
     0
 66
     1
 10
0
 20
0
 30
0.0
 40
0.37
 41
0.37
  0
VERTEX
  8
0
 10
4.94368
 20
5.98953
 30
0.0
 40
0.00513889
 41
0.00513889
  0
VERTEX
  8
0
 10
5.10189
 20
6.14774
 30
0.0
 40
0.00513889
 41
0.00513889
  0
SEQEND
 8
0
  0
POLYLINE
  8
0
 62
     0
 66
     1
 10
0
 20
0
 30
0.0
 40
0.37
 41
0.37
  0
VERTEX
  8
0
 10
4.94368
 20
6.08979
 30
0.0
 40
0.00513889
 41
0.00513889
  0
VERTEX
  8
0
 10
5.00174
 20
6.14774
 30
0.0
 40
0.00513889
 41
0.00513889
  0
SEQEND
 8
0
  0
POLYLINE
  8
0
 62
     0
 66
     1
 10
0
 20
0
 30
0.0
 40
0.37
 41
0.37
  0
VERTEX
  8
0
 10
4.72424
 20
5.97049
 30
0.0
 40
0.00513889
 41
0.00513889
  0
VERTEX
  8
0
 10
4.743
 20
5.98926
 30
0.0
 40
0.00513889
 41
0.00513889
  0
SEQEND
 8
0
  0
POLYLINE
  8
0
 62
     0
 66
     1
 10
0
 20
0
 30
0.0
 40
0.37
 41
0.37
  0
VERTEX
  8
0
 10
4.62414
 20
5.97049
 30
0.0
 40
0.00513889
 41
0.00513889
  0
VERTEX
  8
0
 10
4.743
 20
6.08936
 30
0.0
 40
0.00513889
 41
0.00513889
  0
SEQEND
 8
0
  0
POLYLINE
  8
0
 62
     0
 66
     1
 10
0
 20
0
 30
0.0
 40
0.37
 41
0.37
  0
VERTEX
  8
0
 10
4.52382
 20
5.97049
 30
0.0
 40
0.00513889
 41
0.00513889
  0
VERTEX
  8
0
 10
4.70107
 20
6.14774
 30
0.0
 40
0.00513889
 41
0.00513889
  0
SEQEND
 8
0
  0
POLYLINE
  8
0
 62
     0
 66
     1
 10
0
 20
0
 30
0.0
 40
0.37
 41
0.37
  0
VERTEX
  8
0
 10
4.42372
 20
5.97049
 30
0.0
 40
0.00513889
 41
0.00513889
  0
VERTEX
  8
0
 10
4.60081
 20
6.14774
 30
0.0
 40
0.00513889
 41
0.00513889
  0
SEQEND
 8
0
  0
POLYLINE
  8
0
 62
     0
 66
     1
 10
0
 20
0
 30
0.0
 40
0.37
 41
0.37
  0
VERTEX
  8
0
 10
4.3234
 20
5.97049
 30
0.0
 40
0.00513889
 41
0.00513889
  0
VERTEX
  8
0
 10
4.50065
 20
6.14774
 30
0.0
 40
0.00513889
 41
0.00513889
  0
SEQEND
 8
0
  0
POLYLINE
  8
0
 62
     0
 66
     1
 10
0
 20
0
 30
0.0
 40
0.37
 41
0.37
  0
VERTEX
  8
0
 10
4.22314
 20
5.97049
 30
0.0
 40
0.00513889
 41
0.00513889
  0
VERTEX
  8
0
 10
4.40033
 20
6.14774
 30
0.0
 40
0.00513889
 41
0.00513889
  0
SEQEND
 8
0
  0
POLYLINE
  8
0
 62
     0
 66
     1
 10
0
 20
0
 30
0.0
 40
0.37
 41
0.37
  0
VERTEX
  8
0
 10
4.12299
 20
5.97049
 30
0.0
 40
0.00513889
 41
0.00513889
  0
VERTEX
  8
0
 10
4.30007
 20
6.14774
 30
0.0
 40
0.00513889
 41
0.00513889
  0
SEQEND
 8
0
  0
POLYLINE
  8
0
 62
     0
 66
     1
 10
0
 20
0
 30
0.0
 40
0.37
 41
0.37
  0
VERTEX
  8
0
 10
4.02274
 20
5.97049
 30
0.0
 40
0.00513889
 41
0.00513889
  0
VERTEX
  8
0
 10
4.19993
 20
6.14774
 30
0.0
 40
0.00513889
 41
0.00513889
  0
SEQEND
 8
0
  0
POLYLINE
  8
0
 62
     0
 66
     1
 10
0
 20
0
 30
0.0
 40
0.37
 41
0.37
  0
VERTEX
  8
0
 10
3.82232
 20
5.97049
 30
0.0
 40
0.00513889
 41
0.00513889
  0
VERTEX
  8
0
 10
3.99951
 20
6.14774
 30
0.0
 40
0.00513889
 41
0.00513889
  0
SEQEND
 8
0
  0
POLYLINE
  8
0
 62
     0
 66
     1
 10
0
 20
0
 30
0.0
 40
0.37
 41
0.37
  0
VERTEX
  8
0
 10
3.72217
 20
5.97049
 30
0.0
 40
0.00513889
 41
0.00513889
  0
VERTEX
  8
0
 10
3.89925
 20
6.14774
 30
0.0
 40
0.00513889
 41
0.00513889
  0
SEQEND
 8
0
  0
POLYLINE
  8
0
 62
     0
 66
     1
 10
0
 20
0
 30
0.0
 40
0.37
 41
0.37
  0
VERTEX
  8
0
 10
3.6219
 20
5.97049
 30
0.0
 40
0.00513889
 41
0.00513889
  0
VERTEX
  8
0
 10
3.7991
 20
6.14774
 30
0.0
 40
0.00513889
 41
0.00513889
  0
SEQEND
 8
0
  0
POLYLINE
  8
0
 62
     0
 66
     1
 10
0
 20
0
 30
0.0
 40
0.37
 41
0.37
  0
VERTEX
  8
0
 10
3.5216
 20
5.97049
 30
0.0
 40
0.00513889
 41
0.00513889
  0
VERTEX
  8
0
 10
3.69883
 20
6.14774
 30
0.0
 40
0.00513889
 41
0.00513889
  0
SEQEND
 8
0
  0
POLYLINE
  8
0
 62
     0
 66
     1
 10
0
 20
0
 30
0.0
 40
0.37
 41
0.37
  0
VERTEX
  8
0
 10
3.47857
 20
6.02756
 30
0.0
 40
0.00513889
 41
0.00513889
  0
VERTEX
  8
0
 10
3.59858
 20
6.14774
 30
0.0
 40
0.00513889
 41
0.00513889
  0
SEQEND
 8
0
  0
POLYLINE
  8
0
 62
     0
 66
     1
 10
0
 20
0
 30
0.0
 40
0.37
 41
0.37
  0
VERTEX
  8
0
 10
3.46479
 20
6.1141
 30
0.0
 40
0.00513889
 41
0.00513889
  0
VERTEX
  8
0
 10
3.49843
 20
6.14774
 30
0.0
 40
0.00513889
 41
0.00513889
  0
SEQEND
 8
0
  0
POLYLINE
  8
0
 62
     0
 66
     1
 10
0
 20
0
 30
0.0
 40
0.37
 41
0.37
  0
VERTEX
  8
0
 10
5.20535
 20
7.18631
 30
0.0
 40
0.00513889
 41
0.00513889
  0
VERTEX
  8
0
 10
5.20535
 20
7.44689
 30
0.0
 40
0.00513889
 41
0.00513889
  0
SEQEND
 8
0
  0
POLYLINE
  8
0
 62
     0
 66
     1
 10
0
 20
0
 30
0.0
 40
0.37
 41
0.37
  0
VERTEX
  8
0
 10
4.84326
 20
6.12913
 30
0.0
 40
0.00513889
 41
0.00513889
  0
VERTEX
  8
0
 10
4.84326
 20
6.21382
 30
0.0
 40
0.00513889
 41
0.00513889
  0
SEQEND
 8
0
  0
POLYLINE
  8
0
 62
     0
 66
     1
 10
0
 20
0
 30
0.0
 40
0.37
 41
0.37
  0
VERTEX
  8
0
 10
5.5791
 20
6.1466
 30
0.0
 40
0.00513889
 41
0.00513889
  0
VERTEX
  8
0
 10
5.72299
 20
6.1466
 30
0.0
 40
0.00513889
 41
0.00513889
  0
SEQEND
 8
0
  0
POLYLINE
  8
0
 62
     0
 66
     1
 10
0
 20
0
 30
0.0
 40
0.37
 41
0.37
  0
VERTEX
  8
0
 10
5.30757
 20
6.1466
 30
0.0
 40
0.00513889
 41
0.00513889
  0
VERTEX
  8
0
 10
5.16368
 20
6.1466
 30
0.0
 40
0.00513889
 41
0.00513889
  0
SEQEND
 8
0
  0
POLYLINE
  8
0
 62
     0
 66
     1
 10
0
 20
0
 30
0.0
 40
0.37
 41
0.37
  0
VERTEX
  8
0
 10
5.48465
 20
6.14774
 30
0.0
 40
0.00513889
 41
0.00513889
  0
VERTEX
  8
0
 10
5.48465
 20
6.1466
 30
0.0
 40
0.00513889
 41
0.00513889
  0
SEQEND
 8
0
  0
POLYLINE
  8
0
 62
     0
 66
     1
 10
0
 20
0
 30
0.0
 40
0.37
 41
0.37
  0
VERTEX
  8
0
 10
5.5791
 20
6.1466
 30
0.0
 40
0.00513889
 41
0.00513889
  0
VERTEX
  8
0
 10
5.48465
 20
6.1466
 30
0.0
 40
0.00513889
 41
0.00513889
  0
SEQEND
 8
0
  0
POLYLINE
  8
0
 62
     0
 66
     1
 10
0
 20
0
 30
0.0
 40
0.37
 41
0.37
  0
VERTEX
  8
0
 10
5.40201
 20
6.1466
 30
0.0
 40
0.00513889
 41
0.00513889
  0
VERTEX
  8
0
 10
5.30757
 20
6.1466
 30
0.0
 40
0.00513889
 41
0.00513889
  0
SEQEND
 8
0
  0
POLYLINE
  8
0
 62
     0
 66
     1
 10
0
 20
0
 30
0.0
 40
0.37
 41
0.37
  0
VERTEX
  8
0
 10
5.40201
 20
6.14774
 30
0.0
 40
0.00513889
 41
0.00513889
  0
VERTEX
  8
0
 10
5.40201
 20
6.1466
 30
0.0
 40
0.00513889
 41
0.00513889
  0
SEQEND
 8
0
  0
POLYLINE
  8
0
 62
     0
 66
     1
 10
0
 20
0
 30
0.0
 40
0.37
 41
0.37
  0
VERTEX
  8
0
 10
5.48465
 20
6.14774
 30
0.0
 40
0.00513889
 41
0.00513889
  0
VERTEX
  8
0
 10
5.40201
 20
6.14774
 30
0.0
 40
0.00513889
 41
0.00513889
  0
SEQEND
 8
0
  0
POLYLINE
  8
0
 62
     0
 66
     1
 10
0
 20
0
 30
0.0
 40
0.37
 41
0.37
  0
VERTEX
  8
0
 10
5.37549
 20
6.16786
 30
0.0
 40
0.00513889
 41
0.00513889
  0
VERTEX
  8
0
 10
5.34885
 20
6.16786
 30
0.0
 40
0.00513889
 41
0.00513889
  0
SEQEND
 8
0
  0
POLYLINE
  8
0
 62
     0
 66
     1
 10
0
 20
0
 30
0.0
 40
0.37
 41
0.37
  0
VERTEX
  8
0
 10
5.37549
 20
6.21272
 30
0.0
 40
0.00513889
 41
0.00513889
  0
VERTEX
  8
0
 10
5.37549
 20
6.16786
 30
0.0
 40
0.00513889
 41
0.00513889
  0
SEQEND
 8
0
  0
POLYLINE
  8
0
 62
     0
 66
     1
 10
0
 20
0
 30
0.0
 40
0.37
 41
0.37
  0
VERTEX
  8
0
 10
5.51118
 20
6.21272
 30
0.0
 40
0.00513889
 41
0.00513889
  0
VERTEX
  8
0
 10
5.37549
 20
6.21272
 30
0.0
 40
0.00513889
 41
0.00513889
  0
SEQEND
 8
0
  0
POLYLINE
  8
0
 62
     0
 66
     1
 10
0
 20
0
 30
0.0
 40
0.37
 41
0.37
  0
VERTEX
  8
0
 10
5.51118
 20
6.21272
 30
0.0
 40
0.00513889
 41
0.00513889
  0
VERTEX
  8
0
 10
5.51118
 20
6.16786
 30
0.0
 40
0.00513889
 41
0.00513889
  0
SEQEND
 8
0
  0
POLYLINE
  8
0
 62
     0
 66
     1
 10
0
 20
0
 30
0.0
 40
0.37
 41
0.37
  0
VERTEX
  8
0
 10
5.53787
 20
6.16786
 30
0.0
 40
0.00513889
 41
0.00513889
  0
VERTEX
  8
0
 10
5.51118
 20
6.16786
 30
0.0
 40
0.00513889
 41
0.00513889
  0
SEQEND
 8
0
  0
POLYLINE
  8
0
 62
     0
 66
     1
 10
0
 20
0
 30
0.0
 40
0.37
 41
0.37
  0
VERTEX
  8
0
 10
5.53787
 20
6.16786
 30
0.0
 40
0.00513889
 41
0.00513889
  0
VERTEX
  8
0
 10
5.53787
 20
6.14774
 30
0.0
 40
0.00513889
 41
0.00513889
  0
SEQEND
 8
0
  0
POLYLINE
  8
0
 62
     0
 66
     1
 10
0
 20
0
 30
0.0
 40
0.37
 41
0.37
  0
VERTEX
  8
0
 10
5.53787
 20
6.14774
 30
0.0
 40
0.00513889
 41
0.00513889
  0
VERTEX
  8
0
 10
5.34885
 20
6.14774
 30
0.0
 40
0.00513889
 41
0.00513889
  0
SEQEND
 8
0
  0
POLYLINE
  8
0
 62
     0
 66
     1
 10
0
 20
0
 30
0.0
 40
0.37
 41
0.37
  0
VERTEX
  8
0
 10
5.34885
 20
6.16786
 30
0.0
 40
0.00513889
 41
0.00513889
  0
VERTEX
  8
0
 10
5.34885
 20
6.14774
 30
0.0
 40
0.00513889
 41
0.00513889
  0
SEQEND
 8
0
  0
POLYLINE
  8
0
 62
     0
 66
     1
 10
0
 20
0
 30
0.0
 40
0.37
 41
0.37
  0
VERTEX
  8
0
 10
5.30757
 20
6.14899
 30
0.0
 40
0.00513889
 41
0.00513889
  0
VERTEX
  8
0
 10
5.30757
 20
6.1466
 30
0.0
 40
0.00513889
 41
0.00513889
  0
SEQEND
 8
0
  0
POLYLINE
  8
0
 62
     0
 66
     1
 10
0
 20
0
 30
0.0
 40
0.37
 41
0.37
  0
VERTEX
  8
0
 10
5.34885
 20
6.14899
 30
0.0
 40
0.00513889
 41
0.00513889
  0
VERTEX
  8
0
 10
5.30757
 20
6.14899
 30
0.0
 40
0.00513889
 41
0.00513889
  0
SEQEND
 8
0
  0
POLYLINE
  8
0
 62
     0
 66
     1
 10
0
 20
0
 30
0.0
 40
0.37
 41
0.37
  0
VERTEX
  8
0
 10
5.40201
 20
6.1466
 30
0.0
 40
0.00513889
 41
0.00513889
  0
VERTEX
  8
0
 10
5.30757
 20
6.1466
 30
0.0
 40
0.00513889
 41
0.00513889
  0
SEQEND
 8
0
  0
POLYLINE
  8
0
 62
     0
 66
     1
 10
0
 20
0
 30
0.0
 40
0.37
 41
0.37
  0
VERTEX
  8
0
 10
5.40201
 20
6.14774
 30
0.0
 40
0.00513889
 41
0.00513889
  0
VERTEX
  8
0
 10
5.40201
 20
6.1466
 30
0.0
 40
0.00513889
 41
0.00513889
  0
SEQEND
 8
0
  0
POLYLINE
  8
0
 62
     0
 66
     1
 10
0
 20
0
 30
0.0
 40
0.37
 41
0.37
  0
VERTEX
  8
0
 10
5.48465
 20
6.14774
 30
0.0
 40
0.00513889
 41
0.00513889
  0
VERTEX
  8
0
 10
5.48465
 20
6.1466
 30
0.0
 40
0.00513889
 41
0.00513889
  0
SEQEND
 8
0
  0
POLYLINE
  8
0
 62
     0
 66
     1
 10
0
 20
0
 30
0.0
 40
0.37
 41
0.37
  0
VERTEX
  8
0
 10
5.5791
 20
6.1466
 30
0.0
 40
0.00513889
 41
0.00513889
  0
VERTEX
  8
0
 10
5.48465
 20
6.1466
 30
0.0
 40
0.00513889
 41
0.00513889
  0
SEQEND
 8
0
  0
POLYLINE
  8
0
 62
     0
 66
     1
 10
0
 20
0
 30
0.0
 40
0.37
 41
0.37
  0
VERTEX
  8
0
 10
5.5791
 20
6.14899
 30
0.0
 40
0.00513889
 41
0.00513889
  0
VERTEX
  8
0
 10
5.5791
 20
6.1466
 30
0.0
 40
0.00513889
 41
0.00513889
  0
SEQEND
 8
0
  0
POLYLINE
  8
0
 62
     0
 66
     1
 10
0
 20
0
 30
0.0
 40
0.37
 41
0.37
  0
VERTEX
  8
0
 10
5.5791
 20
6.14899
 30
0.0
 40
0.00513889
 41
0.00513889
  0
VERTEX
  8
0
 10
5.53787
 20
6.14899
 30
0.0
 40
0.00513889
 41
0.00513889
  0
SEQEND
 8
0
  0
POLYLINE
  8
0
 62
     0
 66
     1
 10
0
 20
0
 30
0.0
 40
0.37
 41
0.37
  0
VERTEX
  8
0
 10
5.42854
 20
6.21272
 30
0.0
 40
0.00513889
 41
0.00513889
  0
VERTEX
  8
0
 10
5.42854
 20
6.21506
 30
0.0
 40
0.00513889
 41
0.00513889
  0
SEQEND
 8
0
  0
POLYLINE
  8
0
 62
     0
 66
     1
 10
0
 20
0
 30
0.0
 40
0.37
 41
0.37
  0
VERTEX
  8
0
 10
5.39908
 20
6.21506
 30
0.0
 40
0.00513889
 41
0.00513889
  0
VERTEX
  8
0
 10
5.42854
 20
6.21506
 30
0.0
 40
0.00513889
 41
0.00513889
  0
SEQEND
 8
0
  0
POLYLINE
  8
0
 62
     0
 66
     1
 10
0
 20
0
 30
0.0
 40
0.37
 41
0.37
  0
VERTEX
  8
0
 10
5.39908
 20
6.21272
 30
0.0
 40
0.00513889
 41
0.00513889
  0
VERTEX
  8
0
 10
5.39908
 20
6.21506
 30
0.0
 40
0.00513889
 41
0.00513889
  0
SEQEND
 8
0
  0
POLYLINE
  8
0
 62
     0
 66
     1
 10
0
 20
0
 30
0.0
 40
0.37
 41
0.37
  0
VERTEX
  8
0
 10
5.48757
 20
6.21272
 30
0.0
 40
0.00513889
 41
0.00513889
  0
VERTEX
  8
0
 10
5.48757
 20
6.21506
 30
0.0
 40
0.00513889
 41
0.00513889
  0
SEQEND
 8
0
  0
POLYLINE
  8
0
 62
     0
 66
     1
 10
0
 20
0
 30
0.0
 40
0.37
 41
0.37
  0
VERTEX
  8
0
 10
5.45811
 20
6.21506
 30
0.0
 40
0.00513889
 41
0.00513889
  0
VERTEX
  8
0
 10
5.48757
 20
6.21506
 30
0.0
 40
0.00513889
 41
0.00513889
  0
SEQEND
 8
0
  0
POLYLINE
  8
0
 62
     0
 66
     1
 10
0
 20
0
 30
0.0
 40
0.37
 41
0.37
  0
VERTEX
  8
0
 10
5.45811
 20
6.21272
 30
0.0
 40
0.00513889
 41
0.00513889
  0
VERTEX
  8
0
 10
5.45811
 20
6.21506
 30
0.0
 40
0.00513889
 41
0.00513889
  0
SEQEND
 8
0
  0
POLYLINE
  8
0
 62
     0
 66
     1
 10
0
 20
0
 30
0.0
 70
     1
 40
0
 41
0
  0
VERTEX
  8
0
 10
5.43593
 20
6.22006
 30
0.0
 40
0
 41
0
  0
VERTEX
  8
0
 10
5.45079
 20
6.22006
 30
0.0
 40
0
 41
0
  0
VERTEX
  8
0
 10
5.45079
 20
6.20535
 30
0.0
 40
0
 41
0
  0
VERTEX
  8
0
 10
5.43593
 20
6.20535
 30
0.0
 40
0
 41
0
  0
VERTEX
  8
0
 10
5.43593
 20
6.22006
 30
0.0
 40
0
 41
0
  0
SEQEND
 8
0
  0
POLYLINE
  8
0
 62
     0
 66
     1
 10
0
 20
0
 30
0.0
 40
0.37
 41
0.37
  0
VERTEX
  8
0
 10
5.44038
 20
6.07438
 30
0.0
 40
0.00513889
 41
0.00513889
  0
VERTEX
  8
0
 10
5.43506
 20
6.153
 30
0.0
 40
0.00513889
 41
0.00513889
  0
VERTEX
  8
0
 10
5.40033
 20
6.08231
 30
0.0
 40
0.00513889
 41
0.00513889
  0
SEQEND
 8
0
  0
POLYLINE
  8
0
 62
     0
 66
     1
 10
0
 20
0
 30
0.0
 40
0.37
 41
0.37
  0
VERTEX
  8
0
 10
5.49631
 20
7.11019
 30
0.0
 40
0.00513889
 41
0.00513889
  0
VERTEX
  8
0
 10
5.45063
 20
7.04606
 30
0.0
 40
0.00513889
 41
0.00513889
  0
VERTEX
  8
0
 10
5.52219
 20
7.07867
 30
0.0
 40
0.00513889
 41
0.00513889
  0
SEQEND
 8
0
  0
ENDSEC
  0
EOF
