%TF.GenerationSoftware,KiCad,Pcbnew,5.1.9-73d0e3b20d~88~ubuntu20.04.1*%
%TF.CreationDate,2021-03-17T19:49:15+01:00*%
%TF.ProjectId,TestBoard,54657374-426f-4617-9264-2e6b69636164,rev?*%
%TF.SameCoordinates,Original*%
%TF.FileFunction,Paste,Top*%
%TF.FilePolarity,Positive*%
%FSLAX46Y46*%
G04 Gerber Fmt 4.6, Leading zero omitted, Abs format (unit mm)*
G04 Created by KiCad (PCBNEW 5.1.9-73d0e3b20d~88~ubuntu20.04.1) date 2021-03-17 19:49:15*
%MOMM*%
%LPD*%
G01*
G04 APERTURE LIST*
%ADD10R,0.800000X0.650000*%
G04 APERTURE END LIST*
D10*
%TO.C,SW6*%
X93200000Y-180500000D03*
X94800000Y-180500000D03*
X93200000Y-179600000D03*
G36*
G01*
X94400000Y-179762500D02*
X94400000Y-179437500D01*
G75*
G02*
X94562500Y-179275000I162500J0D01*
G01*
X95037500Y-179275000D01*
G75*
G02*
X95200000Y-179437500I0J-162500D01*
G01*
X95200000Y-179762500D01*
G75*
G02*
X95037500Y-179925000I-162500J0D01*
G01*
X94562500Y-179925000D01*
G75*
G02*
X94400000Y-179762500I0J162500D01*
G01*
G37*
%TD*%
%TO.C,SW5*%
X74200000Y-180500000D03*
X75800000Y-180500000D03*
X74200000Y-179600000D03*
G36*
G01*
X75400000Y-179762500D02*
X75400000Y-179437500D01*
G75*
G02*
X75562500Y-179275000I162500J0D01*
G01*
X76037500Y-179275000D01*
G75*
G02*
X76200000Y-179437500I0J-162500D01*
G01*
X76200000Y-179762500D01*
G75*
G02*
X76037500Y-179925000I-162500J0D01*
G01*
X75562500Y-179925000D01*
G75*
G02*
X75400000Y-179762500I0J162500D01*
G01*
G37*
%TD*%
%TO.C,SW3*%
X93200000Y-104500000D03*
X94800000Y-104500000D03*
X93200000Y-103600000D03*
G36*
G01*
X94400000Y-103762500D02*
X94400000Y-103437500D01*
G75*
G02*
X94562500Y-103275000I162500J0D01*
G01*
X95037500Y-103275000D01*
G75*
G02*
X95200000Y-103437500I0J-162500D01*
G01*
X95200000Y-103762500D01*
G75*
G02*
X95037500Y-103925000I-162500J0D01*
G01*
X94562500Y-103925000D01*
G75*
G02*
X94400000Y-103762500I0J162500D01*
G01*
G37*
%TD*%
%TO.C,SW1*%
X93200000Y-142500000D03*
X94800000Y-142500000D03*
X93200000Y-141600000D03*
G36*
G01*
X94400000Y-141762500D02*
X94400000Y-141437500D01*
G75*
G02*
X94562500Y-141275000I162500J0D01*
G01*
X95037500Y-141275000D01*
G75*
G02*
X95200000Y-141437500I0J-162500D01*
G01*
X95200000Y-141762500D01*
G75*
G02*
X95037500Y-141925000I-162500J0D01*
G01*
X94562500Y-141925000D01*
G75*
G02*
X94400000Y-141762500I0J162500D01*
G01*
G37*
%TD*%
M02*
