%TF.GenerationSoftware,KiCad,Pcbnew,5.1.9-73d0e3b20d~88~ubuntu20.04.1*%
%TF.CreationDate,2021-03-17T19:49:15+01:00*%
%TF.ProjectId,TestBoard,54657374-426f-4617-9264-2e6b69636164,rev?*%
%TF.SameCoordinates,Original*%
%TF.FileFunction,Legend,Bot*%
%TF.FilePolarity,Positive*%
%FSLAX46Y46*%
G04 Gerber Fmt 4.6, Leading zero omitted, Abs format (unit mm)*
G04 Created by KiCad (PCBNEW 5.1.9-73d0e3b20d~88~ubuntu20.04.1) date 2021-03-17 19:49:15*
%MOMM*%
%LPD*%
G01*
G04 APERTURE LIST*
%ADD10C,0.120000*%
%ADD11C,0.150000*%
%ADD12O,1.500000X1.500000*%
%ADD13O,1.800000X1.800000*%
%ADD14O,1.600000X1.600000*%
%ADD15R,1.600000X1.600000*%
%ADD16C,5.600000*%
%ADD17R,0.900000X0.800000*%
%ADD18C,2.000000*%
%ADD19C,1.700000*%
%ADD20C,4.000000*%
%ADD21C,2.200000*%
%ADD22O,2.800000X2.700000*%
%ADD23C,1.800000*%
%ADD24C,2.700000*%
%ADD25C,1.750000*%
%ADD26R,1.750000X1.750000*%
%ADD27R,1.000000X1.000000*%
G04 APERTURE END LIST*
D10*
%TO.C,U2*%
X137530000Y-134490000D02*
X137530000Y-136140000D01*
X137530000Y-136140000D02*
X114550000Y-136140000D01*
X114550000Y-136140000D02*
X114550000Y-130840000D01*
X114550000Y-130840000D02*
X137530000Y-130840000D01*
X137530000Y-130840000D02*
X137530000Y-132490000D01*
X137530000Y-132490000D02*
G75*
G03*
X137530000Y-134490000I0J-1000000D01*
G01*
%TO.C,C17*%
X83910000Y-155846267D02*
X83910000Y-155553733D01*
X82890000Y-155846267D02*
X82890000Y-155553733D01*
%TO.C,U12*%
X94000000Y-177440000D02*
X95950000Y-177440000D01*
X94000000Y-177440000D02*
X92050000Y-177440000D01*
X94000000Y-182560000D02*
X95950000Y-182560000D01*
X94000000Y-182560000D02*
X90550000Y-182560000D01*
%TO.C,U11*%
X75000000Y-177440000D02*
X76950000Y-177440000D01*
X75000000Y-177440000D02*
X73050000Y-177440000D01*
X75000000Y-182560000D02*
X76950000Y-182560000D01*
X75000000Y-182560000D02*
X71550000Y-182560000D01*
%TO.C,U10*%
X92600000Y-77040000D02*
X94550000Y-77040000D01*
X92600000Y-77040000D02*
X90650000Y-77040000D01*
X92600000Y-82160000D02*
X94550000Y-82160000D01*
X92600000Y-82160000D02*
X89150000Y-82160000D01*
%TO.C,U9*%
X94000000Y-101440000D02*
X95950000Y-101440000D01*
X94000000Y-101440000D02*
X92050000Y-101440000D01*
X94000000Y-106560000D02*
X95950000Y-106560000D01*
X94000000Y-106560000D02*
X90550000Y-106560000D01*
%TO.C,U8*%
X92600000Y-115040000D02*
X94550000Y-115040000D01*
X92600000Y-115040000D02*
X90650000Y-115040000D01*
X92600000Y-120160000D02*
X94550000Y-120160000D01*
X92600000Y-120160000D02*
X89150000Y-120160000D01*
%TO.C,U7*%
X94000000Y-139440000D02*
X95950000Y-139440000D01*
X94000000Y-139440000D02*
X92050000Y-139440000D01*
X94000000Y-144560000D02*
X95950000Y-144560000D01*
X94000000Y-144560000D02*
X90550000Y-144560000D01*
%TO.C,U5*%
X137530000Y-146290000D02*
X137530000Y-147940000D01*
X137530000Y-147940000D02*
X114550000Y-147940000D01*
X114550000Y-147940000D02*
X114550000Y-142640000D01*
X114550000Y-142640000D02*
X137530000Y-142640000D01*
X137530000Y-142640000D02*
X137530000Y-144290000D01*
X137530000Y-144290000D02*
G75*
G03*
X137530000Y-146290000I0J-1000000D01*
G01*
%TO.C,U4*%
X82460000Y-152400000D02*
X82460000Y-154350000D01*
X82460000Y-152400000D02*
X82460000Y-150450000D01*
X72340000Y-152400000D02*
X72340000Y-154350000D01*
X72340000Y-152400000D02*
X72340000Y-148950000D01*
%TO.C,U3*%
X106870000Y-173310000D02*
X106870000Y-171660000D01*
X106870000Y-171660000D02*
X129850000Y-171660000D01*
X129850000Y-171660000D02*
X129850000Y-176960000D01*
X129850000Y-176960000D02*
X106870000Y-176960000D01*
X106870000Y-176960000D02*
X106870000Y-175310000D01*
X106870000Y-175310000D02*
G75*
G03*
X106870000Y-173310000I0J1000000D01*
G01*
%TO.C,U1*%
X66640000Y-155480000D02*
X66640000Y-154550000D01*
X66640000Y-152320000D02*
X66640000Y-153250000D01*
X66640000Y-152320000D02*
X68800000Y-152320000D01*
X66640000Y-155480000D02*
X68100000Y-155480000D01*
%TO.C,R10*%
X99145276Y-181322500D02*
X99654724Y-181322500D01*
X99145276Y-180277500D02*
X99654724Y-180277500D01*
%TO.C,R9*%
X80145276Y-181322500D02*
X80654724Y-181322500D01*
X80145276Y-180277500D02*
X80654724Y-180277500D01*
%TO.C,R8*%
X88945276Y-86022500D02*
X89454724Y-86022500D01*
X88945276Y-84977500D02*
X89454724Y-84977500D01*
%TO.C,R7*%
X97745276Y-80822500D02*
X98254724Y-80822500D01*
X97745276Y-79777500D02*
X98254724Y-79777500D01*
%TO.C,R6*%
X99145276Y-105322500D02*
X99654724Y-105322500D01*
X99145276Y-104277500D02*
X99654724Y-104277500D01*
%TO.C,R5*%
X88945276Y-124022500D02*
X89454724Y-124022500D01*
X88945276Y-122977500D02*
X89454724Y-122977500D01*
%TO.C,R4*%
X97745276Y-118822500D02*
X98254724Y-118822500D01*
X97745276Y-117777500D02*
X98254724Y-117777500D01*
%TO.C,R3*%
X99145276Y-143322500D02*
X99654724Y-143322500D01*
X99145276Y-142277500D02*
X99654724Y-142277500D01*
%TO.C,R2*%
X147735000Y-84727064D02*
X147735000Y-84272936D01*
X146265000Y-84727064D02*
X146265000Y-84272936D01*
%TO.C,R1*%
X71922500Y-154254724D02*
X71922500Y-153745276D01*
X70877500Y-154254724D02*
X70877500Y-153745276D01*
%TO.C,Q2*%
X96840000Y-87880000D02*
X96840000Y-86950000D01*
X96840000Y-84720000D02*
X96840000Y-85650000D01*
X96840000Y-84720000D02*
X99000000Y-84720000D01*
X96840000Y-87880000D02*
X98300000Y-87880000D01*
%TO.C,Q1*%
X96840000Y-125880000D02*
X96840000Y-124950000D01*
X96840000Y-122720000D02*
X96840000Y-123650000D01*
X96840000Y-122720000D02*
X99000000Y-122720000D01*
X96840000Y-125880000D02*
X98300000Y-125880000D01*
%TO.C,D10*%
X89250000Y-164500000D02*
X90950000Y-164500000D01*
X90950000Y-164500000D02*
X90950000Y-167650000D01*
X89250000Y-164500000D02*
X89250000Y-167650000D01*
%TO.C,D9*%
X70250000Y-164500000D02*
X71950000Y-164500000D01*
X71950000Y-164500000D02*
X71950000Y-167650000D01*
X70250000Y-164500000D02*
X70250000Y-167650000D01*
%TO.C,D8*%
X96500000Y-84450000D02*
X96500000Y-82750000D01*
X96500000Y-82750000D02*
X99650000Y-82750000D01*
X96500000Y-84450000D02*
X99650000Y-84450000D01*
%TO.C,D7*%
X98350000Y-74300000D02*
X100050000Y-74300000D01*
X100050000Y-74300000D02*
X100050000Y-77450000D01*
X98350000Y-74300000D02*
X98350000Y-77450000D01*
%TO.C,D6*%
X96450000Y-74300000D02*
X98150000Y-74300000D01*
X98150000Y-74300000D02*
X98150000Y-77450000D01*
X96450000Y-74300000D02*
X96450000Y-77450000D01*
%TO.C,D5*%
X89250000Y-88500000D02*
X90950000Y-88500000D01*
X90950000Y-88500000D02*
X90950000Y-91650000D01*
X89250000Y-88500000D02*
X89250000Y-91650000D01*
%TO.C,D4*%
X96500000Y-122450000D02*
X96500000Y-120750000D01*
X96500000Y-120750000D02*
X99650000Y-120750000D01*
X96500000Y-122450000D02*
X99650000Y-122450000D01*
%TO.C,D3*%
X98350000Y-112300000D02*
X100050000Y-112300000D01*
X100050000Y-112300000D02*
X100050000Y-115450000D01*
X98350000Y-112300000D02*
X98350000Y-115450000D01*
%TO.C,D2*%
X96450000Y-112300000D02*
X98150000Y-112300000D01*
X98150000Y-112300000D02*
X98150000Y-115450000D01*
X96450000Y-112300000D02*
X96450000Y-115450000D01*
%TO.C,D1*%
X89250000Y-126500000D02*
X90950000Y-126500000D01*
X90950000Y-126500000D02*
X90950000Y-129650000D01*
X89250000Y-126500000D02*
X89250000Y-129650000D01*
%TO.C,C16*%
X88735000Y-179361252D02*
X88735000Y-178838748D01*
X87265000Y-179361252D02*
X87265000Y-178838748D01*
%TO.C,C15*%
X99253733Y-182910000D02*
X99546267Y-182910000D01*
X99253733Y-181890000D02*
X99546267Y-181890000D01*
%TO.C,C14*%
X69735000Y-179361252D02*
X69735000Y-178838748D01*
X68265000Y-179361252D02*
X68265000Y-178838748D01*
%TO.C,C13*%
X80253733Y-182910000D02*
X80546267Y-182910000D01*
X80253733Y-181890000D02*
X80546267Y-181890000D01*
%TO.C,C12*%
X89365000Y-74638748D02*
X89365000Y-75161252D01*
X90835000Y-74638748D02*
X90835000Y-75161252D01*
%TO.C,C11*%
X97853733Y-82310000D02*
X98146267Y-82310000D01*
X97853733Y-81290000D02*
X98146267Y-81290000D01*
%TO.C,C10*%
X88735000Y-103361252D02*
X88735000Y-102838748D01*
X87265000Y-103361252D02*
X87265000Y-102838748D01*
%TO.C,C9*%
X99253733Y-106910000D02*
X99546267Y-106910000D01*
X99253733Y-105890000D02*
X99546267Y-105890000D01*
%TO.C,C8*%
X89365000Y-112638748D02*
X89365000Y-113161252D01*
X90835000Y-112638748D02*
X90835000Y-113161252D01*
%TO.C,C7*%
X97853733Y-120310000D02*
X98146267Y-120310000D01*
X97853733Y-119290000D02*
X98146267Y-119290000D01*
%TO.C,C6*%
X88735000Y-141361252D02*
X88735000Y-140838748D01*
X87265000Y-141361252D02*
X87265000Y-140838748D01*
%TO.C,C5*%
X99253733Y-144910000D02*
X99546267Y-144910000D01*
X99253733Y-143890000D02*
X99546267Y-143890000D01*
%TO.C,C4*%
X139353733Y-137810000D02*
X139646267Y-137810000D01*
X139353733Y-136790000D02*
X139646267Y-136790000D01*
%TO.C,C3*%
X104896267Y-169890000D02*
X104603733Y-169890000D01*
X104896267Y-170910000D02*
X104603733Y-170910000D01*
%TO.C,C2*%
X69390000Y-153853733D02*
X69390000Y-154146267D01*
X70410000Y-153853733D02*
X70410000Y-154146267D01*
%TO.C,C1*%
X139353733Y-149610000D02*
X139646267Y-149610000D01*
X139353733Y-148590000D02*
X139646267Y-148590000D01*
%TO.C,U2*%
D11*
X139291904Y-132942380D02*
X139291904Y-133751904D01*
X139244285Y-133847142D01*
X139196666Y-133894761D01*
X139101428Y-133942380D01*
X138910952Y-133942380D01*
X138815714Y-133894761D01*
X138768095Y-133847142D01*
X138720476Y-133751904D01*
X138720476Y-132942380D01*
X138291904Y-133037619D02*
X138244285Y-132990000D01*
X138149047Y-132942380D01*
X137910952Y-132942380D01*
X137815714Y-132990000D01*
X137768095Y-133037619D01*
X137720476Y-133132857D01*
X137720476Y-133228095D01*
X137768095Y-133370952D01*
X138339523Y-133942380D01*
X137720476Y-133942380D01*
%TO.C,C17*%
X86342857Y-156057142D02*
X86390476Y-156104761D01*
X86533333Y-156152380D01*
X86628571Y-156152380D01*
X86771428Y-156104761D01*
X86866666Y-156009523D01*
X86914285Y-155914285D01*
X86961904Y-155723809D01*
X86961904Y-155580952D01*
X86914285Y-155390476D01*
X86866666Y-155295238D01*
X86771428Y-155200000D01*
X86628571Y-155152380D01*
X86533333Y-155152380D01*
X86390476Y-155200000D01*
X86342857Y-155247619D01*
X85390476Y-156152380D02*
X85961904Y-156152380D01*
X85676190Y-156152380D02*
X85676190Y-155152380D01*
X85771428Y-155295238D01*
X85866666Y-155390476D01*
X85961904Y-155438095D01*
X85057142Y-155152380D02*
X84390476Y-155152380D01*
X84819047Y-156152380D01*
%TO.C,U12*%
X95238095Y-182852380D02*
X95238095Y-183661904D01*
X95190476Y-183757142D01*
X95142857Y-183804761D01*
X95047619Y-183852380D01*
X94857142Y-183852380D01*
X94761904Y-183804761D01*
X94714285Y-183757142D01*
X94666666Y-183661904D01*
X94666666Y-182852380D01*
X93666666Y-183852380D02*
X94238095Y-183852380D01*
X93952380Y-183852380D02*
X93952380Y-182852380D01*
X94047619Y-182995238D01*
X94142857Y-183090476D01*
X94238095Y-183138095D01*
X93285714Y-182947619D02*
X93238095Y-182900000D01*
X93142857Y-182852380D01*
X92904761Y-182852380D01*
X92809523Y-182900000D01*
X92761904Y-182947619D01*
X92714285Y-183042857D01*
X92714285Y-183138095D01*
X92761904Y-183280952D01*
X93333333Y-183852380D01*
X92714285Y-183852380D01*
%TO.C,U11*%
X76238095Y-182852380D02*
X76238095Y-183661904D01*
X76190476Y-183757142D01*
X76142857Y-183804761D01*
X76047619Y-183852380D01*
X75857142Y-183852380D01*
X75761904Y-183804761D01*
X75714285Y-183757142D01*
X75666666Y-183661904D01*
X75666666Y-182852380D01*
X74666666Y-183852380D02*
X75238095Y-183852380D01*
X74952380Y-183852380D02*
X74952380Y-182852380D01*
X75047619Y-182995238D01*
X75142857Y-183090476D01*
X75238095Y-183138095D01*
X73714285Y-183852380D02*
X74285714Y-183852380D01*
X74000000Y-183852380D02*
X74000000Y-182852380D01*
X74095238Y-182995238D01*
X74190476Y-183090476D01*
X74285714Y-183138095D01*
%TO.C,U10*%
X93838095Y-82452380D02*
X93838095Y-83261904D01*
X93790476Y-83357142D01*
X93742857Y-83404761D01*
X93647619Y-83452380D01*
X93457142Y-83452380D01*
X93361904Y-83404761D01*
X93314285Y-83357142D01*
X93266666Y-83261904D01*
X93266666Y-82452380D01*
X92266666Y-83452380D02*
X92838095Y-83452380D01*
X92552380Y-83452380D02*
X92552380Y-82452380D01*
X92647619Y-82595238D01*
X92742857Y-82690476D01*
X92838095Y-82738095D01*
X91647619Y-82452380D02*
X91552380Y-82452380D01*
X91457142Y-82500000D01*
X91409523Y-82547619D01*
X91361904Y-82642857D01*
X91314285Y-82833333D01*
X91314285Y-83071428D01*
X91361904Y-83261904D01*
X91409523Y-83357142D01*
X91457142Y-83404761D01*
X91552380Y-83452380D01*
X91647619Y-83452380D01*
X91742857Y-83404761D01*
X91790476Y-83357142D01*
X91838095Y-83261904D01*
X91885714Y-83071428D01*
X91885714Y-82833333D01*
X91838095Y-82642857D01*
X91790476Y-82547619D01*
X91742857Y-82500000D01*
X91647619Y-82452380D01*
%TO.C,U9*%
X94761904Y-106852380D02*
X94761904Y-107661904D01*
X94714285Y-107757142D01*
X94666666Y-107804761D01*
X94571428Y-107852380D01*
X94380952Y-107852380D01*
X94285714Y-107804761D01*
X94238095Y-107757142D01*
X94190476Y-107661904D01*
X94190476Y-106852380D01*
X93666666Y-107852380D02*
X93476190Y-107852380D01*
X93380952Y-107804761D01*
X93333333Y-107757142D01*
X93238095Y-107614285D01*
X93190476Y-107423809D01*
X93190476Y-107042857D01*
X93238095Y-106947619D01*
X93285714Y-106900000D01*
X93380952Y-106852380D01*
X93571428Y-106852380D01*
X93666666Y-106900000D01*
X93714285Y-106947619D01*
X93761904Y-107042857D01*
X93761904Y-107280952D01*
X93714285Y-107376190D01*
X93666666Y-107423809D01*
X93571428Y-107471428D01*
X93380952Y-107471428D01*
X93285714Y-107423809D01*
X93238095Y-107376190D01*
X93190476Y-107280952D01*
%TO.C,U8*%
X93361904Y-120452380D02*
X93361904Y-121261904D01*
X93314285Y-121357142D01*
X93266666Y-121404761D01*
X93171428Y-121452380D01*
X92980952Y-121452380D01*
X92885714Y-121404761D01*
X92838095Y-121357142D01*
X92790476Y-121261904D01*
X92790476Y-120452380D01*
X92171428Y-120880952D02*
X92266666Y-120833333D01*
X92314285Y-120785714D01*
X92361904Y-120690476D01*
X92361904Y-120642857D01*
X92314285Y-120547619D01*
X92266666Y-120500000D01*
X92171428Y-120452380D01*
X91980952Y-120452380D01*
X91885714Y-120500000D01*
X91838095Y-120547619D01*
X91790476Y-120642857D01*
X91790476Y-120690476D01*
X91838095Y-120785714D01*
X91885714Y-120833333D01*
X91980952Y-120880952D01*
X92171428Y-120880952D01*
X92266666Y-120928571D01*
X92314285Y-120976190D01*
X92361904Y-121071428D01*
X92361904Y-121261904D01*
X92314285Y-121357142D01*
X92266666Y-121404761D01*
X92171428Y-121452380D01*
X91980952Y-121452380D01*
X91885714Y-121404761D01*
X91838095Y-121357142D01*
X91790476Y-121261904D01*
X91790476Y-121071428D01*
X91838095Y-120976190D01*
X91885714Y-120928571D01*
X91980952Y-120880952D01*
%TO.C,U7*%
X94761904Y-144852380D02*
X94761904Y-145661904D01*
X94714285Y-145757142D01*
X94666666Y-145804761D01*
X94571428Y-145852380D01*
X94380952Y-145852380D01*
X94285714Y-145804761D01*
X94238095Y-145757142D01*
X94190476Y-145661904D01*
X94190476Y-144852380D01*
X93809523Y-144852380D02*
X93142857Y-144852380D01*
X93571428Y-145852380D01*
%TO.C,U5*%
X139291904Y-144742380D02*
X139291904Y-145551904D01*
X139244285Y-145647142D01*
X139196666Y-145694761D01*
X139101428Y-145742380D01*
X138910952Y-145742380D01*
X138815714Y-145694761D01*
X138768095Y-145647142D01*
X138720476Y-145551904D01*
X138720476Y-144742380D01*
X137768095Y-144742380D02*
X138244285Y-144742380D01*
X138291904Y-145218571D01*
X138244285Y-145170952D01*
X138149047Y-145123333D01*
X137910952Y-145123333D01*
X137815714Y-145170952D01*
X137768095Y-145218571D01*
X137720476Y-145313809D01*
X137720476Y-145551904D01*
X137768095Y-145647142D01*
X137815714Y-145694761D01*
X137910952Y-145742380D01*
X138149047Y-145742380D01*
X138244285Y-145694761D01*
X138291904Y-145647142D01*
%TO.C,U4*%
X71961904Y-151152380D02*
X71961904Y-151961904D01*
X71914285Y-152057142D01*
X71866666Y-152104761D01*
X71771428Y-152152380D01*
X71580952Y-152152380D01*
X71485714Y-152104761D01*
X71438095Y-152057142D01*
X71390476Y-151961904D01*
X71390476Y-151152380D01*
X70485714Y-151485714D02*
X70485714Y-152152380D01*
X70723809Y-151104761D02*
X70961904Y-151819047D01*
X70342857Y-151819047D01*
%TO.C,U3*%
X106631904Y-173762380D02*
X106631904Y-174571904D01*
X106584285Y-174667142D01*
X106536666Y-174714761D01*
X106441428Y-174762380D01*
X106250952Y-174762380D01*
X106155714Y-174714761D01*
X106108095Y-174667142D01*
X106060476Y-174571904D01*
X106060476Y-173762380D01*
X105679523Y-173762380D02*
X105060476Y-173762380D01*
X105393809Y-174143333D01*
X105250952Y-174143333D01*
X105155714Y-174190952D01*
X105108095Y-174238571D01*
X105060476Y-174333809D01*
X105060476Y-174571904D01*
X105108095Y-174667142D01*
X105155714Y-174714761D01*
X105250952Y-174762380D01*
X105536666Y-174762380D01*
X105631904Y-174714761D01*
X105679523Y-174667142D01*
%TO.C,U1*%
X68161904Y-156452380D02*
X68161904Y-157261904D01*
X68114285Y-157357142D01*
X68066666Y-157404761D01*
X67971428Y-157452380D01*
X67780952Y-157452380D01*
X67685714Y-157404761D01*
X67638095Y-157357142D01*
X67590476Y-157261904D01*
X67590476Y-156452380D01*
X66590476Y-157452380D02*
X67161904Y-157452380D01*
X66876190Y-157452380D02*
X66876190Y-156452380D01*
X66971428Y-156595238D01*
X67066666Y-156690476D01*
X67161904Y-156738095D01*
%TO.C,R10*%
X103642857Y-181252380D02*
X103976190Y-180776190D01*
X104214285Y-181252380D02*
X104214285Y-180252380D01*
X103833333Y-180252380D01*
X103738095Y-180300000D01*
X103690476Y-180347619D01*
X103642857Y-180442857D01*
X103642857Y-180585714D01*
X103690476Y-180680952D01*
X103738095Y-180728571D01*
X103833333Y-180776190D01*
X104214285Y-180776190D01*
X102690476Y-181252380D02*
X103261904Y-181252380D01*
X102976190Y-181252380D02*
X102976190Y-180252380D01*
X103071428Y-180395238D01*
X103166666Y-180490476D01*
X103261904Y-180538095D01*
X102071428Y-180252380D02*
X101976190Y-180252380D01*
X101880952Y-180300000D01*
X101833333Y-180347619D01*
X101785714Y-180442857D01*
X101738095Y-180633333D01*
X101738095Y-180871428D01*
X101785714Y-181061904D01*
X101833333Y-181157142D01*
X101880952Y-181204761D01*
X101976190Y-181252380D01*
X102071428Y-181252380D01*
X102166666Y-181204761D01*
X102214285Y-181157142D01*
X102261904Y-181061904D01*
X102309523Y-180871428D01*
X102309523Y-180633333D01*
X102261904Y-180442857D01*
X102214285Y-180347619D01*
X102166666Y-180300000D01*
X102071428Y-180252380D01*
%TO.C,R9*%
X84166666Y-181252380D02*
X84500000Y-180776190D01*
X84738095Y-181252380D02*
X84738095Y-180252380D01*
X84357142Y-180252380D01*
X84261904Y-180300000D01*
X84214285Y-180347619D01*
X84166666Y-180442857D01*
X84166666Y-180585714D01*
X84214285Y-180680952D01*
X84261904Y-180728571D01*
X84357142Y-180776190D01*
X84738095Y-180776190D01*
X83690476Y-181252380D02*
X83500000Y-181252380D01*
X83404761Y-181204761D01*
X83357142Y-181157142D01*
X83261904Y-181014285D01*
X83214285Y-180823809D01*
X83214285Y-180442857D01*
X83261904Y-180347619D01*
X83309523Y-180300000D01*
X83404761Y-180252380D01*
X83595238Y-180252380D01*
X83690476Y-180300000D01*
X83738095Y-180347619D01*
X83785714Y-180442857D01*
X83785714Y-180680952D01*
X83738095Y-180776190D01*
X83690476Y-180823809D01*
X83595238Y-180871428D01*
X83404761Y-180871428D01*
X83309523Y-180823809D01*
X83261904Y-180776190D01*
X83214285Y-180680952D01*
%TO.C,R8*%
X89366666Y-87382380D02*
X89700000Y-86906190D01*
X89938095Y-87382380D02*
X89938095Y-86382380D01*
X89557142Y-86382380D01*
X89461904Y-86430000D01*
X89414285Y-86477619D01*
X89366666Y-86572857D01*
X89366666Y-86715714D01*
X89414285Y-86810952D01*
X89461904Y-86858571D01*
X89557142Y-86906190D01*
X89938095Y-86906190D01*
X88795238Y-86810952D02*
X88890476Y-86763333D01*
X88938095Y-86715714D01*
X88985714Y-86620476D01*
X88985714Y-86572857D01*
X88938095Y-86477619D01*
X88890476Y-86430000D01*
X88795238Y-86382380D01*
X88604761Y-86382380D01*
X88509523Y-86430000D01*
X88461904Y-86477619D01*
X88414285Y-86572857D01*
X88414285Y-86620476D01*
X88461904Y-86715714D01*
X88509523Y-86763333D01*
X88604761Y-86810952D01*
X88795238Y-86810952D01*
X88890476Y-86858571D01*
X88938095Y-86906190D01*
X88985714Y-87001428D01*
X88985714Y-87191904D01*
X88938095Y-87287142D01*
X88890476Y-87334761D01*
X88795238Y-87382380D01*
X88604761Y-87382380D01*
X88509523Y-87334761D01*
X88461904Y-87287142D01*
X88414285Y-87191904D01*
X88414285Y-87001428D01*
X88461904Y-86906190D01*
X88509523Y-86858571D01*
X88604761Y-86810952D01*
%TO.C,R7*%
X104866666Y-80852380D02*
X105200000Y-80376190D01*
X105438095Y-80852380D02*
X105438095Y-79852380D01*
X105057142Y-79852380D01*
X104961904Y-79900000D01*
X104914285Y-79947619D01*
X104866666Y-80042857D01*
X104866666Y-80185714D01*
X104914285Y-80280952D01*
X104961904Y-80328571D01*
X105057142Y-80376190D01*
X105438095Y-80376190D01*
X104533333Y-79852380D02*
X103866666Y-79852380D01*
X104295238Y-80852380D01*
%TO.C,R6*%
X103166666Y-105252380D02*
X103500000Y-104776190D01*
X103738095Y-105252380D02*
X103738095Y-104252380D01*
X103357142Y-104252380D01*
X103261904Y-104300000D01*
X103214285Y-104347619D01*
X103166666Y-104442857D01*
X103166666Y-104585714D01*
X103214285Y-104680952D01*
X103261904Y-104728571D01*
X103357142Y-104776190D01*
X103738095Y-104776190D01*
X102309523Y-104252380D02*
X102500000Y-104252380D01*
X102595238Y-104300000D01*
X102642857Y-104347619D01*
X102738095Y-104490476D01*
X102785714Y-104680952D01*
X102785714Y-105061904D01*
X102738095Y-105157142D01*
X102690476Y-105204761D01*
X102595238Y-105252380D01*
X102404761Y-105252380D01*
X102309523Y-105204761D01*
X102261904Y-105157142D01*
X102214285Y-105061904D01*
X102214285Y-104823809D01*
X102261904Y-104728571D01*
X102309523Y-104680952D01*
X102404761Y-104633333D01*
X102595238Y-104633333D01*
X102690476Y-104680952D01*
X102738095Y-104728571D01*
X102785714Y-104823809D01*
%TO.C,R5*%
X89366666Y-125382380D02*
X89700000Y-124906190D01*
X89938095Y-125382380D02*
X89938095Y-124382380D01*
X89557142Y-124382380D01*
X89461904Y-124430000D01*
X89414285Y-124477619D01*
X89366666Y-124572857D01*
X89366666Y-124715714D01*
X89414285Y-124810952D01*
X89461904Y-124858571D01*
X89557142Y-124906190D01*
X89938095Y-124906190D01*
X88461904Y-124382380D02*
X88938095Y-124382380D01*
X88985714Y-124858571D01*
X88938095Y-124810952D01*
X88842857Y-124763333D01*
X88604761Y-124763333D01*
X88509523Y-124810952D01*
X88461904Y-124858571D01*
X88414285Y-124953809D01*
X88414285Y-125191904D01*
X88461904Y-125287142D01*
X88509523Y-125334761D01*
X88604761Y-125382380D01*
X88842857Y-125382380D01*
X88938095Y-125334761D01*
X88985714Y-125287142D01*
%TO.C,R4*%
X104866666Y-118852380D02*
X105200000Y-118376190D01*
X105438095Y-118852380D02*
X105438095Y-117852380D01*
X105057142Y-117852380D01*
X104961904Y-117900000D01*
X104914285Y-117947619D01*
X104866666Y-118042857D01*
X104866666Y-118185714D01*
X104914285Y-118280952D01*
X104961904Y-118328571D01*
X105057142Y-118376190D01*
X105438095Y-118376190D01*
X104009523Y-118185714D02*
X104009523Y-118852380D01*
X104247619Y-117804761D02*
X104485714Y-118519047D01*
X103866666Y-118519047D01*
%TO.C,R3*%
X103166666Y-143252380D02*
X103500000Y-142776190D01*
X103738095Y-143252380D02*
X103738095Y-142252380D01*
X103357142Y-142252380D01*
X103261904Y-142300000D01*
X103214285Y-142347619D01*
X103166666Y-142442857D01*
X103166666Y-142585714D01*
X103214285Y-142680952D01*
X103261904Y-142728571D01*
X103357142Y-142776190D01*
X103738095Y-142776190D01*
X102833333Y-142252380D02*
X102214285Y-142252380D01*
X102547619Y-142633333D01*
X102404761Y-142633333D01*
X102309523Y-142680952D01*
X102261904Y-142728571D01*
X102214285Y-142823809D01*
X102214285Y-143061904D01*
X102261904Y-143157142D01*
X102309523Y-143204761D01*
X102404761Y-143252380D01*
X102690476Y-143252380D01*
X102785714Y-143204761D01*
X102833333Y-143157142D01*
%TO.C,R2*%
X149102380Y-84333333D02*
X148626190Y-84000000D01*
X149102380Y-83761904D02*
X148102380Y-83761904D01*
X148102380Y-84142857D01*
X148150000Y-84238095D01*
X148197619Y-84285714D01*
X148292857Y-84333333D01*
X148435714Y-84333333D01*
X148530952Y-84285714D01*
X148578571Y-84238095D01*
X148626190Y-84142857D01*
X148626190Y-83761904D01*
X148197619Y-84714285D02*
X148150000Y-84761904D01*
X148102380Y-84857142D01*
X148102380Y-85095238D01*
X148150000Y-85190476D01*
X148197619Y-85238095D01*
X148292857Y-85285714D01*
X148388095Y-85285714D01*
X148530952Y-85238095D01*
X149102380Y-84666666D01*
X149102380Y-85285714D01*
%TO.C,R1*%
X71666666Y-157452380D02*
X72000000Y-156976190D01*
X72238095Y-157452380D02*
X72238095Y-156452380D01*
X71857142Y-156452380D01*
X71761904Y-156500000D01*
X71714285Y-156547619D01*
X71666666Y-156642857D01*
X71666666Y-156785714D01*
X71714285Y-156880952D01*
X71761904Y-156928571D01*
X71857142Y-156976190D01*
X72238095Y-156976190D01*
X70714285Y-157452380D02*
X71285714Y-157452380D01*
X71000000Y-157452380D02*
X71000000Y-156452380D01*
X71095238Y-156595238D01*
X71190476Y-156690476D01*
X71285714Y-156738095D01*
%TO.C,Q2*%
X104695238Y-86847619D02*
X104790476Y-86800000D01*
X104885714Y-86704761D01*
X105028571Y-86561904D01*
X105123809Y-86514285D01*
X105219047Y-86514285D01*
X105171428Y-86752380D02*
X105266666Y-86704761D01*
X105361904Y-86609523D01*
X105409523Y-86419047D01*
X105409523Y-86085714D01*
X105361904Y-85895238D01*
X105266666Y-85800000D01*
X105171428Y-85752380D01*
X104980952Y-85752380D01*
X104885714Y-85800000D01*
X104790476Y-85895238D01*
X104742857Y-86085714D01*
X104742857Y-86419047D01*
X104790476Y-86609523D01*
X104885714Y-86704761D01*
X104980952Y-86752380D01*
X105171428Y-86752380D01*
X104361904Y-85847619D02*
X104314285Y-85800000D01*
X104219047Y-85752380D01*
X103980952Y-85752380D01*
X103885714Y-85800000D01*
X103838095Y-85847619D01*
X103790476Y-85942857D01*
X103790476Y-86038095D01*
X103838095Y-86180952D01*
X104409523Y-86752380D01*
X103790476Y-86752380D01*
%TO.C,Q1*%
X104695238Y-124847619D02*
X104790476Y-124800000D01*
X104885714Y-124704761D01*
X105028571Y-124561904D01*
X105123809Y-124514285D01*
X105219047Y-124514285D01*
X105171428Y-124752380D02*
X105266666Y-124704761D01*
X105361904Y-124609523D01*
X105409523Y-124419047D01*
X105409523Y-124085714D01*
X105361904Y-123895238D01*
X105266666Y-123800000D01*
X105171428Y-123752380D01*
X104980952Y-123752380D01*
X104885714Y-123800000D01*
X104790476Y-123895238D01*
X104742857Y-124085714D01*
X104742857Y-124419047D01*
X104790476Y-124609523D01*
X104885714Y-124704761D01*
X104980952Y-124752380D01*
X105171428Y-124752380D01*
X103790476Y-124752380D02*
X104361904Y-124752380D01*
X104076190Y-124752380D02*
X104076190Y-123752380D01*
X104171428Y-123895238D01*
X104266666Y-123990476D01*
X104361904Y-124038095D01*
%TO.C,D10*%
X93814285Y-166752380D02*
X93814285Y-165752380D01*
X93576190Y-165752380D01*
X93433333Y-165800000D01*
X93338095Y-165895238D01*
X93290476Y-165990476D01*
X93242857Y-166180952D01*
X93242857Y-166323809D01*
X93290476Y-166514285D01*
X93338095Y-166609523D01*
X93433333Y-166704761D01*
X93576190Y-166752380D01*
X93814285Y-166752380D01*
X92290476Y-166752380D02*
X92861904Y-166752380D01*
X92576190Y-166752380D02*
X92576190Y-165752380D01*
X92671428Y-165895238D01*
X92766666Y-165990476D01*
X92861904Y-166038095D01*
X91671428Y-165752380D02*
X91576190Y-165752380D01*
X91480952Y-165800000D01*
X91433333Y-165847619D01*
X91385714Y-165942857D01*
X91338095Y-166133333D01*
X91338095Y-166371428D01*
X91385714Y-166561904D01*
X91433333Y-166657142D01*
X91480952Y-166704761D01*
X91576190Y-166752380D01*
X91671428Y-166752380D01*
X91766666Y-166704761D01*
X91814285Y-166657142D01*
X91861904Y-166561904D01*
X91909523Y-166371428D01*
X91909523Y-166133333D01*
X91861904Y-165942857D01*
X91814285Y-165847619D01*
X91766666Y-165800000D01*
X91671428Y-165752380D01*
%TO.C,D9*%
X74338095Y-166752380D02*
X74338095Y-165752380D01*
X74100000Y-165752380D01*
X73957142Y-165800000D01*
X73861904Y-165895238D01*
X73814285Y-165990476D01*
X73766666Y-166180952D01*
X73766666Y-166323809D01*
X73814285Y-166514285D01*
X73861904Y-166609523D01*
X73957142Y-166704761D01*
X74100000Y-166752380D01*
X74338095Y-166752380D01*
X73290476Y-166752380D02*
X73100000Y-166752380D01*
X73004761Y-166704761D01*
X72957142Y-166657142D01*
X72861904Y-166514285D01*
X72814285Y-166323809D01*
X72814285Y-165942857D01*
X72861904Y-165847619D01*
X72909523Y-165800000D01*
X73004761Y-165752380D01*
X73195238Y-165752380D01*
X73290476Y-165800000D01*
X73338095Y-165847619D01*
X73385714Y-165942857D01*
X73385714Y-166180952D01*
X73338095Y-166276190D01*
X73290476Y-166323809D01*
X73195238Y-166371428D01*
X73004761Y-166371428D01*
X72909523Y-166323809D01*
X72861904Y-166276190D01*
X72814285Y-166180952D01*
%TO.C,D8*%
X105438095Y-84052380D02*
X105438095Y-83052380D01*
X105200000Y-83052380D01*
X105057142Y-83100000D01*
X104961904Y-83195238D01*
X104914285Y-83290476D01*
X104866666Y-83480952D01*
X104866666Y-83623809D01*
X104914285Y-83814285D01*
X104961904Y-83909523D01*
X105057142Y-84004761D01*
X105200000Y-84052380D01*
X105438095Y-84052380D01*
X104295238Y-83480952D02*
X104390476Y-83433333D01*
X104438095Y-83385714D01*
X104485714Y-83290476D01*
X104485714Y-83242857D01*
X104438095Y-83147619D01*
X104390476Y-83100000D01*
X104295238Y-83052380D01*
X104104761Y-83052380D01*
X104009523Y-83100000D01*
X103961904Y-83147619D01*
X103914285Y-83242857D01*
X103914285Y-83290476D01*
X103961904Y-83385714D01*
X104009523Y-83433333D01*
X104104761Y-83480952D01*
X104295238Y-83480952D01*
X104390476Y-83528571D01*
X104438095Y-83576190D01*
X104485714Y-83671428D01*
X104485714Y-83861904D01*
X104438095Y-83957142D01*
X104390476Y-84004761D01*
X104295238Y-84052380D01*
X104104761Y-84052380D01*
X104009523Y-84004761D01*
X103961904Y-83957142D01*
X103914285Y-83861904D01*
X103914285Y-83671428D01*
X103961904Y-83576190D01*
X104009523Y-83528571D01*
X104104761Y-83480952D01*
%TO.C,D7*%
X99938095Y-72952380D02*
X99938095Y-71952380D01*
X99700000Y-71952380D01*
X99557142Y-72000000D01*
X99461904Y-72095238D01*
X99414285Y-72190476D01*
X99366666Y-72380952D01*
X99366666Y-72523809D01*
X99414285Y-72714285D01*
X99461904Y-72809523D01*
X99557142Y-72904761D01*
X99700000Y-72952380D01*
X99938095Y-72952380D01*
X99033333Y-71952380D02*
X98366666Y-71952380D01*
X98795238Y-72952380D01*
%TO.C,D6*%
X98038095Y-72952380D02*
X98038095Y-71952380D01*
X97800000Y-71952380D01*
X97657142Y-72000000D01*
X97561904Y-72095238D01*
X97514285Y-72190476D01*
X97466666Y-72380952D01*
X97466666Y-72523809D01*
X97514285Y-72714285D01*
X97561904Y-72809523D01*
X97657142Y-72904761D01*
X97800000Y-72952380D01*
X98038095Y-72952380D01*
X96609523Y-71952380D02*
X96800000Y-71952380D01*
X96895238Y-72000000D01*
X96942857Y-72047619D01*
X97038095Y-72190476D01*
X97085714Y-72380952D01*
X97085714Y-72761904D01*
X97038095Y-72857142D01*
X96990476Y-72904761D01*
X96895238Y-72952380D01*
X96704761Y-72952380D01*
X96609523Y-72904761D01*
X96561904Y-72857142D01*
X96514285Y-72761904D01*
X96514285Y-72523809D01*
X96561904Y-72428571D01*
X96609523Y-72380952D01*
X96704761Y-72333333D01*
X96895238Y-72333333D01*
X96990476Y-72380952D01*
X97038095Y-72428571D01*
X97085714Y-72523809D01*
%TO.C,D5*%
X93338095Y-90752380D02*
X93338095Y-89752380D01*
X93100000Y-89752380D01*
X92957142Y-89800000D01*
X92861904Y-89895238D01*
X92814285Y-89990476D01*
X92766666Y-90180952D01*
X92766666Y-90323809D01*
X92814285Y-90514285D01*
X92861904Y-90609523D01*
X92957142Y-90704761D01*
X93100000Y-90752380D01*
X93338095Y-90752380D01*
X91861904Y-89752380D02*
X92338095Y-89752380D01*
X92385714Y-90228571D01*
X92338095Y-90180952D01*
X92242857Y-90133333D01*
X92004761Y-90133333D01*
X91909523Y-90180952D01*
X91861904Y-90228571D01*
X91814285Y-90323809D01*
X91814285Y-90561904D01*
X91861904Y-90657142D01*
X91909523Y-90704761D01*
X92004761Y-90752380D01*
X92242857Y-90752380D01*
X92338095Y-90704761D01*
X92385714Y-90657142D01*
%TO.C,D4*%
X105438095Y-122052380D02*
X105438095Y-121052380D01*
X105200000Y-121052380D01*
X105057142Y-121100000D01*
X104961904Y-121195238D01*
X104914285Y-121290476D01*
X104866666Y-121480952D01*
X104866666Y-121623809D01*
X104914285Y-121814285D01*
X104961904Y-121909523D01*
X105057142Y-122004761D01*
X105200000Y-122052380D01*
X105438095Y-122052380D01*
X104009523Y-121385714D02*
X104009523Y-122052380D01*
X104247619Y-121004761D02*
X104485714Y-121719047D01*
X103866666Y-121719047D01*
%TO.C,D3*%
X99938095Y-110952380D02*
X99938095Y-109952380D01*
X99700000Y-109952380D01*
X99557142Y-110000000D01*
X99461904Y-110095238D01*
X99414285Y-110190476D01*
X99366666Y-110380952D01*
X99366666Y-110523809D01*
X99414285Y-110714285D01*
X99461904Y-110809523D01*
X99557142Y-110904761D01*
X99700000Y-110952380D01*
X99938095Y-110952380D01*
X99033333Y-109952380D02*
X98414285Y-109952380D01*
X98747619Y-110333333D01*
X98604761Y-110333333D01*
X98509523Y-110380952D01*
X98461904Y-110428571D01*
X98414285Y-110523809D01*
X98414285Y-110761904D01*
X98461904Y-110857142D01*
X98509523Y-110904761D01*
X98604761Y-110952380D01*
X98890476Y-110952380D01*
X98985714Y-110904761D01*
X99033333Y-110857142D01*
%TO.C,D2*%
X98038095Y-110952380D02*
X98038095Y-109952380D01*
X97800000Y-109952380D01*
X97657142Y-110000000D01*
X97561904Y-110095238D01*
X97514285Y-110190476D01*
X97466666Y-110380952D01*
X97466666Y-110523809D01*
X97514285Y-110714285D01*
X97561904Y-110809523D01*
X97657142Y-110904761D01*
X97800000Y-110952380D01*
X98038095Y-110952380D01*
X97085714Y-110047619D02*
X97038095Y-110000000D01*
X96942857Y-109952380D01*
X96704761Y-109952380D01*
X96609523Y-110000000D01*
X96561904Y-110047619D01*
X96514285Y-110142857D01*
X96514285Y-110238095D01*
X96561904Y-110380952D01*
X97133333Y-110952380D01*
X96514285Y-110952380D01*
%TO.C,D1*%
X93338095Y-128752380D02*
X93338095Y-127752380D01*
X93100000Y-127752380D01*
X92957142Y-127800000D01*
X92861904Y-127895238D01*
X92814285Y-127990476D01*
X92766666Y-128180952D01*
X92766666Y-128323809D01*
X92814285Y-128514285D01*
X92861904Y-128609523D01*
X92957142Y-128704761D01*
X93100000Y-128752380D01*
X93338095Y-128752380D01*
X91814285Y-128752380D02*
X92385714Y-128752380D01*
X92100000Y-128752380D02*
X92100000Y-127752380D01*
X92195238Y-127895238D01*
X92290476Y-127990476D01*
X92385714Y-128038095D01*
%TO.C,C16*%
X88642857Y-182657142D02*
X88690476Y-182704761D01*
X88833333Y-182752380D01*
X88928571Y-182752380D01*
X89071428Y-182704761D01*
X89166666Y-182609523D01*
X89214285Y-182514285D01*
X89261904Y-182323809D01*
X89261904Y-182180952D01*
X89214285Y-181990476D01*
X89166666Y-181895238D01*
X89071428Y-181800000D01*
X88928571Y-181752380D01*
X88833333Y-181752380D01*
X88690476Y-181800000D01*
X88642857Y-181847619D01*
X87690476Y-182752380D02*
X88261904Y-182752380D01*
X87976190Y-182752380D02*
X87976190Y-181752380D01*
X88071428Y-181895238D01*
X88166666Y-181990476D01*
X88261904Y-182038095D01*
X86833333Y-181752380D02*
X87023809Y-181752380D01*
X87119047Y-181800000D01*
X87166666Y-181847619D01*
X87261904Y-181990476D01*
X87309523Y-182180952D01*
X87309523Y-182561904D01*
X87261904Y-182657142D01*
X87214285Y-182704761D01*
X87119047Y-182752380D01*
X86928571Y-182752380D01*
X86833333Y-182704761D01*
X86785714Y-182657142D01*
X86738095Y-182561904D01*
X86738095Y-182323809D01*
X86785714Y-182228571D01*
X86833333Y-182180952D01*
X86928571Y-182133333D01*
X87119047Y-182133333D01*
X87214285Y-182180952D01*
X87261904Y-182228571D01*
X87309523Y-182323809D01*
%TO.C,C15*%
X103242857Y-182757142D02*
X103290476Y-182804761D01*
X103433333Y-182852380D01*
X103528571Y-182852380D01*
X103671428Y-182804761D01*
X103766666Y-182709523D01*
X103814285Y-182614285D01*
X103861904Y-182423809D01*
X103861904Y-182280952D01*
X103814285Y-182090476D01*
X103766666Y-181995238D01*
X103671428Y-181900000D01*
X103528571Y-181852380D01*
X103433333Y-181852380D01*
X103290476Y-181900000D01*
X103242857Y-181947619D01*
X102290476Y-182852380D02*
X102861904Y-182852380D01*
X102576190Y-182852380D02*
X102576190Y-181852380D01*
X102671428Y-181995238D01*
X102766666Y-182090476D01*
X102861904Y-182138095D01*
X101385714Y-181852380D02*
X101861904Y-181852380D01*
X101909523Y-182328571D01*
X101861904Y-182280952D01*
X101766666Y-182233333D01*
X101528571Y-182233333D01*
X101433333Y-182280952D01*
X101385714Y-182328571D01*
X101338095Y-182423809D01*
X101338095Y-182661904D01*
X101385714Y-182757142D01*
X101433333Y-182804761D01*
X101528571Y-182852380D01*
X101766666Y-182852380D01*
X101861904Y-182804761D01*
X101909523Y-182757142D01*
%TO.C,C14*%
X69642857Y-182657142D02*
X69690476Y-182704761D01*
X69833333Y-182752380D01*
X69928571Y-182752380D01*
X70071428Y-182704761D01*
X70166666Y-182609523D01*
X70214285Y-182514285D01*
X70261904Y-182323809D01*
X70261904Y-182180952D01*
X70214285Y-181990476D01*
X70166666Y-181895238D01*
X70071428Y-181800000D01*
X69928571Y-181752380D01*
X69833333Y-181752380D01*
X69690476Y-181800000D01*
X69642857Y-181847619D01*
X68690476Y-182752380D02*
X69261904Y-182752380D01*
X68976190Y-182752380D02*
X68976190Y-181752380D01*
X69071428Y-181895238D01*
X69166666Y-181990476D01*
X69261904Y-182038095D01*
X67833333Y-182085714D02*
X67833333Y-182752380D01*
X68071428Y-181704761D02*
X68309523Y-182419047D01*
X67690476Y-182419047D01*
%TO.C,C13*%
X84242857Y-182757142D02*
X84290476Y-182804761D01*
X84433333Y-182852380D01*
X84528571Y-182852380D01*
X84671428Y-182804761D01*
X84766666Y-182709523D01*
X84814285Y-182614285D01*
X84861904Y-182423809D01*
X84861904Y-182280952D01*
X84814285Y-182090476D01*
X84766666Y-181995238D01*
X84671428Y-181900000D01*
X84528571Y-181852380D01*
X84433333Y-181852380D01*
X84290476Y-181900000D01*
X84242857Y-181947619D01*
X83290476Y-182852380D02*
X83861904Y-182852380D01*
X83576190Y-182852380D02*
X83576190Y-181852380D01*
X83671428Y-181995238D01*
X83766666Y-182090476D01*
X83861904Y-182138095D01*
X82957142Y-181852380D02*
X82338095Y-181852380D01*
X82671428Y-182233333D01*
X82528571Y-182233333D01*
X82433333Y-182280952D01*
X82385714Y-182328571D01*
X82338095Y-182423809D01*
X82338095Y-182661904D01*
X82385714Y-182757142D01*
X82433333Y-182804761D01*
X82528571Y-182852380D01*
X82814285Y-182852380D01*
X82909523Y-182804761D01*
X82957142Y-182757142D01*
%TO.C,C12*%
X90742857Y-72757142D02*
X90790476Y-72804761D01*
X90933333Y-72852380D01*
X91028571Y-72852380D01*
X91171428Y-72804761D01*
X91266666Y-72709523D01*
X91314285Y-72614285D01*
X91361904Y-72423809D01*
X91361904Y-72280952D01*
X91314285Y-72090476D01*
X91266666Y-71995238D01*
X91171428Y-71900000D01*
X91028571Y-71852380D01*
X90933333Y-71852380D01*
X90790476Y-71900000D01*
X90742857Y-71947619D01*
X89790476Y-72852380D02*
X90361904Y-72852380D01*
X90076190Y-72852380D02*
X90076190Y-71852380D01*
X90171428Y-71995238D01*
X90266666Y-72090476D01*
X90361904Y-72138095D01*
X89409523Y-71947619D02*
X89361904Y-71900000D01*
X89266666Y-71852380D01*
X89028571Y-71852380D01*
X88933333Y-71900000D01*
X88885714Y-71947619D01*
X88838095Y-72042857D01*
X88838095Y-72138095D01*
X88885714Y-72280952D01*
X89457142Y-72852380D01*
X88838095Y-72852380D01*
%TO.C,C11*%
X104842857Y-82157142D02*
X104890476Y-82204761D01*
X105033333Y-82252380D01*
X105128571Y-82252380D01*
X105271428Y-82204761D01*
X105366666Y-82109523D01*
X105414285Y-82014285D01*
X105461904Y-81823809D01*
X105461904Y-81680952D01*
X105414285Y-81490476D01*
X105366666Y-81395238D01*
X105271428Y-81300000D01*
X105128571Y-81252380D01*
X105033333Y-81252380D01*
X104890476Y-81300000D01*
X104842857Y-81347619D01*
X103890476Y-82252380D02*
X104461904Y-82252380D01*
X104176190Y-82252380D02*
X104176190Y-81252380D01*
X104271428Y-81395238D01*
X104366666Y-81490476D01*
X104461904Y-81538095D01*
X102938095Y-82252380D02*
X103509523Y-82252380D01*
X103223809Y-82252380D02*
X103223809Y-81252380D01*
X103319047Y-81395238D01*
X103414285Y-81490476D01*
X103509523Y-81538095D01*
%TO.C,C10*%
X88642857Y-106657142D02*
X88690476Y-106704761D01*
X88833333Y-106752380D01*
X88928571Y-106752380D01*
X89071428Y-106704761D01*
X89166666Y-106609523D01*
X89214285Y-106514285D01*
X89261904Y-106323809D01*
X89261904Y-106180952D01*
X89214285Y-105990476D01*
X89166666Y-105895238D01*
X89071428Y-105800000D01*
X88928571Y-105752380D01*
X88833333Y-105752380D01*
X88690476Y-105800000D01*
X88642857Y-105847619D01*
X87690476Y-106752380D02*
X88261904Y-106752380D01*
X87976190Y-106752380D02*
X87976190Y-105752380D01*
X88071428Y-105895238D01*
X88166666Y-105990476D01*
X88261904Y-106038095D01*
X87071428Y-105752380D02*
X86976190Y-105752380D01*
X86880952Y-105800000D01*
X86833333Y-105847619D01*
X86785714Y-105942857D01*
X86738095Y-106133333D01*
X86738095Y-106371428D01*
X86785714Y-106561904D01*
X86833333Y-106657142D01*
X86880952Y-106704761D01*
X86976190Y-106752380D01*
X87071428Y-106752380D01*
X87166666Y-106704761D01*
X87214285Y-106657142D01*
X87261904Y-106561904D01*
X87309523Y-106371428D01*
X87309523Y-106133333D01*
X87261904Y-105942857D01*
X87214285Y-105847619D01*
X87166666Y-105800000D01*
X87071428Y-105752380D01*
%TO.C,C9*%
X102766666Y-106757142D02*
X102814285Y-106804761D01*
X102957142Y-106852380D01*
X103052380Y-106852380D01*
X103195238Y-106804761D01*
X103290476Y-106709523D01*
X103338095Y-106614285D01*
X103385714Y-106423809D01*
X103385714Y-106280952D01*
X103338095Y-106090476D01*
X103290476Y-105995238D01*
X103195238Y-105900000D01*
X103052380Y-105852380D01*
X102957142Y-105852380D01*
X102814285Y-105900000D01*
X102766666Y-105947619D01*
X102290476Y-106852380D02*
X102100000Y-106852380D01*
X102004761Y-106804761D01*
X101957142Y-106757142D01*
X101861904Y-106614285D01*
X101814285Y-106423809D01*
X101814285Y-106042857D01*
X101861904Y-105947619D01*
X101909523Y-105900000D01*
X102004761Y-105852380D01*
X102195238Y-105852380D01*
X102290476Y-105900000D01*
X102338095Y-105947619D01*
X102385714Y-106042857D01*
X102385714Y-106280952D01*
X102338095Y-106376190D01*
X102290476Y-106423809D01*
X102195238Y-106471428D01*
X102004761Y-106471428D01*
X101909523Y-106423809D01*
X101861904Y-106376190D01*
X101814285Y-106280952D01*
%TO.C,C8*%
X90266666Y-110757142D02*
X90314285Y-110804761D01*
X90457142Y-110852380D01*
X90552380Y-110852380D01*
X90695238Y-110804761D01*
X90790476Y-110709523D01*
X90838095Y-110614285D01*
X90885714Y-110423809D01*
X90885714Y-110280952D01*
X90838095Y-110090476D01*
X90790476Y-109995238D01*
X90695238Y-109900000D01*
X90552380Y-109852380D01*
X90457142Y-109852380D01*
X90314285Y-109900000D01*
X90266666Y-109947619D01*
X89695238Y-110280952D02*
X89790476Y-110233333D01*
X89838095Y-110185714D01*
X89885714Y-110090476D01*
X89885714Y-110042857D01*
X89838095Y-109947619D01*
X89790476Y-109900000D01*
X89695238Y-109852380D01*
X89504761Y-109852380D01*
X89409523Y-109900000D01*
X89361904Y-109947619D01*
X89314285Y-110042857D01*
X89314285Y-110090476D01*
X89361904Y-110185714D01*
X89409523Y-110233333D01*
X89504761Y-110280952D01*
X89695238Y-110280952D01*
X89790476Y-110328571D01*
X89838095Y-110376190D01*
X89885714Y-110471428D01*
X89885714Y-110661904D01*
X89838095Y-110757142D01*
X89790476Y-110804761D01*
X89695238Y-110852380D01*
X89504761Y-110852380D01*
X89409523Y-110804761D01*
X89361904Y-110757142D01*
X89314285Y-110661904D01*
X89314285Y-110471428D01*
X89361904Y-110376190D01*
X89409523Y-110328571D01*
X89504761Y-110280952D01*
%TO.C,C7*%
X104366666Y-120157142D02*
X104414285Y-120204761D01*
X104557142Y-120252380D01*
X104652380Y-120252380D01*
X104795238Y-120204761D01*
X104890476Y-120109523D01*
X104938095Y-120014285D01*
X104985714Y-119823809D01*
X104985714Y-119680952D01*
X104938095Y-119490476D01*
X104890476Y-119395238D01*
X104795238Y-119300000D01*
X104652380Y-119252380D01*
X104557142Y-119252380D01*
X104414285Y-119300000D01*
X104366666Y-119347619D01*
X104033333Y-119252380D02*
X103366666Y-119252380D01*
X103795238Y-120252380D01*
%TO.C,C6*%
X88166666Y-144657142D02*
X88214285Y-144704761D01*
X88357142Y-144752380D01*
X88452380Y-144752380D01*
X88595238Y-144704761D01*
X88690476Y-144609523D01*
X88738095Y-144514285D01*
X88785714Y-144323809D01*
X88785714Y-144180952D01*
X88738095Y-143990476D01*
X88690476Y-143895238D01*
X88595238Y-143800000D01*
X88452380Y-143752380D01*
X88357142Y-143752380D01*
X88214285Y-143800000D01*
X88166666Y-143847619D01*
X87309523Y-143752380D02*
X87500000Y-143752380D01*
X87595238Y-143800000D01*
X87642857Y-143847619D01*
X87738095Y-143990476D01*
X87785714Y-144180952D01*
X87785714Y-144561904D01*
X87738095Y-144657142D01*
X87690476Y-144704761D01*
X87595238Y-144752380D01*
X87404761Y-144752380D01*
X87309523Y-144704761D01*
X87261904Y-144657142D01*
X87214285Y-144561904D01*
X87214285Y-144323809D01*
X87261904Y-144228571D01*
X87309523Y-144180952D01*
X87404761Y-144133333D01*
X87595238Y-144133333D01*
X87690476Y-144180952D01*
X87738095Y-144228571D01*
X87785714Y-144323809D01*
%TO.C,C5*%
X102766666Y-144757142D02*
X102814285Y-144804761D01*
X102957142Y-144852380D01*
X103052380Y-144852380D01*
X103195238Y-144804761D01*
X103290476Y-144709523D01*
X103338095Y-144614285D01*
X103385714Y-144423809D01*
X103385714Y-144280952D01*
X103338095Y-144090476D01*
X103290476Y-143995238D01*
X103195238Y-143900000D01*
X103052380Y-143852380D01*
X102957142Y-143852380D01*
X102814285Y-143900000D01*
X102766666Y-143947619D01*
X101861904Y-143852380D02*
X102338095Y-143852380D01*
X102385714Y-144328571D01*
X102338095Y-144280952D01*
X102242857Y-144233333D01*
X102004761Y-144233333D01*
X101909523Y-144280952D01*
X101861904Y-144328571D01*
X101814285Y-144423809D01*
X101814285Y-144661904D01*
X101861904Y-144757142D01*
X101909523Y-144804761D01*
X102004761Y-144852380D01*
X102242857Y-144852380D01*
X102338095Y-144804761D01*
X102385714Y-144757142D01*
%TO.C,C4*%
X139666666Y-139087142D02*
X139714285Y-139134761D01*
X139857142Y-139182380D01*
X139952380Y-139182380D01*
X140095238Y-139134761D01*
X140190476Y-139039523D01*
X140238095Y-138944285D01*
X140285714Y-138753809D01*
X140285714Y-138610952D01*
X140238095Y-138420476D01*
X140190476Y-138325238D01*
X140095238Y-138230000D01*
X139952380Y-138182380D01*
X139857142Y-138182380D01*
X139714285Y-138230000D01*
X139666666Y-138277619D01*
X138809523Y-138515714D02*
X138809523Y-139182380D01*
X139047619Y-138134761D02*
X139285714Y-138849047D01*
X138666666Y-138849047D01*
%TO.C,C3*%
X104916666Y-169327142D02*
X104964285Y-169374761D01*
X105107142Y-169422380D01*
X105202380Y-169422380D01*
X105345238Y-169374761D01*
X105440476Y-169279523D01*
X105488095Y-169184285D01*
X105535714Y-168993809D01*
X105535714Y-168850952D01*
X105488095Y-168660476D01*
X105440476Y-168565238D01*
X105345238Y-168470000D01*
X105202380Y-168422380D01*
X105107142Y-168422380D01*
X104964285Y-168470000D01*
X104916666Y-168517619D01*
X104583333Y-168422380D02*
X103964285Y-168422380D01*
X104297619Y-168803333D01*
X104154761Y-168803333D01*
X104059523Y-168850952D01*
X104011904Y-168898571D01*
X103964285Y-168993809D01*
X103964285Y-169231904D01*
X104011904Y-169327142D01*
X104059523Y-169374761D01*
X104154761Y-169422380D01*
X104440476Y-169422380D01*
X104535714Y-169374761D01*
X104583333Y-169327142D01*
%TO.C,C2*%
X70066666Y-157357142D02*
X70114285Y-157404761D01*
X70257142Y-157452380D01*
X70352380Y-157452380D01*
X70495238Y-157404761D01*
X70590476Y-157309523D01*
X70638095Y-157214285D01*
X70685714Y-157023809D01*
X70685714Y-156880952D01*
X70638095Y-156690476D01*
X70590476Y-156595238D01*
X70495238Y-156500000D01*
X70352380Y-156452380D01*
X70257142Y-156452380D01*
X70114285Y-156500000D01*
X70066666Y-156547619D01*
X69685714Y-156547619D02*
X69638095Y-156500000D01*
X69542857Y-156452380D01*
X69304761Y-156452380D01*
X69209523Y-156500000D01*
X69161904Y-156547619D01*
X69114285Y-156642857D01*
X69114285Y-156738095D01*
X69161904Y-156880952D01*
X69733333Y-157452380D01*
X69114285Y-157452380D01*
%TO.C,C1*%
X139666666Y-150887142D02*
X139714285Y-150934761D01*
X139857142Y-150982380D01*
X139952380Y-150982380D01*
X140095238Y-150934761D01*
X140190476Y-150839523D01*
X140238095Y-150744285D01*
X140285714Y-150553809D01*
X140285714Y-150410952D01*
X140238095Y-150220476D01*
X140190476Y-150125238D01*
X140095238Y-150030000D01*
X139952380Y-149982380D01*
X139857142Y-149982380D01*
X139714285Y-150030000D01*
X139666666Y-150077619D01*
X138714285Y-150982380D02*
X139285714Y-150982380D01*
X139000000Y-150982380D02*
X139000000Y-149982380D01*
X139095238Y-150125238D01*
X139190476Y-150220476D01*
X139285714Y-150268095D01*
%TD*%
%LPC*%
D12*
%TO.C,U6*%
X129425000Y-74530000D03*
X124575000Y-74530000D03*
D13*
X129725000Y-71500000D03*
X124275000Y-71500000D03*
%TD*%
D14*
%TO.C,U2*%
X136200000Y-129680000D03*
X115880000Y-137300000D03*
X133660000Y-129680000D03*
X118420000Y-137300000D03*
X131120000Y-129680000D03*
X120960000Y-137300000D03*
X128580000Y-129680000D03*
X123500000Y-137300000D03*
X126040000Y-129680000D03*
X126040000Y-137300000D03*
X123500000Y-129680000D03*
X128580000Y-137300000D03*
X120960000Y-129680000D03*
X131120000Y-137300000D03*
X118420000Y-129680000D03*
X133660000Y-137300000D03*
X115880000Y-129680000D03*
D15*
X136200000Y-137300000D03*
%TD*%
D16*
%TO.C,REF\u002A\u002A*%
X68500000Y-161500000D03*
%TD*%
%TO.C,REF\u002A\u002A*%
X107500000Y-73500000D03*
%TD*%
%TO.C,REF\u002A\u002A*%
X146500000Y-181500000D03*
%TD*%
%TO.C,REF\u002A\u002A*%
X146500000Y-73500000D03*
%TD*%
%TO.C,C17*%
G36*
G01*
X83637500Y-155375000D02*
X83162500Y-155375000D01*
G75*
G02*
X82925000Y-155137500I0J237500D01*
G01*
X82925000Y-154537500D01*
G75*
G02*
X83162500Y-154300000I237500J0D01*
G01*
X83637500Y-154300000D01*
G75*
G02*
X83875000Y-154537500I0J-237500D01*
G01*
X83875000Y-155137500D01*
G75*
G02*
X83637500Y-155375000I-237500J0D01*
G01*
G37*
G36*
G01*
X83637500Y-157100000D02*
X83162500Y-157100000D01*
G75*
G02*
X82925000Y-156862500I0J237500D01*
G01*
X82925000Y-156262500D01*
G75*
G02*
X83162500Y-156025000I237500J0D01*
G01*
X83637500Y-156025000D01*
G75*
G02*
X83875000Y-156262500I0J-237500D01*
G01*
X83875000Y-156862500D01*
G75*
G02*
X83637500Y-157100000I-237500J0D01*
G01*
G37*
%TD*%
%TO.C,U12*%
G36*
G01*
X95500000Y-182055000D02*
X95500000Y-181755000D01*
G75*
G02*
X95650000Y-181605000I150000J0D01*
G01*
X97300000Y-181605000D01*
G75*
G02*
X97450000Y-181755000I0J-150000D01*
G01*
X97450000Y-182055000D01*
G75*
G02*
X97300000Y-182205000I-150000J0D01*
G01*
X95650000Y-182205000D01*
G75*
G02*
X95500000Y-182055000I0J150000D01*
G01*
G37*
G36*
G01*
X95500000Y-180785000D02*
X95500000Y-180485000D01*
G75*
G02*
X95650000Y-180335000I150000J0D01*
G01*
X97300000Y-180335000D01*
G75*
G02*
X97450000Y-180485000I0J-150000D01*
G01*
X97450000Y-180785000D01*
G75*
G02*
X97300000Y-180935000I-150000J0D01*
G01*
X95650000Y-180935000D01*
G75*
G02*
X95500000Y-180785000I0J150000D01*
G01*
G37*
G36*
G01*
X95500000Y-179515000D02*
X95500000Y-179215000D01*
G75*
G02*
X95650000Y-179065000I150000J0D01*
G01*
X97300000Y-179065000D01*
G75*
G02*
X97450000Y-179215000I0J-150000D01*
G01*
X97450000Y-179515000D01*
G75*
G02*
X97300000Y-179665000I-150000J0D01*
G01*
X95650000Y-179665000D01*
G75*
G02*
X95500000Y-179515000I0J150000D01*
G01*
G37*
G36*
G01*
X95500000Y-178245000D02*
X95500000Y-177945000D01*
G75*
G02*
X95650000Y-177795000I150000J0D01*
G01*
X97300000Y-177795000D01*
G75*
G02*
X97450000Y-177945000I0J-150000D01*
G01*
X97450000Y-178245000D01*
G75*
G02*
X97300000Y-178395000I-150000J0D01*
G01*
X95650000Y-178395000D01*
G75*
G02*
X95500000Y-178245000I0J150000D01*
G01*
G37*
G36*
G01*
X90550000Y-178245000D02*
X90550000Y-177945000D01*
G75*
G02*
X90700000Y-177795000I150000J0D01*
G01*
X92350000Y-177795000D01*
G75*
G02*
X92500000Y-177945000I0J-150000D01*
G01*
X92500000Y-178245000D01*
G75*
G02*
X92350000Y-178395000I-150000J0D01*
G01*
X90700000Y-178395000D01*
G75*
G02*
X90550000Y-178245000I0J150000D01*
G01*
G37*
G36*
G01*
X90550000Y-179515000D02*
X90550000Y-179215000D01*
G75*
G02*
X90700000Y-179065000I150000J0D01*
G01*
X92350000Y-179065000D01*
G75*
G02*
X92500000Y-179215000I0J-150000D01*
G01*
X92500000Y-179515000D01*
G75*
G02*
X92350000Y-179665000I-150000J0D01*
G01*
X90700000Y-179665000D01*
G75*
G02*
X90550000Y-179515000I0J150000D01*
G01*
G37*
G36*
G01*
X90550000Y-180785000D02*
X90550000Y-180485000D01*
G75*
G02*
X90700000Y-180335000I150000J0D01*
G01*
X92350000Y-180335000D01*
G75*
G02*
X92500000Y-180485000I0J-150000D01*
G01*
X92500000Y-180785000D01*
G75*
G02*
X92350000Y-180935000I-150000J0D01*
G01*
X90700000Y-180935000D01*
G75*
G02*
X90550000Y-180785000I0J150000D01*
G01*
G37*
G36*
G01*
X90550000Y-182055000D02*
X90550000Y-181755000D01*
G75*
G02*
X90700000Y-181605000I150000J0D01*
G01*
X92350000Y-181605000D01*
G75*
G02*
X92500000Y-181755000I0J-150000D01*
G01*
X92500000Y-182055000D01*
G75*
G02*
X92350000Y-182205000I-150000J0D01*
G01*
X90700000Y-182205000D01*
G75*
G02*
X90550000Y-182055000I0J150000D01*
G01*
G37*
%TD*%
%TO.C,U11*%
G36*
G01*
X76500000Y-182055000D02*
X76500000Y-181755000D01*
G75*
G02*
X76650000Y-181605000I150000J0D01*
G01*
X78300000Y-181605000D01*
G75*
G02*
X78450000Y-181755000I0J-150000D01*
G01*
X78450000Y-182055000D01*
G75*
G02*
X78300000Y-182205000I-150000J0D01*
G01*
X76650000Y-182205000D01*
G75*
G02*
X76500000Y-182055000I0J150000D01*
G01*
G37*
G36*
G01*
X76500000Y-180785000D02*
X76500000Y-180485000D01*
G75*
G02*
X76650000Y-180335000I150000J0D01*
G01*
X78300000Y-180335000D01*
G75*
G02*
X78450000Y-180485000I0J-150000D01*
G01*
X78450000Y-180785000D01*
G75*
G02*
X78300000Y-180935000I-150000J0D01*
G01*
X76650000Y-180935000D01*
G75*
G02*
X76500000Y-180785000I0J150000D01*
G01*
G37*
G36*
G01*
X76500000Y-179515000D02*
X76500000Y-179215000D01*
G75*
G02*
X76650000Y-179065000I150000J0D01*
G01*
X78300000Y-179065000D01*
G75*
G02*
X78450000Y-179215000I0J-150000D01*
G01*
X78450000Y-179515000D01*
G75*
G02*
X78300000Y-179665000I-150000J0D01*
G01*
X76650000Y-179665000D01*
G75*
G02*
X76500000Y-179515000I0J150000D01*
G01*
G37*
G36*
G01*
X76500000Y-178245000D02*
X76500000Y-177945000D01*
G75*
G02*
X76650000Y-177795000I150000J0D01*
G01*
X78300000Y-177795000D01*
G75*
G02*
X78450000Y-177945000I0J-150000D01*
G01*
X78450000Y-178245000D01*
G75*
G02*
X78300000Y-178395000I-150000J0D01*
G01*
X76650000Y-178395000D01*
G75*
G02*
X76500000Y-178245000I0J150000D01*
G01*
G37*
G36*
G01*
X71550000Y-178245000D02*
X71550000Y-177945000D01*
G75*
G02*
X71700000Y-177795000I150000J0D01*
G01*
X73350000Y-177795000D01*
G75*
G02*
X73500000Y-177945000I0J-150000D01*
G01*
X73500000Y-178245000D01*
G75*
G02*
X73350000Y-178395000I-150000J0D01*
G01*
X71700000Y-178395000D01*
G75*
G02*
X71550000Y-178245000I0J150000D01*
G01*
G37*
G36*
G01*
X71550000Y-179515000D02*
X71550000Y-179215000D01*
G75*
G02*
X71700000Y-179065000I150000J0D01*
G01*
X73350000Y-179065000D01*
G75*
G02*
X73500000Y-179215000I0J-150000D01*
G01*
X73500000Y-179515000D01*
G75*
G02*
X73350000Y-179665000I-150000J0D01*
G01*
X71700000Y-179665000D01*
G75*
G02*
X71550000Y-179515000I0J150000D01*
G01*
G37*
G36*
G01*
X71550000Y-180785000D02*
X71550000Y-180485000D01*
G75*
G02*
X71700000Y-180335000I150000J0D01*
G01*
X73350000Y-180335000D01*
G75*
G02*
X73500000Y-180485000I0J-150000D01*
G01*
X73500000Y-180785000D01*
G75*
G02*
X73350000Y-180935000I-150000J0D01*
G01*
X71700000Y-180935000D01*
G75*
G02*
X71550000Y-180785000I0J150000D01*
G01*
G37*
G36*
G01*
X71550000Y-182055000D02*
X71550000Y-181755000D01*
G75*
G02*
X71700000Y-181605000I150000J0D01*
G01*
X73350000Y-181605000D01*
G75*
G02*
X73500000Y-181755000I0J-150000D01*
G01*
X73500000Y-182055000D01*
G75*
G02*
X73350000Y-182205000I-150000J0D01*
G01*
X71700000Y-182205000D01*
G75*
G02*
X71550000Y-182055000I0J150000D01*
G01*
G37*
%TD*%
%TO.C,U10*%
G36*
G01*
X94100000Y-81655000D02*
X94100000Y-81355000D01*
G75*
G02*
X94250000Y-81205000I150000J0D01*
G01*
X95900000Y-81205000D01*
G75*
G02*
X96050000Y-81355000I0J-150000D01*
G01*
X96050000Y-81655000D01*
G75*
G02*
X95900000Y-81805000I-150000J0D01*
G01*
X94250000Y-81805000D01*
G75*
G02*
X94100000Y-81655000I0J150000D01*
G01*
G37*
G36*
G01*
X94100000Y-80385000D02*
X94100000Y-80085000D01*
G75*
G02*
X94250000Y-79935000I150000J0D01*
G01*
X95900000Y-79935000D01*
G75*
G02*
X96050000Y-80085000I0J-150000D01*
G01*
X96050000Y-80385000D01*
G75*
G02*
X95900000Y-80535000I-150000J0D01*
G01*
X94250000Y-80535000D01*
G75*
G02*
X94100000Y-80385000I0J150000D01*
G01*
G37*
G36*
G01*
X94100000Y-79115000D02*
X94100000Y-78815000D01*
G75*
G02*
X94250000Y-78665000I150000J0D01*
G01*
X95900000Y-78665000D01*
G75*
G02*
X96050000Y-78815000I0J-150000D01*
G01*
X96050000Y-79115000D01*
G75*
G02*
X95900000Y-79265000I-150000J0D01*
G01*
X94250000Y-79265000D01*
G75*
G02*
X94100000Y-79115000I0J150000D01*
G01*
G37*
G36*
G01*
X94100000Y-77845000D02*
X94100000Y-77545000D01*
G75*
G02*
X94250000Y-77395000I150000J0D01*
G01*
X95900000Y-77395000D01*
G75*
G02*
X96050000Y-77545000I0J-150000D01*
G01*
X96050000Y-77845000D01*
G75*
G02*
X95900000Y-77995000I-150000J0D01*
G01*
X94250000Y-77995000D01*
G75*
G02*
X94100000Y-77845000I0J150000D01*
G01*
G37*
G36*
G01*
X89150000Y-77845000D02*
X89150000Y-77545000D01*
G75*
G02*
X89300000Y-77395000I150000J0D01*
G01*
X90950000Y-77395000D01*
G75*
G02*
X91100000Y-77545000I0J-150000D01*
G01*
X91100000Y-77845000D01*
G75*
G02*
X90950000Y-77995000I-150000J0D01*
G01*
X89300000Y-77995000D01*
G75*
G02*
X89150000Y-77845000I0J150000D01*
G01*
G37*
G36*
G01*
X89150000Y-79115000D02*
X89150000Y-78815000D01*
G75*
G02*
X89300000Y-78665000I150000J0D01*
G01*
X90950000Y-78665000D01*
G75*
G02*
X91100000Y-78815000I0J-150000D01*
G01*
X91100000Y-79115000D01*
G75*
G02*
X90950000Y-79265000I-150000J0D01*
G01*
X89300000Y-79265000D01*
G75*
G02*
X89150000Y-79115000I0J150000D01*
G01*
G37*
G36*
G01*
X89150000Y-80385000D02*
X89150000Y-80085000D01*
G75*
G02*
X89300000Y-79935000I150000J0D01*
G01*
X90950000Y-79935000D01*
G75*
G02*
X91100000Y-80085000I0J-150000D01*
G01*
X91100000Y-80385000D01*
G75*
G02*
X90950000Y-80535000I-150000J0D01*
G01*
X89300000Y-80535000D01*
G75*
G02*
X89150000Y-80385000I0J150000D01*
G01*
G37*
G36*
G01*
X89150000Y-81655000D02*
X89150000Y-81355000D01*
G75*
G02*
X89300000Y-81205000I150000J0D01*
G01*
X90950000Y-81205000D01*
G75*
G02*
X91100000Y-81355000I0J-150000D01*
G01*
X91100000Y-81655000D01*
G75*
G02*
X90950000Y-81805000I-150000J0D01*
G01*
X89300000Y-81805000D01*
G75*
G02*
X89150000Y-81655000I0J150000D01*
G01*
G37*
%TD*%
%TO.C,U9*%
G36*
G01*
X95500000Y-106055000D02*
X95500000Y-105755000D01*
G75*
G02*
X95650000Y-105605000I150000J0D01*
G01*
X97300000Y-105605000D01*
G75*
G02*
X97450000Y-105755000I0J-150000D01*
G01*
X97450000Y-106055000D01*
G75*
G02*
X97300000Y-106205000I-150000J0D01*
G01*
X95650000Y-106205000D01*
G75*
G02*
X95500000Y-106055000I0J150000D01*
G01*
G37*
G36*
G01*
X95500000Y-104785000D02*
X95500000Y-104485000D01*
G75*
G02*
X95650000Y-104335000I150000J0D01*
G01*
X97300000Y-104335000D01*
G75*
G02*
X97450000Y-104485000I0J-150000D01*
G01*
X97450000Y-104785000D01*
G75*
G02*
X97300000Y-104935000I-150000J0D01*
G01*
X95650000Y-104935000D01*
G75*
G02*
X95500000Y-104785000I0J150000D01*
G01*
G37*
G36*
G01*
X95500000Y-103515000D02*
X95500000Y-103215000D01*
G75*
G02*
X95650000Y-103065000I150000J0D01*
G01*
X97300000Y-103065000D01*
G75*
G02*
X97450000Y-103215000I0J-150000D01*
G01*
X97450000Y-103515000D01*
G75*
G02*
X97300000Y-103665000I-150000J0D01*
G01*
X95650000Y-103665000D01*
G75*
G02*
X95500000Y-103515000I0J150000D01*
G01*
G37*
G36*
G01*
X95500000Y-102245000D02*
X95500000Y-101945000D01*
G75*
G02*
X95650000Y-101795000I150000J0D01*
G01*
X97300000Y-101795000D01*
G75*
G02*
X97450000Y-101945000I0J-150000D01*
G01*
X97450000Y-102245000D01*
G75*
G02*
X97300000Y-102395000I-150000J0D01*
G01*
X95650000Y-102395000D01*
G75*
G02*
X95500000Y-102245000I0J150000D01*
G01*
G37*
G36*
G01*
X90550000Y-102245000D02*
X90550000Y-101945000D01*
G75*
G02*
X90700000Y-101795000I150000J0D01*
G01*
X92350000Y-101795000D01*
G75*
G02*
X92500000Y-101945000I0J-150000D01*
G01*
X92500000Y-102245000D01*
G75*
G02*
X92350000Y-102395000I-150000J0D01*
G01*
X90700000Y-102395000D01*
G75*
G02*
X90550000Y-102245000I0J150000D01*
G01*
G37*
G36*
G01*
X90550000Y-103515000D02*
X90550000Y-103215000D01*
G75*
G02*
X90700000Y-103065000I150000J0D01*
G01*
X92350000Y-103065000D01*
G75*
G02*
X92500000Y-103215000I0J-150000D01*
G01*
X92500000Y-103515000D01*
G75*
G02*
X92350000Y-103665000I-150000J0D01*
G01*
X90700000Y-103665000D01*
G75*
G02*
X90550000Y-103515000I0J150000D01*
G01*
G37*
G36*
G01*
X90550000Y-104785000D02*
X90550000Y-104485000D01*
G75*
G02*
X90700000Y-104335000I150000J0D01*
G01*
X92350000Y-104335000D01*
G75*
G02*
X92500000Y-104485000I0J-150000D01*
G01*
X92500000Y-104785000D01*
G75*
G02*
X92350000Y-104935000I-150000J0D01*
G01*
X90700000Y-104935000D01*
G75*
G02*
X90550000Y-104785000I0J150000D01*
G01*
G37*
G36*
G01*
X90550000Y-106055000D02*
X90550000Y-105755000D01*
G75*
G02*
X90700000Y-105605000I150000J0D01*
G01*
X92350000Y-105605000D01*
G75*
G02*
X92500000Y-105755000I0J-150000D01*
G01*
X92500000Y-106055000D01*
G75*
G02*
X92350000Y-106205000I-150000J0D01*
G01*
X90700000Y-106205000D01*
G75*
G02*
X90550000Y-106055000I0J150000D01*
G01*
G37*
%TD*%
%TO.C,U8*%
G36*
G01*
X94100000Y-119655000D02*
X94100000Y-119355000D01*
G75*
G02*
X94250000Y-119205000I150000J0D01*
G01*
X95900000Y-119205000D01*
G75*
G02*
X96050000Y-119355000I0J-150000D01*
G01*
X96050000Y-119655000D01*
G75*
G02*
X95900000Y-119805000I-150000J0D01*
G01*
X94250000Y-119805000D01*
G75*
G02*
X94100000Y-119655000I0J150000D01*
G01*
G37*
G36*
G01*
X94100000Y-118385000D02*
X94100000Y-118085000D01*
G75*
G02*
X94250000Y-117935000I150000J0D01*
G01*
X95900000Y-117935000D01*
G75*
G02*
X96050000Y-118085000I0J-150000D01*
G01*
X96050000Y-118385000D01*
G75*
G02*
X95900000Y-118535000I-150000J0D01*
G01*
X94250000Y-118535000D01*
G75*
G02*
X94100000Y-118385000I0J150000D01*
G01*
G37*
G36*
G01*
X94100000Y-117115000D02*
X94100000Y-116815000D01*
G75*
G02*
X94250000Y-116665000I150000J0D01*
G01*
X95900000Y-116665000D01*
G75*
G02*
X96050000Y-116815000I0J-150000D01*
G01*
X96050000Y-117115000D01*
G75*
G02*
X95900000Y-117265000I-150000J0D01*
G01*
X94250000Y-117265000D01*
G75*
G02*
X94100000Y-117115000I0J150000D01*
G01*
G37*
G36*
G01*
X94100000Y-115845000D02*
X94100000Y-115545000D01*
G75*
G02*
X94250000Y-115395000I150000J0D01*
G01*
X95900000Y-115395000D01*
G75*
G02*
X96050000Y-115545000I0J-150000D01*
G01*
X96050000Y-115845000D01*
G75*
G02*
X95900000Y-115995000I-150000J0D01*
G01*
X94250000Y-115995000D01*
G75*
G02*
X94100000Y-115845000I0J150000D01*
G01*
G37*
G36*
G01*
X89150000Y-115845000D02*
X89150000Y-115545000D01*
G75*
G02*
X89300000Y-115395000I150000J0D01*
G01*
X90950000Y-115395000D01*
G75*
G02*
X91100000Y-115545000I0J-150000D01*
G01*
X91100000Y-115845000D01*
G75*
G02*
X90950000Y-115995000I-150000J0D01*
G01*
X89300000Y-115995000D01*
G75*
G02*
X89150000Y-115845000I0J150000D01*
G01*
G37*
G36*
G01*
X89150000Y-117115000D02*
X89150000Y-116815000D01*
G75*
G02*
X89300000Y-116665000I150000J0D01*
G01*
X90950000Y-116665000D01*
G75*
G02*
X91100000Y-116815000I0J-150000D01*
G01*
X91100000Y-117115000D01*
G75*
G02*
X90950000Y-117265000I-150000J0D01*
G01*
X89300000Y-117265000D01*
G75*
G02*
X89150000Y-117115000I0J150000D01*
G01*
G37*
G36*
G01*
X89150000Y-118385000D02*
X89150000Y-118085000D01*
G75*
G02*
X89300000Y-117935000I150000J0D01*
G01*
X90950000Y-117935000D01*
G75*
G02*
X91100000Y-118085000I0J-150000D01*
G01*
X91100000Y-118385000D01*
G75*
G02*
X90950000Y-118535000I-150000J0D01*
G01*
X89300000Y-118535000D01*
G75*
G02*
X89150000Y-118385000I0J150000D01*
G01*
G37*
G36*
G01*
X89150000Y-119655000D02*
X89150000Y-119355000D01*
G75*
G02*
X89300000Y-119205000I150000J0D01*
G01*
X90950000Y-119205000D01*
G75*
G02*
X91100000Y-119355000I0J-150000D01*
G01*
X91100000Y-119655000D01*
G75*
G02*
X90950000Y-119805000I-150000J0D01*
G01*
X89300000Y-119805000D01*
G75*
G02*
X89150000Y-119655000I0J150000D01*
G01*
G37*
%TD*%
%TO.C,U7*%
G36*
G01*
X95500000Y-144055000D02*
X95500000Y-143755000D01*
G75*
G02*
X95650000Y-143605000I150000J0D01*
G01*
X97300000Y-143605000D01*
G75*
G02*
X97450000Y-143755000I0J-150000D01*
G01*
X97450000Y-144055000D01*
G75*
G02*
X97300000Y-144205000I-150000J0D01*
G01*
X95650000Y-144205000D01*
G75*
G02*
X95500000Y-144055000I0J150000D01*
G01*
G37*
G36*
G01*
X95500000Y-142785000D02*
X95500000Y-142485000D01*
G75*
G02*
X95650000Y-142335000I150000J0D01*
G01*
X97300000Y-142335000D01*
G75*
G02*
X97450000Y-142485000I0J-150000D01*
G01*
X97450000Y-142785000D01*
G75*
G02*
X97300000Y-142935000I-150000J0D01*
G01*
X95650000Y-142935000D01*
G75*
G02*
X95500000Y-142785000I0J150000D01*
G01*
G37*
G36*
G01*
X95500000Y-141515000D02*
X95500000Y-141215000D01*
G75*
G02*
X95650000Y-141065000I150000J0D01*
G01*
X97300000Y-141065000D01*
G75*
G02*
X97450000Y-141215000I0J-150000D01*
G01*
X97450000Y-141515000D01*
G75*
G02*
X97300000Y-141665000I-150000J0D01*
G01*
X95650000Y-141665000D01*
G75*
G02*
X95500000Y-141515000I0J150000D01*
G01*
G37*
G36*
G01*
X95500000Y-140245000D02*
X95500000Y-139945000D01*
G75*
G02*
X95650000Y-139795000I150000J0D01*
G01*
X97300000Y-139795000D01*
G75*
G02*
X97450000Y-139945000I0J-150000D01*
G01*
X97450000Y-140245000D01*
G75*
G02*
X97300000Y-140395000I-150000J0D01*
G01*
X95650000Y-140395000D01*
G75*
G02*
X95500000Y-140245000I0J150000D01*
G01*
G37*
G36*
G01*
X90550000Y-140245000D02*
X90550000Y-139945000D01*
G75*
G02*
X90700000Y-139795000I150000J0D01*
G01*
X92350000Y-139795000D01*
G75*
G02*
X92500000Y-139945000I0J-150000D01*
G01*
X92500000Y-140245000D01*
G75*
G02*
X92350000Y-140395000I-150000J0D01*
G01*
X90700000Y-140395000D01*
G75*
G02*
X90550000Y-140245000I0J150000D01*
G01*
G37*
G36*
G01*
X90550000Y-141515000D02*
X90550000Y-141215000D01*
G75*
G02*
X90700000Y-141065000I150000J0D01*
G01*
X92350000Y-141065000D01*
G75*
G02*
X92500000Y-141215000I0J-150000D01*
G01*
X92500000Y-141515000D01*
G75*
G02*
X92350000Y-141665000I-150000J0D01*
G01*
X90700000Y-141665000D01*
G75*
G02*
X90550000Y-141515000I0J150000D01*
G01*
G37*
G36*
G01*
X90550000Y-142785000D02*
X90550000Y-142485000D01*
G75*
G02*
X90700000Y-142335000I150000J0D01*
G01*
X92350000Y-142335000D01*
G75*
G02*
X92500000Y-142485000I0J-150000D01*
G01*
X92500000Y-142785000D01*
G75*
G02*
X92350000Y-142935000I-150000J0D01*
G01*
X90700000Y-142935000D01*
G75*
G02*
X90550000Y-142785000I0J150000D01*
G01*
G37*
G36*
G01*
X90550000Y-144055000D02*
X90550000Y-143755000D01*
G75*
G02*
X90700000Y-143605000I150000J0D01*
G01*
X92350000Y-143605000D01*
G75*
G02*
X92500000Y-143755000I0J-150000D01*
G01*
X92500000Y-144055000D01*
G75*
G02*
X92350000Y-144205000I-150000J0D01*
G01*
X90700000Y-144205000D01*
G75*
G02*
X90550000Y-144055000I0J150000D01*
G01*
G37*
%TD*%
D14*
%TO.C,U5*%
X136200000Y-141480000D03*
X115880000Y-149100000D03*
X133660000Y-141480000D03*
X118420000Y-149100000D03*
X131120000Y-141480000D03*
X120960000Y-149100000D03*
X128580000Y-141480000D03*
X123500000Y-149100000D03*
X126040000Y-141480000D03*
X126040000Y-149100000D03*
X123500000Y-141480000D03*
X128580000Y-149100000D03*
X120960000Y-141480000D03*
X131120000Y-149100000D03*
X118420000Y-141480000D03*
X133660000Y-149100000D03*
X115880000Y-141480000D03*
D15*
X136200000Y-149100000D03*
%TD*%
%TO.C,U4*%
G36*
G01*
X72805000Y-153900000D02*
X73105000Y-153900000D01*
G75*
G02*
X73255000Y-154050000I0J-150000D01*
G01*
X73255000Y-155700000D01*
G75*
G02*
X73105000Y-155850000I-150000J0D01*
G01*
X72805000Y-155850000D01*
G75*
G02*
X72655000Y-155700000I0J150000D01*
G01*
X72655000Y-154050000D01*
G75*
G02*
X72805000Y-153900000I150000J0D01*
G01*
G37*
G36*
G01*
X74075000Y-153900000D02*
X74375000Y-153900000D01*
G75*
G02*
X74525000Y-154050000I0J-150000D01*
G01*
X74525000Y-155700000D01*
G75*
G02*
X74375000Y-155850000I-150000J0D01*
G01*
X74075000Y-155850000D01*
G75*
G02*
X73925000Y-155700000I0J150000D01*
G01*
X73925000Y-154050000D01*
G75*
G02*
X74075000Y-153900000I150000J0D01*
G01*
G37*
G36*
G01*
X75345000Y-153900000D02*
X75645000Y-153900000D01*
G75*
G02*
X75795000Y-154050000I0J-150000D01*
G01*
X75795000Y-155700000D01*
G75*
G02*
X75645000Y-155850000I-150000J0D01*
G01*
X75345000Y-155850000D01*
G75*
G02*
X75195000Y-155700000I0J150000D01*
G01*
X75195000Y-154050000D01*
G75*
G02*
X75345000Y-153900000I150000J0D01*
G01*
G37*
G36*
G01*
X76615000Y-153900000D02*
X76915000Y-153900000D01*
G75*
G02*
X77065000Y-154050000I0J-150000D01*
G01*
X77065000Y-155700000D01*
G75*
G02*
X76915000Y-155850000I-150000J0D01*
G01*
X76615000Y-155850000D01*
G75*
G02*
X76465000Y-155700000I0J150000D01*
G01*
X76465000Y-154050000D01*
G75*
G02*
X76615000Y-153900000I150000J0D01*
G01*
G37*
G36*
G01*
X77885000Y-153900000D02*
X78185000Y-153900000D01*
G75*
G02*
X78335000Y-154050000I0J-150000D01*
G01*
X78335000Y-155700000D01*
G75*
G02*
X78185000Y-155850000I-150000J0D01*
G01*
X77885000Y-155850000D01*
G75*
G02*
X77735000Y-155700000I0J150000D01*
G01*
X77735000Y-154050000D01*
G75*
G02*
X77885000Y-153900000I150000J0D01*
G01*
G37*
G36*
G01*
X79155000Y-153900000D02*
X79455000Y-153900000D01*
G75*
G02*
X79605000Y-154050000I0J-150000D01*
G01*
X79605000Y-155700000D01*
G75*
G02*
X79455000Y-155850000I-150000J0D01*
G01*
X79155000Y-155850000D01*
G75*
G02*
X79005000Y-155700000I0J150000D01*
G01*
X79005000Y-154050000D01*
G75*
G02*
X79155000Y-153900000I150000J0D01*
G01*
G37*
G36*
G01*
X80425000Y-153900000D02*
X80725000Y-153900000D01*
G75*
G02*
X80875000Y-154050000I0J-150000D01*
G01*
X80875000Y-155700000D01*
G75*
G02*
X80725000Y-155850000I-150000J0D01*
G01*
X80425000Y-155850000D01*
G75*
G02*
X80275000Y-155700000I0J150000D01*
G01*
X80275000Y-154050000D01*
G75*
G02*
X80425000Y-153900000I150000J0D01*
G01*
G37*
G36*
G01*
X81695000Y-153900000D02*
X81995000Y-153900000D01*
G75*
G02*
X82145000Y-154050000I0J-150000D01*
G01*
X82145000Y-155700000D01*
G75*
G02*
X81995000Y-155850000I-150000J0D01*
G01*
X81695000Y-155850000D01*
G75*
G02*
X81545000Y-155700000I0J150000D01*
G01*
X81545000Y-154050000D01*
G75*
G02*
X81695000Y-153900000I150000J0D01*
G01*
G37*
G36*
G01*
X81695000Y-148950000D02*
X81995000Y-148950000D01*
G75*
G02*
X82145000Y-149100000I0J-150000D01*
G01*
X82145000Y-150750000D01*
G75*
G02*
X81995000Y-150900000I-150000J0D01*
G01*
X81695000Y-150900000D01*
G75*
G02*
X81545000Y-150750000I0J150000D01*
G01*
X81545000Y-149100000D01*
G75*
G02*
X81695000Y-148950000I150000J0D01*
G01*
G37*
G36*
G01*
X80425000Y-148950000D02*
X80725000Y-148950000D01*
G75*
G02*
X80875000Y-149100000I0J-150000D01*
G01*
X80875000Y-150750000D01*
G75*
G02*
X80725000Y-150900000I-150000J0D01*
G01*
X80425000Y-150900000D01*
G75*
G02*
X80275000Y-150750000I0J150000D01*
G01*
X80275000Y-149100000D01*
G75*
G02*
X80425000Y-148950000I150000J0D01*
G01*
G37*
G36*
G01*
X79155000Y-148950000D02*
X79455000Y-148950000D01*
G75*
G02*
X79605000Y-149100000I0J-150000D01*
G01*
X79605000Y-150750000D01*
G75*
G02*
X79455000Y-150900000I-150000J0D01*
G01*
X79155000Y-150900000D01*
G75*
G02*
X79005000Y-150750000I0J150000D01*
G01*
X79005000Y-149100000D01*
G75*
G02*
X79155000Y-148950000I150000J0D01*
G01*
G37*
G36*
G01*
X77885000Y-148950000D02*
X78185000Y-148950000D01*
G75*
G02*
X78335000Y-149100000I0J-150000D01*
G01*
X78335000Y-150750000D01*
G75*
G02*
X78185000Y-150900000I-150000J0D01*
G01*
X77885000Y-150900000D01*
G75*
G02*
X77735000Y-150750000I0J150000D01*
G01*
X77735000Y-149100000D01*
G75*
G02*
X77885000Y-148950000I150000J0D01*
G01*
G37*
G36*
G01*
X76615000Y-148950000D02*
X76915000Y-148950000D01*
G75*
G02*
X77065000Y-149100000I0J-150000D01*
G01*
X77065000Y-150750000D01*
G75*
G02*
X76915000Y-150900000I-150000J0D01*
G01*
X76615000Y-150900000D01*
G75*
G02*
X76465000Y-150750000I0J150000D01*
G01*
X76465000Y-149100000D01*
G75*
G02*
X76615000Y-148950000I150000J0D01*
G01*
G37*
G36*
G01*
X75345000Y-148950000D02*
X75645000Y-148950000D01*
G75*
G02*
X75795000Y-149100000I0J-150000D01*
G01*
X75795000Y-150750000D01*
G75*
G02*
X75645000Y-150900000I-150000J0D01*
G01*
X75345000Y-150900000D01*
G75*
G02*
X75195000Y-150750000I0J150000D01*
G01*
X75195000Y-149100000D01*
G75*
G02*
X75345000Y-148950000I150000J0D01*
G01*
G37*
G36*
G01*
X74075000Y-148950000D02*
X74375000Y-148950000D01*
G75*
G02*
X74525000Y-149100000I0J-150000D01*
G01*
X74525000Y-150750000D01*
G75*
G02*
X74375000Y-150900000I-150000J0D01*
G01*
X74075000Y-150900000D01*
G75*
G02*
X73925000Y-150750000I0J150000D01*
G01*
X73925000Y-149100000D01*
G75*
G02*
X74075000Y-148950000I150000J0D01*
G01*
G37*
G36*
G01*
X72805000Y-148950000D02*
X73105000Y-148950000D01*
G75*
G02*
X73255000Y-149100000I0J-150000D01*
G01*
X73255000Y-150750000D01*
G75*
G02*
X73105000Y-150900000I-150000J0D01*
G01*
X72805000Y-150900000D01*
G75*
G02*
X72655000Y-150750000I0J150000D01*
G01*
X72655000Y-149100000D01*
G75*
G02*
X72805000Y-148950000I150000J0D01*
G01*
G37*
%TD*%
D14*
%TO.C,U3*%
X108200000Y-178120000D03*
X128520000Y-170500000D03*
X110740000Y-178120000D03*
X125980000Y-170500000D03*
X113280000Y-178120000D03*
X123440000Y-170500000D03*
X115820000Y-178120000D03*
X120900000Y-170500000D03*
X118360000Y-178120000D03*
X118360000Y-170500000D03*
X120900000Y-178120000D03*
X115820000Y-170500000D03*
X123440000Y-178120000D03*
X113280000Y-170500000D03*
X125980000Y-178120000D03*
X110740000Y-170500000D03*
X128520000Y-178120000D03*
D15*
X108200000Y-170500000D03*
%TD*%
D17*
%TO.C,U1*%
X66400000Y-153900000D03*
X68400000Y-154850000D03*
X68400000Y-152950000D03*
%TD*%
D18*
%TO.C,TP5*%
X143600000Y-173500000D03*
%TD*%
%TO.C,TP4*%
X147000000Y-88500000D03*
%TD*%
%TO.C,TP3*%
X67500000Y-150000000D03*
%TD*%
%TO.C,TP2*%
X147000000Y-80500000D03*
%TD*%
%TO.C,TP1*%
X134500000Y-173500000D03*
%TD*%
D19*
%TO.C,SW6*%
X99080000Y-175000000D03*
X88920000Y-175000000D03*
D20*
X94000000Y-175000000D03*
D21*
X90190000Y-172460000D03*
X96540000Y-169920000D03*
%TD*%
D19*
%TO.C,SW5*%
X80080000Y-175000000D03*
X69920000Y-175000000D03*
D20*
X75000000Y-175000000D03*
D21*
X71190000Y-172460000D03*
X77540000Y-169920000D03*
%TD*%
D22*
%TO.C,SW4*%
X94000000Y-74400000D03*
D19*
X87000000Y-76000000D03*
X87000000Y-78000000D03*
X87000000Y-80000000D03*
X87000000Y-82000000D03*
D22*
X94000000Y-85600000D03*
D23*
X101500000Y-77500000D03*
X101500000Y-80000000D03*
X101500000Y-82500000D03*
D19*
X87000000Y-84000000D03*
%TD*%
%TO.C,SW3*%
X99080000Y-99000000D03*
X88920000Y-99000000D03*
D20*
X94000000Y-99000000D03*
D21*
X90190000Y-96460000D03*
X96540000Y-93920000D03*
%TD*%
D22*
%TO.C,SW2*%
X94000000Y-112400000D03*
D19*
X87000000Y-114000000D03*
X87000000Y-116000000D03*
X87000000Y-118000000D03*
X87000000Y-120000000D03*
D22*
X94000000Y-123600000D03*
D23*
X101500000Y-115500000D03*
X101500000Y-118000000D03*
X101500000Y-120500000D03*
D19*
X87000000Y-122000000D03*
%TD*%
%TO.C,SW1*%
X99080000Y-137000000D03*
X88920000Y-137000000D03*
D20*
X94000000Y-137000000D03*
D21*
X90190000Y-134460000D03*
X96540000Y-131920000D03*
%TD*%
D24*
%TO.C,RV1*%
X79200000Y-77900000D03*
X79200000Y-143100000D03*
X70800000Y-79100000D03*
X70800000Y-141900000D03*
D25*
X73250000Y-73750000D03*
X76750000Y-147250000D03*
D26*
X73250000Y-147250000D03*
%TD*%
%TO.C,R10*%
G36*
G01*
X99825000Y-181037500D02*
X99825000Y-180562500D01*
G75*
G02*
X100062500Y-180325000I237500J0D01*
G01*
X100562500Y-180325000D01*
G75*
G02*
X100800000Y-180562500I0J-237500D01*
G01*
X100800000Y-181037500D01*
G75*
G02*
X100562500Y-181275000I-237500J0D01*
G01*
X100062500Y-181275000D01*
G75*
G02*
X99825000Y-181037500I0J237500D01*
G01*
G37*
G36*
G01*
X98000000Y-181037500D02*
X98000000Y-180562500D01*
G75*
G02*
X98237500Y-180325000I237500J0D01*
G01*
X98737500Y-180325000D01*
G75*
G02*
X98975000Y-180562500I0J-237500D01*
G01*
X98975000Y-181037500D01*
G75*
G02*
X98737500Y-181275000I-237500J0D01*
G01*
X98237500Y-181275000D01*
G75*
G02*
X98000000Y-181037500I0J237500D01*
G01*
G37*
%TD*%
%TO.C,R9*%
G36*
G01*
X80825000Y-181037500D02*
X80825000Y-180562500D01*
G75*
G02*
X81062500Y-180325000I237500J0D01*
G01*
X81562500Y-180325000D01*
G75*
G02*
X81800000Y-180562500I0J-237500D01*
G01*
X81800000Y-181037500D01*
G75*
G02*
X81562500Y-181275000I-237500J0D01*
G01*
X81062500Y-181275000D01*
G75*
G02*
X80825000Y-181037500I0J237500D01*
G01*
G37*
G36*
G01*
X79000000Y-181037500D02*
X79000000Y-180562500D01*
G75*
G02*
X79237500Y-180325000I237500J0D01*
G01*
X79737500Y-180325000D01*
G75*
G02*
X79975000Y-180562500I0J-237500D01*
G01*
X79975000Y-181037500D01*
G75*
G02*
X79737500Y-181275000I-237500J0D01*
G01*
X79237500Y-181275000D01*
G75*
G02*
X79000000Y-181037500I0J237500D01*
G01*
G37*
%TD*%
%TO.C,R8*%
G36*
G01*
X89625000Y-85737500D02*
X89625000Y-85262500D01*
G75*
G02*
X89862500Y-85025000I237500J0D01*
G01*
X90362500Y-85025000D01*
G75*
G02*
X90600000Y-85262500I0J-237500D01*
G01*
X90600000Y-85737500D01*
G75*
G02*
X90362500Y-85975000I-237500J0D01*
G01*
X89862500Y-85975000D01*
G75*
G02*
X89625000Y-85737500I0J237500D01*
G01*
G37*
G36*
G01*
X87800000Y-85737500D02*
X87800000Y-85262500D01*
G75*
G02*
X88037500Y-85025000I237500J0D01*
G01*
X88537500Y-85025000D01*
G75*
G02*
X88775000Y-85262500I0J-237500D01*
G01*
X88775000Y-85737500D01*
G75*
G02*
X88537500Y-85975000I-237500J0D01*
G01*
X88037500Y-85975000D01*
G75*
G02*
X87800000Y-85737500I0J237500D01*
G01*
G37*
%TD*%
%TO.C,R7*%
G36*
G01*
X98425000Y-80537500D02*
X98425000Y-80062500D01*
G75*
G02*
X98662500Y-79825000I237500J0D01*
G01*
X99162500Y-79825000D01*
G75*
G02*
X99400000Y-80062500I0J-237500D01*
G01*
X99400000Y-80537500D01*
G75*
G02*
X99162500Y-80775000I-237500J0D01*
G01*
X98662500Y-80775000D01*
G75*
G02*
X98425000Y-80537500I0J237500D01*
G01*
G37*
G36*
G01*
X96600000Y-80537500D02*
X96600000Y-80062500D01*
G75*
G02*
X96837500Y-79825000I237500J0D01*
G01*
X97337500Y-79825000D01*
G75*
G02*
X97575000Y-80062500I0J-237500D01*
G01*
X97575000Y-80537500D01*
G75*
G02*
X97337500Y-80775000I-237500J0D01*
G01*
X96837500Y-80775000D01*
G75*
G02*
X96600000Y-80537500I0J237500D01*
G01*
G37*
%TD*%
%TO.C,R6*%
G36*
G01*
X99825000Y-105037500D02*
X99825000Y-104562500D01*
G75*
G02*
X100062500Y-104325000I237500J0D01*
G01*
X100562500Y-104325000D01*
G75*
G02*
X100800000Y-104562500I0J-237500D01*
G01*
X100800000Y-105037500D01*
G75*
G02*
X100562500Y-105275000I-237500J0D01*
G01*
X100062500Y-105275000D01*
G75*
G02*
X99825000Y-105037500I0J237500D01*
G01*
G37*
G36*
G01*
X98000000Y-105037500D02*
X98000000Y-104562500D01*
G75*
G02*
X98237500Y-104325000I237500J0D01*
G01*
X98737500Y-104325000D01*
G75*
G02*
X98975000Y-104562500I0J-237500D01*
G01*
X98975000Y-105037500D01*
G75*
G02*
X98737500Y-105275000I-237500J0D01*
G01*
X98237500Y-105275000D01*
G75*
G02*
X98000000Y-105037500I0J237500D01*
G01*
G37*
%TD*%
%TO.C,R5*%
G36*
G01*
X89625000Y-123737500D02*
X89625000Y-123262500D01*
G75*
G02*
X89862500Y-123025000I237500J0D01*
G01*
X90362500Y-123025000D01*
G75*
G02*
X90600000Y-123262500I0J-237500D01*
G01*
X90600000Y-123737500D01*
G75*
G02*
X90362500Y-123975000I-237500J0D01*
G01*
X89862500Y-123975000D01*
G75*
G02*
X89625000Y-123737500I0J237500D01*
G01*
G37*
G36*
G01*
X87800000Y-123737500D02*
X87800000Y-123262500D01*
G75*
G02*
X88037500Y-123025000I237500J0D01*
G01*
X88537500Y-123025000D01*
G75*
G02*
X88775000Y-123262500I0J-237500D01*
G01*
X88775000Y-123737500D01*
G75*
G02*
X88537500Y-123975000I-237500J0D01*
G01*
X88037500Y-123975000D01*
G75*
G02*
X87800000Y-123737500I0J237500D01*
G01*
G37*
%TD*%
%TO.C,R4*%
G36*
G01*
X98425000Y-118537500D02*
X98425000Y-118062500D01*
G75*
G02*
X98662500Y-117825000I237500J0D01*
G01*
X99162500Y-117825000D01*
G75*
G02*
X99400000Y-118062500I0J-237500D01*
G01*
X99400000Y-118537500D01*
G75*
G02*
X99162500Y-118775000I-237500J0D01*
G01*
X98662500Y-118775000D01*
G75*
G02*
X98425000Y-118537500I0J237500D01*
G01*
G37*
G36*
G01*
X96600000Y-118537500D02*
X96600000Y-118062500D01*
G75*
G02*
X96837500Y-117825000I237500J0D01*
G01*
X97337500Y-117825000D01*
G75*
G02*
X97575000Y-118062500I0J-237500D01*
G01*
X97575000Y-118537500D01*
G75*
G02*
X97337500Y-118775000I-237500J0D01*
G01*
X96837500Y-118775000D01*
G75*
G02*
X96600000Y-118537500I0J237500D01*
G01*
G37*
%TD*%
%TO.C,R3*%
G36*
G01*
X99825000Y-143037500D02*
X99825000Y-142562500D01*
G75*
G02*
X100062500Y-142325000I237500J0D01*
G01*
X100562500Y-142325000D01*
G75*
G02*
X100800000Y-142562500I0J-237500D01*
G01*
X100800000Y-143037500D01*
G75*
G02*
X100562500Y-143275000I-237500J0D01*
G01*
X100062500Y-143275000D01*
G75*
G02*
X99825000Y-143037500I0J237500D01*
G01*
G37*
G36*
G01*
X98000000Y-143037500D02*
X98000000Y-142562500D01*
G75*
G02*
X98237500Y-142325000I237500J0D01*
G01*
X98737500Y-142325000D01*
G75*
G02*
X98975000Y-142562500I0J-237500D01*
G01*
X98975000Y-143037500D01*
G75*
G02*
X98737500Y-143275000I-237500J0D01*
G01*
X98237500Y-143275000D01*
G75*
G02*
X98000000Y-143037500I0J237500D01*
G01*
G37*
%TD*%
%TO.C,R2*%
G36*
G01*
X147450001Y-84100000D02*
X146549999Y-84100000D01*
G75*
G02*
X146300000Y-83850001I0J249999D01*
G01*
X146300000Y-83149999D01*
G75*
G02*
X146549999Y-82900000I249999J0D01*
G01*
X147450001Y-82900000D01*
G75*
G02*
X147700000Y-83149999I0J-249999D01*
G01*
X147700000Y-83850001D01*
G75*
G02*
X147450001Y-84100000I-249999J0D01*
G01*
G37*
G36*
G01*
X147450001Y-86100000D02*
X146549999Y-86100000D01*
G75*
G02*
X146300000Y-85850001I0J249999D01*
G01*
X146300000Y-85149999D01*
G75*
G02*
X146549999Y-84900000I249999J0D01*
G01*
X147450001Y-84900000D01*
G75*
G02*
X147700000Y-85149999I0J-249999D01*
G01*
X147700000Y-85850001D01*
G75*
G02*
X147450001Y-86100000I-249999J0D01*
G01*
G37*
%TD*%
%TO.C,R1*%
G36*
G01*
X71637500Y-153575000D02*
X71162500Y-153575000D01*
G75*
G02*
X70925000Y-153337500I0J237500D01*
G01*
X70925000Y-152837500D01*
G75*
G02*
X71162500Y-152600000I237500J0D01*
G01*
X71637500Y-152600000D01*
G75*
G02*
X71875000Y-152837500I0J-237500D01*
G01*
X71875000Y-153337500D01*
G75*
G02*
X71637500Y-153575000I-237500J0D01*
G01*
G37*
G36*
G01*
X71637500Y-155400000D02*
X71162500Y-155400000D01*
G75*
G02*
X70925000Y-155162500I0J237500D01*
G01*
X70925000Y-154662500D01*
G75*
G02*
X71162500Y-154425000I237500J0D01*
G01*
X71637500Y-154425000D01*
G75*
G02*
X71875000Y-154662500I0J-237500D01*
G01*
X71875000Y-155162500D01*
G75*
G02*
X71637500Y-155400000I-237500J0D01*
G01*
G37*
%TD*%
D17*
%TO.C,Q2*%
X96600000Y-86300000D03*
X98600000Y-87250000D03*
X98600000Y-85350000D03*
%TD*%
%TO.C,Q1*%
X96600000Y-124300000D03*
X98600000Y-125250000D03*
X98600000Y-123350000D03*
%TD*%
D27*
%TO.C,D10*%
X90100000Y-167650000D03*
X90100000Y-165150000D03*
%TD*%
%TO.C,D9*%
X71100000Y-167650000D03*
X71100000Y-165150000D03*
%TD*%
%TO.C,D8*%
X99650000Y-83600000D03*
X97150000Y-83600000D03*
%TD*%
%TO.C,D7*%
X99200000Y-77450000D03*
X99200000Y-74950000D03*
%TD*%
%TO.C,D6*%
X97300000Y-77450000D03*
X97300000Y-74950000D03*
%TD*%
%TO.C,D5*%
X90100000Y-91650000D03*
X90100000Y-89150000D03*
%TD*%
%TO.C,D4*%
X99650000Y-121600000D03*
X97150000Y-121600000D03*
%TD*%
%TO.C,D3*%
X99200000Y-115450000D03*
X99200000Y-112950000D03*
%TD*%
%TO.C,D2*%
X97300000Y-115450000D03*
X97300000Y-112950000D03*
%TD*%
%TO.C,D1*%
X90100000Y-129650000D03*
X90100000Y-127150000D03*
%TD*%
%TO.C,C16*%
G36*
G01*
X88475000Y-178650000D02*
X87525000Y-178650000D01*
G75*
G02*
X87275000Y-178400000I0J250000D01*
G01*
X87275000Y-177725000D01*
G75*
G02*
X87525000Y-177475000I250000J0D01*
G01*
X88475000Y-177475000D01*
G75*
G02*
X88725000Y-177725000I0J-250000D01*
G01*
X88725000Y-178400000D01*
G75*
G02*
X88475000Y-178650000I-250000J0D01*
G01*
G37*
G36*
G01*
X88475000Y-180725000D02*
X87525000Y-180725000D01*
G75*
G02*
X87275000Y-180475000I0J250000D01*
G01*
X87275000Y-179800000D01*
G75*
G02*
X87525000Y-179550000I250000J0D01*
G01*
X88475000Y-179550000D01*
G75*
G02*
X88725000Y-179800000I0J-250000D01*
G01*
X88725000Y-180475000D01*
G75*
G02*
X88475000Y-180725000I-250000J0D01*
G01*
G37*
%TD*%
%TO.C,C15*%
G36*
G01*
X99725000Y-182637500D02*
X99725000Y-182162500D01*
G75*
G02*
X99962500Y-181925000I237500J0D01*
G01*
X100562500Y-181925000D01*
G75*
G02*
X100800000Y-182162500I0J-237500D01*
G01*
X100800000Y-182637500D01*
G75*
G02*
X100562500Y-182875000I-237500J0D01*
G01*
X99962500Y-182875000D01*
G75*
G02*
X99725000Y-182637500I0J237500D01*
G01*
G37*
G36*
G01*
X98000000Y-182637500D02*
X98000000Y-182162500D01*
G75*
G02*
X98237500Y-181925000I237500J0D01*
G01*
X98837500Y-181925000D01*
G75*
G02*
X99075000Y-182162500I0J-237500D01*
G01*
X99075000Y-182637500D01*
G75*
G02*
X98837500Y-182875000I-237500J0D01*
G01*
X98237500Y-182875000D01*
G75*
G02*
X98000000Y-182637500I0J237500D01*
G01*
G37*
%TD*%
%TO.C,C14*%
G36*
G01*
X69475000Y-178650000D02*
X68525000Y-178650000D01*
G75*
G02*
X68275000Y-178400000I0J250000D01*
G01*
X68275000Y-177725000D01*
G75*
G02*
X68525000Y-177475000I250000J0D01*
G01*
X69475000Y-177475000D01*
G75*
G02*
X69725000Y-177725000I0J-250000D01*
G01*
X69725000Y-178400000D01*
G75*
G02*
X69475000Y-178650000I-250000J0D01*
G01*
G37*
G36*
G01*
X69475000Y-180725000D02*
X68525000Y-180725000D01*
G75*
G02*
X68275000Y-180475000I0J250000D01*
G01*
X68275000Y-179800000D01*
G75*
G02*
X68525000Y-179550000I250000J0D01*
G01*
X69475000Y-179550000D01*
G75*
G02*
X69725000Y-179800000I0J-250000D01*
G01*
X69725000Y-180475000D01*
G75*
G02*
X69475000Y-180725000I-250000J0D01*
G01*
G37*
%TD*%
%TO.C,C13*%
G36*
G01*
X80725000Y-182637500D02*
X80725000Y-182162500D01*
G75*
G02*
X80962500Y-181925000I237500J0D01*
G01*
X81562500Y-181925000D01*
G75*
G02*
X81800000Y-182162500I0J-237500D01*
G01*
X81800000Y-182637500D01*
G75*
G02*
X81562500Y-182875000I-237500J0D01*
G01*
X80962500Y-182875000D01*
G75*
G02*
X80725000Y-182637500I0J237500D01*
G01*
G37*
G36*
G01*
X79000000Y-182637500D02*
X79000000Y-182162500D01*
G75*
G02*
X79237500Y-181925000I237500J0D01*
G01*
X79837500Y-181925000D01*
G75*
G02*
X80075000Y-182162500I0J-237500D01*
G01*
X80075000Y-182637500D01*
G75*
G02*
X79837500Y-182875000I-237500J0D01*
G01*
X79237500Y-182875000D01*
G75*
G02*
X79000000Y-182637500I0J237500D01*
G01*
G37*
%TD*%
%TO.C,C12*%
G36*
G01*
X89625000Y-75350000D02*
X90575000Y-75350000D01*
G75*
G02*
X90825000Y-75600000I0J-250000D01*
G01*
X90825000Y-76275000D01*
G75*
G02*
X90575000Y-76525000I-250000J0D01*
G01*
X89625000Y-76525000D01*
G75*
G02*
X89375000Y-76275000I0J250000D01*
G01*
X89375000Y-75600000D01*
G75*
G02*
X89625000Y-75350000I250000J0D01*
G01*
G37*
G36*
G01*
X89625000Y-73275000D02*
X90575000Y-73275000D01*
G75*
G02*
X90825000Y-73525000I0J-250000D01*
G01*
X90825000Y-74200000D01*
G75*
G02*
X90575000Y-74450000I-250000J0D01*
G01*
X89625000Y-74450000D01*
G75*
G02*
X89375000Y-74200000I0J250000D01*
G01*
X89375000Y-73525000D01*
G75*
G02*
X89625000Y-73275000I250000J0D01*
G01*
G37*
%TD*%
%TO.C,C11*%
G36*
G01*
X98325000Y-82037500D02*
X98325000Y-81562500D01*
G75*
G02*
X98562500Y-81325000I237500J0D01*
G01*
X99162500Y-81325000D01*
G75*
G02*
X99400000Y-81562500I0J-237500D01*
G01*
X99400000Y-82037500D01*
G75*
G02*
X99162500Y-82275000I-237500J0D01*
G01*
X98562500Y-82275000D01*
G75*
G02*
X98325000Y-82037500I0J237500D01*
G01*
G37*
G36*
G01*
X96600000Y-82037500D02*
X96600000Y-81562500D01*
G75*
G02*
X96837500Y-81325000I237500J0D01*
G01*
X97437500Y-81325000D01*
G75*
G02*
X97675000Y-81562500I0J-237500D01*
G01*
X97675000Y-82037500D01*
G75*
G02*
X97437500Y-82275000I-237500J0D01*
G01*
X96837500Y-82275000D01*
G75*
G02*
X96600000Y-82037500I0J237500D01*
G01*
G37*
%TD*%
%TO.C,C10*%
G36*
G01*
X88475000Y-102650000D02*
X87525000Y-102650000D01*
G75*
G02*
X87275000Y-102400000I0J250000D01*
G01*
X87275000Y-101725000D01*
G75*
G02*
X87525000Y-101475000I250000J0D01*
G01*
X88475000Y-101475000D01*
G75*
G02*
X88725000Y-101725000I0J-250000D01*
G01*
X88725000Y-102400000D01*
G75*
G02*
X88475000Y-102650000I-250000J0D01*
G01*
G37*
G36*
G01*
X88475000Y-104725000D02*
X87525000Y-104725000D01*
G75*
G02*
X87275000Y-104475000I0J250000D01*
G01*
X87275000Y-103800000D01*
G75*
G02*
X87525000Y-103550000I250000J0D01*
G01*
X88475000Y-103550000D01*
G75*
G02*
X88725000Y-103800000I0J-250000D01*
G01*
X88725000Y-104475000D01*
G75*
G02*
X88475000Y-104725000I-250000J0D01*
G01*
G37*
%TD*%
%TO.C,C9*%
G36*
G01*
X99725000Y-106637500D02*
X99725000Y-106162500D01*
G75*
G02*
X99962500Y-105925000I237500J0D01*
G01*
X100562500Y-105925000D01*
G75*
G02*
X100800000Y-106162500I0J-237500D01*
G01*
X100800000Y-106637500D01*
G75*
G02*
X100562500Y-106875000I-237500J0D01*
G01*
X99962500Y-106875000D01*
G75*
G02*
X99725000Y-106637500I0J237500D01*
G01*
G37*
G36*
G01*
X98000000Y-106637500D02*
X98000000Y-106162500D01*
G75*
G02*
X98237500Y-105925000I237500J0D01*
G01*
X98837500Y-105925000D01*
G75*
G02*
X99075000Y-106162500I0J-237500D01*
G01*
X99075000Y-106637500D01*
G75*
G02*
X98837500Y-106875000I-237500J0D01*
G01*
X98237500Y-106875000D01*
G75*
G02*
X98000000Y-106637500I0J237500D01*
G01*
G37*
%TD*%
%TO.C,C8*%
G36*
G01*
X89625000Y-113350000D02*
X90575000Y-113350000D01*
G75*
G02*
X90825000Y-113600000I0J-250000D01*
G01*
X90825000Y-114275000D01*
G75*
G02*
X90575000Y-114525000I-250000J0D01*
G01*
X89625000Y-114525000D01*
G75*
G02*
X89375000Y-114275000I0J250000D01*
G01*
X89375000Y-113600000D01*
G75*
G02*
X89625000Y-113350000I250000J0D01*
G01*
G37*
G36*
G01*
X89625000Y-111275000D02*
X90575000Y-111275000D01*
G75*
G02*
X90825000Y-111525000I0J-250000D01*
G01*
X90825000Y-112200000D01*
G75*
G02*
X90575000Y-112450000I-250000J0D01*
G01*
X89625000Y-112450000D01*
G75*
G02*
X89375000Y-112200000I0J250000D01*
G01*
X89375000Y-111525000D01*
G75*
G02*
X89625000Y-111275000I250000J0D01*
G01*
G37*
%TD*%
%TO.C,C7*%
G36*
G01*
X98325000Y-120037500D02*
X98325000Y-119562500D01*
G75*
G02*
X98562500Y-119325000I237500J0D01*
G01*
X99162500Y-119325000D01*
G75*
G02*
X99400000Y-119562500I0J-237500D01*
G01*
X99400000Y-120037500D01*
G75*
G02*
X99162500Y-120275000I-237500J0D01*
G01*
X98562500Y-120275000D01*
G75*
G02*
X98325000Y-120037500I0J237500D01*
G01*
G37*
G36*
G01*
X96600000Y-120037500D02*
X96600000Y-119562500D01*
G75*
G02*
X96837500Y-119325000I237500J0D01*
G01*
X97437500Y-119325000D01*
G75*
G02*
X97675000Y-119562500I0J-237500D01*
G01*
X97675000Y-120037500D01*
G75*
G02*
X97437500Y-120275000I-237500J0D01*
G01*
X96837500Y-120275000D01*
G75*
G02*
X96600000Y-120037500I0J237500D01*
G01*
G37*
%TD*%
%TO.C,C6*%
G36*
G01*
X88475000Y-140650000D02*
X87525000Y-140650000D01*
G75*
G02*
X87275000Y-140400000I0J250000D01*
G01*
X87275000Y-139725000D01*
G75*
G02*
X87525000Y-139475000I250000J0D01*
G01*
X88475000Y-139475000D01*
G75*
G02*
X88725000Y-139725000I0J-250000D01*
G01*
X88725000Y-140400000D01*
G75*
G02*
X88475000Y-140650000I-250000J0D01*
G01*
G37*
G36*
G01*
X88475000Y-142725000D02*
X87525000Y-142725000D01*
G75*
G02*
X87275000Y-142475000I0J250000D01*
G01*
X87275000Y-141800000D01*
G75*
G02*
X87525000Y-141550000I250000J0D01*
G01*
X88475000Y-141550000D01*
G75*
G02*
X88725000Y-141800000I0J-250000D01*
G01*
X88725000Y-142475000D01*
G75*
G02*
X88475000Y-142725000I-250000J0D01*
G01*
G37*
%TD*%
%TO.C,C5*%
G36*
G01*
X99725000Y-144637500D02*
X99725000Y-144162500D01*
G75*
G02*
X99962500Y-143925000I237500J0D01*
G01*
X100562500Y-143925000D01*
G75*
G02*
X100800000Y-144162500I0J-237500D01*
G01*
X100800000Y-144637500D01*
G75*
G02*
X100562500Y-144875000I-237500J0D01*
G01*
X99962500Y-144875000D01*
G75*
G02*
X99725000Y-144637500I0J237500D01*
G01*
G37*
G36*
G01*
X98000000Y-144637500D02*
X98000000Y-144162500D01*
G75*
G02*
X98237500Y-143925000I237500J0D01*
G01*
X98837500Y-143925000D01*
G75*
G02*
X99075000Y-144162500I0J-237500D01*
G01*
X99075000Y-144637500D01*
G75*
G02*
X98837500Y-144875000I-237500J0D01*
G01*
X98237500Y-144875000D01*
G75*
G02*
X98000000Y-144637500I0J237500D01*
G01*
G37*
%TD*%
%TO.C,C4*%
G36*
G01*
X139825000Y-137537500D02*
X139825000Y-137062500D01*
G75*
G02*
X140062500Y-136825000I237500J0D01*
G01*
X140662500Y-136825000D01*
G75*
G02*
X140900000Y-137062500I0J-237500D01*
G01*
X140900000Y-137537500D01*
G75*
G02*
X140662500Y-137775000I-237500J0D01*
G01*
X140062500Y-137775000D01*
G75*
G02*
X139825000Y-137537500I0J237500D01*
G01*
G37*
G36*
G01*
X138100000Y-137537500D02*
X138100000Y-137062500D01*
G75*
G02*
X138337500Y-136825000I237500J0D01*
G01*
X138937500Y-136825000D01*
G75*
G02*
X139175000Y-137062500I0J-237500D01*
G01*
X139175000Y-137537500D01*
G75*
G02*
X138937500Y-137775000I-237500J0D01*
G01*
X138337500Y-137775000D01*
G75*
G02*
X138100000Y-137537500I0J237500D01*
G01*
G37*
%TD*%
%TO.C,C3*%
G36*
G01*
X104425000Y-170162500D02*
X104425000Y-170637500D01*
G75*
G02*
X104187500Y-170875000I-237500J0D01*
G01*
X103587500Y-170875000D01*
G75*
G02*
X103350000Y-170637500I0J237500D01*
G01*
X103350000Y-170162500D01*
G75*
G02*
X103587500Y-169925000I237500J0D01*
G01*
X104187500Y-169925000D01*
G75*
G02*
X104425000Y-170162500I0J-237500D01*
G01*
G37*
G36*
G01*
X106150000Y-170162500D02*
X106150000Y-170637500D01*
G75*
G02*
X105912500Y-170875000I-237500J0D01*
G01*
X105312500Y-170875000D01*
G75*
G02*
X105075000Y-170637500I0J237500D01*
G01*
X105075000Y-170162500D01*
G75*
G02*
X105312500Y-169925000I237500J0D01*
G01*
X105912500Y-169925000D01*
G75*
G02*
X106150000Y-170162500I0J-237500D01*
G01*
G37*
%TD*%
%TO.C,C2*%
G36*
G01*
X69662500Y-154325000D02*
X70137500Y-154325000D01*
G75*
G02*
X70375000Y-154562500I0J-237500D01*
G01*
X70375000Y-155162500D01*
G75*
G02*
X70137500Y-155400000I-237500J0D01*
G01*
X69662500Y-155400000D01*
G75*
G02*
X69425000Y-155162500I0J237500D01*
G01*
X69425000Y-154562500D01*
G75*
G02*
X69662500Y-154325000I237500J0D01*
G01*
G37*
G36*
G01*
X69662500Y-152600000D02*
X70137500Y-152600000D01*
G75*
G02*
X70375000Y-152837500I0J-237500D01*
G01*
X70375000Y-153437500D01*
G75*
G02*
X70137500Y-153675000I-237500J0D01*
G01*
X69662500Y-153675000D01*
G75*
G02*
X69425000Y-153437500I0J237500D01*
G01*
X69425000Y-152837500D01*
G75*
G02*
X69662500Y-152600000I237500J0D01*
G01*
G37*
%TD*%
%TO.C,C1*%
G36*
G01*
X139825000Y-149337500D02*
X139825000Y-148862500D01*
G75*
G02*
X140062500Y-148625000I237500J0D01*
G01*
X140662500Y-148625000D01*
G75*
G02*
X140900000Y-148862500I0J-237500D01*
G01*
X140900000Y-149337500D01*
G75*
G02*
X140662500Y-149575000I-237500J0D01*
G01*
X140062500Y-149575000D01*
G75*
G02*
X139825000Y-149337500I0J237500D01*
G01*
G37*
G36*
G01*
X138100000Y-149337500D02*
X138100000Y-148862500D01*
G75*
G02*
X138337500Y-148625000I237500J0D01*
G01*
X138937500Y-148625000D01*
G75*
G02*
X139175000Y-148862500I0J-237500D01*
G01*
X139175000Y-149337500D01*
G75*
G02*
X138937500Y-149575000I-237500J0D01*
G01*
X138337500Y-149575000D01*
G75*
G02*
X138100000Y-149337500I0J237500D01*
G01*
G37*
%TD*%
M02*
