M48
; DRILL file {KiCad 5.1.9-73d0e3b20d~88~ubuntu20.04.1} date Wed Mar 17 19:49:24 2021
; FORMAT={-:-/ absolute / inch / decimal}
; #@! TF.CreationDate,2021-03-17T19:49:24+01:00
; #@! TF.GenerationSoftware,Kicad,Pcbnew,5.1.9-73d0e3b20d~88~ubuntu20.04.1
; #@! TF.FileFunction,NonPlated,1,2,NPTH
FMAT,2
INCH
T1C0.0591
T2C0.0669
T3C0.0709
T4C0.0787
T5C0.1575
%
G90
G05
T1
X4.9045Y-2.9343
X5.0955Y-2.9343
T2
X2.7528Y-6.8898
X3.1528Y-6.8898
X3.5008Y-3.8976
X3.5008Y-5.3937
X3.5008Y-6.8898
X3.9008Y-3.8976
X3.9008Y-5.3937
X3.9008Y-6.8898
T3
X4.8927Y-2.815
X5.1073Y-2.815
T5
X2.9528Y-6.8898
X3.7008Y-3.8976
X3.7008Y-5.3937
X3.7008Y-6.8898
T4
G00X3.6988Y-2.9291
M15
G01X3.7028Y-2.9291
M16
G05
G00X3.6988Y-3.3701
M15
G01X3.7028Y-3.3701
M16
G05
G00X3.6988Y-4.4252
M15
G01X3.7028Y-4.4252
M16
G05
G00X3.6988Y-4.8661
M15
G01X3.7028Y-4.8661
M16
G05
T0
M30
