M48
; DRILL file {KiCad 5.1.9-73d0e3b20d~88~ubuntu20.04.1} date Wed Mar 17 19:49:24 2021
; FORMAT={-:-/ absolute / inch / decimal}
; #@! TF.CreationDate,2021-03-17T19:49:24+01:00
; #@! TF.GenerationSoftware,Kicad,Pcbnew,5.1.9-73d0e3b20d~88~ubuntu20.04.1
; #@! TF.FileFunction,Plated,1,2,PTH
FMAT,2
INCH
T1C0.0118
T2C0.0315
T3C0.0394
T4C0.0433
T5C0.0472
T6C0.0591
T7C0.0669
T8C0.1260
%
G90
G05
T1
X2.7165Y-7.1732
X2.7677Y-7.2441
X2.8012Y-6.4626
X2.8031Y-7.0433
X2.8031Y-7.0906
X2.8031Y-7.1378
X2.8184Y-6.1319
X3.0236Y-6.3189
X3.0551Y-7.2087
X3.0709Y-6.2598
X3.122Y-6.2894
X3.1732Y-6.0315
X3.1969Y-7.2441
X3.2244Y-6.2047
X3.2756Y-4.252
X3.2756Y-5.748
X3.311Y-4.2165
X3.311Y-5.7126
X3.3228Y-6.1654
X3.4646Y-4.1811
X3.4646Y-5.6772
X3.4646Y-7.1732
X3.5079Y-7.2441
X3.5157Y-4.252
X3.5157Y-5.748
X3.5492Y-3.4705
X3.5492Y-4.9665
X3.5492Y-6.4626
X3.5512Y-4.0512
X3.5512Y-4.0984
X3.5512Y-4.1457
X3.5512Y-5.5472
X3.5512Y-5.5945
X3.5512Y-5.6417
X3.5512Y-7.0433
X3.5512Y-7.0906
X3.5512Y-7.1378
X3.6083Y-3.1201
X3.6083Y-4.6122
X3.7992Y-4.2165
X3.7992Y-5.7126
X3.7992Y-7.2087
X3.8307Y-2.9016
X3.8307Y-3.4409
X3.8307Y-4.3976
X3.8307Y-4.937
X3.8937Y-3.122
X3.8937Y-4.6142
X3.9055Y-2.9055
X3.9055Y-4.4016
X3.9291Y-3.3583
X3.9291Y-4.8543
X3.9449Y-4.252
X3.9449Y-5.748
X3.9449Y-7.2441
X4.0039Y-4.2165
X4.0039Y-5.7126
X4.0394Y-5.6772
X4.0866Y-6.2047
X4.1535Y-6.1654
X4.1575Y-7.2087
X4.2598Y-7.2441
X4.3465Y-4.1102
X4.4134Y-2.9094
X4.4134Y-3.311
X4.4445Y-3.1098
X4.4449Y-6.3583
X4.4744Y-6.2894
X4.4752Y-3.2098
X4.5079Y-2.8071
X4.5079Y-6.2598
X4.7283Y-3.811
X4.7323Y-3.9094
X4.7441Y-4.315
X4.8228Y-4.7126
X4.9016Y-4.6102
X5.2795Y-3.9094
X5.311Y-6.1299
X5.4567Y-7.2087
X5.4582Y-6.1629
X5.4882Y-3.2126
X5.5261Y-5.1048
X5.5261Y-5.5684
X5.5261Y-5.9237
X5.5295Y-4.5098
X5.7874Y-5.6772
X5.7874Y-6.9252
T2
X4.2598Y-6.7126
X4.2598Y-7.0126
X4.3598Y-6.7126
X4.3598Y-7.0126
X4.4598Y-6.7126
X4.4598Y-7.0126
X4.5598Y-6.7126
X4.5598Y-7.0126
X4.5622Y-5.1055
X4.5622Y-5.4055
X4.5622Y-5.5701
X4.5622Y-5.8701
X4.6598Y-6.7126
X4.6598Y-7.0126
X4.6622Y-5.1055
X4.6622Y-5.4055
X4.6622Y-5.5701
X4.6622Y-5.8701
X4.7598Y-6.7126
X4.7598Y-7.0126
X4.7622Y-5.1055
X4.7622Y-5.4055
X4.7622Y-5.5701
X4.7622Y-5.8701
X4.8598Y-6.7126
X4.8598Y-7.0126
X4.8622Y-5.1055
X4.8622Y-5.4055
X4.8622Y-5.5701
X4.8622Y-5.8701
X4.9598Y-6.7126
X4.9598Y-7.0126
X4.9622Y-5.1055
X4.9622Y-5.4055
X4.9622Y-5.5701
X4.9622Y-5.8701
X5.0598Y-6.7126
X5.0598Y-7.0126
X5.0622Y-5.1055
X5.0622Y-5.4055
X5.0622Y-5.5701
X5.0622Y-5.8701
X5.1622Y-5.1055
X5.1622Y-5.4055
X5.1622Y-5.5701
X5.1622Y-5.8701
X5.2622Y-5.1055
X5.2622Y-5.4055
X5.2622Y-5.5701
X5.2622Y-5.8701
X5.3622Y-5.1055
X5.3622Y-5.4055
X5.3622Y-5.5701
X5.3622Y-5.8701
T3
X2.6575Y-5.9055
X3.4252Y-2.9921
X3.4252Y-3.0709
X3.4252Y-3.1496
X3.4252Y-3.2283
X3.4252Y-3.3071
X3.4252Y-4.4882
X3.4252Y-4.5669
X3.4252Y-4.6457
X3.4252Y-4.7244
X3.4252Y-4.8031
X5.2953Y-6.8307
X5.6535Y-6.8307
X5.7874Y-3.1693
X5.7874Y-3.4843
T4
X3.9961Y-3.0512
X3.9961Y-3.1496
X3.9961Y-3.248
X3.9961Y-4.5472
X3.9961Y-4.6457
X3.9961Y-4.7441
T5
X2.8839Y-2.9035
X2.8839Y-5.7972
X3.0217Y-5.7972
T6
X2.8028Y-6.7898
X3.0528Y-6.6898
X3.5508Y-3.7976
X3.5508Y-5.2937
X3.5508Y-6.7898
X3.8008Y-3.6976
X3.8008Y-5.1937
X3.8008Y-6.6898
T7
X2.7874Y-3.1142
X2.7874Y-5.5866
X3.1181Y-3.0669
X3.1181Y-5.6339
T8
X2.6969Y-6.3583
X4.2323Y-2.8937
X5.7677Y-2.8937
X5.7677Y-7.1457
T0
M30
