%TF.GenerationSoftware,KiCad,Pcbnew,5.1.9-73d0e3b20d~88~ubuntu20.04.1*%
%TF.CreationDate,2021-03-17T19:49:15+01:00*%
%TF.ProjectId,TestBoard,54657374-426f-4617-9264-2e6b69636164,rev?*%
%TF.SameCoordinates,Original*%
%TF.FileFunction,Soldermask,Top*%
%TF.FilePolarity,Negative*%
%FSLAX46Y46*%
G04 Gerber Fmt 4.6, Leading zero omitted, Abs format (unit mm)*
G04 Created by KiCad (PCBNEW 5.1.9-73d0e3b20d~88~ubuntu20.04.1) date 2021-03-17 19:49:15*
%MOMM*%
%LPD*%
G01*
G04 APERTURE LIST*
%ADD10R,1.700000X3.500000*%
%ADD11O,1.500000X1.500000*%
%ADD12O,1.800000X1.800000*%
%ADD13R,3.500000X1.700000*%
%ADD14O,1.600000X1.600000*%
%ADD15R,1.600000X1.600000*%
%ADD16C,5.600000*%
%ADD17C,2.000000*%
%ADD18R,0.800000X0.650000*%
%ADD19C,1.700000*%
%ADD20C,4.000000*%
%ADD21C,2.200000*%
%ADD22O,2.800000X2.700000*%
%ADD23C,1.800000*%
%ADD24C,2.700000*%
%ADD25C,1.750000*%
%ADD26R,1.750000X1.750000*%
G04 APERTURE END LIST*
D10*
%TO.C,U6*%
X129540000Y-120300000D03*
X127000000Y-120300000D03*
X124460000Y-120300000D03*
D11*
X129425000Y-74530000D03*
X124575000Y-74530000D03*
D12*
X129725000Y-71500000D03*
X124275000Y-71500000D03*
D13*
X136790000Y-119630000D03*
X136790000Y-117090000D03*
X136790000Y-114550000D03*
X136790000Y-112010000D03*
X136790000Y-109470000D03*
X136790000Y-106930000D03*
X136790000Y-104390000D03*
X136790000Y-101850000D03*
X136790000Y-99310000D03*
X136790000Y-96770000D03*
X136790000Y-94230000D03*
X136790000Y-91690000D03*
X136790000Y-89150000D03*
X136790000Y-86610000D03*
X136790000Y-84070000D03*
X136790000Y-81530000D03*
X136790000Y-78990000D03*
X136790000Y-76450000D03*
X136790000Y-73910000D03*
X136790000Y-71370000D03*
X117210000Y-119630000D03*
X117210000Y-117090000D03*
X117210000Y-114550000D03*
X117210000Y-112010000D03*
X117210000Y-109470000D03*
X117210000Y-106930000D03*
X117210000Y-104390000D03*
X117210000Y-101850000D03*
X117210000Y-99310000D03*
X117210000Y-96770000D03*
X117210000Y-94230000D03*
X117210000Y-91690000D03*
X117210000Y-89150000D03*
X117210000Y-86610000D03*
X117210000Y-84070000D03*
X117210000Y-81530000D03*
X117210000Y-78990000D03*
X117210000Y-76450000D03*
X117210000Y-73910000D03*
X117210000Y-71370000D03*
%TD*%
D14*
%TO.C,U2*%
X136200000Y-129680000D03*
X115880000Y-137300000D03*
X133660000Y-129680000D03*
X118420000Y-137300000D03*
X131120000Y-129680000D03*
X120960000Y-137300000D03*
X128580000Y-129680000D03*
X123500000Y-137300000D03*
X126040000Y-129680000D03*
X126040000Y-137300000D03*
X123500000Y-129680000D03*
X128580000Y-137300000D03*
X120960000Y-129680000D03*
X131120000Y-137300000D03*
X118420000Y-129680000D03*
X133660000Y-137300000D03*
X115880000Y-129680000D03*
D15*
X136200000Y-137300000D03*
%TD*%
D16*
%TO.C,REF\u002A\u002A*%
X68500000Y-161500000D03*
%TD*%
%TO.C,REF\u002A\u002A*%
X107500000Y-73500000D03*
%TD*%
%TO.C,REF\u002A\u002A*%
X146500000Y-181500000D03*
%TD*%
%TO.C,REF\u002A\u002A*%
X146500000Y-73500000D03*
%TD*%
D14*
%TO.C,U5*%
X136200000Y-141480000D03*
X115880000Y-149100000D03*
X133660000Y-141480000D03*
X118420000Y-149100000D03*
X131120000Y-141480000D03*
X120960000Y-149100000D03*
X128580000Y-141480000D03*
X123500000Y-149100000D03*
X126040000Y-141480000D03*
X126040000Y-149100000D03*
X123500000Y-141480000D03*
X128580000Y-149100000D03*
X120960000Y-141480000D03*
X131120000Y-149100000D03*
X118420000Y-141480000D03*
X133660000Y-149100000D03*
X115880000Y-141480000D03*
D15*
X136200000Y-149100000D03*
%TD*%
D14*
%TO.C,U3*%
X108200000Y-178120000D03*
X128520000Y-170500000D03*
X110740000Y-178120000D03*
X125980000Y-170500000D03*
X113280000Y-178120000D03*
X123440000Y-170500000D03*
X115820000Y-178120000D03*
X120900000Y-170500000D03*
X118360000Y-178120000D03*
X118360000Y-170500000D03*
X120900000Y-178120000D03*
X115820000Y-170500000D03*
X123440000Y-178120000D03*
X113280000Y-170500000D03*
X125980000Y-178120000D03*
X110740000Y-170500000D03*
X128520000Y-178120000D03*
D15*
X108200000Y-170500000D03*
%TD*%
D17*
%TO.C,TP5*%
X143600000Y-173500000D03*
%TD*%
%TO.C,TP4*%
X147000000Y-88500000D03*
%TD*%
%TO.C,TP3*%
X67500000Y-150000000D03*
%TD*%
%TO.C,TP2*%
X147000000Y-80500000D03*
%TD*%
%TO.C,TP1*%
X134500000Y-173500000D03*
%TD*%
D18*
%TO.C,SW6*%
X93200000Y-180500000D03*
X94800000Y-180500000D03*
X93200000Y-179600000D03*
G36*
G01*
X94400000Y-179762500D02*
X94400000Y-179437500D01*
G75*
G02*
X94562500Y-179275000I162500J0D01*
G01*
X95037500Y-179275000D01*
G75*
G02*
X95200000Y-179437500I0J-162500D01*
G01*
X95200000Y-179762500D01*
G75*
G02*
X95037500Y-179925000I-162500J0D01*
G01*
X94562500Y-179925000D01*
G75*
G02*
X94400000Y-179762500I0J162500D01*
G01*
G37*
D19*
X99080000Y-175000000D03*
X88920000Y-175000000D03*
D20*
X94000000Y-175000000D03*
D21*
X90190000Y-172460000D03*
X96540000Y-169920000D03*
%TD*%
D18*
%TO.C,SW5*%
X74200000Y-180500000D03*
X75800000Y-180500000D03*
X74200000Y-179600000D03*
G36*
G01*
X75400000Y-179762500D02*
X75400000Y-179437500D01*
G75*
G02*
X75562500Y-179275000I162500J0D01*
G01*
X76037500Y-179275000D01*
G75*
G02*
X76200000Y-179437500I0J-162500D01*
G01*
X76200000Y-179762500D01*
G75*
G02*
X76037500Y-179925000I-162500J0D01*
G01*
X75562500Y-179925000D01*
G75*
G02*
X75400000Y-179762500I0J162500D01*
G01*
G37*
D19*
X80080000Y-175000000D03*
X69920000Y-175000000D03*
D20*
X75000000Y-175000000D03*
D21*
X71190000Y-172460000D03*
X77540000Y-169920000D03*
%TD*%
D22*
%TO.C,SW4*%
X94000000Y-74400000D03*
D19*
X87000000Y-76000000D03*
X87000000Y-78000000D03*
X87000000Y-80000000D03*
X87000000Y-82000000D03*
D22*
X94000000Y-85600000D03*
D23*
X101500000Y-77500000D03*
X101500000Y-80000000D03*
X101500000Y-82500000D03*
D19*
X87000000Y-84000000D03*
%TD*%
D18*
%TO.C,SW3*%
X93200000Y-104500000D03*
X94800000Y-104500000D03*
X93200000Y-103600000D03*
G36*
G01*
X94400000Y-103762500D02*
X94400000Y-103437500D01*
G75*
G02*
X94562500Y-103275000I162500J0D01*
G01*
X95037500Y-103275000D01*
G75*
G02*
X95200000Y-103437500I0J-162500D01*
G01*
X95200000Y-103762500D01*
G75*
G02*
X95037500Y-103925000I-162500J0D01*
G01*
X94562500Y-103925000D01*
G75*
G02*
X94400000Y-103762500I0J162500D01*
G01*
G37*
D19*
X99080000Y-99000000D03*
X88920000Y-99000000D03*
D20*
X94000000Y-99000000D03*
D21*
X90190000Y-96460000D03*
X96540000Y-93920000D03*
%TD*%
D22*
%TO.C,SW2*%
X94000000Y-112400000D03*
D19*
X87000000Y-114000000D03*
X87000000Y-116000000D03*
X87000000Y-118000000D03*
X87000000Y-120000000D03*
D22*
X94000000Y-123600000D03*
D23*
X101500000Y-115500000D03*
X101500000Y-118000000D03*
X101500000Y-120500000D03*
D19*
X87000000Y-122000000D03*
%TD*%
D18*
%TO.C,SW1*%
X93200000Y-142500000D03*
X94800000Y-142500000D03*
X93200000Y-141600000D03*
G36*
G01*
X94400000Y-141762500D02*
X94400000Y-141437500D01*
G75*
G02*
X94562500Y-141275000I162500J0D01*
G01*
X95037500Y-141275000D01*
G75*
G02*
X95200000Y-141437500I0J-162500D01*
G01*
X95200000Y-141762500D01*
G75*
G02*
X95037500Y-141925000I-162500J0D01*
G01*
X94562500Y-141925000D01*
G75*
G02*
X94400000Y-141762500I0J162500D01*
G01*
G37*
D19*
X99080000Y-137000000D03*
X88920000Y-137000000D03*
D20*
X94000000Y-137000000D03*
D21*
X90190000Y-134460000D03*
X96540000Y-131920000D03*
%TD*%
D24*
%TO.C,RV1*%
X79200000Y-77900000D03*
X79200000Y-143100000D03*
X70800000Y-79100000D03*
X70800000Y-141900000D03*
D25*
X73250000Y-73750000D03*
X76750000Y-147250000D03*
D26*
X73250000Y-147250000D03*
%TD*%
M02*
