%TF.GenerationSoftware,KiCad,Pcbnew,5.1.9-73d0e3b20d~88~ubuntu20.04.1*%
%TF.CreationDate,2021-03-17T19:49:15+01:00*%
%TF.ProjectId,TestBoard,54657374-426f-4617-9264-2e6b69636164,rev?*%
%TF.SameCoordinates,Original*%
%TF.FileFunction,Soldermask,Bot*%
%TF.FilePolarity,Negative*%
%FSLAX46Y46*%
G04 Gerber Fmt 4.6, Leading zero omitted, Abs format (unit mm)*
G04 Created by KiCad (PCBNEW 5.1.9-73d0e3b20d~88~ubuntu20.04.1) date 2021-03-17 19:49:15*
%MOMM*%
%LPD*%
G01*
G04 APERTURE LIST*
%ADD10O,1.500000X1.500000*%
%ADD11O,1.800000X1.800000*%
%ADD12O,1.600000X1.600000*%
%ADD13R,1.600000X1.600000*%
%ADD14C,5.600000*%
%ADD15R,0.900000X0.800000*%
%ADD16C,2.000000*%
%ADD17C,1.700000*%
%ADD18C,4.000000*%
%ADD19C,2.200000*%
%ADD20O,2.800000X2.700000*%
%ADD21C,1.800000*%
%ADD22C,2.700000*%
%ADD23C,1.750000*%
%ADD24R,1.750000X1.750000*%
%ADD25R,1.000000X1.000000*%
G04 APERTURE END LIST*
D10*
%TO.C,U6*%
X129425000Y-74530000D03*
X124575000Y-74530000D03*
D11*
X129725000Y-71500000D03*
X124275000Y-71500000D03*
%TD*%
D12*
%TO.C,U2*%
X136200000Y-129680000D03*
X115880000Y-137300000D03*
X133660000Y-129680000D03*
X118420000Y-137300000D03*
X131120000Y-129680000D03*
X120960000Y-137300000D03*
X128580000Y-129680000D03*
X123500000Y-137300000D03*
X126040000Y-129680000D03*
X126040000Y-137300000D03*
X123500000Y-129680000D03*
X128580000Y-137300000D03*
X120960000Y-129680000D03*
X131120000Y-137300000D03*
X118420000Y-129680000D03*
X133660000Y-137300000D03*
X115880000Y-129680000D03*
D13*
X136200000Y-137300000D03*
%TD*%
D14*
%TO.C,REF\u002A\u002A*%
X68500000Y-161500000D03*
%TD*%
%TO.C,REF\u002A\u002A*%
X107500000Y-73500000D03*
%TD*%
%TO.C,REF\u002A\u002A*%
X146500000Y-181500000D03*
%TD*%
%TO.C,REF\u002A\u002A*%
X146500000Y-73500000D03*
%TD*%
%TO.C,C17*%
G36*
G01*
X83637500Y-155375000D02*
X83162500Y-155375000D01*
G75*
G02*
X82925000Y-155137500I0J237500D01*
G01*
X82925000Y-154537500D01*
G75*
G02*
X83162500Y-154300000I237500J0D01*
G01*
X83637500Y-154300000D01*
G75*
G02*
X83875000Y-154537500I0J-237500D01*
G01*
X83875000Y-155137500D01*
G75*
G02*
X83637500Y-155375000I-237500J0D01*
G01*
G37*
G36*
G01*
X83637500Y-157100000D02*
X83162500Y-157100000D01*
G75*
G02*
X82925000Y-156862500I0J237500D01*
G01*
X82925000Y-156262500D01*
G75*
G02*
X83162500Y-156025000I237500J0D01*
G01*
X83637500Y-156025000D01*
G75*
G02*
X83875000Y-156262500I0J-237500D01*
G01*
X83875000Y-156862500D01*
G75*
G02*
X83637500Y-157100000I-237500J0D01*
G01*
G37*
%TD*%
%TO.C,U12*%
G36*
G01*
X95500000Y-182055000D02*
X95500000Y-181755000D01*
G75*
G02*
X95650000Y-181605000I150000J0D01*
G01*
X97300000Y-181605000D01*
G75*
G02*
X97450000Y-181755000I0J-150000D01*
G01*
X97450000Y-182055000D01*
G75*
G02*
X97300000Y-182205000I-150000J0D01*
G01*
X95650000Y-182205000D01*
G75*
G02*
X95500000Y-182055000I0J150000D01*
G01*
G37*
G36*
G01*
X95500000Y-180785000D02*
X95500000Y-180485000D01*
G75*
G02*
X95650000Y-180335000I150000J0D01*
G01*
X97300000Y-180335000D01*
G75*
G02*
X97450000Y-180485000I0J-150000D01*
G01*
X97450000Y-180785000D01*
G75*
G02*
X97300000Y-180935000I-150000J0D01*
G01*
X95650000Y-180935000D01*
G75*
G02*
X95500000Y-180785000I0J150000D01*
G01*
G37*
G36*
G01*
X95500000Y-179515000D02*
X95500000Y-179215000D01*
G75*
G02*
X95650000Y-179065000I150000J0D01*
G01*
X97300000Y-179065000D01*
G75*
G02*
X97450000Y-179215000I0J-150000D01*
G01*
X97450000Y-179515000D01*
G75*
G02*
X97300000Y-179665000I-150000J0D01*
G01*
X95650000Y-179665000D01*
G75*
G02*
X95500000Y-179515000I0J150000D01*
G01*
G37*
G36*
G01*
X95500000Y-178245000D02*
X95500000Y-177945000D01*
G75*
G02*
X95650000Y-177795000I150000J0D01*
G01*
X97300000Y-177795000D01*
G75*
G02*
X97450000Y-177945000I0J-150000D01*
G01*
X97450000Y-178245000D01*
G75*
G02*
X97300000Y-178395000I-150000J0D01*
G01*
X95650000Y-178395000D01*
G75*
G02*
X95500000Y-178245000I0J150000D01*
G01*
G37*
G36*
G01*
X90550000Y-178245000D02*
X90550000Y-177945000D01*
G75*
G02*
X90700000Y-177795000I150000J0D01*
G01*
X92350000Y-177795000D01*
G75*
G02*
X92500000Y-177945000I0J-150000D01*
G01*
X92500000Y-178245000D01*
G75*
G02*
X92350000Y-178395000I-150000J0D01*
G01*
X90700000Y-178395000D01*
G75*
G02*
X90550000Y-178245000I0J150000D01*
G01*
G37*
G36*
G01*
X90550000Y-179515000D02*
X90550000Y-179215000D01*
G75*
G02*
X90700000Y-179065000I150000J0D01*
G01*
X92350000Y-179065000D01*
G75*
G02*
X92500000Y-179215000I0J-150000D01*
G01*
X92500000Y-179515000D01*
G75*
G02*
X92350000Y-179665000I-150000J0D01*
G01*
X90700000Y-179665000D01*
G75*
G02*
X90550000Y-179515000I0J150000D01*
G01*
G37*
G36*
G01*
X90550000Y-180785000D02*
X90550000Y-180485000D01*
G75*
G02*
X90700000Y-180335000I150000J0D01*
G01*
X92350000Y-180335000D01*
G75*
G02*
X92500000Y-180485000I0J-150000D01*
G01*
X92500000Y-180785000D01*
G75*
G02*
X92350000Y-180935000I-150000J0D01*
G01*
X90700000Y-180935000D01*
G75*
G02*
X90550000Y-180785000I0J150000D01*
G01*
G37*
G36*
G01*
X90550000Y-182055000D02*
X90550000Y-181755000D01*
G75*
G02*
X90700000Y-181605000I150000J0D01*
G01*
X92350000Y-181605000D01*
G75*
G02*
X92500000Y-181755000I0J-150000D01*
G01*
X92500000Y-182055000D01*
G75*
G02*
X92350000Y-182205000I-150000J0D01*
G01*
X90700000Y-182205000D01*
G75*
G02*
X90550000Y-182055000I0J150000D01*
G01*
G37*
%TD*%
%TO.C,U11*%
G36*
G01*
X76500000Y-182055000D02*
X76500000Y-181755000D01*
G75*
G02*
X76650000Y-181605000I150000J0D01*
G01*
X78300000Y-181605000D01*
G75*
G02*
X78450000Y-181755000I0J-150000D01*
G01*
X78450000Y-182055000D01*
G75*
G02*
X78300000Y-182205000I-150000J0D01*
G01*
X76650000Y-182205000D01*
G75*
G02*
X76500000Y-182055000I0J150000D01*
G01*
G37*
G36*
G01*
X76500000Y-180785000D02*
X76500000Y-180485000D01*
G75*
G02*
X76650000Y-180335000I150000J0D01*
G01*
X78300000Y-180335000D01*
G75*
G02*
X78450000Y-180485000I0J-150000D01*
G01*
X78450000Y-180785000D01*
G75*
G02*
X78300000Y-180935000I-150000J0D01*
G01*
X76650000Y-180935000D01*
G75*
G02*
X76500000Y-180785000I0J150000D01*
G01*
G37*
G36*
G01*
X76500000Y-179515000D02*
X76500000Y-179215000D01*
G75*
G02*
X76650000Y-179065000I150000J0D01*
G01*
X78300000Y-179065000D01*
G75*
G02*
X78450000Y-179215000I0J-150000D01*
G01*
X78450000Y-179515000D01*
G75*
G02*
X78300000Y-179665000I-150000J0D01*
G01*
X76650000Y-179665000D01*
G75*
G02*
X76500000Y-179515000I0J150000D01*
G01*
G37*
G36*
G01*
X76500000Y-178245000D02*
X76500000Y-177945000D01*
G75*
G02*
X76650000Y-177795000I150000J0D01*
G01*
X78300000Y-177795000D01*
G75*
G02*
X78450000Y-177945000I0J-150000D01*
G01*
X78450000Y-178245000D01*
G75*
G02*
X78300000Y-178395000I-150000J0D01*
G01*
X76650000Y-178395000D01*
G75*
G02*
X76500000Y-178245000I0J150000D01*
G01*
G37*
G36*
G01*
X71550000Y-178245000D02*
X71550000Y-177945000D01*
G75*
G02*
X71700000Y-177795000I150000J0D01*
G01*
X73350000Y-177795000D01*
G75*
G02*
X73500000Y-177945000I0J-150000D01*
G01*
X73500000Y-178245000D01*
G75*
G02*
X73350000Y-178395000I-150000J0D01*
G01*
X71700000Y-178395000D01*
G75*
G02*
X71550000Y-178245000I0J150000D01*
G01*
G37*
G36*
G01*
X71550000Y-179515000D02*
X71550000Y-179215000D01*
G75*
G02*
X71700000Y-179065000I150000J0D01*
G01*
X73350000Y-179065000D01*
G75*
G02*
X73500000Y-179215000I0J-150000D01*
G01*
X73500000Y-179515000D01*
G75*
G02*
X73350000Y-179665000I-150000J0D01*
G01*
X71700000Y-179665000D01*
G75*
G02*
X71550000Y-179515000I0J150000D01*
G01*
G37*
G36*
G01*
X71550000Y-180785000D02*
X71550000Y-180485000D01*
G75*
G02*
X71700000Y-180335000I150000J0D01*
G01*
X73350000Y-180335000D01*
G75*
G02*
X73500000Y-180485000I0J-150000D01*
G01*
X73500000Y-180785000D01*
G75*
G02*
X73350000Y-180935000I-150000J0D01*
G01*
X71700000Y-180935000D01*
G75*
G02*
X71550000Y-180785000I0J150000D01*
G01*
G37*
G36*
G01*
X71550000Y-182055000D02*
X71550000Y-181755000D01*
G75*
G02*
X71700000Y-181605000I150000J0D01*
G01*
X73350000Y-181605000D01*
G75*
G02*
X73500000Y-181755000I0J-150000D01*
G01*
X73500000Y-182055000D01*
G75*
G02*
X73350000Y-182205000I-150000J0D01*
G01*
X71700000Y-182205000D01*
G75*
G02*
X71550000Y-182055000I0J150000D01*
G01*
G37*
%TD*%
%TO.C,U10*%
G36*
G01*
X94100000Y-81655000D02*
X94100000Y-81355000D01*
G75*
G02*
X94250000Y-81205000I150000J0D01*
G01*
X95900000Y-81205000D01*
G75*
G02*
X96050000Y-81355000I0J-150000D01*
G01*
X96050000Y-81655000D01*
G75*
G02*
X95900000Y-81805000I-150000J0D01*
G01*
X94250000Y-81805000D01*
G75*
G02*
X94100000Y-81655000I0J150000D01*
G01*
G37*
G36*
G01*
X94100000Y-80385000D02*
X94100000Y-80085000D01*
G75*
G02*
X94250000Y-79935000I150000J0D01*
G01*
X95900000Y-79935000D01*
G75*
G02*
X96050000Y-80085000I0J-150000D01*
G01*
X96050000Y-80385000D01*
G75*
G02*
X95900000Y-80535000I-150000J0D01*
G01*
X94250000Y-80535000D01*
G75*
G02*
X94100000Y-80385000I0J150000D01*
G01*
G37*
G36*
G01*
X94100000Y-79115000D02*
X94100000Y-78815000D01*
G75*
G02*
X94250000Y-78665000I150000J0D01*
G01*
X95900000Y-78665000D01*
G75*
G02*
X96050000Y-78815000I0J-150000D01*
G01*
X96050000Y-79115000D01*
G75*
G02*
X95900000Y-79265000I-150000J0D01*
G01*
X94250000Y-79265000D01*
G75*
G02*
X94100000Y-79115000I0J150000D01*
G01*
G37*
G36*
G01*
X94100000Y-77845000D02*
X94100000Y-77545000D01*
G75*
G02*
X94250000Y-77395000I150000J0D01*
G01*
X95900000Y-77395000D01*
G75*
G02*
X96050000Y-77545000I0J-150000D01*
G01*
X96050000Y-77845000D01*
G75*
G02*
X95900000Y-77995000I-150000J0D01*
G01*
X94250000Y-77995000D01*
G75*
G02*
X94100000Y-77845000I0J150000D01*
G01*
G37*
G36*
G01*
X89150000Y-77845000D02*
X89150000Y-77545000D01*
G75*
G02*
X89300000Y-77395000I150000J0D01*
G01*
X90950000Y-77395000D01*
G75*
G02*
X91100000Y-77545000I0J-150000D01*
G01*
X91100000Y-77845000D01*
G75*
G02*
X90950000Y-77995000I-150000J0D01*
G01*
X89300000Y-77995000D01*
G75*
G02*
X89150000Y-77845000I0J150000D01*
G01*
G37*
G36*
G01*
X89150000Y-79115000D02*
X89150000Y-78815000D01*
G75*
G02*
X89300000Y-78665000I150000J0D01*
G01*
X90950000Y-78665000D01*
G75*
G02*
X91100000Y-78815000I0J-150000D01*
G01*
X91100000Y-79115000D01*
G75*
G02*
X90950000Y-79265000I-150000J0D01*
G01*
X89300000Y-79265000D01*
G75*
G02*
X89150000Y-79115000I0J150000D01*
G01*
G37*
G36*
G01*
X89150000Y-80385000D02*
X89150000Y-80085000D01*
G75*
G02*
X89300000Y-79935000I150000J0D01*
G01*
X90950000Y-79935000D01*
G75*
G02*
X91100000Y-80085000I0J-150000D01*
G01*
X91100000Y-80385000D01*
G75*
G02*
X90950000Y-80535000I-150000J0D01*
G01*
X89300000Y-80535000D01*
G75*
G02*
X89150000Y-80385000I0J150000D01*
G01*
G37*
G36*
G01*
X89150000Y-81655000D02*
X89150000Y-81355000D01*
G75*
G02*
X89300000Y-81205000I150000J0D01*
G01*
X90950000Y-81205000D01*
G75*
G02*
X91100000Y-81355000I0J-150000D01*
G01*
X91100000Y-81655000D01*
G75*
G02*
X90950000Y-81805000I-150000J0D01*
G01*
X89300000Y-81805000D01*
G75*
G02*
X89150000Y-81655000I0J150000D01*
G01*
G37*
%TD*%
%TO.C,U9*%
G36*
G01*
X95500000Y-106055000D02*
X95500000Y-105755000D01*
G75*
G02*
X95650000Y-105605000I150000J0D01*
G01*
X97300000Y-105605000D01*
G75*
G02*
X97450000Y-105755000I0J-150000D01*
G01*
X97450000Y-106055000D01*
G75*
G02*
X97300000Y-106205000I-150000J0D01*
G01*
X95650000Y-106205000D01*
G75*
G02*
X95500000Y-106055000I0J150000D01*
G01*
G37*
G36*
G01*
X95500000Y-104785000D02*
X95500000Y-104485000D01*
G75*
G02*
X95650000Y-104335000I150000J0D01*
G01*
X97300000Y-104335000D01*
G75*
G02*
X97450000Y-104485000I0J-150000D01*
G01*
X97450000Y-104785000D01*
G75*
G02*
X97300000Y-104935000I-150000J0D01*
G01*
X95650000Y-104935000D01*
G75*
G02*
X95500000Y-104785000I0J150000D01*
G01*
G37*
G36*
G01*
X95500000Y-103515000D02*
X95500000Y-103215000D01*
G75*
G02*
X95650000Y-103065000I150000J0D01*
G01*
X97300000Y-103065000D01*
G75*
G02*
X97450000Y-103215000I0J-150000D01*
G01*
X97450000Y-103515000D01*
G75*
G02*
X97300000Y-103665000I-150000J0D01*
G01*
X95650000Y-103665000D01*
G75*
G02*
X95500000Y-103515000I0J150000D01*
G01*
G37*
G36*
G01*
X95500000Y-102245000D02*
X95500000Y-101945000D01*
G75*
G02*
X95650000Y-101795000I150000J0D01*
G01*
X97300000Y-101795000D01*
G75*
G02*
X97450000Y-101945000I0J-150000D01*
G01*
X97450000Y-102245000D01*
G75*
G02*
X97300000Y-102395000I-150000J0D01*
G01*
X95650000Y-102395000D01*
G75*
G02*
X95500000Y-102245000I0J150000D01*
G01*
G37*
G36*
G01*
X90550000Y-102245000D02*
X90550000Y-101945000D01*
G75*
G02*
X90700000Y-101795000I150000J0D01*
G01*
X92350000Y-101795000D01*
G75*
G02*
X92500000Y-101945000I0J-150000D01*
G01*
X92500000Y-102245000D01*
G75*
G02*
X92350000Y-102395000I-150000J0D01*
G01*
X90700000Y-102395000D01*
G75*
G02*
X90550000Y-102245000I0J150000D01*
G01*
G37*
G36*
G01*
X90550000Y-103515000D02*
X90550000Y-103215000D01*
G75*
G02*
X90700000Y-103065000I150000J0D01*
G01*
X92350000Y-103065000D01*
G75*
G02*
X92500000Y-103215000I0J-150000D01*
G01*
X92500000Y-103515000D01*
G75*
G02*
X92350000Y-103665000I-150000J0D01*
G01*
X90700000Y-103665000D01*
G75*
G02*
X90550000Y-103515000I0J150000D01*
G01*
G37*
G36*
G01*
X90550000Y-104785000D02*
X90550000Y-104485000D01*
G75*
G02*
X90700000Y-104335000I150000J0D01*
G01*
X92350000Y-104335000D01*
G75*
G02*
X92500000Y-104485000I0J-150000D01*
G01*
X92500000Y-104785000D01*
G75*
G02*
X92350000Y-104935000I-150000J0D01*
G01*
X90700000Y-104935000D01*
G75*
G02*
X90550000Y-104785000I0J150000D01*
G01*
G37*
G36*
G01*
X90550000Y-106055000D02*
X90550000Y-105755000D01*
G75*
G02*
X90700000Y-105605000I150000J0D01*
G01*
X92350000Y-105605000D01*
G75*
G02*
X92500000Y-105755000I0J-150000D01*
G01*
X92500000Y-106055000D01*
G75*
G02*
X92350000Y-106205000I-150000J0D01*
G01*
X90700000Y-106205000D01*
G75*
G02*
X90550000Y-106055000I0J150000D01*
G01*
G37*
%TD*%
%TO.C,U8*%
G36*
G01*
X94100000Y-119655000D02*
X94100000Y-119355000D01*
G75*
G02*
X94250000Y-119205000I150000J0D01*
G01*
X95900000Y-119205000D01*
G75*
G02*
X96050000Y-119355000I0J-150000D01*
G01*
X96050000Y-119655000D01*
G75*
G02*
X95900000Y-119805000I-150000J0D01*
G01*
X94250000Y-119805000D01*
G75*
G02*
X94100000Y-119655000I0J150000D01*
G01*
G37*
G36*
G01*
X94100000Y-118385000D02*
X94100000Y-118085000D01*
G75*
G02*
X94250000Y-117935000I150000J0D01*
G01*
X95900000Y-117935000D01*
G75*
G02*
X96050000Y-118085000I0J-150000D01*
G01*
X96050000Y-118385000D01*
G75*
G02*
X95900000Y-118535000I-150000J0D01*
G01*
X94250000Y-118535000D01*
G75*
G02*
X94100000Y-118385000I0J150000D01*
G01*
G37*
G36*
G01*
X94100000Y-117115000D02*
X94100000Y-116815000D01*
G75*
G02*
X94250000Y-116665000I150000J0D01*
G01*
X95900000Y-116665000D01*
G75*
G02*
X96050000Y-116815000I0J-150000D01*
G01*
X96050000Y-117115000D01*
G75*
G02*
X95900000Y-117265000I-150000J0D01*
G01*
X94250000Y-117265000D01*
G75*
G02*
X94100000Y-117115000I0J150000D01*
G01*
G37*
G36*
G01*
X94100000Y-115845000D02*
X94100000Y-115545000D01*
G75*
G02*
X94250000Y-115395000I150000J0D01*
G01*
X95900000Y-115395000D01*
G75*
G02*
X96050000Y-115545000I0J-150000D01*
G01*
X96050000Y-115845000D01*
G75*
G02*
X95900000Y-115995000I-150000J0D01*
G01*
X94250000Y-115995000D01*
G75*
G02*
X94100000Y-115845000I0J150000D01*
G01*
G37*
G36*
G01*
X89150000Y-115845000D02*
X89150000Y-115545000D01*
G75*
G02*
X89300000Y-115395000I150000J0D01*
G01*
X90950000Y-115395000D01*
G75*
G02*
X91100000Y-115545000I0J-150000D01*
G01*
X91100000Y-115845000D01*
G75*
G02*
X90950000Y-115995000I-150000J0D01*
G01*
X89300000Y-115995000D01*
G75*
G02*
X89150000Y-115845000I0J150000D01*
G01*
G37*
G36*
G01*
X89150000Y-117115000D02*
X89150000Y-116815000D01*
G75*
G02*
X89300000Y-116665000I150000J0D01*
G01*
X90950000Y-116665000D01*
G75*
G02*
X91100000Y-116815000I0J-150000D01*
G01*
X91100000Y-117115000D01*
G75*
G02*
X90950000Y-117265000I-150000J0D01*
G01*
X89300000Y-117265000D01*
G75*
G02*
X89150000Y-117115000I0J150000D01*
G01*
G37*
G36*
G01*
X89150000Y-118385000D02*
X89150000Y-118085000D01*
G75*
G02*
X89300000Y-117935000I150000J0D01*
G01*
X90950000Y-117935000D01*
G75*
G02*
X91100000Y-118085000I0J-150000D01*
G01*
X91100000Y-118385000D01*
G75*
G02*
X90950000Y-118535000I-150000J0D01*
G01*
X89300000Y-118535000D01*
G75*
G02*
X89150000Y-118385000I0J150000D01*
G01*
G37*
G36*
G01*
X89150000Y-119655000D02*
X89150000Y-119355000D01*
G75*
G02*
X89300000Y-119205000I150000J0D01*
G01*
X90950000Y-119205000D01*
G75*
G02*
X91100000Y-119355000I0J-150000D01*
G01*
X91100000Y-119655000D01*
G75*
G02*
X90950000Y-119805000I-150000J0D01*
G01*
X89300000Y-119805000D01*
G75*
G02*
X89150000Y-119655000I0J150000D01*
G01*
G37*
%TD*%
%TO.C,U7*%
G36*
G01*
X95500000Y-144055000D02*
X95500000Y-143755000D01*
G75*
G02*
X95650000Y-143605000I150000J0D01*
G01*
X97300000Y-143605000D01*
G75*
G02*
X97450000Y-143755000I0J-150000D01*
G01*
X97450000Y-144055000D01*
G75*
G02*
X97300000Y-144205000I-150000J0D01*
G01*
X95650000Y-144205000D01*
G75*
G02*
X95500000Y-144055000I0J150000D01*
G01*
G37*
G36*
G01*
X95500000Y-142785000D02*
X95500000Y-142485000D01*
G75*
G02*
X95650000Y-142335000I150000J0D01*
G01*
X97300000Y-142335000D01*
G75*
G02*
X97450000Y-142485000I0J-150000D01*
G01*
X97450000Y-142785000D01*
G75*
G02*
X97300000Y-142935000I-150000J0D01*
G01*
X95650000Y-142935000D01*
G75*
G02*
X95500000Y-142785000I0J150000D01*
G01*
G37*
G36*
G01*
X95500000Y-141515000D02*
X95500000Y-141215000D01*
G75*
G02*
X95650000Y-141065000I150000J0D01*
G01*
X97300000Y-141065000D01*
G75*
G02*
X97450000Y-141215000I0J-150000D01*
G01*
X97450000Y-141515000D01*
G75*
G02*
X97300000Y-141665000I-150000J0D01*
G01*
X95650000Y-141665000D01*
G75*
G02*
X95500000Y-141515000I0J150000D01*
G01*
G37*
G36*
G01*
X95500000Y-140245000D02*
X95500000Y-139945000D01*
G75*
G02*
X95650000Y-139795000I150000J0D01*
G01*
X97300000Y-139795000D01*
G75*
G02*
X97450000Y-139945000I0J-150000D01*
G01*
X97450000Y-140245000D01*
G75*
G02*
X97300000Y-140395000I-150000J0D01*
G01*
X95650000Y-140395000D01*
G75*
G02*
X95500000Y-140245000I0J150000D01*
G01*
G37*
G36*
G01*
X90550000Y-140245000D02*
X90550000Y-139945000D01*
G75*
G02*
X90700000Y-139795000I150000J0D01*
G01*
X92350000Y-139795000D01*
G75*
G02*
X92500000Y-139945000I0J-150000D01*
G01*
X92500000Y-140245000D01*
G75*
G02*
X92350000Y-140395000I-150000J0D01*
G01*
X90700000Y-140395000D01*
G75*
G02*
X90550000Y-140245000I0J150000D01*
G01*
G37*
G36*
G01*
X90550000Y-141515000D02*
X90550000Y-141215000D01*
G75*
G02*
X90700000Y-141065000I150000J0D01*
G01*
X92350000Y-141065000D01*
G75*
G02*
X92500000Y-141215000I0J-150000D01*
G01*
X92500000Y-141515000D01*
G75*
G02*
X92350000Y-141665000I-150000J0D01*
G01*
X90700000Y-141665000D01*
G75*
G02*
X90550000Y-141515000I0J150000D01*
G01*
G37*
G36*
G01*
X90550000Y-142785000D02*
X90550000Y-142485000D01*
G75*
G02*
X90700000Y-142335000I150000J0D01*
G01*
X92350000Y-142335000D01*
G75*
G02*
X92500000Y-142485000I0J-150000D01*
G01*
X92500000Y-142785000D01*
G75*
G02*
X92350000Y-142935000I-150000J0D01*
G01*
X90700000Y-142935000D01*
G75*
G02*
X90550000Y-142785000I0J150000D01*
G01*
G37*
G36*
G01*
X90550000Y-144055000D02*
X90550000Y-143755000D01*
G75*
G02*
X90700000Y-143605000I150000J0D01*
G01*
X92350000Y-143605000D01*
G75*
G02*
X92500000Y-143755000I0J-150000D01*
G01*
X92500000Y-144055000D01*
G75*
G02*
X92350000Y-144205000I-150000J0D01*
G01*
X90700000Y-144205000D01*
G75*
G02*
X90550000Y-144055000I0J150000D01*
G01*
G37*
%TD*%
D12*
%TO.C,U5*%
X136200000Y-141480000D03*
X115880000Y-149100000D03*
X133660000Y-141480000D03*
X118420000Y-149100000D03*
X131120000Y-141480000D03*
X120960000Y-149100000D03*
X128580000Y-141480000D03*
X123500000Y-149100000D03*
X126040000Y-141480000D03*
X126040000Y-149100000D03*
X123500000Y-141480000D03*
X128580000Y-149100000D03*
X120960000Y-141480000D03*
X131120000Y-149100000D03*
X118420000Y-141480000D03*
X133660000Y-149100000D03*
X115880000Y-141480000D03*
D13*
X136200000Y-149100000D03*
%TD*%
%TO.C,U4*%
G36*
G01*
X72805000Y-153900000D02*
X73105000Y-153900000D01*
G75*
G02*
X73255000Y-154050000I0J-150000D01*
G01*
X73255000Y-155700000D01*
G75*
G02*
X73105000Y-155850000I-150000J0D01*
G01*
X72805000Y-155850000D01*
G75*
G02*
X72655000Y-155700000I0J150000D01*
G01*
X72655000Y-154050000D01*
G75*
G02*
X72805000Y-153900000I150000J0D01*
G01*
G37*
G36*
G01*
X74075000Y-153900000D02*
X74375000Y-153900000D01*
G75*
G02*
X74525000Y-154050000I0J-150000D01*
G01*
X74525000Y-155700000D01*
G75*
G02*
X74375000Y-155850000I-150000J0D01*
G01*
X74075000Y-155850000D01*
G75*
G02*
X73925000Y-155700000I0J150000D01*
G01*
X73925000Y-154050000D01*
G75*
G02*
X74075000Y-153900000I150000J0D01*
G01*
G37*
G36*
G01*
X75345000Y-153900000D02*
X75645000Y-153900000D01*
G75*
G02*
X75795000Y-154050000I0J-150000D01*
G01*
X75795000Y-155700000D01*
G75*
G02*
X75645000Y-155850000I-150000J0D01*
G01*
X75345000Y-155850000D01*
G75*
G02*
X75195000Y-155700000I0J150000D01*
G01*
X75195000Y-154050000D01*
G75*
G02*
X75345000Y-153900000I150000J0D01*
G01*
G37*
G36*
G01*
X76615000Y-153900000D02*
X76915000Y-153900000D01*
G75*
G02*
X77065000Y-154050000I0J-150000D01*
G01*
X77065000Y-155700000D01*
G75*
G02*
X76915000Y-155850000I-150000J0D01*
G01*
X76615000Y-155850000D01*
G75*
G02*
X76465000Y-155700000I0J150000D01*
G01*
X76465000Y-154050000D01*
G75*
G02*
X76615000Y-153900000I150000J0D01*
G01*
G37*
G36*
G01*
X77885000Y-153900000D02*
X78185000Y-153900000D01*
G75*
G02*
X78335000Y-154050000I0J-150000D01*
G01*
X78335000Y-155700000D01*
G75*
G02*
X78185000Y-155850000I-150000J0D01*
G01*
X77885000Y-155850000D01*
G75*
G02*
X77735000Y-155700000I0J150000D01*
G01*
X77735000Y-154050000D01*
G75*
G02*
X77885000Y-153900000I150000J0D01*
G01*
G37*
G36*
G01*
X79155000Y-153900000D02*
X79455000Y-153900000D01*
G75*
G02*
X79605000Y-154050000I0J-150000D01*
G01*
X79605000Y-155700000D01*
G75*
G02*
X79455000Y-155850000I-150000J0D01*
G01*
X79155000Y-155850000D01*
G75*
G02*
X79005000Y-155700000I0J150000D01*
G01*
X79005000Y-154050000D01*
G75*
G02*
X79155000Y-153900000I150000J0D01*
G01*
G37*
G36*
G01*
X80425000Y-153900000D02*
X80725000Y-153900000D01*
G75*
G02*
X80875000Y-154050000I0J-150000D01*
G01*
X80875000Y-155700000D01*
G75*
G02*
X80725000Y-155850000I-150000J0D01*
G01*
X80425000Y-155850000D01*
G75*
G02*
X80275000Y-155700000I0J150000D01*
G01*
X80275000Y-154050000D01*
G75*
G02*
X80425000Y-153900000I150000J0D01*
G01*
G37*
G36*
G01*
X81695000Y-153900000D02*
X81995000Y-153900000D01*
G75*
G02*
X82145000Y-154050000I0J-150000D01*
G01*
X82145000Y-155700000D01*
G75*
G02*
X81995000Y-155850000I-150000J0D01*
G01*
X81695000Y-155850000D01*
G75*
G02*
X81545000Y-155700000I0J150000D01*
G01*
X81545000Y-154050000D01*
G75*
G02*
X81695000Y-153900000I150000J0D01*
G01*
G37*
G36*
G01*
X81695000Y-148950000D02*
X81995000Y-148950000D01*
G75*
G02*
X82145000Y-149100000I0J-150000D01*
G01*
X82145000Y-150750000D01*
G75*
G02*
X81995000Y-150900000I-150000J0D01*
G01*
X81695000Y-150900000D01*
G75*
G02*
X81545000Y-150750000I0J150000D01*
G01*
X81545000Y-149100000D01*
G75*
G02*
X81695000Y-148950000I150000J0D01*
G01*
G37*
G36*
G01*
X80425000Y-148950000D02*
X80725000Y-148950000D01*
G75*
G02*
X80875000Y-149100000I0J-150000D01*
G01*
X80875000Y-150750000D01*
G75*
G02*
X80725000Y-150900000I-150000J0D01*
G01*
X80425000Y-150900000D01*
G75*
G02*
X80275000Y-150750000I0J150000D01*
G01*
X80275000Y-149100000D01*
G75*
G02*
X80425000Y-148950000I150000J0D01*
G01*
G37*
G36*
G01*
X79155000Y-148950000D02*
X79455000Y-148950000D01*
G75*
G02*
X79605000Y-149100000I0J-150000D01*
G01*
X79605000Y-150750000D01*
G75*
G02*
X79455000Y-150900000I-150000J0D01*
G01*
X79155000Y-150900000D01*
G75*
G02*
X79005000Y-150750000I0J150000D01*
G01*
X79005000Y-149100000D01*
G75*
G02*
X79155000Y-148950000I150000J0D01*
G01*
G37*
G36*
G01*
X77885000Y-148950000D02*
X78185000Y-148950000D01*
G75*
G02*
X78335000Y-149100000I0J-150000D01*
G01*
X78335000Y-150750000D01*
G75*
G02*
X78185000Y-150900000I-150000J0D01*
G01*
X77885000Y-150900000D01*
G75*
G02*
X77735000Y-150750000I0J150000D01*
G01*
X77735000Y-149100000D01*
G75*
G02*
X77885000Y-148950000I150000J0D01*
G01*
G37*
G36*
G01*
X76615000Y-148950000D02*
X76915000Y-148950000D01*
G75*
G02*
X77065000Y-149100000I0J-150000D01*
G01*
X77065000Y-150750000D01*
G75*
G02*
X76915000Y-150900000I-150000J0D01*
G01*
X76615000Y-150900000D01*
G75*
G02*
X76465000Y-150750000I0J150000D01*
G01*
X76465000Y-149100000D01*
G75*
G02*
X76615000Y-148950000I150000J0D01*
G01*
G37*
G36*
G01*
X75345000Y-148950000D02*
X75645000Y-148950000D01*
G75*
G02*
X75795000Y-149100000I0J-150000D01*
G01*
X75795000Y-150750000D01*
G75*
G02*
X75645000Y-150900000I-150000J0D01*
G01*
X75345000Y-150900000D01*
G75*
G02*
X75195000Y-150750000I0J150000D01*
G01*
X75195000Y-149100000D01*
G75*
G02*
X75345000Y-148950000I150000J0D01*
G01*
G37*
G36*
G01*
X74075000Y-148950000D02*
X74375000Y-148950000D01*
G75*
G02*
X74525000Y-149100000I0J-150000D01*
G01*
X74525000Y-150750000D01*
G75*
G02*
X74375000Y-150900000I-150000J0D01*
G01*
X74075000Y-150900000D01*
G75*
G02*
X73925000Y-150750000I0J150000D01*
G01*
X73925000Y-149100000D01*
G75*
G02*
X74075000Y-148950000I150000J0D01*
G01*
G37*
G36*
G01*
X72805000Y-148950000D02*
X73105000Y-148950000D01*
G75*
G02*
X73255000Y-149100000I0J-150000D01*
G01*
X73255000Y-150750000D01*
G75*
G02*
X73105000Y-150900000I-150000J0D01*
G01*
X72805000Y-150900000D01*
G75*
G02*
X72655000Y-150750000I0J150000D01*
G01*
X72655000Y-149100000D01*
G75*
G02*
X72805000Y-148950000I150000J0D01*
G01*
G37*
%TD*%
D12*
%TO.C,U3*%
X108200000Y-178120000D03*
X128520000Y-170500000D03*
X110740000Y-178120000D03*
X125980000Y-170500000D03*
X113280000Y-178120000D03*
X123440000Y-170500000D03*
X115820000Y-178120000D03*
X120900000Y-170500000D03*
X118360000Y-178120000D03*
X118360000Y-170500000D03*
X120900000Y-178120000D03*
X115820000Y-170500000D03*
X123440000Y-178120000D03*
X113280000Y-170500000D03*
X125980000Y-178120000D03*
X110740000Y-170500000D03*
X128520000Y-178120000D03*
D13*
X108200000Y-170500000D03*
%TD*%
D15*
%TO.C,U1*%
X66400000Y-153900000D03*
X68400000Y-154850000D03*
X68400000Y-152950000D03*
%TD*%
D16*
%TO.C,TP5*%
X143600000Y-173500000D03*
%TD*%
%TO.C,TP4*%
X147000000Y-88500000D03*
%TD*%
%TO.C,TP3*%
X67500000Y-150000000D03*
%TD*%
%TO.C,TP2*%
X147000000Y-80500000D03*
%TD*%
%TO.C,TP1*%
X134500000Y-173500000D03*
%TD*%
D17*
%TO.C,SW6*%
X99080000Y-175000000D03*
X88920000Y-175000000D03*
D18*
X94000000Y-175000000D03*
D19*
X90190000Y-172460000D03*
X96540000Y-169920000D03*
%TD*%
D17*
%TO.C,SW5*%
X80080000Y-175000000D03*
X69920000Y-175000000D03*
D18*
X75000000Y-175000000D03*
D19*
X71190000Y-172460000D03*
X77540000Y-169920000D03*
%TD*%
D20*
%TO.C,SW4*%
X94000000Y-74400000D03*
D17*
X87000000Y-76000000D03*
X87000000Y-78000000D03*
X87000000Y-80000000D03*
X87000000Y-82000000D03*
D20*
X94000000Y-85600000D03*
D21*
X101500000Y-77500000D03*
X101500000Y-80000000D03*
X101500000Y-82500000D03*
D17*
X87000000Y-84000000D03*
%TD*%
%TO.C,SW3*%
X99080000Y-99000000D03*
X88920000Y-99000000D03*
D18*
X94000000Y-99000000D03*
D19*
X90190000Y-96460000D03*
X96540000Y-93920000D03*
%TD*%
D20*
%TO.C,SW2*%
X94000000Y-112400000D03*
D17*
X87000000Y-114000000D03*
X87000000Y-116000000D03*
X87000000Y-118000000D03*
X87000000Y-120000000D03*
D20*
X94000000Y-123600000D03*
D21*
X101500000Y-115500000D03*
X101500000Y-118000000D03*
X101500000Y-120500000D03*
D17*
X87000000Y-122000000D03*
%TD*%
%TO.C,SW1*%
X99080000Y-137000000D03*
X88920000Y-137000000D03*
D18*
X94000000Y-137000000D03*
D19*
X90190000Y-134460000D03*
X96540000Y-131920000D03*
%TD*%
D22*
%TO.C,RV1*%
X79200000Y-77900000D03*
X79200000Y-143100000D03*
X70800000Y-79100000D03*
X70800000Y-141900000D03*
D23*
X73250000Y-73750000D03*
X76750000Y-147250000D03*
D24*
X73250000Y-147250000D03*
%TD*%
%TO.C,R10*%
G36*
G01*
X99825000Y-181037500D02*
X99825000Y-180562500D01*
G75*
G02*
X100062500Y-180325000I237500J0D01*
G01*
X100562500Y-180325000D01*
G75*
G02*
X100800000Y-180562500I0J-237500D01*
G01*
X100800000Y-181037500D01*
G75*
G02*
X100562500Y-181275000I-237500J0D01*
G01*
X100062500Y-181275000D01*
G75*
G02*
X99825000Y-181037500I0J237500D01*
G01*
G37*
G36*
G01*
X98000000Y-181037500D02*
X98000000Y-180562500D01*
G75*
G02*
X98237500Y-180325000I237500J0D01*
G01*
X98737500Y-180325000D01*
G75*
G02*
X98975000Y-180562500I0J-237500D01*
G01*
X98975000Y-181037500D01*
G75*
G02*
X98737500Y-181275000I-237500J0D01*
G01*
X98237500Y-181275000D01*
G75*
G02*
X98000000Y-181037500I0J237500D01*
G01*
G37*
%TD*%
%TO.C,R9*%
G36*
G01*
X80825000Y-181037500D02*
X80825000Y-180562500D01*
G75*
G02*
X81062500Y-180325000I237500J0D01*
G01*
X81562500Y-180325000D01*
G75*
G02*
X81800000Y-180562500I0J-237500D01*
G01*
X81800000Y-181037500D01*
G75*
G02*
X81562500Y-181275000I-237500J0D01*
G01*
X81062500Y-181275000D01*
G75*
G02*
X80825000Y-181037500I0J237500D01*
G01*
G37*
G36*
G01*
X79000000Y-181037500D02*
X79000000Y-180562500D01*
G75*
G02*
X79237500Y-180325000I237500J0D01*
G01*
X79737500Y-180325000D01*
G75*
G02*
X79975000Y-180562500I0J-237500D01*
G01*
X79975000Y-181037500D01*
G75*
G02*
X79737500Y-181275000I-237500J0D01*
G01*
X79237500Y-181275000D01*
G75*
G02*
X79000000Y-181037500I0J237500D01*
G01*
G37*
%TD*%
%TO.C,R8*%
G36*
G01*
X89625000Y-85737500D02*
X89625000Y-85262500D01*
G75*
G02*
X89862500Y-85025000I237500J0D01*
G01*
X90362500Y-85025000D01*
G75*
G02*
X90600000Y-85262500I0J-237500D01*
G01*
X90600000Y-85737500D01*
G75*
G02*
X90362500Y-85975000I-237500J0D01*
G01*
X89862500Y-85975000D01*
G75*
G02*
X89625000Y-85737500I0J237500D01*
G01*
G37*
G36*
G01*
X87800000Y-85737500D02*
X87800000Y-85262500D01*
G75*
G02*
X88037500Y-85025000I237500J0D01*
G01*
X88537500Y-85025000D01*
G75*
G02*
X88775000Y-85262500I0J-237500D01*
G01*
X88775000Y-85737500D01*
G75*
G02*
X88537500Y-85975000I-237500J0D01*
G01*
X88037500Y-85975000D01*
G75*
G02*
X87800000Y-85737500I0J237500D01*
G01*
G37*
%TD*%
%TO.C,R7*%
G36*
G01*
X98425000Y-80537500D02*
X98425000Y-80062500D01*
G75*
G02*
X98662500Y-79825000I237500J0D01*
G01*
X99162500Y-79825000D01*
G75*
G02*
X99400000Y-80062500I0J-237500D01*
G01*
X99400000Y-80537500D01*
G75*
G02*
X99162500Y-80775000I-237500J0D01*
G01*
X98662500Y-80775000D01*
G75*
G02*
X98425000Y-80537500I0J237500D01*
G01*
G37*
G36*
G01*
X96600000Y-80537500D02*
X96600000Y-80062500D01*
G75*
G02*
X96837500Y-79825000I237500J0D01*
G01*
X97337500Y-79825000D01*
G75*
G02*
X97575000Y-80062500I0J-237500D01*
G01*
X97575000Y-80537500D01*
G75*
G02*
X97337500Y-80775000I-237500J0D01*
G01*
X96837500Y-80775000D01*
G75*
G02*
X96600000Y-80537500I0J237500D01*
G01*
G37*
%TD*%
%TO.C,R6*%
G36*
G01*
X99825000Y-105037500D02*
X99825000Y-104562500D01*
G75*
G02*
X100062500Y-104325000I237500J0D01*
G01*
X100562500Y-104325000D01*
G75*
G02*
X100800000Y-104562500I0J-237500D01*
G01*
X100800000Y-105037500D01*
G75*
G02*
X100562500Y-105275000I-237500J0D01*
G01*
X100062500Y-105275000D01*
G75*
G02*
X99825000Y-105037500I0J237500D01*
G01*
G37*
G36*
G01*
X98000000Y-105037500D02*
X98000000Y-104562500D01*
G75*
G02*
X98237500Y-104325000I237500J0D01*
G01*
X98737500Y-104325000D01*
G75*
G02*
X98975000Y-104562500I0J-237500D01*
G01*
X98975000Y-105037500D01*
G75*
G02*
X98737500Y-105275000I-237500J0D01*
G01*
X98237500Y-105275000D01*
G75*
G02*
X98000000Y-105037500I0J237500D01*
G01*
G37*
%TD*%
%TO.C,R5*%
G36*
G01*
X89625000Y-123737500D02*
X89625000Y-123262500D01*
G75*
G02*
X89862500Y-123025000I237500J0D01*
G01*
X90362500Y-123025000D01*
G75*
G02*
X90600000Y-123262500I0J-237500D01*
G01*
X90600000Y-123737500D01*
G75*
G02*
X90362500Y-123975000I-237500J0D01*
G01*
X89862500Y-123975000D01*
G75*
G02*
X89625000Y-123737500I0J237500D01*
G01*
G37*
G36*
G01*
X87800000Y-123737500D02*
X87800000Y-123262500D01*
G75*
G02*
X88037500Y-123025000I237500J0D01*
G01*
X88537500Y-123025000D01*
G75*
G02*
X88775000Y-123262500I0J-237500D01*
G01*
X88775000Y-123737500D01*
G75*
G02*
X88537500Y-123975000I-237500J0D01*
G01*
X88037500Y-123975000D01*
G75*
G02*
X87800000Y-123737500I0J237500D01*
G01*
G37*
%TD*%
%TO.C,R4*%
G36*
G01*
X98425000Y-118537500D02*
X98425000Y-118062500D01*
G75*
G02*
X98662500Y-117825000I237500J0D01*
G01*
X99162500Y-117825000D01*
G75*
G02*
X99400000Y-118062500I0J-237500D01*
G01*
X99400000Y-118537500D01*
G75*
G02*
X99162500Y-118775000I-237500J0D01*
G01*
X98662500Y-118775000D01*
G75*
G02*
X98425000Y-118537500I0J237500D01*
G01*
G37*
G36*
G01*
X96600000Y-118537500D02*
X96600000Y-118062500D01*
G75*
G02*
X96837500Y-117825000I237500J0D01*
G01*
X97337500Y-117825000D01*
G75*
G02*
X97575000Y-118062500I0J-237500D01*
G01*
X97575000Y-118537500D01*
G75*
G02*
X97337500Y-118775000I-237500J0D01*
G01*
X96837500Y-118775000D01*
G75*
G02*
X96600000Y-118537500I0J237500D01*
G01*
G37*
%TD*%
%TO.C,R3*%
G36*
G01*
X99825000Y-143037500D02*
X99825000Y-142562500D01*
G75*
G02*
X100062500Y-142325000I237500J0D01*
G01*
X100562500Y-142325000D01*
G75*
G02*
X100800000Y-142562500I0J-237500D01*
G01*
X100800000Y-143037500D01*
G75*
G02*
X100562500Y-143275000I-237500J0D01*
G01*
X100062500Y-143275000D01*
G75*
G02*
X99825000Y-143037500I0J237500D01*
G01*
G37*
G36*
G01*
X98000000Y-143037500D02*
X98000000Y-142562500D01*
G75*
G02*
X98237500Y-142325000I237500J0D01*
G01*
X98737500Y-142325000D01*
G75*
G02*
X98975000Y-142562500I0J-237500D01*
G01*
X98975000Y-143037500D01*
G75*
G02*
X98737500Y-143275000I-237500J0D01*
G01*
X98237500Y-143275000D01*
G75*
G02*
X98000000Y-143037500I0J237500D01*
G01*
G37*
%TD*%
%TO.C,R2*%
G36*
G01*
X147450001Y-84100000D02*
X146549999Y-84100000D01*
G75*
G02*
X146300000Y-83850001I0J249999D01*
G01*
X146300000Y-83149999D01*
G75*
G02*
X146549999Y-82900000I249999J0D01*
G01*
X147450001Y-82900000D01*
G75*
G02*
X147700000Y-83149999I0J-249999D01*
G01*
X147700000Y-83850001D01*
G75*
G02*
X147450001Y-84100000I-249999J0D01*
G01*
G37*
G36*
G01*
X147450001Y-86100000D02*
X146549999Y-86100000D01*
G75*
G02*
X146300000Y-85850001I0J249999D01*
G01*
X146300000Y-85149999D01*
G75*
G02*
X146549999Y-84900000I249999J0D01*
G01*
X147450001Y-84900000D01*
G75*
G02*
X147700000Y-85149999I0J-249999D01*
G01*
X147700000Y-85850001D01*
G75*
G02*
X147450001Y-86100000I-249999J0D01*
G01*
G37*
%TD*%
%TO.C,R1*%
G36*
G01*
X71637500Y-153575000D02*
X71162500Y-153575000D01*
G75*
G02*
X70925000Y-153337500I0J237500D01*
G01*
X70925000Y-152837500D01*
G75*
G02*
X71162500Y-152600000I237500J0D01*
G01*
X71637500Y-152600000D01*
G75*
G02*
X71875000Y-152837500I0J-237500D01*
G01*
X71875000Y-153337500D01*
G75*
G02*
X71637500Y-153575000I-237500J0D01*
G01*
G37*
G36*
G01*
X71637500Y-155400000D02*
X71162500Y-155400000D01*
G75*
G02*
X70925000Y-155162500I0J237500D01*
G01*
X70925000Y-154662500D01*
G75*
G02*
X71162500Y-154425000I237500J0D01*
G01*
X71637500Y-154425000D01*
G75*
G02*
X71875000Y-154662500I0J-237500D01*
G01*
X71875000Y-155162500D01*
G75*
G02*
X71637500Y-155400000I-237500J0D01*
G01*
G37*
%TD*%
D15*
%TO.C,Q2*%
X96600000Y-86300000D03*
X98600000Y-87250000D03*
X98600000Y-85350000D03*
%TD*%
%TO.C,Q1*%
X96600000Y-124300000D03*
X98600000Y-125250000D03*
X98600000Y-123350000D03*
%TD*%
D25*
%TO.C,D10*%
X90100000Y-167650000D03*
X90100000Y-165150000D03*
%TD*%
%TO.C,D9*%
X71100000Y-167650000D03*
X71100000Y-165150000D03*
%TD*%
%TO.C,D8*%
X99650000Y-83600000D03*
X97150000Y-83600000D03*
%TD*%
%TO.C,D7*%
X99200000Y-77450000D03*
X99200000Y-74950000D03*
%TD*%
%TO.C,D6*%
X97300000Y-77450000D03*
X97300000Y-74950000D03*
%TD*%
%TO.C,D5*%
X90100000Y-91650000D03*
X90100000Y-89150000D03*
%TD*%
%TO.C,D4*%
X99650000Y-121600000D03*
X97150000Y-121600000D03*
%TD*%
%TO.C,D3*%
X99200000Y-115450000D03*
X99200000Y-112950000D03*
%TD*%
%TO.C,D2*%
X97300000Y-115450000D03*
X97300000Y-112950000D03*
%TD*%
%TO.C,D1*%
X90100000Y-129650000D03*
X90100000Y-127150000D03*
%TD*%
%TO.C,C16*%
G36*
G01*
X88475000Y-178650000D02*
X87525000Y-178650000D01*
G75*
G02*
X87275000Y-178400000I0J250000D01*
G01*
X87275000Y-177725000D01*
G75*
G02*
X87525000Y-177475000I250000J0D01*
G01*
X88475000Y-177475000D01*
G75*
G02*
X88725000Y-177725000I0J-250000D01*
G01*
X88725000Y-178400000D01*
G75*
G02*
X88475000Y-178650000I-250000J0D01*
G01*
G37*
G36*
G01*
X88475000Y-180725000D02*
X87525000Y-180725000D01*
G75*
G02*
X87275000Y-180475000I0J250000D01*
G01*
X87275000Y-179800000D01*
G75*
G02*
X87525000Y-179550000I250000J0D01*
G01*
X88475000Y-179550000D01*
G75*
G02*
X88725000Y-179800000I0J-250000D01*
G01*
X88725000Y-180475000D01*
G75*
G02*
X88475000Y-180725000I-250000J0D01*
G01*
G37*
%TD*%
%TO.C,C15*%
G36*
G01*
X99725000Y-182637500D02*
X99725000Y-182162500D01*
G75*
G02*
X99962500Y-181925000I237500J0D01*
G01*
X100562500Y-181925000D01*
G75*
G02*
X100800000Y-182162500I0J-237500D01*
G01*
X100800000Y-182637500D01*
G75*
G02*
X100562500Y-182875000I-237500J0D01*
G01*
X99962500Y-182875000D01*
G75*
G02*
X99725000Y-182637500I0J237500D01*
G01*
G37*
G36*
G01*
X98000000Y-182637500D02*
X98000000Y-182162500D01*
G75*
G02*
X98237500Y-181925000I237500J0D01*
G01*
X98837500Y-181925000D01*
G75*
G02*
X99075000Y-182162500I0J-237500D01*
G01*
X99075000Y-182637500D01*
G75*
G02*
X98837500Y-182875000I-237500J0D01*
G01*
X98237500Y-182875000D01*
G75*
G02*
X98000000Y-182637500I0J237500D01*
G01*
G37*
%TD*%
%TO.C,C14*%
G36*
G01*
X69475000Y-178650000D02*
X68525000Y-178650000D01*
G75*
G02*
X68275000Y-178400000I0J250000D01*
G01*
X68275000Y-177725000D01*
G75*
G02*
X68525000Y-177475000I250000J0D01*
G01*
X69475000Y-177475000D01*
G75*
G02*
X69725000Y-177725000I0J-250000D01*
G01*
X69725000Y-178400000D01*
G75*
G02*
X69475000Y-178650000I-250000J0D01*
G01*
G37*
G36*
G01*
X69475000Y-180725000D02*
X68525000Y-180725000D01*
G75*
G02*
X68275000Y-180475000I0J250000D01*
G01*
X68275000Y-179800000D01*
G75*
G02*
X68525000Y-179550000I250000J0D01*
G01*
X69475000Y-179550000D01*
G75*
G02*
X69725000Y-179800000I0J-250000D01*
G01*
X69725000Y-180475000D01*
G75*
G02*
X69475000Y-180725000I-250000J0D01*
G01*
G37*
%TD*%
%TO.C,C13*%
G36*
G01*
X80725000Y-182637500D02*
X80725000Y-182162500D01*
G75*
G02*
X80962500Y-181925000I237500J0D01*
G01*
X81562500Y-181925000D01*
G75*
G02*
X81800000Y-182162500I0J-237500D01*
G01*
X81800000Y-182637500D01*
G75*
G02*
X81562500Y-182875000I-237500J0D01*
G01*
X80962500Y-182875000D01*
G75*
G02*
X80725000Y-182637500I0J237500D01*
G01*
G37*
G36*
G01*
X79000000Y-182637500D02*
X79000000Y-182162500D01*
G75*
G02*
X79237500Y-181925000I237500J0D01*
G01*
X79837500Y-181925000D01*
G75*
G02*
X80075000Y-182162500I0J-237500D01*
G01*
X80075000Y-182637500D01*
G75*
G02*
X79837500Y-182875000I-237500J0D01*
G01*
X79237500Y-182875000D01*
G75*
G02*
X79000000Y-182637500I0J237500D01*
G01*
G37*
%TD*%
%TO.C,C12*%
G36*
G01*
X89625000Y-75350000D02*
X90575000Y-75350000D01*
G75*
G02*
X90825000Y-75600000I0J-250000D01*
G01*
X90825000Y-76275000D01*
G75*
G02*
X90575000Y-76525000I-250000J0D01*
G01*
X89625000Y-76525000D01*
G75*
G02*
X89375000Y-76275000I0J250000D01*
G01*
X89375000Y-75600000D01*
G75*
G02*
X89625000Y-75350000I250000J0D01*
G01*
G37*
G36*
G01*
X89625000Y-73275000D02*
X90575000Y-73275000D01*
G75*
G02*
X90825000Y-73525000I0J-250000D01*
G01*
X90825000Y-74200000D01*
G75*
G02*
X90575000Y-74450000I-250000J0D01*
G01*
X89625000Y-74450000D01*
G75*
G02*
X89375000Y-74200000I0J250000D01*
G01*
X89375000Y-73525000D01*
G75*
G02*
X89625000Y-73275000I250000J0D01*
G01*
G37*
%TD*%
%TO.C,C11*%
G36*
G01*
X98325000Y-82037500D02*
X98325000Y-81562500D01*
G75*
G02*
X98562500Y-81325000I237500J0D01*
G01*
X99162500Y-81325000D01*
G75*
G02*
X99400000Y-81562500I0J-237500D01*
G01*
X99400000Y-82037500D01*
G75*
G02*
X99162500Y-82275000I-237500J0D01*
G01*
X98562500Y-82275000D01*
G75*
G02*
X98325000Y-82037500I0J237500D01*
G01*
G37*
G36*
G01*
X96600000Y-82037500D02*
X96600000Y-81562500D01*
G75*
G02*
X96837500Y-81325000I237500J0D01*
G01*
X97437500Y-81325000D01*
G75*
G02*
X97675000Y-81562500I0J-237500D01*
G01*
X97675000Y-82037500D01*
G75*
G02*
X97437500Y-82275000I-237500J0D01*
G01*
X96837500Y-82275000D01*
G75*
G02*
X96600000Y-82037500I0J237500D01*
G01*
G37*
%TD*%
%TO.C,C10*%
G36*
G01*
X88475000Y-102650000D02*
X87525000Y-102650000D01*
G75*
G02*
X87275000Y-102400000I0J250000D01*
G01*
X87275000Y-101725000D01*
G75*
G02*
X87525000Y-101475000I250000J0D01*
G01*
X88475000Y-101475000D01*
G75*
G02*
X88725000Y-101725000I0J-250000D01*
G01*
X88725000Y-102400000D01*
G75*
G02*
X88475000Y-102650000I-250000J0D01*
G01*
G37*
G36*
G01*
X88475000Y-104725000D02*
X87525000Y-104725000D01*
G75*
G02*
X87275000Y-104475000I0J250000D01*
G01*
X87275000Y-103800000D01*
G75*
G02*
X87525000Y-103550000I250000J0D01*
G01*
X88475000Y-103550000D01*
G75*
G02*
X88725000Y-103800000I0J-250000D01*
G01*
X88725000Y-104475000D01*
G75*
G02*
X88475000Y-104725000I-250000J0D01*
G01*
G37*
%TD*%
%TO.C,C9*%
G36*
G01*
X99725000Y-106637500D02*
X99725000Y-106162500D01*
G75*
G02*
X99962500Y-105925000I237500J0D01*
G01*
X100562500Y-105925000D01*
G75*
G02*
X100800000Y-106162500I0J-237500D01*
G01*
X100800000Y-106637500D01*
G75*
G02*
X100562500Y-106875000I-237500J0D01*
G01*
X99962500Y-106875000D01*
G75*
G02*
X99725000Y-106637500I0J237500D01*
G01*
G37*
G36*
G01*
X98000000Y-106637500D02*
X98000000Y-106162500D01*
G75*
G02*
X98237500Y-105925000I237500J0D01*
G01*
X98837500Y-105925000D01*
G75*
G02*
X99075000Y-106162500I0J-237500D01*
G01*
X99075000Y-106637500D01*
G75*
G02*
X98837500Y-106875000I-237500J0D01*
G01*
X98237500Y-106875000D01*
G75*
G02*
X98000000Y-106637500I0J237500D01*
G01*
G37*
%TD*%
%TO.C,C8*%
G36*
G01*
X89625000Y-113350000D02*
X90575000Y-113350000D01*
G75*
G02*
X90825000Y-113600000I0J-250000D01*
G01*
X90825000Y-114275000D01*
G75*
G02*
X90575000Y-114525000I-250000J0D01*
G01*
X89625000Y-114525000D01*
G75*
G02*
X89375000Y-114275000I0J250000D01*
G01*
X89375000Y-113600000D01*
G75*
G02*
X89625000Y-113350000I250000J0D01*
G01*
G37*
G36*
G01*
X89625000Y-111275000D02*
X90575000Y-111275000D01*
G75*
G02*
X90825000Y-111525000I0J-250000D01*
G01*
X90825000Y-112200000D01*
G75*
G02*
X90575000Y-112450000I-250000J0D01*
G01*
X89625000Y-112450000D01*
G75*
G02*
X89375000Y-112200000I0J250000D01*
G01*
X89375000Y-111525000D01*
G75*
G02*
X89625000Y-111275000I250000J0D01*
G01*
G37*
%TD*%
%TO.C,C7*%
G36*
G01*
X98325000Y-120037500D02*
X98325000Y-119562500D01*
G75*
G02*
X98562500Y-119325000I237500J0D01*
G01*
X99162500Y-119325000D01*
G75*
G02*
X99400000Y-119562500I0J-237500D01*
G01*
X99400000Y-120037500D01*
G75*
G02*
X99162500Y-120275000I-237500J0D01*
G01*
X98562500Y-120275000D01*
G75*
G02*
X98325000Y-120037500I0J237500D01*
G01*
G37*
G36*
G01*
X96600000Y-120037500D02*
X96600000Y-119562500D01*
G75*
G02*
X96837500Y-119325000I237500J0D01*
G01*
X97437500Y-119325000D01*
G75*
G02*
X97675000Y-119562500I0J-237500D01*
G01*
X97675000Y-120037500D01*
G75*
G02*
X97437500Y-120275000I-237500J0D01*
G01*
X96837500Y-120275000D01*
G75*
G02*
X96600000Y-120037500I0J237500D01*
G01*
G37*
%TD*%
%TO.C,C6*%
G36*
G01*
X88475000Y-140650000D02*
X87525000Y-140650000D01*
G75*
G02*
X87275000Y-140400000I0J250000D01*
G01*
X87275000Y-139725000D01*
G75*
G02*
X87525000Y-139475000I250000J0D01*
G01*
X88475000Y-139475000D01*
G75*
G02*
X88725000Y-139725000I0J-250000D01*
G01*
X88725000Y-140400000D01*
G75*
G02*
X88475000Y-140650000I-250000J0D01*
G01*
G37*
G36*
G01*
X88475000Y-142725000D02*
X87525000Y-142725000D01*
G75*
G02*
X87275000Y-142475000I0J250000D01*
G01*
X87275000Y-141800000D01*
G75*
G02*
X87525000Y-141550000I250000J0D01*
G01*
X88475000Y-141550000D01*
G75*
G02*
X88725000Y-141800000I0J-250000D01*
G01*
X88725000Y-142475000D01*
G75*
G02*
X88475000Y-142725000I-250000J0D01*
G01*
G37*
%TD*%
%TO.C,C5*%
G36*
G01*
X99725000Y-144637500D02*
X99725000Y-144162500D01*
G75*
G02*
X99962500Y-143925000I237500J0D01*
G01*
X100562500Y-143925000D01*
G75*
G02*
X100800000Y-144162500I0J-237500D01*
G01*
X100800000Y-144637500D01*
G75*
G02*
X100562500Y-144875000I-237500J0D01*
G01*
X99962500Y-144875000D01*
G75*
G02*
X99725000Y-144637500I0J237500D01*
G01*
G37*
G36*
G01*
X98000000Y-144637500D02*
X98000000Y-144162500D01*
G75*
G02*
X98237500Y-143925000I237500J0D01*
G01*
X98837500Y-143925000D01*
G75*
G02*
X99075000Y-144162500I0J-237500D01*
G01*
X99075000Y-144637500D01*
G75*
G02*
X98837500Y-144875000I-237500J0D01*
G01*
X98237500Y-144875000D01*
G75*
G02*
X98000000Y-144637500I0J237500D01*
G01*
G37*
%TD*%
%TO.C,C4*%
G36*
G01*
X139825000Y-137537500D02*
X139825000Y-137062500D01*
G75*
G02*
X140062500Y-136825000I237500J0D01*
G01*
X140662500Y-136825000D01*
G75*
G02*
X140900000Y-137062500I0J-237500D01*
G01*
X140900000Y-137537500D01*
G75*
G02*
X140662500Y-137775000I-237500J0D01*
G01*
X140062500Y-137775000D01*
G75*
G02*
X139825000Y-137537500I0J237500D01*
G01*
G37*
G36*
G01*
X138100000Y-137537500D02*
X138100000Y-137062500D01*
G75*
G02*
X138337500Y-136825000I237500J0D01*
G01*
X138937500Y-136825000D01*
G75*
G02*
X139175000Y-137062500I0J-237500D01*
G01*
X139175000Y-137537500D01*
G75*
G02*
X138937500Y-137775000I-237500J0D01*
G01*
X138337500Y-137775000D01*
G75*
G02*
X138100000Y-137537500I0J237500D01*
G01*
G37*
%TD*%
%TO.C,C3*%
G36*
G01*
X104425000Y-170162500D02*
X104425000Y-170637500D01*
G75*
G02*
X104187500Y-170875000I-237500J0D01*
G01*
X103587500Y-170875000D01*
G75*
G02*
X103350000Y-170637500I0J237500D01*
G01*
X103350000Y-170162500D01*
G75*
G02*
X103587500Y-169925000I237500J0D01*
G01*
X104187500Y-169925000D01*
G75*
G02*
X104425000Y-170162500I0J-237500D01*
G01*
G37*
G36*
G01*
X106150000Y-170162500D02*
X106150000Y-170637500D01*
G75*
G02*
X105912500Y-170875000I-237500J0D01*
G01*
X105312500Y-170875000D01*
G75*
G02*
X105075000Y-170637500I0J237500D01*
G01*
X105075000Y-170162500D01*
G75*
G02*
X105312500Y-169925000I237500J0D01*
G01*
X105912500Y-169925000D01*
G75*
G02*
X106150000Y-170162500I0J-237500D01*
G01*
G37*
%TD*%
%TO.C,C2*%
G36*
G01*
X69662500Y-154325000D02*
X70137500Y-154325000D01*
G75*
G02*
X70375000Y-154562500I0J-237500D01*
G01*
X70375000Y-155162500D01*
G75*
G02*
X70137500Y-155400000I-237500J0D01*
G01*
X69662500Y-155400000D01*
G75*
G02*
X69425000Y-155162500I0J237500D01*
G01*
X69425000Y-154562500D01*
G75*
G02*
X69662500Y-154325000I237500J0D01*
G01*
G37*
G36*
G01*
X69662500Y-152600000D02*
X70137500Y-152600000D01*
G75*
G02*
X70375000Y-152837500I0J-237500D01*
G01*
X70375000Y-153437500D01*
G75*
G02*
X70137500Y-153675000I-237500J0D01*
G01*
X69662500Y-153675000D01*
G75*
G02*
X69425000Y-153437500I0J237500D01*
G01*
X69425000Y-152837500D01*
G75*
G02*
X69662500Y-152600000I237500J0D01*
G01*
G37*
%TD*%
%TO.C,C1*%
G36*
G01*
X139825000Y-149337500D02*
X139825000Y-148862500D01*
G75*
G02*
X140062500Y-148625000I237500J0D01*
G01*
X140662500Y-148625000D01*
G75*
G02*
X140900000Y-148862500I0J-237500D01*
G01*
X140900000Y-149337500D01*
G75*
G02*
X140662500Y-149575000I-237500J0D01*
G01*
X140062500Y-149575000D01*
G75*
G02*
X139825000Y-149337500I0J237500D01*
G01*
G37*
G36*
G01*
X138100000Y-149337500D02*
X138100000Y-148862500D01*
G75*
G02*
X138337500Y-148625000I237500J0D01*
G01*
X138937500Y-148625000D01*
G75*
G02*
X139175000Y-148862500I0J-237500D01*
G01*
X139175000Y-149337500D01*
G75*
G02*
X138937500Y-149575000I-237500J0D01*
G01*
X138337500Y-149575000D01*
G75*
G02*
X138100000Y-149337500I0J237500D01*
G01*
G37*
%TD*%
M02*
